<svg width="300" height="64" viewBox="0 0 300 64" fill="none" xmlns="http://www.w3.org/2000/svg">
<g clip-path="url(#clip0_19_80)">
<rect width="300" height="64" fill="#182534"/>
<g filter="url(#filter0_d_19_80)">
<path d="M114.872 18.5V16.9883L120.122 2.50391H123.087L128.302 16.9883V18.5H114.872ZM121.517 5.38672L117.661 16.4609H125.419L121.611 5.38672H121.517ZM145.426 7.50781H142.825C142.602 5.65625 141.301 4.46094 139.251 4.46094C136.766 4.46094 135.325 6.24219 135.325 9.28906V11.5039C135.325 14.6211 136.626 16.543 139.333 16.543C141.501 16.543 142.919 15.1953 142.919 13.3672V12.1133H139.239V10.0156H145.462V13.25C145.462 16.3203 143.106 18.8164 139.298 18.8164C134.868 18.8164 132.665 15.9922 132.665 11.5156V9.27734C132.665 4.94141 135.09 2.1875 139.262 2.1875C142.965 2.1875 145.262 4.47266 145.426 7.50781ZM153.715 18.5H151.055V2.50391H153.715V18.5ZM169.667 16.1914V18.5H159.952V2.50391H162.613V16.1914H169.667ZM184.413 16.2617V18.5H174.428V2.50391H184.413V4.74219H177.077V9.30078H183.991V11.4453H177.077V16.2617H184.413ZM78.1083 38.2617V40.5H68.1239V24.5039H78.1083V26.7422H70.7723V31.3008H77.6864V33.4453H70.7723V38.2617H78.1083ZM86.3264 40.5H83.8186V24.5039H86.1623L93.7209 35.9883H93.803V24.5039H96.2991V40.5H93.9788L86.3967 28.9805H86.3264V40.5ZM101.306 40.5V38.9883L106.556 24.5039H109.521L114.736 38.9883V40.5H101.306ZM107.951 27.3867L104.095 38.4609H111.853L108.045 27.3867H107.951ZM119.731 40.5V24.5039H126.106C128.895 24.5039 130.7 26.0039 130.7 28.4414C130.7 30.3164 129.645 31.5117 128.052 31.957V32.0742C130.067 32.3086 131.567 33.6797 131.567 36C131.567 38.8359 129.329 40.5 125.989 40.5H119.731ZM122.38 26.6133V31.2656H124.63C127.009 31.2656 128.063 30.4688 128.063 28.8867C128.063 27.4688 127.138 26.6133 125.556 26.6133H122.38ZM122.38 33.2695V38.3906H124.923C127.724 38.3906 128.86 37.5938 128.86 35.9062C128.86 34.2539 127.747 33.2695 125.767 33.2695H122.38ZM146.641 38.1914V40.5H136.926V24.5039H139.586V38.1914H146.641ZM161.386 38.2617V40.5H151.402V24.5039H161.386V26.7422H154.05V31.3008H160.965V33.4453H154.05V38.2617H161.386ZM169.534 40.5H167.144V24.5039H169.815L174.702 35.7539H174.784L179.671 24.5039H182.331V40.5H179.929V29.4492H179.823L175.687 38.8008H173.776L169.628 29.4492H169.534V40.5ZM198.588 38.2617V40.5H188.604V24.5039H198.588V26.7422H191.252V31.3008H198.166V33.4453H191.252V38.2617H198.588ZM206.806 40.5H204.299V24.5039H206.642L214.201 35.9883H214.283V24.5039H216.779V40.5H214.459L206.877 28.9805H206.806V40.5ZM228.759 40.5H226.122V26.7773H221.423V24.5039H233.458V26.7773H228.759V40.5ZM124.114 62.5H121.478V48.7773H116.778V46.5039H128.813V48.7773H124.114V62.5ZM143.442 60.2617V62.5H133.457V46.5039H143.442V48.7422H136.106V53.3008H143.02V55.4453H136.106V60.2617H143.442ZM147.922 62.5V60.9883L153.172 46.5039H156.136L161.351 60.9883V62.5H147.922ZM154.566 49.3867L150.711 60.4609H158.468L154.66 49.3867H154.566ZM168.784 62.5H166.394V46.5039H169.065L173.952 57.7539H174.034L178.921 46.5039H181.581V62.5H179.179V51.4492H179.073L174.937 60.8008H173.026L168.878 51.4492H168.784V62.5Z" fill="white"/>
</g>
</g>
<defs>
<filter id="filter0_d_19_80" x="67.6239" y="1.6875" width="167.334" height="62.3125" filterUnits="userSpaceOnUse" color-interpolation-filters="sRGB">
<feFlood flood-opacity="0" result="BackgroundImageFix"/>
<feColorMatrix in="SourceAlpha" type="matrix" values="0 0 0 0 0 0 0 0 0 0 0 0 0 0 0 0 0 0 127 0" result="hardAlpha"/>
<feOffset dx="0.5" dy="0.5"/>
<feGaussianBlur stdDeviation="0.5"/>
<feComposite in2="hardAlpha" operator="out"/>
<feColorMatrix type="matrix" values="0 0 0 0 0.0784314 0 0 0 0 0.0980392 0 0 0 0 0.121569 0 0 0 1 0"/>
<feBlend mode="normal" in2="BackgroundImageFix" result="effect1_dropShadow_19_80"/>
<feBlend mode="normal" in="SourceGraphic" in2="effect1_dropShadow_19_80" result="shape"/>
</filter>
<clipPath id="clip0_19_80">
<rect width="300" height="64" fill="white"/>
</clipPath>
</defs>
</svg>
