<svg width="300" height="64" viewBox="0 0 300 64" fill="none" xmlns="http://www.w3.org/2000/svg">
<g clip-path="url(#clip0_17_102)">
<rect x="45.9238" y="32" width="147.186" height="147.186" transform="rotate(-45 45.9238 32)" fill="#182534"/>
<g filter="url(#filter0_d_17_102)">
<path d="M115.516 18.5C115.405 18.5 115.316 18.4105 115.316 18.3V17.0234C115.316 17.0002 115.32 16.9771 115.328 16.9553L120.518 2.63575C120.547 2.55661 120.622 2.50391 120.706 2.50391H123.39C123.474 2.50391 123.55 2.55681 123.578 2.63616L128.734 16.9554C128.741 16.9772 128.745 17.0001 128.745 17.0232V18.3C128.745 18.4105 128.656 18.5 128.545 18.5H115.516ZM122.007 5.38672C121.979 5.38672 121.954 5.40445 121.945 5.4309L118.197 16.1952C118.152 16.3252 118.249 16.4609 118.386 16.4609H125.582C125.72 16.4609 125.816 16.3257 125.771 16.1959L122.069 5.43113C122.06 5.40456 122.035 5.38672 122.007 5.38672V5.38672Z" fill="white"/>
<path d="M145.255 7.29689C145.265 7.41115 145.173 7.50781 145.059 7.50781H142.846C142.744 7.50781 142.66 7.43205 142.644 7.33211C142.362 5.58098 141.079 4.46094 139.094 4.46094C136.61 4.46094 135.168 6.24219 135.168 9.28906V11.5039C135.168 14.6211 136.469 16.543 139.176 16.543C141.344 16.543 142.762 15.1953 142.762 13.3672V12.3133C142.762 12.2028 142.672 12.1133 142.562 12.1133H139.282C139.172 12.1133 139.082 12.0237 139.082 11.9133V10.2156C139.082 10.1052 139.172 10.0156 139.282 10.0156H145.105C145.215 10.0156 145.305 10.1052 145.305 10.2156V13.25C145.305 16.3203 142.95 18.8164 139.141 18.8164C134.711 18.8164 132.508 15.9922 132.508 11.5156V9.27734C132.508 4.94141 134.934 2.1875 139.106 2.1875C142.723 2.1875 144.998 4.36741 145.255 7.29689Z" fill="white"/>
<path d="M153.558 18.3C153.558 18.4105 153.469 18.5 153.358 18.5H151.098C150.988 18.5 150.898 18.4105 150.898 18.3V2.70391C150.898 2.59345 150.988 2.50391 151.098 2.50391H153.358C153.469 2.50391 153.558 2.59345 153.558 2.70391V18.3Z" fill="white"/>
<path d="M169.311 16.1914C169.421 16.1914 169.511 16.2809 169.511 16.3914V18.3C169.511 18.4105 169.421 18.5 169.311 18.5H159.996C159.885 18.5 159.796 18.4105 159.796 18.3V2.70391C159.796 2.59345 159.885 2.50391 159.996 2.50391H162.256C162.367 2.50391 162.456 2.59345 162.456 2.70391V15.9914C162.456 16.1019 162.546 16.1914 162.656 16.1914H169.311Z" fill="white"/>
<path d="M183.769 16.2617C183.88 16.2617 183.969 16.3513 183.969 16.4617V18.3C183.969 18.4105 183.88 18.5 183.769 18.5H174.185C174.075 18.5 173.985 18.4105 173.985 18.3V2.70391C173.985 2.59345 174.075 2.50391 174.185 2.50391H183.769C183.88 2.50391 183.969 2.59345 183.969 2.70391V4.54219C183.969 4.65264 183.88 4.74219 183.769 4.74219H176.833C176.723 4.74219 176.633 4.83173 176.633 4.94219V9.10078C176.633 9.21124 176.723 9.30078 176.833 9.30078H183.347C183.458 9.30078 183.547 9.39032 183.547 9.50078V11.2453C183.547 11.3558 183.458 11.4453 183.347 11.4453H176.833C176.723 11.4453 176.633 11.5349 176.633 11.6453V16.0617C176.633 16.1722 176.723 16.2617 176.833 16.2617H183.769Z" fill="white"/>
<path d="M78.6517 38.2617C78.7621 38.2617 78.8517 38.3513 78.8517 38.4617V40.3C78.8517 40.4105 78.7621 40.5 78.6517 40.5H69.0673C68.9569 40.5 68.8673 40.4105 68.8673 40.3V24.7039C68.8673 24.5934 68.9569 24.5039 69.0673 24.5039H78.6517C78.7621 24.5039 78.8517 24.5934 78.8517 24.7039V26.5422C78.8517 26.6526 78.7621 26.7422 78.6517 26.7422H71.7157C71.6053 26.7422 71.5157 26.8317 71.5157 26.9422V31.1008C71.5157 31.2112 71.6053 31.3008 71.7157 31.3008H78.2298C78.3403 31.3008 78.4298 31.3903 78.4298 31.5008V33.2453C78.4298 33.3558 78.3403 33.4453 78.2298 33.4453H71.7157C71.6053 33.4453 71.5157 33.5349 71.5157 33.6453V38.0617C71.5157 38.1722 71.6053 38.2617 71.7157 38.2617H78.6517Z" fill="white"/>
<path d="M87.0698 40.3C87.0698 40.4105 86.9803 40.5 86.8698 40.5H84.762C84.6515 40.5 84.562 40.4105 84.562 40.3V24.7039C84.562 24.5934 84.6515 24.5039 84.762 24.5039H86.7979C86.8652 24.5039 86.928 24.5377 86.965 24.594L94.4485 35.9643C94.4584 35.9793 94.4751 35.9883 94.4931 35.9883V35.9883C94.5225 35.9883 94.5464 35.9644 94.5464 35.935V24.7039C94.5464 24.5934 94.6359 24.5039 94.7464 24.5039H96.8425C96.9529 24.5039 97.0425 24.5934 97.0425 24.7039V40.3C97.0425 40.4105 96.9529 40.5 96.8425 40.5H94.8299C94.7627 40.5 94.6999 40.4662 94.6629 40.41L87.1537 29.001C87.1452 28.9882 87.1309 28.9805 87.1155 28.9805V28.9805C87.0903 28.9805 87.0698 29.0009 87.0698 29.0262V40.3Z" fill="white"/>
<path d="M101.77 40.5C101.659 40.5 101.57 40.4105 101.57 40.3V39.0234C101.57 39.0002 101.574 38.9771 101.582 38.9553L106.772 24.6358C106.801 24.5566 106.876 24.5039 106.96 24.5039H109.644C109.728 24.5039 109.804 24.5568 109.832 24.6362L114.988 38.9554C114.995 38.9772 114.999 39.0001 114.999 39.0232V40.3C114.999 40.4105 114.91 40.5 114.799 40.5H101.77ZM108.261 27.3867C108.233 27.3867 108.208 27.4044 108.199 27.4309L104.451 38.1952C104.406 38.3252 104.502 38.4609 104.64 38.4609H111.836C111.974 38.4609 112.07 38.3257 112.025 38.1959L108.323 27.4311C108.314 27.4046 108.289 27.3867 108.261 27.3867V27.3867Z" fill="white"/>
<path d="M119.715 40.5C119.604 40.5 119.515 40.4105 119.515 40.3V24.7039C119.515 24.5934 119.604 24.5039 119.715 24.5039H125.89C128.679 24.5039 130.484 26.0039 130.484 28.4414C130.484 30.2959 129.452 31.4855 127.887 31.9422C127.857 31.9511 127.835 31.9791 127.835 32.011V32.011C127.835 32.047 127.862 32.0773 127.898 32.0819C129.882 32.3374 131.351 33.7039 131.351 36C131.351 38.8359 129.112 40.5 125.773 40.5H119.715ZM122.363 26.6133C122.253 26.6133 122.163 26.7028 122.163 26.8133V31.0656C122.163 31.1761 122.253 31.2656 122.363 31.2656H124.413C126.792 31.2656 127.847 30.4688 127.847 28.8867C127.847 27.4688 126.921 26.6133 125.339 26.6133H122.363ZM122.363 33.2695C122.253 33.2695 122.163 33.3591 122.163 33.4695V38.1906C122.163 38.3011 122.253 38.3906 122.363 38.3906H124.706C127.507 38.3906 128.644 37.5938 128.644 35.9062C128.644 34.2539 127.53 33.2695 125.55 33.2695H122.363Z" fill="white"/>
<path d="M146.224 38.1914C146.335 38.1914 146.424 38.2809 146.424 38.3914V40.3C146.424 40.4105 146.335 40.5 146.224 40.5H136.909C136.799 40.5 136.709 40.4105 136.709 40.3V24.7039C136.709 24.5934 136.799 24.5039 136.909 24.5039H139.17C139.28 24.5039 139.37 24.5934 139.37 24.7039V37.9914C139.37 38.1019 139.459 38.1914 139.57 38.1914H146.224Z" fill="white"/>
<path d="M160.683 38.2617C160.793 38.2617 160.883 38.3513 160.883 38.4617V40.3C160.883 40.4105 160.793 40.5 160.683 40.5H151.099C150.988 40.5 150.899 40.4105 150.899 40.3V24.7039C150.899 24.5934 150.988 24.5039 151.099 24.5039H160.683C160.793 24.5039 160.883 24.5934 160.883 24.7039V26.5422C160.883 26.6526 160.793 26.7422 160.683 26.7422H153.747C153.637 26.7422 153.547 26.8317 153.547 26.9422V31.1008C153.547 31.2112 153.637 31.3008 153.747 31.3008H160.261C160.372 31.3008 160.461 31.3903 160.461 31.5008V33.2453C160.461 33.3558 160.372 33.4453 160.261 33.4453H153.747C153.637 33.4453 153.547 33.5349 153.547 33.6453V38.0617C153.547 38.1722 153.637 38.2617 153.747 38.2617H160.683Z" fill="white"/>
<path d="M169.031 40.3C169.031 40.4105 168.941 40.5 168.831 40.5H166.84C166.73 40.5 166.64 40.4105 166.64 40.3V24.7039C166.64 24.5934 166.73 24.5039 166.84 24.5039H169.181C169.26 24.5039 169.333 24.5512 169.364 24.6242L174.182 35.7163C174.192 35.7391 174.215 35.7539 174.24 35.7539V35.7539C174.265 35.7539 174.287 35.7391 174.297 35.7163L179.115 24.6242C179.147 24.5512 179.219 24.5039 179.299 24.5039H181.628C181.738 24.5039 181.828 24.5934 181.828 24.7039V40.3C181.828 40.4105 181.738 40.5 181.628 40.5H179.625C179.515 40.5 179.425 40.4105 179.425 40.3V29.5131C179.425 29.4778 179.397 29.4492 179.361 29.4492V29.4492C179.336 29.4492 179.313 29.4641 179.303 29.4873L175.236 38.6817C175.204 38.7541 175.132 38.8008 175.053 38.8008H173.403C173.324 38.8008 173.252 38.7542 173.22 38.6819L169.139 29.483C169.13 29.4625 169.11 29.4492 169.088 29.4492V29.4492C169.056 29.4492 169.031 29.4747 169.031 29.506V40.3Z" fill="white"/>
<path d="M197.885 38.2617C197.995 38.2617 198.085 38.3513 198.085 38.4617V40.3C198.085 40.4105 197.995 40.5 197.885 40.5H188.3C188.19 40.5 188.1 40.4105 188.1 40.3V24.7039C188.1 24.5934 188.19 24.5039 188.3 24.5039H197.885C197.995 24.5039 198.085 24.5934 198.085 24.7039V26.5422C198.085 26.6526 197.995 26.7422 197.885 26.7422H190.949C190.838 26.7422 190.749 26.8317 190.749 26.9422V31.1008C190.749 31.2112 190.838 31.3008 190.949 31.3008H197.463C197.573 31.3008 197.663 31.3903 197.663 31.5008V33.2453C197.663 33.3558 197.573 33.4453 197.463 33.4453H190.949C190.838 33.4453 190.749 33.5349 190.749 33.6453V38.0617C190.749 38.1722 190.838 38.2617 190.949 38.2617H197.885Z" fill="white"/>
<path d="M206.303 40.3C206.303 40.4105 206.213 40.5 206.103 40.5H203.995C203.885 40.5 203.795 40.4105 203.795 40.3V24.7039C203.795 24.5934 203.885 24.5039 203.995 24.5039H206.031C206.098 24.5039 206.161 24.5377 206.198 24.594L213.682 35.9643C213.692 35.9793 213.708 35.9883 213.726 35.9883V35.9883C213.756 35.9883 213.779 35.9644 213.779 35.935V24.7039C213.779 24.5934 213.869 24.5039 213.979 24.5039H216.076C216.186 24.5039 216.276 24.5934 216.276 24.7039V40.3C216.276 40.4105 216.186 40.5 216.076 40.5H214.063C213.996 40.5 213.933 40.4662 213.896 40.41L206.387 29.001C206.378 28.9882 206.364 28.9805 206.349 28.9805V28.9805C206.323 28.9805 206.303 29.0009 206.303 29.0262V40.3Z" fill="white"/>
<path d="M228.015 40.3C228.015 40.4105 227.926 40.5 227.815 40.5H225.579C225.468 40.5 225.379 40.4105 225.379 40.3V26.9773C225.379 26.8669 225.289 26.7773 225.179 26.7773H220.88C220.769 26.7773 220.68 26.6878 220.68 26.5773V24.7039C220.68 24.5934 220.769 24.5039 220.88 24.5039H232.515C232.625 24.5039 232.715 24.5934 232.715 24.7039V26.5773C232.715 26.6878 232.625 26.7773 232.515 26.7773H228.215C228.105 26.7773 228.015 26.8669 228.015 26.9773V40.3Z" fill="white"/>
<path d="M124.774 62.3C124.774 62.4105 124.685 62.5 124.574 62.5H122.337C122.227 62.5 122.137 62.4105 122.137 62.3V48.9773C122.137 48.8669 122.048 48.7773 121.937 48.7773H117.638C117.528 48.7773 117.438 48.6878 117.438 48.5773V46.7039C117.438 46.5934 117.528 46.5039 117.638 46.5039H129.273C129.384 46.5039 129.473 46.5934 129.473 46.7039V48.5773C129.473 48.6878 129.384 48.7773 129.273 48.7773H124.974C124.864 48.7773 124.774 48.8669 124.774 48.9773V62.3Z" fill="white"/>
<path d="M143.422 60.2617C143.532 60.2617 143.622 60.3513 143.622 60.4617V62.3C143.622 62.4105 143.532 62.5 143.422 62.5H133.837C133.727 62.5 133.637 62.4105 133.637 62.3V46.7039C133.637 46.5934 133.727 46.5039 133.837 46.5039H143.422C143.532 46.5039 143.622 46.5934 143.622 46.7039V48.5422C143.622 48.6526 143.532 48.7422 143.422 48.7422H136.486C136.375 48.7422 136.286 48.8317 136.286 48.9422V53.1008C136.286 53.2112 136.375 53.3008 136.486 53.3008H143C143.11 53.3008 143.2 53.3903 143.2 53.5008V55.2453C143.2 55.3558 143.11 55.4453 143 55.4453H136.486C136.375 55.4453 136.286 55.5349 136.286 55.6453V60.0617C136.286 60.1722 136.375 60.2617 136.486 60.2617H143.422Z" fill="white"/>
<path d="M147.822 62.5C147.711 62.5 147.622 62.4105 147.622 62.3V61.0234C147.622 61.0002 147.626 60.9771 147.634 60.9553L152.824 46.6358C152.852 46.5566 152.928 46.5039 153.012 46.5039H155.696C155.78 46.5039 155.855 46.5568 155.884 46.6362L161.039 60.9554C161.047 60.9772 161.051 61.0001 161.051 61.0232V62.3C161.051 62.4105 160.962 62.5 160.851 62.5H147.822ZM154.313 49.3867C154.285 49.3867 154.26 49.4044 154.251 49.4309L150.503 60.1952C150.458 60.3252 150.554 60.4609 150.692 60.4609H157.888C158.025 60.4609 158.122 60.3257 158.077 60.1959L154.375 49.4311C154.366 49.4046 154.341 49.3867 154.313 49.3867V49.3867Z" fill="white"/>
<path d="M168.124 62.3C168.124 62.4105 168.035 62.5 167.924 62.5H165.934C165.823 62.5 165.734 62.4105 165.734 62.3V46.7039C165.734 46.5934 165.823 46.5039 165.934 46.5039H168.274C168.354 46.5039 168.426 46.5512 168.458 46.6242L173.276 57.7163C173.286 57.7391 173.308 57.7539 173.333 57.7539V57.7539C173.358 57.7539 173.381 57.7391 173.391 57.7163L178.209 46.6242C178.24 46.5512 178.312 46.5039 178.392 46.5039H180.721C180.832 46.5039 180.921 46.5934 180.921 46.7039V62.3C180.921 62.4105 180.832 62.5 180.721 62.5H178.719C178.608 62.5 178.519 62.4105 178.519 62.3V51.5131C178.519 51.4778 178.49 51.4492 178.455 51.4492V51.4492C178.43 51.4492 178.407 51.4641 178.396 51.4873L174.329 60.6817C174.297 60.7541 174.225 60.8008 174.146 60.8008H172.496C172.417 60.8008 172.346 60.7542 172.314 60.6819L168.233 51.483C168.224 51.4625 168.203 51.4492 168.181 51.4492V51.4492C168.15 51.4492 168.124 51.4747 168.124 51.506V62.3Z" fill="white"/>
</g>
</g>
<defs>
<filter id="filter0_d_17_102" x="68.3673" y="1.6875" width="165.847" height="62.3125" filterUnits="userSpaceOnUse" color-interpolation-filters="sRGB">
<feFlood flood-opacity="0" result="BackgroundImageFix"/>
<feColorMatrix in="SourceAlpha" type="matrix" values="0 0 0 0 0 0 0 0 0 0 0 0 0 0 0 0 0 0 127 0" result="hardAlpha"/>
<feOffset dx="0.5" dy="0.5"/>
<feGaussianBlur stdDeviation="0.5"/>
<feComposite in2="hardAlpha" operator="out"/>
<feColorMatrix type="matrix" values="0 0 0 0 0.0784314 0 0 0 0 0.0980392 0 0 0 0 0.121569 0 0 0 1 0"/>
<feBlend mode="normal" in2="BackgroundImageFix" result="effect1_dropShadow_17_102"/>
<feBlend mode="normal" in="SourceGraphic" in2="effect1_dropShadow_17_102" result="shape"/>
</filter>
<clipPath id="clip0_17_102">
<rect width="300" height="64" fill="white"/>
</clipPath>
</defs>
</svg>
