<svg width="64" height="64" viewBox="0 0 64 64" fill="none" xmlns="http://www.w3.org/2000/svg">
<g clip-path="url(#clip0_3_83)">
<rect x="0.000366211" y="-0.305237" width="64" height="64" fill="#182534"/>
<path d="M6.27374 63.098V49.8773H1.46124V47.2523H14.4905V49.8773H9.67804V63.098H6.27374Z" fill="#00C7A5"/>
<path d="M16.1702 63.098V47.2523H27.1214V49.8773H19.5745V53.8421H26.6975V56.3304H19.5745V60.473H27.1214V63.098H16.1702Z" fill="#00C7A5"/>
<path d="M28.6503 63.098V61.2659L34.037 47.2523H38.0155L43.4022 61.2659V63.098H28.6503ZM32.2323 60.473H39.5741V60.3909L35.9511 50.1097H35.8827L32.2323 60.3909V60.473Z" fill="#00C7A5"/>
<path d="M45.0799 63.098V47.2523H49.0174L53.7752 58.8734H53.8436L58.6014 47.2523H62.5388V63.098H59.5037V52.2151H59.449L54.8963 63.098H52.7361L48.1697 52.2151H48.1287V63.098H45.0799Z" fill="#00C7A5"/>
<path d="M16.3027 41.4626C7.50781 41.4626 1.94141 36.7497 1.94141 29.6618V29.5876C1.94141 22.7595 7.24805 18.7146 16.8223 18.195L27.25 17.6384V15.115C27.25 10.6618 23.8359 7.50754 18.9746 7.50754C14.7812 7.50754 11.7754 9.58566 11.1074 12.8513L11.0332 13.1853H3.46289L3.5 12.74C4.09375 5.68918 10.3281 0.902069 19.0488 0.902069C25.2461 0.902069 30.0703 3.64816 32.0371 7.98996H32.334C34.9688 3.3884 39.5332 0.902069 45.4336 0.902069C55.4902 0.902069 62.0586 8.47238 62.0586 20.4216V23.1677H35.0059V23.6501C35.0059 30.4411 39.1621 34.9314 45.4336 34.9314C49.8496 34.9314 52.9668 32.4079 53.8945 29.5134L54.0059 29.2165H61.6504L61.5762 29.6618C60.3887 35.822 54.3027 41.4626 45.2852 41.4626C38.9766 41.4626 33.7441 38.4568 31.1465 33.4099H30.7754C27.6953 38.6052 22.6484 41.4626 16.3027 41.4626ZM35.0059 17.5642H54.043V17.5271C54.043 11.7009 50.2578 7.43332 44.6543 7.43332C39.125 7.43332 35.3398 11.8122 35.0059 17.49V17.5642ZM17.0078 35.0798C22.7598 35.0798 27.25 31.1091 27.25 26.0993V23.2048L17.7129 23.7614C12.666 24.0583 9.8457 26.0251 9.8457 29.3279V29.4021C9.8457 32.8161 12.7773 35.0798 17.0078 35.0798Z" fill="#00C7A5"/>
</g>
<defs>
<clipPath id="clip0_3_83">
<rect width="64" height="64" fill="white"/>
</clipPath>
</defs>
</svg>
