<svg width="228" height="124" viewBox="0 0 228 124" fill="none" xmlns="http://www.w3.org/2000/svg">
<rect width="228" height="124" fill="white"/>
<rect x="16.5" y="15.5" width="195" height="91" stroke="#020202" stroke-opacity="0.25"/>
<rect x="24" y="13" width="180" height="4" fill="white"/>
<rect x="24" y="105" width="180" height="4" fill="white"/>
<rect x="214" y="23" width="76" height="4" transform="rotate(90 214 23)" fill="white"/>
<rect x="18" y="23" width="76" height="4" transform="rotate(90 18 23)" fill="white"/>
<g filter="url(#filter0_d_93_31)">
<path d="M78.4481 47.1504V45.4746L83.5106 31.1543H87.2137L92.2294 45.4746V47.1504H78.4481ZM85.2215 34.3301L81.7294 44.7949H88.8075L85.3505 34.3301H85.2215Z" fill="black"/>
<path d="M108.818 36.2754H105.736C105.537 34.623 104.354 33.5098 102.455 33.5098C100.158 33.5098 98.8575 35.1504 98.8575 38.0098V40.1074C98.8575 42.9316 99.9708 44.8066 102.549 44.8066C104.576 44.8066 105.83 43.541 105.83 41.9121V40.8926H102.537V38.5371H108.842V41.7246C108.842 44.8066 106.592 47.4551 102.49 47.4551C97.838 47.4551 95.67 44.4785 95.67 40.1191V37.9863C95.67 33.6855 98.1309 30.8496 102.467 30.8496C106.416 30.8496 108.69 33.2988 108.818 36.2754Z" fill="black"/>
<path d="M117.16 47.1504H113.996V31.1543H117.16V47.1504Z" fill="black"/>
<path d="M132.907 44.4551V47.1504H122.958V31.1543H126.122V44.4551H132.907Z" fill="black"/>
<path d="M147.372 44.5605V47.1504H137.071V31.1543H147.372V33.7441H140.212V37.8457H146.939V40.2715H140.212V44.5605H147.372Z" fill="black"/>
<path d="M42.4551 66.5605V69.1504H32.1544V53.1543H42.4551V55.7441H35.295V59.8457H42.0215V62.2715H35.295V66.5605H42.4551Z" fill="black"/>
<path d="M50.7262 69.1504H47.7731V53.1543H50.4098L57.4997 63.7949H57.6051V53.1543H60.5583V69.1504H57.9333L50.82 58.4512H50.7262V69.1504Z" fill="black"/>
<path d="M64.7517 69.1504V67.4746L69.8142 53.1543H73.5173L78.533 67.4746V69.1504H64.7517ZM71.5251 56.3301L68.033 66.7949H75.1111L71.654 56.3301H71.5251Z" fill="black"/>
<path d="M82.7381 69.1504V53.1543H89.4061C92.2655 53.1543 94.1405 54.6426 94.1405 57.0918C94.1405 59.0371 92.9803 60.209 91.3983 60.5957V60.7363C93.3201 60.9238 94.9608 62.2363 94.9608 64.6387C94.9608 67.498 92.6405 69.1504 89.3944 69.1504H82.7381ZM85.8787 55.5332V59.8105H87.9647C90.0858 59.8105 91.0233 59.0254 91.0233 57.6309C91.0233 56.3301 90.1561 55.5332 88.6795 55.5332H85.8787ZM85.8787 62.0137V66.7715H88.2225C90.7186 66.7715 91.7381 65.9746 91.7381 64.4512C91.7381 62.9395 90.7303 62.0137 88.8787 62.0137H85.8787Z" fill="black"/>
<path d="M109.83 66.4551V69.1504H99.8803V53.1543H103.044V66.4551H109.83Z" fill="black"/>
<path d="M124.294 66.5605V69.1504H113.993V53.1543H124.294V55.7441H117.134V59.8457H123.861V62.2715H117.134V66.5605H124.294Z" fill="black"/>
<path d="M132.472 69.1504H129.647V53.1543H132.87L137.429 63.4785H137.522L142.093 53.1543H145.292V69.1504H142.444V58.5801H142.315L138.495 67.1465H136.432L132.6 58.5801H132.472V69.1504Z" fill="black"/>
<path d="M161.438 66.5605V69.1504H151.137V53.1543H161.438V55.7441H154.278V59.8457H161.004V62.2715H154.278V66.5605H161.438Z" fill="black"/>
<path d="M169.709 69.1504H166.756V53.1543H169.393L176.482 63.7949H176.588V53.1543H179.541V69.1504H176.916L169.803 58.4512H169.709V69.1504Z" fill="black"/>
<path d="M191.299 69.1504H188.135V55.8027H183.588V53.1543H195.846V55.8027H191.299V69.1504Z" fill="black"/>
<path d="M88.2436 91.1504H85.0795V77.8027H80.5326V75.1543H92.7905V77.8027H88.2436V91.1504Z" fill="black"/>
<path d="M106.886 88.5605V91.1504H96.5855V75.1543H106.886V77.7441H99.7261V81.8457H106.453V84.2715H99.7261V88.5605H106.886Z" fill="black"/>
<path d="M110.587 91.1504V89.4746L115.65 75.1543H119.353L124.369 89.4746V91.1504H110.587ZM117.361 78.3301L113.869 88.7949H120.947L117.49 78.3301H117.361Z" fill="black"/>
<path d="M131.553 91.1504H128.729V75.1543H131.952L136.51 85.4785H136.604L141.174 75.1543H144.374V91.1504H141.526V80.5801H141.397L137.577 89.1465H135.514L131.682 80.5801H131.553V91.1504Z" fill="black"/>
</g>
<defs>
<filter id="filter0_d_93_31" x="31.6544" y="30.3496" width="165.691" height="62.3008" filterUnits="userSpaceOnUse" color-interpolation-filters="sRGB">
<feFlood flood-opacity="0" result="BackgroundImageFix"/>
<feColorMatrix in="SourceAlpha" type="matrix" values="0 0 0 0 0 0 0 0 0 0 0 0 0 0 0 0 0 0 127 0" result="hardAlpha"/>
<feOffset dx="0.5" dy="0.5"/>
<feGaussianBlur stdDeviation="0.5"/>
<feComposite in2="hardAlpha" operator="out"/>
<feColorMatrix type="matrix" values="0 0 0 0 0.8 0 0 0 0 0.8 0 0 0 0 0.8 0 0 0 1 0"/>
<feBlend mode="normal" in2="BackgroundImageFix" result="effect1_dropShadow_93_31"/>
<feBlend mode="normal" in="SourceGraphic" in2="effect1_dropShadow_93_31" result="shape"/>
</filter>
</defs>
</svg>
