<svg width="127" height="86" viewBox="0 0 127 86" fill="none" xmlns="http://www.w3.org/2000/svg">
<rect width="126" height="86" transform="translate(0.333344)" fill="#182534"/>
<g filter="url(#filter0_d_0_3)">
<path d="M32.6199 57.1479C32.4734 57.1479 32.3766 56.9957 32.4388 56.8631L45.5082 28.9672C45.5411 28.8969 45.6117 28.8521 45.6893 28.8521H70.2599C70.4003 28.8521 70.497 28.993 70.4465 29.124L68.9648 32.9658C68.9559 32.9888 68.9514 33.0132 68.9514 33.0378V33.3396C68.9514 33.45 68.8619 33.5396 68.7514 33.5396H57.3588C57.2484 33.5396 57.1588 33.6291 57.1588 33.7396V40.5417C57.1588 40.6522 57.2484 40.7417 57.3588 40.7417H69.8318C69.9721 40.7417 70.0687 40.8823 70.0185 41.0133L68.6447 44.596C68.6359 44.6188 68.6314 44.6431 68.6314 44.6676V44.9362C68.6314 45.0467 68.5419 45.1362 68.4314 45.1362H57.3588C57.2484 45.1362 57.1588 45.2258 57.1588 45.3362V52.2604C57.1588 52.3709 57.2484 52.4604 57.3588 52.4604H70.2599C70.4004 52.4604 70.4971 52.6014 70.4465 52.7324L68.9648 56.5758C68.9559 56.5988 68.9514 56.6232 68.9514 56.6478V56.9479C68.9514 57.0584 68.8619 57.1479 68.7514 57.1479H51.768C51.6575 57.1479 51.568 57.0584 51.568 56.9479V49.8528C51.568 49.7424 51.4785 49.6528 51.368 49.6528H41.955C41.8769 49.6528 41.8059 49.6983 41.7733 49.7694L38.4379 57.0314C38.4053 57.1024 38.3343 57.1479 38.2562 57.1479H32.6199ZM49.4988 33.2466C49.4207 33.2466 49.3498 33.292 49.3171 33.3629L43.9106 45.0967C43.8496 45.2292 43.9464 45.3804 44.0923 45.3804H51.368C51.4785 45.3804 51.568 45.2908 51.568 45.1804V33.4466C51.568 33.3361 51.4785 33.2466 51.368 33.2466H49.4988Z" fill="white"/>
<path d="M80.2006 57.1479C80.0902 57.1479 80.0006 57.0584 80.0006 56.9479V33.7396C80.0006 33.6291 79.9111 33.5396 79.8006 33.5396H73.5214C73.4109 33.5396 73.3214 33.45 73.3214 33.3396V33.0376C73.3214 33.0131 73.3169 32.9888 73.3081 32.966L71.8355 29.1236C71.7853 28.9927 71.882 28.8521 72.0222 28.8521H94.0699C94.2103 28.8521 94.307 28.993 94.2565 29.124L92.7748 32.9658C92.7659 32.9888 92.7614 33.0132 92.7614 33.0378V33.3396C92.7614 33.45 92.6719 33.5396 92.5614 33.5396H86.2797C86.1693 33.5396 86.0797 33.6291 86.0797 33.7396V56.9479C86.0797 57.0584 85.9902 57.1479 85.8797 57.1479H80.2006Z" fill="white"/>
</g>
<rect x="16.3333" y="13" width="94" height="60" stroke="#F2F2F2" stroke-opacity="0.5"/>
<rect x="112.333" y="21" width="44" height="4" transform="rotate(90 112.333 21)" fill="#182534"/>
<rect x="18.3333" y="21" width="44" height="4" transform="rotate(90 18.3333 21)" fill="#182534"/>
<rect x="24.3333" y="11" width="78" height="4" fill="#182534"/>
<rect x="24.3333" y="71" width="78" height="4" fill="#182534"/>
<defs>
<filter id="filter0_d_0_3" x="31.9196" y="28.3521" width="63.8505" height="30.2959" filterUnits="userSpaceOnUse" color-interpolation-filters="sRGB">
<feFlood flood-opacity="0" result="BackgroundImageFix"/>
<feColorMatrix in="SourceAlpha" type="matrix" values="0 0 0 0 0 0 0 0 0 0 0 0 0 0 0 0 0 0 127 0" result="hardAlpha"/>
<feOffset dx="0.5" dy="0.5"/>
<feGaussianBlur stdDeviation="0.5"/>
<feComposite in2="hardAlpha" operator="out"/>
<feColorMatrix type="matrix" values="0 0 0 0 0.0784314 0 0 0 0 0.0980392 0 0 0 0 0.121569 0 0 0 1 0"/>
<feBlend mode="normal" in2="BackgroundImageFix" result="effect1_dropShadow_0_3"/>
<feBlend mode="normal" in="SourceGraphic" in2="effect1_dropShadow_0_3" result="shape"/>
</filter>
</defs>
</svg>
