<svg width="229" height="124" viewBox="0 0 229 124" fill="none" xmlns="http://www.w3.org/2000/svg">
<rect width="228" height="124" transform="translate(0.333344)" fill="#182534"/>
<rect x="16.8333" y="16.5" width="195" height="91" stroke="white" stroke-opacity="0.5"/>
<rect x="24.3333" y="14" width="180" height="4" fill="#182534"/>
<rect x="24.3333" y="106" width="180" height="4" fill="#182534"/>
<rect x="214.333" y="24" width="76" height="4" transform="rotate(90 214.333 24)" fill="#182534"/>
<rect x="18.3333" y="24" width="76" height="4" transform="rotate(90 18.3333 24)" fill="#182534"/>
<g filter="url(#filter0_d_1_6)">
<path d="M79.0581 48.1562C78.9476 48.1562 78.8581 48.0667 78.8581 47.9562V46.6797C78.8581 46.6564 78.8621 46.6334 78.87 46.6115L84.0603 32.292C84.089 32.2129 84.1641 32.1602 84.2483 32.1602H86.9324C87.0167 32.1602 87.092 32.2131 87.1205 32.2924L92.2759 46.6117C92.2838 46.6334 92.2878 46.6563 92.2878 46.6794V47.9562C92.2878 48.0667 92.1982 48.1562 92.0878 48.1562H79.0581ZM85.5494 35.043C85.5214 35.043 85.4964 35.0607 85.4872 35.0871L81.7397 45.8514C81.6944 45.9814 81.7909 46.1172 81.9285 46.1172H89.1247C89.262 46.1172 89.3585 45.982 89.3138 45.8521L85.6116 35.0874C85.6025 35.0608 85.5775 35.043 85.5494 35.043V35.043Z" fill="white"/>
<path d="M108.797 36.9531C108.807 37.0674 108.716 37.1641 108.601 37.1641H106.388C106.287 37.1641 106.202 37.0883 106.186 36.9884C105.904 35.2372 104.622 34.1172 102.636 34.1172C100.152 34.1172 98.7106 35.8984 98.7106 38.9453V41.1602C98.7106 44.2773 100.011 46.1992 102.718 46.1992C104.886 46.1992 106.304 44.8516 106.304 43.0234V41.9695C106.304 41.8591 106.215 41.7695 106.104 41.7695H102.825C102.714 41.7695 102.625 41.68 102.625 41.5695V39.8719C102.625 39.7614 102.714 39.6719 102.825 39.6719H108.647C108.758 39.6719 108.847 39.7614 108.847 39.8719V42.9062C108.847 45.9766 106.492 48.4727 102.683 48.4727C98.2535 48.4727 96.0504 45.6484 96.0504 41.1719V38.9336C96.0504 34.5977 98.4762 31.8438 102.648 31.8438C106.265 31.8438 108.54 34.0237 108.797 36.9531Z" fill="white"/>
<path d="M117.101 47.9563C117.101 48.0667 117.011 48.1562 116.901 48.1562H114.64C114.53 48.1562 114.44 48.0667 114.44 47.9562V32.3602C114.44 32.2497 114.53 32.1602 114.64 32.1602H116.901C117.011 32.1602 117.101 32.2497 117.101 32.3602V47.9563Z" fill="white"/>
<path d="M132.853 45.8477C132.964 45.8477 133.053 45.9372 133.053 46.0477V47.9562C133.053 48.0667 132.964 48.1562 132.853 48.1562H123.538C123.428 48.1562 123.338 48.0667 123.338 47.9562V32.3602C123.338 32.2497 123.428 32.1602 123.538 32.1602H125.798C125.909 32.1602 125.998 32.2497 125.998 32.3602V45.6477C125.998 45.7581 126.088 45.8477 126.198 45.8477H132.853Z" fill="white"/>
<path d="M147.312 45.918C147.422 45.918 147.512 46.0075 147.512 46.118V47.9562C147.512 48.0667 147.422 48.1562 147.312 48.1562H137.727C137.617 48.1562 137.527 48.0667 137.527 47.9562V32.3602C137.527 32.2497 137.617 32.1602 137.727 32.1602H147.312C147.422 32.1602 147.512 32.2497 147.512 32.3602V34.1984C147.512 34.3089 147.422 34.3984 147.312 34.3984H140.376C140.265 34.3984 140.176 34.488 140.176 34.5984V38.757C140.176 38.8675 140.265 38.957 140.376 38.957H146.89C147 38.957 147.09 39.0466 147.09 39.157V40.9016C147.09 41.012 147 41.1016 146.89 41.1016H140.376C140.265 41.1016 140.176 41.1911 140.176 41.3016V45.718C140.176 45.8284 140.265 45.918 140.376 45.918H147.312Z" fill="white"/>
<path d="M42.194 67.918C42.3045 67.918 42.394 68.0075 42.394 68.118V69.9562C42.394 70.0667 42.3045 70.1562 42.194 70.1562H32.6096C32.4992 70.1562 32.4096 70.0667 32.4096 69.9562V54.3602C32.4096 54.2497 32.4992 54.1602 32.6096 54.1602H42.194C42.3045 54.1602 42.394 54.2497 42.394 54.3602V56.1984C42.394 56.3089 42.3045 56.3984 42.194 56.3984H35.2581C35.1476 56.3984 35.0581 56.488 35.0581 56.5984V60.757C35.0581 60.8675 35.1476 60.957 35.2581 60.957H41.7721C41.8826 60.957 41.9721 61.0466 41.9721 61.157V62.9016C41.9721 63.012 41.8826 63.1016 41.7721 63.1016H35.2581C35.1476 63.1016 35.0581 63.1911 35.0581 63.3016V67.718C35.0581 67.8284 35.1476 67.918 35.2581 67.918H42.194Z" fill="white"/>
<path d="M50.6121 69.9562C50.6121 70.0667 50.5226 70.1562 50.4121 70.1562H48.3043C48.1939 70.1562 48.1043 70.0667 48.1043 69.9562V54.3602C48.1043 54.2497 48.1939 54.1602 48.3043 54.1602H50.3403C50.4076 54.1602 50.4703 54.194 50.5073 54.2502L57.9909 65.6205C58.0007 65.6355 58.0175 65.6445 58.0354 65.6445V65.6445C58.0648 65.6445 58.0887 65.6207 58.0887 65.5912V54.3602C58.0887 54.2497 58.1782 54.1602 58.2887 54.1602H60.3848C60.4952 54.1602 60.5848 54.2497 60.5848 54.3602V69.9563C60.5848 70.0667 60.4953 70.1562 60.3848 70.1562H58.3723C58.305 70.1562 58.2422 70.1224 58.2052 70.0662L50.696 58.6573C50.6875 58.6444 50.6732 58.6367 50.6578 58.6367V58.6367C50.6326 58.6367 50.6121 58.6572 50.6121 58.6824V69.9562Z" fill="white"/>
<path d="M65.312 70.1562C65.2015 70.1562 65.112 70.0667 65.112 69.9562V68.6797C65.112 68.6564 65.116 68.6334 65.124 68.6115L70.3142 54.292C70.3429 54.2129 70.418 54.1602 70.5022 54.1602H73.1863C73.2706 54.1602 73.3459 54.2131 73.3744 54.2924L78.5298 68.6117C78.5377 68.6334 78.5417 68.6563 78.5417 68.6794V69.9562C78.5417 70.0667 78.4521 70.1562 78.3417 70.1562H65.312ZM71.8033 57.043C71.7753 57.043 71.7503 57.0607 71.7411 57.0871L67.9936 67.8514C67.9483 67.9814 68.0448 68.1172 68.1824 68.1172H75.3786C75.5159 68.1172 75.6124 67.982 75.5677 67.8521L71.8655 57.0874C71.8564 57.0608 71.8314 57.043 71.8033 57.043V57.043Z" fill="white"/>
<path d="M83.2571 70.1562C83.1467 70.1562 83.0571 70.0667 83.0571 69.9562V54.3602C83.0571 54.2497 83.1467 54.1602 83.2571 54.1602H89.4321C92.2212 54.1602 94.0259 55.6602 94.0259 58.0977C94.0259 59.9522 92.9941 61.1418 91.4295 61.5984C91.3989 61.6073 91.3774 61.6353 91.3774 61.6672V61.6672C91.3774 61.7033 91.4047 61.7336 91.4405 61.7382C93.4243 61.9936 94.8931 63.3602 94.8931 65.6562C94.8931 68.4922 92.6548 70.1562 89.3149 70.1562H83.2571ZM85.9056 56.2695C85.7951 56.2695 85.7056 56.3591 85.7056 56.4695V60.7219C85.7056 60.8323 85.7951 60.9219 85.9056 60.9219H87.9556C90.3345 60.9219 91.3892 60.125 91.3892 58.543C91.3892 57.125 90.4634 56.2695 88.8814 56.2695H85.9056ZM85.9056 62.9258C85.7951 62.9258 85.7056 63.0153 85.7056 63.1258V67.8469C85.7056 67.9573 85.7951 68.0469 85.9056 68.0469H88.2485C91.0493 68.0469 92.186 67.25 92.186 65.5625C92.186 63.9102 91.0728 62.9258 89.0923 62.9258H85.9056Z" fill="white"/>
<path d="M109.767 67.8477C109.877 67.8477 109.967 67.9372 109.967 68.0477V69.9562C109.967 70.0667 109.877 70.1562 109.767 70.1562H100.452C100.341 70.1562 100.252 70.0667 100.252 69.9562V54.3602C100.252 54.2497 100.341 54.1602 100.452 54.1602H102.712C102.822 54.1602 102.912 54.2497 102.912 54.3602V67.6477C102.912 67.7581 103.002 67.8477 103.112 67.8477H109.767Z" fill="white"/>
<path d="M124.225 67.918C124.336 67.918 124.425 68.0075 124.425 68.118V69.9562C124.425 70.0667 124.336 70.1562 124.225 70.1562H114.641C114.53 70.1562 114.441 70.0667 114.441 69.9562V54.3602C114.441 54.2497 114.53 54.1602 114.641 54.1602H124.225C124.336 54.1602 124.425 54.2497 124.425 54.3602V56.1984C124.425 56.3089 124.336 56.3984 124.225 56.3984H117.289C117.179 56.3984 117.089 56.488 117.089 56.5984V60.757C117.089 60.8675 117.179 60.957 117.289 60.957H123.803C123.914 60.957 124.003 61.0466 124.003 61.157V62.9016C124.003 63.012 123.914 63.1016 123.803 63.1016H117.289C117.179 63.1016 117.089 63.1911 117.089 63.3016V67.718C117.089 67.8284 117.179 67.918 117.289 67.918H124.225Z" fill="white"/>
<path d="M132.573 69.9563C132.573 70.0667 132.484 70.1562 132.373 70.1562H130.382C130.272 70.1562 130.182 70.0667 130.182 69.9562V54.3602C130.182 54.2497 130.272 54.1602 130.382 54.1602H132.723C132.803 54.1602 132.875 54.2074 132.907 54.2805L137.725 65.3725C137.735 65.3954 137.757 65.4102 137.782 65.4102V65.4102C137.807 65.4102 137.829 65.3954 137.839 65.3725L142.658 54.2805C142.689 54.2074 142.761 54.1602 142.841 54.1602H145.17C145.28 54.1602 145.37 54.2497 145.37 54.3602V69.9563C145.37 70.0667 145.28 70.1562 145.17 70.1562H143.168C143.057 70.1562 142.968 70.0667 142.968 69.9562V59.1693C142.968 59.1341 142.939 59.1055 142.904 59.1055V59.1055C142.878 59.1055 142.856 59.1204 142.845 59.1435L138.778 68.3379C138.746 68.4103 138.674 68.457 138.595 68.457H136.945C136.866 68.457 136.795 68.4104 136.763 68.3381L132.682 59.1392C132.673 59.1187 132.652 59.1055 132.63 59.1055V59.1055C132.599 59.1055 132.573 59.1309 132.573 59.1623V69.9563Z" fill="white"/>
<path d="M161.427 67.918C161.538 67.918 161.627 68.0075 161.627 68.118V69.9562C161.627 70.0667 161.538 70.1562 161.427 70.1562H151.843C151.732 70.1562 151.643 70.0667 151.643 69.9562V54.3602C151.643 54.2497 151.732 54.1602 151.843 54.1602H161.427C161.538 54.1602 161.627 54.2497 161.627 54.3602V56.1984C161.627 56.3089 161.538 56.3984 161.427 56.3984H154.491C154.381 56.3984 154.291 56.488 154.291 56.5984V60.757C154.291 60.8675 154.381 60.957 154.491 60.957H161.005C161.116 60.957 161.205 61.0466 161.205 61.157V62.9016C161.205 63.012 161.116 63.1016 161.005 63.1016H154.491C154.381 63.1016 154.291 63.1911 154.291 63.3016V67.718C154.291 67.8284 154.381 67.918 154.491 67.918H161.427Z" fill="white"/>
<path d="M169.845 69.9562C169.845 70.0667 169.756 70.1562 169.645 70.1562H167.537C167.427 70.1562 167.337 70.0667 167.337 69.9562V54.3602C167.337 54.2497 167.427 54.1602 167.537 54.1602H169.573C169.641 54.1602 169.703 54.194 169.74 54.2502L177.224 65.6205C177.234 65.6355 177.251 65.6445 177.269 65.6445V65.6445C177.298 65.6445 177.322 65.6207 177.322 65.5912V54.3602C177.322 54.2497 177.411 54.1602 177.522 54.1602H179.618C179.728 54.1602 179.818 54.2497 179.818 54.3602V69.9563C179.818 70.0667 179.728 70.1562 179.618 70.1562H177.605C177.538 70.1562 177.475 70.1224 177.438 70.0662L169.929 58.6573C169.921 58.6444 169.906 58.6367 169.891 58.6367V58.6367C169.866 58.6367 169.845 58.6572 169.845 58.6824V69.9562Z" fill="white"/>
<path d="M191.558 69.9563C191.558 70.0667 191.468 70.1562 191.358 70.1562H189.121C189.011 70.1562 188.921 70.0667 188.921 69.9562V56.6336C188.921 56.5231 188.832 56.4336 188.721 56.4336H184.422C184.311 56.4336 184.222 56.3441 184.222 56.2336V54.3602C184.222 54.2497 184.311 54.1602 184.422 54.1602H196.057C196.167 54.1602 196.257 54.2497 196.257 54.3602V56.2336C196.257 56.3441 196.167 56.4336 196.057 56.4336H191.758C191.647 56.4336 191.558 56.5231 191.558 56.6336V69.9563Z" fill="white"/>
<path d="M88.3165 91.9563C88.3165 92.0667 88.227 92.1562 88.1165 92.1562H85.8798C85.7693 92.1562 85.6798 92.0667 85.6798 91.9562V78.6336C85.6798 78.5231 85.5903 78.4336 85.4798 78.4336H81.1806C81.0701 78.4336 80.9806 78.3441 80.9806 78.2336V76.3602C80.9806 76.2497 81.0701 76.1602 81.1806 76.1602H92.8157C92.9262 76.1602 93.0157 76.2497 93.0157 76.3602V78.2336C93.0157 78.3441 92.9262 78.4336 92.8157 78.4336H88.5165C88.4061 78.4336 88.3165 78.5231 88.3165 78.6336V91.9563Z" fill="white"/>
<path d="M106.964 89.918C107.074 89.918 107.164 90.0075 107.164 90.118V91.9562C107.164 92.0667 107.074 92.1562 106.964 92.1562H97.3796C97.2692 92.1562 97.1796 92.0667 97.1796 91.9562V76.3602C97.1796 76.2497 97.2692 76.1602 97.3796 76.1602H106.964C107.074 76.1602 107.164 76.2497 107.164 76.3602V78.1984C107.164 78.3089 107.074 78.3984 106.964 78.3984H100.028C99.9176 78.3984 99.8281 78.488 99.8281 78.5984V82.757C99.8281 82.8675 99.9176 82.957 100.028 82.957H106.542C106.653 82.957 106.742 83.0466 106.742 83.157V84.9016C106.742 85.012 106.653 85.1016 106.542 85.1016H100.028C99.9176 85.1016 99.8281 85.1911 99.8281 85.3016V89.718C99.8281 89.8284 99.9176 89.918 100.028 89.918H106.964Z" fill="white"/>
<path d="M111.364 92.1562C111.253 92.1562 111.164 92.0667 111.164 91.9562V90.6797C111.164 90.6564 111.168 90.6334 111.176 90.6115L116.366 76.292C116.395 76.2129 116.47 76.1602 116.554 76.1602H119.238C119.322 76.1602 119.398 76.2131 119.426 76.2924L124.582 90.6117C124.59 90.6334 124.594 90.6563 124.594 90.6794V91.9562C124.594 92.0667 124.504 92.1562 124.394 92.1562H111.364ZM117.855 79.043C117.827 79.043 117.802 79.0607 117.793 79.0871L114.045 89.8514C114 89.9814 114.097 90.1172 114.234 90.1172H121.43C121.568 90.1172 121.664 89.982 121.62 89.8521L117.917 79.0874C117.908 79.0608 117.883 79.043 117.855 79.043V79.043Z" fill="white"/>
<path d="M131.667 91.9563C131.667 92.0667 131.577 92.1562 131.467 92.1562H129.476C129.365 92.1562 129.276 92.0667 129.276 91.9562V76.3602C129.276 76.2497 129.365 76.1602 129.476 76.1602H131.817C131.896 76.1602 131.968 76.2074 132 76.2805L136.818 87.3725C136.828 87.3954 136.851 87.4102 136.876 87.4102V87.4102C136.9 87.4102 136.923 87.3954 136.933 87.3725L141.751 76.2805C141.783 76.2074 141.855 76.1602 141.934 76.1602H144.263C144.374 76.1602 144.463 76.2497 144.463 76.3602V91.9563C144.463 92.0667 144.374 92.1562 144.263 92.1562H142.261C142.151 92.1562 142.061 92.0667 142.061 91.9562V81.1693C142.061 81.1341 142.032 81.1055 141.997 81.1055V81.1055C141.972 81.1055 141.949 81.1204 141.939 81.1435L137.872 90.3379C137.84 90.4103 137.768 90.457 137.689 90.457H136.039C135.96 90.457 135.888 90.4104 135.856 90.3381L131.775 81.1392C131.766 81.1187 131.746 81.1055 131.723 81.1055V81.1055C131.692 81.1055 131.667 81.1309 131.667 81.1623V91.9563Z" fill="white"/>
</g>
<defs>
<filter id="filter0_d_1_6" x="31.9096" y="31.3438" width="165.847" height="62.3125" filterUnits="userSpaceOnUse" color-interpolation-filters="sRGB">
<feFlood flood-opacity="0" result="BackgroundImageFix"/>
<feColorMatrix in="SourceAlpha" type="matrix" values="0 0 0 0 0 0 0 0 0 0 0 0 0 0 0 0 0 0 127 0" result="hardAlpha"/>
<feOffset dx="0.5" dy="0.5"/>
<feGaussianBlur stdDeviation="0.5"/>
<feComposite in2="hardAlpha" operator="out"/>
<feColorMatrix type="matrix" values="0 0 0 0 0.0784314 0 0 0 0 0.0980392 0 0 0 0 0.121569 0 0 0 1 0"/>
<feBlend mode="normal" in2="BackgroundImageFix" result="effect1_dropShadow_1_6"/>
<feBlend mode="normal" in="SourceGraphic" in2="effect1_dropShadow_1_6" result="shape"/>
</filter>
</defs>
</svg>
