<svg width="126" height="86" viewBox="0 0 126 86" fill="none" xmlns="http://www.w3.org/2000/svg">
<rect width="126" height="86" fill="white"/>
<rect x="16" y="13" width="94" height="60" stroke="#020202" stroke-opacity="0.25"/>
<rect x="112" y="21" width="44" height="4" transform="rotate(90 112 21)" fill="white"/>
<rect x="18" y="21" width="44" height="4" transform="rotate(90 18 21)" fill="white"/>
<rect x="24" y="11" width="78" height="4" fill="white"/>
<rect x="24" y="71" width="78" height="4" fill="white"/>
<g filter="url(#filter0_d_92_7)">
<path d="M31.704 57.3433C31.559 57.3433 31.4621 57.1937 31.5215 57.0614L44.2083 28.7749C44.2405 28.703 44.312 28.6567 44.3908 28.6567H70.1654C70.3059 28.6567 70.4026 28.7979 70.3519 28.9289L68.6507 33.3252C68.6418 33.3482 68.6372 33.3726 68.6372 33.3973V33.8034C68.6372 33.9139 68.5477 34.0034 68.4372 34.0034H57.3763C57.2659 34.0034 57.1763 34.093 57.1763 34.2034V40.2731C57.1763 40.3836 57.2659 40.4731 57.3763 40.4731H69.8252C69.9654 40.4731 70.0621 40.6136 70.0121 40.7445L68.4504 44.8311C68.4417 44.8539 68.4372 44.8781 68.4372 44.9025V45.2292C68.4372 45.3397 68.3477 45.4292 68.2372 45.4292H57.3763C57.2659 45.4292 57.1763 45.5187 57.1763 45.6292V51.7722C57.1763 51.8826 57.2659 51.9722 57.3763 51.9722H70.1659C70.3063 51.9722 70.403 52.113 70.3526 52.244L68.6506 56.664C68.6418 56.6869 68.6372 56.7113 68.6372 56.7359V57.1433C68.6372 57.2537 68.5477 57.3433 68.4372 57.3433H50.9554C50.845 57.3433 50.7554 57.2537 50.7554 57.1433V50.5364C50.7554 50.426 50.6659 50.3364 50.5554 50.3364H41.634C41.5542 50.3364 41.482 50.3839 41.4504 50.4571L38.5273 57.2226C38.4957 57.2958 38.4235 57.3433 38.3437 57.3433H31.704ZM48.8846 33.6616C48.805 33.6616 48.7329 33.7088 48.7012 33.7818L43.7238 45.2227C43.6664 45.3547 43.7632 45.5024 43.9072 45.5024H50.5554C50.6659 45.5024 50.7554 45.4129 50.7554 45.3024V33.8616C50.7554 33.7512 50.6659 33.6616 50.5554 33.6616H48.8846Z" fill="black"/>
<path d="M79.6761 57.3433C79.5656 57.3433 79.4761 57.2537 79.4761 57.1433V34.2034C79.4761 34.093 79.3865 34.0034 79.2761 34.0034H73.4949C73.3845 34.0034 73.2949 33.9139 73.2949 33.8034V33.3973C73.2949 33.3726 73.2904 33.3482 73.2814 33.3252L71.5802 28.9289C71.5295 28.7979 71.6262 28.6567 71.7668 28.6567H94.3137C94.4541 28.6567 94.5508 28.7975 94.5004 28.9285L92.7982 33.3551C92.7894 33.378 92.7849 33.4023 92.7849 33.4269V33.8034C92.7849 33.9139 92.6954 34.0034 92.5849 34.0034H86.805C86.6945 34.0034 86.605 34.093 86.605 34.2034V57.1433C86.605 57.2537 86.5154 57.3433 86.405 57.3433H79.6761Z" fill="black"/>
</g>
<defs>
<filter id="filter0_d_92_7" x="31.0038" y="28.1567" width="65.0102" height="30.6865" filterUnits="userSpaceOnUse" color-interpolation-filters="sRGB">
<feFlood flood-opacity="0" result="BackgroundImageFix"/>
<feColorMatrix in="SourceAlpha" type="matrix" values="0 0 0 0 0 0 0 0 0 0 0 0 0 0 0 0 0 0 127 0" result="hardAlpha"/>
<feOffset dx="0.5" dy="0.5"/>
<feGaussianBlur stdDeviation="0.5"/>
<feComposite in2="hardAlpha" operator="out"/>
<feColorMatrix type="matrix" values="0 0 0 0 0.8 0 0 0 0 0.8 0 0 0 0 0.8 0 0 0 1 0"/>
<feBlend mode="normal" in2="BackgroundImageFix" result="effect1_dropShadow_92_7"/>
<feBlend mode="normal" in="SourceGraphic" in2="effect1_dropShadow_92_7" result="shape"/>
</filter>
</defs>
</svg>
