<svg width="126" height="86" viewBox="0 0 126 86" fill="none" xmlns="http://www.w3.org/2000/svg">
<rect width="126" height="86" fill="#182534"/>
<g filter="url(#filter0_d_0_3)">
<path d="M32.2865 57.1479C32.1401 57.1479 32.0433 56.9957 32.1054 56.8631L45.1748 28.9672C45.2078 28.8969 45.2784 28.8521 45.356 28.8521H69.9266C70.067 28.8521 70.1637 28.993 70.1132 29.124L68.6314 32.9658C68.6226 32.9888 68.618 33.0132 68.618 33.0378V33.3396C68.618 33.45 68.5285 33.5396 68.418 33.5396H57.0255C56.915 33.5396 56.8255 33.6291 56.8255 33.7396V40.5417C56.8255 40.6522 56.915 40.7417 57.0255 40.7417H69.4984C69.6387 40.7417 69.7354 40.8823 69.6852 41.0133L68.3113 44.596C68.3025 44.6188 68.298 44.6431 68.298 44.6676V44.9362C68.298 45.0467 68.2085 45.1362 68.098 45.1362H57.0255C56.915 45.1362 56.8255 45.2258 56.8255 45.3362V52.2605C56.8255 52.3709 56.915 52.4604 57.0255 52.4604H69.9266C70.067 52.4604 70.1637 52.6014 70.1132 52.7324L68.6314 56.5758C68.6226 56.5988 68.618 56.6232 68.618 56.6478V56.9479C68.618 57.0584 68.5285 57.1479 68.418 57.1479H51.4347C51.3242 57.1479 51.2346 57.0584 51.2346 56.9479V49.8528C51.2346 49.7424 51.1451 49.6528 51.0346 49.6528H41.6217C41.5435 49.6528 41.4725 49.6983 41.4399 49.7694L38.1046 57.0314C38.072 57.1024 38.001 57.1479 37.9228 57.1479H32.2865ZM49.1654 33.2466C49.0874 33.2466 49.0165 33.292 48.9838 33.3629L43.5773 45.0967C43.5162 45.2292 43.613 45.3804 43.7589 45.3804H51.0346C51.1451 45.3804 51.2346 45.2908 51.2346 45.1804V33.4466C51.2346 33.3361 51.1451 33.2466 51.0346 33.2466H49.1654Z" fill="white"/>
<path d="M79.8673 57.1479C79.7568 57.1479 79.6673 57.0584 79.6673 56.9479V33.7396C79.6673 33.6291 79.5777 33.5396 79.4673 33.5396H73.188C73.0776 33.5396 72.988 33.45 72.988 33.3396V33.0376C72.988 33.0131 72.9836 32.9888 72.9748 32.966L71.5021 29.1236C71.4519 28.9927 71.5486 28.8521 71.6889 28.8521H93.7366C93.877 28.8521 93.9737 28.993 93.9232 29.124L92.4414 32.9658C92.4326 32.9888 92.4281 33.0132 92.4281 33.0378V33.3396C92.4281 33.45 92.3385 33.5396 92.2281 33.5396H85.9464C85.8359 33.5396 85.7464 33.6291 85.7464 33.7396V56.9479C85.7464 57.0584 85.6568 57.1479 85.5464 57.1479H79.8673Z" fill="white"/>
</g>
<rect opacity="0.1" x="16" y="13" width="94" height="60" stroke="#F2F2F2"/>
<rect x="112" y="21" width="44" height="4" transform="rotate(90 112 21)" fill="#182534"/>
<rect x="18" y="21" width="44" height="4" transform="rotate(90 18 21)" fill="#182534"/>
<rect x="24" y="11" width="78" height="4" fill="#182534"/>
<rect x="24" y="71" width="78" height="4" fill="#182534"/>
<defs>
<filter id="filter0_d_0_3" x="31.5863" y="28.3521" width="63.8505" height="30.2959" filterUnits="userSpaceOnUse" color-interpolation-filters="sRGB">
<feFlood flood-opacity="0" result="BackgroundImageFix"/>
<feColorMatrix in="SourceAlpha" type="matrix" values="0 0 0 0 0 0 0 0 0 0 0 0 0 0 0 0 0 0 127 0" result="hardAlpha"/>
<feOffset dx="0.5" dy="0.5"/>
<feGaussianBlur stdDeviation="0.5"/>
<feComposite in2="hardAlpha" operator="out"/>
<feColorMatrix type="matrix" values="0 0 0 0 0.0784314 0 0 0 0 0.0980392 0 0 0 0 0.121569 0 0 0 1 0"/>
<feBlend mode="normal" in2="BackgroundImageFix" result="effect1_dropShadow_0_3"/>
<feBlend mode="normal" in="SourceGraphic" in2="effect1_dropShadow_0_3" result="shape"/>
</filter>
</defs>
</svg>
