<svg fill="none" height="65" viewBox="0 0 65 65" width="65" xmlns="http://www.w3.org/2000/svg" xmlns:xlink="http://www.w3.org/1999/xlink"><filter id="a" color-interpolation-filters="sRGB" filterUnits="userSpaceOnUse" height="30.2959" width="63.8505" x=".936005" y="12.2717"><feFlood flood-opacity="0" result="BackgroundImageFix"/><feColorMatrix in="SourceAlpha" result="hardAlpha" type="matrix" values="0 0 0 0 0 0 0 0 0 0 0 0 0 0 0 0 0 0 127 0"/><feOffset dx=".5" dy=".5"/><feGaussianBlur stdDeviation=".5"/><feComposite in2="hardAlpha" operator="out"/><feColorMatrix type="matrix" values="0 0 0 0 0.0784314 0 0 0 0 0.0980392 0 0 0 0 0.121569 0 0 0 1 0"/><feBlend in2="BackgroundImageFix" mode="normal" result="effect1_dropShadow_43_238"/><feBlend in="SourceGraphic" in2="effect1_dropShadow_43_238" mode="normal" result="shape"/></filter><clipPath id="b"><path d="m.349731.071655h64v64h-64z"/></clipPath><g clip-path="url(#b)"><path d="m0 0h64v64h-64z" fill="#182534" transform="translate(.349731 .071655)"/><g fill="#fff" filter="url(#a)"><path d="m1.63625 41.0676c-.14646 0-.24324-.1523-.18111-.2849l13.06946-27.8959c.0329-.0702.1035-.1151.1811-.1151h24.5706c.1404 0 .2371.1409.1866.2719l-1.4817 3.8418c-.0089.023-.0134.0474-.0134.072v.3018c0 .1104-.0896.2-.2.2h-11.3926c-.1105 0-.2.0895-.2.2v6.8021c0 .1105.0895.2.2.2h12.473c.1402 0 .2369.1407.1867.2716l-1.3739 3.5827c-.0087.0229-.0132.0471-.0132.0716v.2686c0 .1105-.0896.2-.2.2h-11.0726c-.1105 0-.2.0896-.2.2v6.9243c0 .1104.0895.2.2.2h12.9011c.1404 0 .2372.1409.1866.2719l-1.4817 3.8435c-.0089.0229-.0134.0473-.0134.0719v.3002c0 .1104-.0896.2-.2.2h-16.9834c-.1105 0-.2-.0896-.2-.2v-7.0952c0-.1104-.0896-.2-.2-.2h-9.413c-.0781 0-.1491.0456-.1817.1166l-3.33539 7.262c-.03262.0711-.10361.1166-.18175.1166zm16.87895-23.9014c-.0781 0-.149.0454-.1817.1163l-5.4065 11.7338c-.061.1325.0358.2837.1817.2837h7.2757c.1104 0 .2-.0896.2-.2v-11.7338c0-.1105-.0896-.2-.2-.2z"/><path d="m49.217 41.0676c-.1105 0-.2-.0896-.2-.2v-23.2084c0-.1105-.0895-.2-.2-.2h-6.2792c-.1105 0-.2-.0896-.2-.2v-.302c0-.0245-.0045-.0487-.0133-.0716l-1.4726-3.8424c-.0502-.1309.0465-.2715.1867-.2715h22.0477c.1404 0 .2371.1409.1866.2719l-1.4817 3.8418c-.0089.023-.0134.0474-.0134.072v.3018c0 .1104-.0896.2-.2.2h-6.2817c-.1105 0-.2.0895-.2.2v23.2084c0 .1104-.0895.2-.2.2z"/></g></g></svg>