<svg fill="none" height="64" viewBox="0 0 300 64" width="300" xmlns="http://www.w3.org/2000/svg" xmlns:xlink="http://www.w3.org/1999/xlink"><filter id="a" color-interpolation-filters="sRGB" filterUnits="userSpaceOnUse" height="62.3125" width="165.847" x="68.3673" y="1.6875"><feFlood flood-opacity="0" result="BackgroundImageFix"/><feColorMatrix in="SourceAlpha" result="hardAlpha" type="matrix" values="0 0 0 0 0 0 0 0 0 0 0 0 0 0 0 0 0 0 127 0"/><feOffset dx=".5" dy=".5"/><feGaussianBlur stdDeviation=".5"/><feComposite in2="hardAlpha" operator="out"/><feColorMatrix type="matrix" values="0 0 0 0 0.0784314 0 0 0 0 0.0980392 0 0 0 0 0.121569 0 0 0 1 0"/><feBlend in2="BackgroundImageFix" mode="normal" result="effect1_dropShadow_17_102"/><feBlend in="SourceGraphic" in2="effect1_dropShadow_17_102" mode="normal" result="shape"/></filter><clipPath id="b"><path d="m0 0h300v64h-300z"/></clipPath><g clip-path="url(#b)"><path d="m45.9238 32h147.186v147.186h-147.186z" fill="#182534" transform="matrix(.70710678 -.70710678 .70710678 .70710678 -9.176647 41.845613)"/><g fill="#fff" filter="url(#a)"><path d="m115.516 18.5c-.111 0-.2-.0895-.2-.2v-1.2766c0-.0232.004-.0463.012-.0681l5.19-14.31955c.029-.07914.104-.13184.188-.13184h2.684c.084 0 .16.0529.188.13225l5.156 14.31924c.007.0218.011.0447.011.0678v1.2768c0 .1105-.089.2-.2.2zm6.491-13.11328c-.028 0-.053.01773-.062.04418l-3.748 10.7643c-.045.13.052.2657.189.2657h7.196c.138 0 .234-.1352.189-.265l-3.702-10.76477c-.009-.02657-.034-.04441-.062-.04441z"/><path d="m145.255 7.29689c.01.11426-.082.21092-.196.21092h-2.213c-.102 0-.186-.07576-.202-.1757-.282-1.75113-1.565-2.87117-3.55-2.87117-2.484 0-3.926 1.78125-3.926 4.82812v2.21484c0 3.1172 1.301 5.0391 4.008 5.0391 2.168 0 3.586-1.3477 3.586-3.1758v-1.0539c0-.1105-.09-.2-.2-.2h-3.28c-.11 0-.2-.0896-.2-.2v-1.6977c0-.1104.09-.2.2-.2h5.823c.11 0 .2.0896.2.2v3.0344c0 3.0703-2.355 5.5664-6.164 5.5664-4.43 0-6.633-2.8242-6.633-7.3008v-2.23826c0-4.33593 2.426-7.08984 6.598-7.08984 3.617 0 5.892 2.17991 6.149 5.10939z"/><path d="m153.558 18.3c0 .1105-.089.2-.2.2h-2.26c-.11 0-.2-.0895-.2-.2v-15.59609c0-.11046.09-.2.2-.2h2.26c.111 0 .2.08954.2.2z"/><path d="m169.311 16.1914c.11 0 .2.0895.2.2v1.9086c0 .1105-.09.2-.2.2h-9.315c-.111 0-.2-.0895-.2-.2v-15.59609c0-.11046.089-.2.2-.2h2.26c.111 0 .2.08954.2.2v13.28749c0 .1105.09.2.2.2z"/><path d="m183.769 16.2617c.111 0 .2.0896.2.2v1.8383c0 .1105-.089.2-.2.2h-9.584c-.11 0-.2-.0895-.2-.2v-15.59609c0-.11046.09-.2.2-.2h9.584c.111 0 .2.08954.2.2v1.83828c0 .11045-.089.2-.2.2h-6.936c-.11 0-.2.08954-.2.2v4.15859c0 .11046.09.2.2.2h6.514c.111 0 .2.08954.2.2v1.74452c0 .1105-.089.2-.2.2h-6.514c-.11 0-.2.0896-.2.2v4.4164c0 .1105.09.2.2.2z"/><path d="m78.6517 38.2617c.1104 0 .2.0896.2.2v1.8383c0 .1105-.0896.2-.2.2h-9.5844c-.1104 0-.2-.0895-.2-.2v-15.5961c0-.1105.0896-.2.2-.2h9.5844c.1104 0 .2.0895.2.2v1.8383c0 .1104-.0896.2-.2.2h-6.936c-.1104 0-.2.0895-.2.2v4.1586c0 .1104.0896.2.2.2h6.5141c.1105 0 .2.0895.2.2v1.7445c0 .1105-.0895.2-.2.2h-6.5141c-.1104 0-.2.0896-.2.2v4.4164c0 .1105.0896.2.2.2z"/><path d="m87.0698 40.3c0 .1105-.0895.2-.2.2h-2.1078c-.1105 0-.2-.0895-.2-.2v-15.5961c0-.1105.0895-.2.2-.2h2.0359c.0673 0 .1301.0338.1671.0901l7.4835 11.3703c.0099.015.0266.024.0446.024.0294 0 .0533-.0239.0533-.0533v-11.2311c0-.1105.0895-.2.2-.2h2.0961c.1104 0 .2.0895.2.2v15.5961c0 .1105-.0896.2-.2.2h-2.0126c-.0672 0-.13-.0338-.167-.09l-7.5092-11.409c-.0085-.0128-.0228-.0205-.0382-.0205-.0252 0-.0457.0204-.0457.0457z"/><path d="m101.77 40.5c-.111 0-.2-.0895-.2-.2v-1.2766c0-.0232.004-.0463.012-.0681l5.19-14.3195c.029-.0792.104-.1319.188-.1319h2.684c.084 0 .16.0529.188.1323l5.156 14.3192c.007.0218.011.0447.011.0678v1.2768c0 .1105-.089.2-.2.2zm6.491-13.1133c-.028 0-.053.0177-.062.0442l-3.748 10.7643c-.045.13.051.2657.189.2657h7.196c.138 0 .234-.1352.189-.265l-3.702-10.7648c-.009-.0265-.034-.0444-.062-.0444z"/><path d="m119.715 40.5c-.111 0-.2-.0895-.2-.2v-15.5961c0-.1105.089-.2.2-.2h6.175c2.789 0 4.594 1.5 4.594 3.9375 0 1.8545-1.032 3.0441-2.597 3.5008-.03.0089-.052.0369-.052.0688 0 .036.027.0663.063.0709 1.984.2555 3.453 1.622 3.453 3.9181 0 2.8359-2.239 4.5-5.578 4.5zm2.648-13.8867c-.11 0-.2.0895-.2.2v4.2523c0 .1105.09.2.2.2h2.05c2.379 0 3.434-.7968 3.434-2.3789 0-1.4179-.926-2.2734-2.508-2.2734zm0 6.6562c-.11 0-.2.0896-.2.2v4.7211c0 .1105.09.2.2.2h2.343c2.801 0 3.938-.7968 3.938-2.4844 0-1.6523-1.114-2.6367-3.094-2.6367z"/><path d="m146.224 38.1914c.111 0 .2.0895.2.2v1.9086c0 .1105-.089.2-.2.2h-9.315c-.11 0-.2-.0895-.2-.2v-15.5961c0-.1105.09-.2.2-.2h2.261c.11 0 .2.0895.2.2v13.2875c0 .1105.089.2.2.2z"/><path d="m160.683 38.2617c.11 0 .2.0896.2.2v1.8383c0 .1105-.09.2-.2.2h-9.584c-.111 0-.2-.0895-.2-.2v-15.5961c0-.1105.089-.2.2-.2h9.584c.11 0 .2.0895.2.2v1.8383c0 .1104-.09.2-.2.2h-6.936c-.11 0-.2.0895-.2.2v4.1586c0 .1104.09.2.2.2h6.514c.111 0 .2.0895.2.2v1.7445c0 .1105-.089.2-.2.2h-6.514c-.11 0-.2.0896-.2.2v4.4164c0 .1105.09.2.2.2z"/><path d="m169.031 40.3c0 .1105-.09.2-.2.2h-1.991c-.11 0-.2-.0895-.2-.2v-15.5961c0-.1105.09-.2.2-.2h2.341c.079 0 .152.0473.183.1203l4.818 11.0921c.01.0228.033.0376.058.0376.025 0 .047-.0148.057-.0376l4.818-11.0921c.032-.073.104-.1203.184-.1203h2.329c.11 0 .2.0895.2.2v15.5961c0 .1105-.09.2-.2.2h-2.003c-.11 0-.2-.0895-.2-.2v-10.7869c0-.0353-.028-.0639-.064-.0639-.025 0-.048.0149-.058.0381l-4.067 9.1944c-.032.0724-.104.1191-.183.1191h-1.65c-.079 0-.151-.0466-.183-.1189l-4.081-9.1989c-.009-.0205-.029-.0338-.051-.0338-.032 0-.057.0255-.057.0568z"/><path d="m197.885 38.2617c.11 0 .2.0896.2.2v1.8383c0 .1105-.09.2-.2.2h-9.585c-.11 0-.2-.0895-.2-.2v-15.5961c0-.1105.09-.2.2-.2h9.585c.11 0 .2.0895.2.2v1.8383c0 .1104-.09.2-.2.2h-6.936c-.111 0-.2.0895-.2.2v4.1586c0 .1104.089.2.2.2h6.514c.11 0 .2.0895.2.2v1.7445c0 .1105-.09.2-.2.2h-6.514c-.111 0-.2.0896-.2.2v4.4164c0 .1105.089.2.2.2z"/><path d="m206.303 40.3c0 .1105-.09.2-.2.2h-2.108c-.11 0-.2-.0895-.2-.2v-15.5961c0-.1105.09-.2.2-.2h2.036c.067 0 .13.0338.167.0901l7.484 11.3703c.01.015.026.024.044.024.03 0 .053-.0239.053-.0533v-11.2311c0-.1105.09-.2.2-.2h2.097c.11 0 .2.0895.2.2v15.5961c0 .1105-.09.2-.2.2h-2.013c-.067 0-.13-.0338-.167-.09l-7.509-11.409c-.009-.0128-.023-.0205-.038-.0205-.026 0-.046.0204-.046.0457z"/><path d="m228.015 40.3c0 .1105-.089.2-.2.2h-2.236c-.111 0-.2-.0895-.2-.2v-13.3227c0-.1104-.09-.2-.2-.2h-4.299c-.111 0-.2-.0895-.2-.2v-1.8734c0-.1105.089-.2.2-.2h11.635c.11 0 .2.0895.2.2v1.8734c0 .1105-.09.2-.2.2h-4.3c-.11 0-.2.0896-.2.2z"/><path d="m124.774 62.3c0 .1105-.089.2-.2.2h-2.237c-.11 0-.2-.0895-.2-.2v-13.3227c0-.1104-.089-.2-.2-.2h-4.299c-.11 0-.2-.0895-.2-.2v-1.8734c0-.1105.09-.2.2-.2h11.635c.111 0 .2.0895.2.2v1.8734c0 .1105-.089.2-.2.2h-4.299c-.11 0-.2.0896-.2.2z"/><path d="m143.422 60.2617c.11 0 .2.0896.2.2v1.8383c0 .1105-.09.2-.2.2h-9.585c-.11 0-.2-.0895-.2-.2v-15.5961c0-.1105.09-.2.2-.2h9.585c.11 0 .2.0895.2.2v1.8383c0 .1104-.09.2-.2.2h-6.936c-.111 0-.2.0895-.2.2v4.1586c0 .1104.089.2.2.2h6.514c.11 0 .2.0895.2.2v1.7445c0 .1105-.09.2-.2.2h-6.514c-.111 0-.2.0896-.2.2v4.4164c0 .1105.089.2.2.2z"/><path d="m147.822 62.5c-.111 0-.2-.0895-.2-.2v-1.2766c0-.0232.004-.0463.012-.0681l5.19-14.3195c.028-.0792.104-.1319.188-.1319h2.684c.084 0 .159.0529.188.1323l5.155 14.3192c.008.0218.012.0447.012.0678v1.2768c0 .1105-.089.2-.2.2zm6.491-13.1133c-.028 0-.053.0177-.062.0442l-3.748 10.7643c-.045.13.051.2657.189.2657h7.196c.137 0 .234-.1352.189-.265l-3.702-10.7648c-.009-.0265-.034-.0444-.062-.0444z"/><path d="m168.124 62.3c0 .1105-.089.2-.2.2h-1.99c-.111 0-.2-.0895-.2-.2v-15.5961c0-.1105.089-.2.2-.2h2.34c.08 0 .152.0473.184.1203l4.818 11.0921c.01.0228.032.0376.057.0376.025 0 .048-.0148.058-.0376l4.818-11.0921c.031-.073.103-.1203.183-.1203h2.329c.111 0 .2.0895.2.2v15.5961c0 .1105-.089.2-.2.2h-2.002c-.111 0-.2-.0895-.2-.2v-10.7869c0-.0353-.029-.0639-.064-.0639-.025 0-.048.0149-.059.0381l-4.067 9.1944c-.032.0724-.104.1191-.183.1191h-1.65c-.079 0-.15-.0466-.182-.1189l-4.081-9.1989c-.009-.0205-.03-.0338-.052-.0338-.031 0-.057.0255-.057.0568z"/></g></g></svg>