<svg width="1280" height="720" viewBox="0 0 1280 720" fill="none" xmlns="http://www.w3.org/2000/svg">
<rect width="1280" height="720" fill="#182534"/>
<path d="M792.085 446.014C791.939 446.014 791.842 445.862 791.904 445.729L888.866 238.77C888.899 238.7 888.97 238.655 889.047 238.655H1071.76C1071.9 238.655 1071.99 238.796 1071.94 238.927L1060.34 269.022C1060.33 269.045 1060.32 269.069 1060.32 269.094V272.806C1060.32 272.917 1060.23 273.006 1060.12 273.006H974.103C973.993 273.006 973.903 273.096 973.903 273.206V325.585C973.903 325.696 973.993 325.785 974.103 325.785H1068.61C1068.76 325.785 1068.85 325.926 1068.8 326.057L1057.99 354.249C1057.98 354.272 1057.98 354.296 1057.98 354.321V357.789C1057.98 357.9 1057.89 357.989 1057.78 357.989H974.103C973.993 357.989 973.903 358.079 973.903 358.189V411.463C973.903 411.574 973.993 411.663 974.103 411.663H1071.76C1071.9 411.663 1071.99 411.804 1071.94 411.935L1060.34 442.041C1060.33 442.064 1060.32 442.089 1060.32 442.113V445.814C1060.32 445.925 1060.23 446.014 1060.12 446.014H933.133C933.022 446.014 932.933 445.925 932.933 445.814V391.288C932.933 391.178 932.843 391.088 932.733 391.088H861.675C861.597 391.088 861.526 391.134 861.493 391.205L836.373 445.898C836.341 445.969 836.27 446.014 836.192 446.014H792.085ZM916.958 270.859C916.88 270.859 916.81 270.905 916.777 270.975L875.99 359.495C875.929 359.627 876.026 359.779 876.172 359.779H932.733C932.843 359.779 932.933 359.689 932.933 359.579V271.059C932.933 270.949 932.843 270.859 932.733 270.859H916.958Z" fill="#112D43"/>
<path d="M1141.49 446.014C1141.38 446.014 1141.29 445.925 1141.29 445.814V273.206C1141.29 273.096 1141.2 273.006 1141.09 273.006H1092.55C1092.44 273.006 1092.35 272.917 1092.35 272.806V269.093C1092.35 269.069 1092.34 269.045 1092.33 269.022L1080.8 238.927C1080.75 238.796 1080.85 238.655 1080.99 238.655H1246.24C1246.38 238.655 1246.48 238.796 1246.43 238.927L1234.82 269.022C1234.81 269.045 1234.81 269.069 1234.81 269.094V272.806C1234.81 272.917 1234.72 273.006 1234.61 273.006H1186.04C1185.93 273.006 1185.84 273.096 1185.84 273.206V445.814C1185.84 445.925 1185.75 446.014 1185.64 446.014H1141.49Z" fill="#112D43"/>
</svg>
