<svg width="1281" height="720" viewBox="0 0 1281 720" fill="none" xmlns="http://www.w3.org/2000/svg">
<g clip-path="url(#clip0_78_6196)">
<rect width="1280" height="720" transform="translate(0.75)" fill="#182534"/>
<rect width="539" height="539" transform="translate(719.75 -14)" fill="#182534"/>
<path d="M1147.92 80.631C1174.72 103.005 1186.45 131.343 1185.13 165.806C1182.17 242.777 1153.91 308.991 1100.48 364.102C1065.51 400.173 1023.2 424.869 975.043 439.386C943.999 448.742 912.258 453.553 879.923 450.726C851.902 448.276 829.539 434.398 812.632 412.002C798.226 392.919 792.717 371.195 793.319 347.422C794.943 283.28 815.51 225.764 854.06 174.833C877.802 143.465 907.082 118.012 941.453 98.5425C974.661 79.7296 1010.04 67.1396 1047.88 62.3448C1068.73 59.7008 1089.83 57.4019 1110.79 62.5163C1124.37 65.8309 1136.51 72.0774 1147.92 80.631Z" fill="#112D43"/>
<path d="M829.065 277.229C836.519 253.393 846.159 231.004 859.405 210.22C881.312 175.842 909.291 147.487 943.85 125.898C987.505 98.6253 1035.07 84.2111 1086.74 84.205C1100.79 84.2029 1113.83 87.9688 1125.97 95.2361C1129.72 97.4789 1129.15 98.513 1126.51 101.143C1079.77 147.738 1033.12 194.425 986.456 241.093C936.179 291.368 885.9 341.64 835.643 391.934C834.326 393.253 833.244 394.807 831.788 396.573C822.554 383.632 818.109 369.922 817.863 354.99C817.429 328.636 821.093 302.814 829.065 277.229Z" fill="#182534"/>
<path d="M963.837 298.641L1147 115.473C1154.44 125.084 1158.77 135.816 1159.88 147.577C1162.35 173.777 1158.89 199.517 1152.11 224.787C1135.52 286.6 1101.59 336.821 1050.15 374.932C1014.96 400.999 975.356 416.915 932.237 424.011C915.438 426.775 898.468 428.257 881.432 426.359C869.582 425.037 858.785 420.824 849.004 413.449L963.837 298.641Z" fill="#182534"/>
<path d="M965.607 246.536C965.504 246.64 965.328 246.6 965.278 246.462L942.396 182.96C942.37 182.887 942.388 182.805 942.443 182.75L980.621 144.681C980.721 144.582 980.889 144.613 980.945 144.741L984.718 153.284C984.728 153.307 984.742 153.327 984.76 153.345L985.42 154.007C985.498 154.085 985.497 154.212 985.419 154.29L967.546 172.112C967.468 172.19 967.468 172.317 967.546 172.395L978.321 183.2C978.399 183.278 978.525 183.279 978.603 183.201L998.215 163.644C998.315 163.545 998.483 163.576 998.539 163.705L1002.08 171.682C1002.09 171.704 1002.1 171.725 1002.12 171.742L1002.73 172.353C1002.81 172.431 1002.81 172.557 1002.73 172.635L985.35 189.967C985.272 190.045 985.272 190.171 985.35 190.249L996.312 201.243C996.39 201.321 996.517 201.321 996.595 201.243L1016.87 181.029C1016.97 180.93 1017.13 180.961 1017.19 181.09L1020.97 189.635C1020.98 189.658 1020.99 189.678 1021.01 189.695L1021.66 190.355C1021.74 190.433 1021.74 190.56 1021.66 190.638L995.184 217.044C995.106 217.122 994.979 217.121 994.901 217.043L983.676 205.787C983.598 205.708 983.472 205.708 983.393 205.786L968.628 220.51C968.573 220.565 968.555 220.648 968.582 220.721L974.7 237.305C974.727 237.378 974.709 237.461 974.653 237.516L965.607 246.536ZM955.055 183.669C954.999 183.724 954.981 183.806 955.008 183.879L964.877 210.731C964.927 210.868 965.103 210.906 965.206 210.803L976.834 199.208C976.912 199.13 976.912 199.004 976.834 198.925L958.488 180.527C958.41 180.449 958.284 180.449 958.205 180.527L955.055 183.669Z" fill="#112D43"/>
<path d="M1038.96 173.392C1038.88 173.47 1038.75 173.469 1038.68 173.391L1002.71 137.326C1002.64 137.248 1002.51 137.248 1002.43 137.326L992.431 147.298C992.352 147.376 992.226 147.376 992.148 147.298L991.488 146.636C991.47 146.618 991.45 146.604 991.428 146.594L982.91 142.782C982.782 142.725 982.751 142.557 982.85 142.458L1017.28 108.126C1017.38 108.027 1017.55 108.058 1017.6 108.187L1021.38 116.729C1021.39 116.752 1021.4 116.772 1021.42 116.79L1022.08 117.452C1022.16 117.53 1022.16 117.657 1022.08 117.735L1012.07 127.71C1012 127.788 1012 127.915 1012.07 127.993L1048.04 164.058C1048.11 164.136 1048.11 164.263 1048.04 164.341L1038.96 173.392Z" fill="#112D43"/>
</g>
<defs>
<clipPath id="clip0_78_6196">
<rect width="1280" height="720" fill="white" transform="translate(0.75)"/>
</clipPath>
</defs>
</svg>
