<svg width="1281" height="720" viewBox="0 0 1281 720" fill="none" xmlns="http://www.w3.org/2000/svg">
<g clip-path="url(#clip0_78_6196)">
<rect width="1280" height="720" transform="translate(0.75)" fill="#182534"/>
<rect width="539" height="539" transform="translate(719.75 -14)" fill="#182534"/>
<path d="M1147.92 80.631C1174.72 103.005 1186.45 131.343 1185.13 165.806C1182.17 242.777 1153.91 308.991 1100.48 364.102C1065.51 400.173 1023.2 424.869 975.043 439.386C943.999 448.742 912.258 453.553 879.923 450.726C851.902 448.276 829.539 434.398 812.632 412.002C798.226 392.919 792.717 371.195 793.319 347.422C794.943 283.28 815.51 225.764 854.06 174.833C877.802 143.465 907.082 118.012 941.453 98.5425C974.661 79.7296 1010.04 67.1396 1047.88 62.3448C1068.73 59.7008 1089.83 57.4019 1110.79 62.5163C1124.37 65.8309 1136.51 72.0774 1147.92 80.631Z" fill="#112D43"/>
<path d="M829.065 277.229C836.519 253.393 846.159 231.004 859.405 210.22C881.312 175.842 909.291 147.487 943.85 125.898C987.505 98.6253 1035.07 84.2111 1086.74 84.205C1100.79 84.2029 1113.83 87.9688 1125.97 95.2361C1129.72 97.4789 1129.15 98.513 1126.51 101.143C1079.77 147.738 1033.12 194.425 986.456 241.093C936.179 291.368 885.9 341.64 835.643 391.934C834.326 393.253 833.244 394.807 831.788 396.573C822.554 383.632 818.109 369.922 817.863 354.99C817.429 328.636 821.093 302.814 829.065 277.229Z" fill="#182534"/>
<path d="M963.837 298.641L1147 115.473C1154.44 125.084 1158.77 135.816 1159.88 147.577C1162.35 173.777 1158.89 199.517 1152.11 224.787C1135.52 286.6 1101.59 336.821 1050.15 374.932C1014.96 400.999 975.356 416.915 932.237 424.011C915.438 426.775 898.468 428.257 881.432 426.359C869.582 425.037 858.785 420.824 849.004 413.449L963.837 298.641Z" fill="#182534"/>
<path d="M1038.36 353.566C1038.25 353.669 1038.08 353.63 1038.03 353.492L1011.5 279.869C1011.47 279.796 1011.49 279.715 1011.55 279.66L1055.82 235.516C1055.91 235.417 1056.08 235.448 1056.14 235.577L1060.53 245.52C1060.54 245.542 1060.55 245.563 1060.57 245.58L1061.36 246.374C1061.44 246.452 1061.44 246.578 1061.36 246.656L1040.61 267.345C1040.54 267.423 1040.54 267.55 1040.61 267.628L1053.14 280.189C1053.22 280.267 1053.34 280.268 1053.42 280.19L1076.19 257.482C1076.29 257.383 1076.46 257.414 1076.52 257.542L1080.64 266.83C1080.65 266.852 1080.67 266.873 1080.68 266.89L1081.42 267.624C1081.49 267.702 1081.49 267.829 1081.41 267.907L1061.24 288.027C1061.16 288.105 1061.16 288.231 1061.24 288.31L1073.98 301.088C1074.06 301.166 1074.18 301.167 1074.26 301.089L1097.8 277.619C1097.9 277.52 1098.07 277.551 1098.12 277.68L1102.52 287.626C1102.53 287.648 1102.54 287.669 1102.56 287.686L1103.35 288.477C1103.42 288.555 1103.42 288.681 1103.35 288.759L1072.63 319.391C1072.55 319.469 1072.42 319.469 1072.35 319.39L1059.3 306.307C1059.22 306.229 1059.09 306.228 1059.02 306.306L1041.88 323.398C1041.82 323.453 1041.8 323.535 1041.83 323.609L1048.93 342.857C1048.96 342.93 1048.94 343.012 1048.88 343.068L1038.36 353.566ZM1026.15 280.724C1026.1 280.779 1026.08 280.861 1026.11 280.934L1037.56 312.103C1037.61 312.239 1037.79 312.278 1037.89 312.175L1051.42 298.687C1051.5 298.609 1051.5 298.482 1051.42 298.404L1030.12 277.048C1030.04 276.97 1029.92 276.97 1029.84 277.048L1026.15 280.724Z" fill="#112D43"/>
<path d="M1123.33 268.828C1123.26 268.906 1123.13 268.905 1123.05 268.827L1081.35 227.007C1081.27 226.929 1081.15 226.929 1081.07 227.007L1069.44 238.603C1069.36 238.681 1069.23 238.68 1069.16 238.602L1068.37 237.809C1068.35 237.791 1068.33 237.777 1068.31 237.767L1058.39 233.331C1058.26 233.273 1058.23 233.105 1058.33 233.006L1098.28 193.174C1098.38 193.074 1098.55 193.106 1098.6 193.234L1102.99 203.177C1103 203.2 1103.02 203.22 1103.03 203.238L1103.83 204.031C1103.9 204.109 1103.9 204.236 1103.83 204.314L1092.19 215.914C1092.11 215.992 1092.11 216.119 1092.19 216.197L1133.89 258.017C1133.97 258.095 1133.97 258.221 1133.89 258.299L1123.33 268.828Z" fill="#112D43"/>
</g>
<defs>
<clipPath id="clip0_78_6196">
<rect width="1280" height="720" fill="white" transform="translate(0.75)"/>
</clipPath>
</defs>
</svg>
