<svg width="192" height="66" viewBox="0 0 192 66" fill="none" xmlns="http://www.w3.org/2000/svg">
<rect width="192" height="65" transform="translate(0 0.258057)" fill="#182534"/>
<path d="M61.8323 19.2581V17.7463L67.0823 3.26196H70.0472L75.262 17.7463V19.2581H61.8323ZM68.4769 6.14478L64.6214 17.219H72.3792L68.5706 6.14478H68.4769ZM48.5062 41.2581V39.7463L53.7562 25.262H56.7211L61.9359 39.7463V41.2581H48.5062ZM55.1508 28.1448L51.2953 39.219H59.0531L55.2445 28.1448H55.1508ZM93.6816 63.2581V61.7463L98.9316 47.262H101.896L107.111 61.7463V63.2581H93.6816ZM100.326 50.1448L96.4706 61.219H104.228L100.42 50.1448H100.326Z" fill="#00C7A5"/>
<path d="M91.9064 8.26587H89.3048C89.0822 6.41431 87.7814 5.21899 85.7306 5.21899C83.2463 5.21899 81.8048 7.00024 81.8048 10.0471V12.262C81.8048 15.3792 83.1056 17.301 85.8127 17.301C87.9806 17.301 89.3986 15.9534 89.3986 14.1252V12.8713H85.7189V10.7737H91.9416V14.0081C91.9416 17.0784 89.5861 19.5745 85.7775 19.5745C81.3478 19.5745 79.1447 16.7502 79.1447 12.2737V10.0354C79.1447 5.69946 81.5705 2.94556 85.7423 2.94556C89.4455 2.94556 91.7423 5.23071 91.9064 8.26587ZM99.7148 19.2581H97.0547V3.26196H99.7148V19.2581ZM115.187 16.9495V19.2581H105.473V3.26196H108.133V16.9495H115.187ZM129.453 17.0198V19.2581H119.468V3.26196H129.453V5.50024H122.117V10.0588H129.031V12.2034H122.117V17.0198H129.453ZM26.2683 39.0198V41.2581H16.2839V25.262H26.2683V27.5002H18.9323V32.0588H25.8464V34.2034H18.9323V39.0198H26.2683ZM34.0064 41.2581H31.4986V25.262H33.8423L41.4009 36.7463H41.483V25.262H43.9791V41.2581H41.6587L34.0767 29.7385H34.0064V41.2581ZM66.4514 41.2581V25.262H72.8264C75.6155 25.262 77.4202 26.762 77.4202 29.1995C77.4202 31.0745 76.3655 32.2698 74.7717 32.7151V32.8323C76.7873 33.0667 78.2873 34.4377 78.2873 36.7581C78.2873 39.594 76.0491 41.2581 72.7092 41.2581H66.4514ZM69.0998 27.3713V32.0237H71.3498C73.7287 32.0237 74.7834 31.2268 74.7834 29.6448C74.7834 28.2268 73.8577 27.3713 72.2756 27.3713H69.0998ZM69.0998 34.0276V39.1487H71.6428C74.4436 39.1487 75.5803 38.3518 75.5803 36.6643C75.5803 35.012 74.467 34.0276 72.4866 34.0276H69.0998ZM92.8809 38.9495V41.2581H83.1661V25.262H85.8262V38.9495H92.8809ZM107.146 39.0198V41.2581H97.162V25.262H107.146V27.5002H99.8105V32.0588H106.725V34.2034H99.8105V39.0198H107.146ZM114.814 41.2581H112.424V25.262H115.095L119.982 36.512H120.064L124.951 25.262H127.611V41.2581H125.209V30.2073H125.103L120.967 39.5588H119.056L114.908 30.2073H114.814V41.2581ZM143.388 39.0198V41.2581H133.404V25.262H143.388V27.5002H136.052V32.0588H142.966V34.2034H136.052V39.0198H143.388ZM151.126 41.2581H148.619V25.262H150.962L158.521 36.7463H158.603V25.262H161.099V41.2581H158.779L151.197 29.7385H151.126V41.2581ZM172.599 41.2581H169.962V27.5354H165.263V25.262H177.298V27.5354H172.599V41.2581ZM70.8342 63.2581H68.1975V49.5354H63.4983V47.262H75.5334V49.5354H70.8342V63.2581ZM89.6817 61.0198V63.2581H79.6973V47.262H89.6817V49.5002H82.3458V54.0588H89.2598V56.2034H82.3458V61.0198H89.6817ZM114.064 63.2581H111.674V47.262H114.345L119.232 58.512H119.314L124.201 47.262H126.861V63.2581H124.459V52.2073H124.353L120.217 61.5588H118.306L114.158 52.2073H114.064V63.2581Z" fill="#00BCF2"/>
</svg>
