<svg width="1280" height="720" viewBox="0 0 1280 720" fill="none" xmlns="http://www.w3.org/2000/svg">
<g clip-path="url(#clip0_1_3)">
<rect width="1280" height="720" fill="#182534"/>
<path d="M968.288 237.569V215.006H933.001V114.281H1021.34V214.86H986.191V254.942H1074.54V315.486H1110V416.259H1021.74V315.825H1056.81V275.591H897.492V315.683H932.642V416.209H844.345V315.924H879.395V255.382H968.288V237.569ZM915.044 394.754C915.007 375.403 914.97 356.052 914.998 336.256C914.774 336.174 914.552 336.091 913.642 335.882C896.613 335.924 879.584 335.966 862.164 335.934C862.092 336.188 862.018 336.44 861.834 337.475C861.871 356.825 861.908 376.177 861.88 395.972C862.103 396.055 862.326 396.138 863.236 396.347C880.265 396.305 897.294 396.263 914.714 396.295C914.786 396.041 914.86 395.788 915.044 394.754ZM1003.78 190.828V134.514H950.798V194.72C967.793 194.72 984.535 194.669 1001.28 194.781C1003.53 194.796 1004.06 193.846 1003.78 190.829M1092.5 353.932V336.12H1039.49V396.108H1092.5V353.932Z" fill="#112D43"/>
<path d="M941.907 327.434C941.761 327.434 941.664 327.282 941.726 327.149L958.213 291.96C958.246 291.89 958.316 291.845 958.394 291.845H989.405C989.546 291.845 989.643 291.986 989.592 292.117L987.698 297.028C987.689 297.051 987.684 297.076 987.684 297.1V297.541C987.684 297.651 987.595 297.741 987.484 297.741H973.052C972.942 297.741 972.852 297.83 972.852 297.941V306.599C972.852 306.71 972.942 306.799 973.052 306.799H988.867C989.007 306.799 989.104 306.94 989.054 307.071L987.295 311.656C987.287 311.679 987.282 311.703 987.282 311.728V312.127C987.282 312.237 987.192 312.327 987.082 312.327H973.052C972.942 312.327 972.852 312.416 972.852 312.527V321.339C972.852 321.449 972.942 321.539 973.052 321.539H989.405C989.546 321.539 989.643 321.68 989.592 321.811L987.698 326.724C987.689 326.747 987.684 326.771 987.684 326.796V327.234C987.684 327.345 987.595 327.434 987.484 327.434H966.02C965.91 327.434 965.82 327.345 965.82 327.234V318.207C965.82 318.097 965.731 318.007 965.62 318.007H953.697C953.619 318.007 953.548 318.053 953.515 318.124L949.292 327.318C949.26 327.389 949.189 327.434 949.111 327.434H941.907ZM963.185 297.372C963.107 297.372 963.036 297.418 963.003 297.489L956.156 312.35C956.095 312.482 956.191 312.634 956.337 312.634H965.62C965.731 312.634 965.82 312.544 965.82 312.434V297.572C965.82 297.462 965.731 297.372 965.62 297.372H963.185Z" fill="#112D43"/>
<path d="M1001.78 327.434C1001.67 327.434 1001.58 327.345 1001.58 327.234V297.941C1001.58 297.83 1001.49 297.741 1001.38 297.741H993.381C993.27 297.741 993.181 297.651 993.181 297.541V297.1C993.181 297.075 993.176 297.051 993.168 297.028L991.285 292.117C991.235 291.986 991.332 291.845 991.472 291.845H1019.35C1019.49 291.845 1019.59 291.986 1019.54 292.117L1017.64 297.028C1017.64 297.051 1017.63 297.076 1017.63 297.1V297.541C1017.63 297.651 1017.54 297.741 1017.43 297.741H1009.43C1009.32 297.741 1009.23 297.83 1009.23 297.941V327.234C1009.23 327.345 1009.14 327.434 1009.03 327.434H1001.78Z" fill="#112D43"/>
<path d="M269.113 173.153V166.279H258.413V135.589H285.2V166.234H274.541V178.447H301.331V196.894H312.083V227.598H285.322V196.997H295.954V184.738H247.646V196.954H258.304V227.583H231.53V197.027H242.158V178.581H269.113V173.153ZM252.968 221.046C252.957 215.15 252.945 209.254 252.954 203.222C252.886 203.197 252.819 203.172 252.543 203.108C247.379 203.121 242.215 203.134 236.933 203.124C236.911 203.202 236.889 203.279 236.833 203.594C236.845 209.49 236.856 215.386 236.847 221.417C236.915 221.442 236.983 221.468 237.258 221.532C242.422 221.519 247.586 221.506 252.868 221.516C252.89 221.438 252.912 221.361 252.968 221.046ZM279.874 158.912V141.753H263.809V160.098C268.963 160.098 274.039 160.082 279.115 160.116C279.797 160.121 279.961 159.831 279.874 158.912M306.776 208.608V203.181H290.702V221.459H306.776V208.608Z" fill="#112D43"/>
<path d="M261.332 200.534C261.186 200.534 261.089 200.383 261.151 200.25L266.02 189.806C266.053 189.736 266.124 189.691 266.201 189.691H275.313C275.454 189.691 275.55 189.831 275.5 189.962L275.006 191.25C274.998 191.27 274.994 191.292 274.994 191.313V191.313C274.994 191.409 274.916 191.487 274.82 191.487H270.697C270.586 191.487 270.497 191.577 270.497 191.687V194.047C270.497 194.158 270.586 194.247 270.697 194.247H275.15C275.291 194.247 275.387 194.388 275.337 194.519L274.883 195.709C274.876 195.728 274.872 195.748 274.872 195.768V195.768C274.872 195.858 274.799 195.931 274.708 195.931H270.697C270.586 195.931 270.497 196.021 270.497 196.131V198.538C270.497 198.649 270.586 198.738 270.697 198.738H275.313C275.454 198.738 275.55 198.879 275.5 199.01L275.006 200.298C274.998 200.318 274.994 200.339 274.994 200.361V200.361C274.994 200.457 274.916 200.534 274.82 200.534H268.564C268.454 200.534 268.364 200.445 268.364 200.334V197.862C268.364 197.752 268.275 197.662 268.164 197.662H264.778C264.7 197.662 264.628 197.708 264.596 197.779L263.39 200.418C263.357 200.489 263.286 200.534 263.208 200.534H261.332ZM267.655 191.375C267.577 191.375 267.506 191.42 267.473 191.492L265.524 195.741C265.463 195.874 265.56 196.025 265.706 196.025H268.164C268.275 196.025 268.364 195.935 268.364 195.825V191.575C268.364 191.464 268.275 191.375 268.164 191.375H267.655Z" fill="#112D43"/>
<path d="M279.408 200.534C279.298 200.534 279.208 200.445 279.208 200.334V191.687C279.208 191.577 279.119 191.487 279.008 191.487H276.835C276.739 191.487 276.661 191.409 276.661 191.313V191.313C276.661 191.291 276.657 191.27 276.649 191.251L276.158 189.962C276.108 189.831 276.205 189.691 276.345 189.691H284.394C284.534 189.691 284.631 189.831 284.581 189.962L284.086 191.25C284.079 191.27 284.075 191.292 284.075 191.313V191.313C284.075 191.409 283.997 191.487 283.901 191.487H281.727C281.616 191.487 281.527 191.577 281.527 191.687V200.334C281.527 200.445 281.437 200.534 281.327 200.534H279.408Z" fill="#112D43"/>
<path d="M102.59 209.763V204.29H94.0488V179.857H115.431V204.254H106.923V213.977H128.308V228.663H136.891V253.108H115.529V228.745H124.016V218.986H85.4541V228.711H93.962V253.096H72.59V228.769H81.0738V214.084H102.59V209.763ZM89.7023 247.891C89.6934 243.197 89.6844 238.503 89.6912 233.701C89.6372 233.681 89.5833 233.661 89.363 233.611C85.2413 233.621 81.1194 233.631 76.903 233.623C76.8855 233.685 76.8677 233.746 76.8232 233.997C76.8321 238.691 76.8411 243.385 76.8343 248.187C76.8883 248.207 76.9422 248.227 77.1625 248.278C81.2842 248.267 85.4061 248.257 89.6225 248.265C89.6401 248.203 89.6578 248.142 89.7023 247.891ZM111.18 198.425V184.765H98.3565V199.369C102.47 199.369 106.522 199.357 110.575 199.384C111.119 199.387 111.25 199.157 111.18 198.425M132.655 237.989V233.668H119.824V248.22H132.655V237.989Z" fill="#112D43"/>
<path d="M96.4427 231.561C96.2963 231.561 96.1995 231.409 96.2615 231.277L100.11 223.044C100.143 222.974 100.214 222.929 100.292 222.929H107.481C107.621 222.929 107.718 223.069 107.667 223.2L107.294 224.17C107.288 224.186 107.285 224.203 107.285 224.22V224.22C107.285 224.297 107.223 224.359 107.146 224.359H103.895C103.784 224.359 103.695 224.448 103.695 224.559V226.356C103.695 226.466 103.784 226.556 103.895 226.556H107.351C107.491 226.556 107.588 226.697 107.537 226.827L107.196 227.72C107.19 227.735 107.187 227.751 107.187 227.767V227.767C107.187 227.838 107.129 227.897 107.057 227.897H103.895C103.784 227.897 103.695 227.986 103.695 228.097V229.931C103.695 230.042 103.784 230.131 103.895 230.131H107.481C107.621 230.131 107.718 230.272 107.667 230.403L107.294 231.374C107.288 231.389 107.285 231.406 107.285 231.423V231.423C107.285 231.5 107.223 231.561 107.146 231.561H102.193C102.082 231.561 101.993 231.472 101.993 231.361V229.475C101.993 229.364 101.903 229.275 101.793 229.275H99.1554C99.0772 229.275 99.0062 229.32 98.9736 229.391L98.0326 231.445C98 231.516 97.929 231.561 97.8508 231.561H96.4427ZM101.452 224.269C101.374 224.269 101.303 224.315 101.27 224.386L99.7521 227.688C99.6911 227.82 99.7879 227.971 99.9338 227.971H101.793C101.903 227.971 101.993 227.882 101.993 227.771V224.469C101.993 224.359 101.903 224.269 101.793 224.269H101.452Z" fill="#112D43"/>
<path d="M110.849 231.561C110.738 231.561 110.649 231.472 110.649 231.361V224.559C110.649 224.448 110.559 224.359 110.449 224.359H108.754C108.677 224.359 108.615 224.297 108.615 224.22V224.22C108.615 224.203 108.612 224.186 108.606 224.17L108.235 223.2C108.185 223.069 108.282 222.929 108.422 222.929H114.729C114.87 222.929 114.966 223.069 114.916 223.2L114.543 224.17C114.536 224.186 114.533 224.203 114.533 224.22V224.22C114.533 224.297 114.471 224.359 114.395 224.359H112.699C112.589 224.359 112.499 224.448 112.499 224.559V231.361C112.499 231.472 112.41 231.561 112.299 231.561H110.849Z" fill="#112D43"/>
<path d="M440.572 179.37V174.965H433.72V155.299H450.873V174.936H444.048V182.762H461.203V194.582H468.088V214.257H450.952V194.649H457.76V186.794H426.826V194.621H433.651V214.248H416.506V194.668H423.312V182.848H440.572V179.37ZM430.234 210.059C430.227 206.281 430.219 202.503 430.225 198.638C430.181 198.622 430.138 198.605 429.962 198.565C426.655 198.573 423.349 198.581 419.966 198.575C419.952 198.624 419.938 198.674 419.902 198.876C419.909 202.654 419.916 206.432 419.911 210.297C419.954 210.313 419.998 210.329 420.174 210.37C423.481 210.362 426.787 210.353 430.17 210.36C430.184 210.31 430.198 210.261 430.234 210.059ZM447.463 170.245V159.25H437.176V171.004C440.476 171.004 443.727 170.994 446.977 171.016C447.414 171.019 447.519 170.834 447.463 170.245M464.69 202.089V198.611H454.397V210.323H464.69V202.089Z" fill="#112D43"/>
<path d="M435.703 196.915C435.556 196.915 435.46 196.763 435.521 196.631L438.573 190.082C438.605 190.012 438.676 189.967 438.754 189.967H444.438C444.578 189.967 444.675 190.108 444.625 190.239L444.346 190.966C444.341 190.979 444.338 190.993 444.338 191.006V191.006C444.338 191.068 444.288 191.118 444.227 191.118H441.658C441.548 191.118 441.458 191.208 441.458 191.318V192.687C441.458 192.797 441.548 192.887 441.658 192.887H444.334C444.474 192.887 444.571 193.027 444.521 193.158L444.267 193.823C444.263 193.835 444.26 193.848 444.26 193.861V193.861C444.26 193.919 444.213 193.966 444.155 193.966H441.658C441.548 193.966 441.458 194.055 441.458 194.166V195.564C441.458 195.675 441.548 195.764 441.658 195.764H444.438C444.579 195.764 444.675 195.905 444.625 196.036L444.346 196.764C444.341 196.777 444.338 196.79 444.338 196.804V196.804C444.338 196.865 444.289 196.915 444.227 196.915H440.293C440.183 196.915 440.093 196.826 440.093 196.715V195.275C440.093 195.164 440.004 195.075 439.893 195.075H437.843C437.764 195.075 437.693 195.12 437.661 195.192L436.927 196.798C436.894 196.87 436.823 196.915 436.745 196.915H435.703ZM439.685 191.046C439.607 191.046 439.536 191.092 439.503 191.163L438.321 193.742C438.26 193.875 438.357 194.026 438.503 194.026H439.893C440.004 194.026 440.093 193.936 440.093 193.826V191.246C440.093 191.136 440.004 191.046 439.893 191.046H439.685Z" fill="#112D43"/>
<path d="M447.237 196.915C447.126 196.915 447.037 196.826 447.037 196.715V191.318C447.037 191.208 446.947 191.118 446.837 191.118H445.517C445.456 191.118 445.406 191.068 445.406 191.006V191.006C445.406 190.993 445.403 190.979 445.398 190.966L445.121 190.238C445.071 190.107 445.167 189.967 445.308 189.967H450.253C450.393 189.967 450.49 190.108 450.44 190.239L450.161 190.966C450.156 190.979 450.153 190.993 450.153 191.006V191.006C450.153 191.068 450.103 191.118 450.042 191.118H448.721C448.611 191.118 448.521 191.208 448.521 191.318V196.715C448.521 196.826 448.432 196.915 448.321 196.915H447.237Z" fill="#112D43"/>
<path d="M722.61 178.955V172.28H712.191V142.484H738.273V172.237H727.895V184.094H753.98V202.004H764.449V231.814H738.392V202.104H748.745V190.202H701.708V202.062H712.086V231.799H686.016V202.134H696.365V184.224H722.61V178.955ZM706.89 225.453C706.879 219.728 706.868 214.004 706.876 208.148C706.81 208.124 706.744 208.099 706.476 208.037C701.448 208.05 696.42 208.062 691.277 208.053C691.256 208.128 691.234 208.202 691.18 208.508C691.191 214.233 691.202 219.957 691.193 225.813C691.259 225.837 691.325 225.862 691.594 225.924C696.621 225.911 701.649 225.899 706.792 225.908C706.814 225.833 706.835 225.759 706.89 225.453ZM733.088 165.128V148.469H717.446V166.279C722.464 166.279 727.406 166.264 732.349 166.297C733.013 166.302 733.173 166.021 733.088 165.128M759.282 213.377V208.108H743.631V225.853H759.282V213.377Z" fill="#112D43"/>
<path d="M715.042 205.538C714.896 205.538 714.799 205.386 714.861 205.254L719.597 195.126C719.63 195.055 719.701 195.01 719.778 195.01H728.639C728.78 195.01 728.876 195.151 728.826 195.282L728.348 196.525C728.34 196.544 728.336 196.565 728.336 196.585V196.585C728.336 196.679 728.261 196.755 728.167 196.755H724.157C724.047 196.755 723.957 196.844 723.957 196.955V199.234C723.957 199.345 724.047 199.434 724.157 199.434H728.481C728.621 199.434 728.718 199.575 728.667 199.706L728.228 200.854C728.221 200.872 728.218 200.891 728.218 200.91V200.91C728.218 200.998 728.146 201.069 728.059 201.069H724.157C724.047 201.069 723.957 201.159 723.957 201.269V203.594C723.957 203.705 724.047 203.794 724.157 203.794H728.639C728.78 203.794 728.876 203.935 728.826 204.066L728.348 205.309C728.34 205.328 728.336 205.349 728.336 205.37V205.37C728.336 205.463 728.261 205.538 728.168 205.538H722.081C721.971 205.538 721.881 205.449 721.881 205.338V202.95C721.881 202.839 721.792 202.75 721.681 202.75H718.392C718.314 202.75 718.243 202.795 718.21 202.866L717.039 205.422C717.006 205.493 716.935 205.538 716.857 205.538H715.042ZM721.193 196.646C721.115 196.646 721.044 196.691 721.012 196.762L719.12 200.876C719.059 201.009 719.155 201.16 719.301 201.16H721.681C721.792 201.16 721.881 201.071 721.881 200.96V196.846C721.881 196.735 721.792 196.646 721.681 196.646H721.193Z" fill="#112D43"/>
<path d="M732.639 205.538C732.529 205.538 732.439 205.449 732.439 205.338V196.955C732.439 196.844 732.35 196.755 732.239 196.755H730.128C730.035 196.755 729.959 196.679 729.959 196.585V196.585C729.959 196.565 729.955 196.544 729.948 196.525L729.473 195.282C729.422 195.151 729.519 195.01 729.659 195.01H737.481C737.621 195.01 737.718 195.151 737.668 195.282L737.189 196.525C737.182 196.544 737.178 196.565 737.178 196.585V196.585C737.178 196.679 737.102 196.755 737.009 196.755H734.897C734.786 196.755 734.697 196.844 734.697 196.955V205.338C734.697 205.449 734.607 205.538 734.497 205.538H732.639Z" fill="#112D43"/>
<path d="M561.073 249.37V244.965H554.128V225.299H571.515V244.936H564.597V252.762H581.987V264.582H588.966V284.257H571.595V264.649H578.497V256.794H547.138V264.621H554.057V284.248H536.677V264.668H543.576V252.848H561.073V249.37ZM550.593 280.059C550.586 276.281 550.578 272.503 550.584 268.638C550.54 268.622 550.496 268.605 550.317 268.565C546.965 268.573 543.614 268.581 540.185 268.575C540.171 268.624 540.156 268.674 540.12 268.876C540.127 272.654 540.134 276.432 540.129 280.297C540.173 280.313 540.217 280.329 540.396 280.37C543.748 280.362 547.099 280.353 550.528 280.36C550.542 280.31 550.557 280.261 550.593 280.059ZM568.058 240.245V229.25H557.63V241.004C560.976 241.004 564.271 240.994 567.566 241.016C568.009 241.019 568.115 240.834 568.058 240.245M585.521 272.089V268.611H575.087V280.323H585.521V272.089Z" fill="#112D43"/>
<path d="M556.134 266.915C555.988 266.915 555.891 266.763 555.954 266.63L559.046 260.081C559.08 260.012 559.15 259.967 559.227 259.967H564.995C565.135 259.967 565.232 260.108 565.181 260.239L564.898 260.966C564.893 260.979 564.891 260.993 564.891 261.007V261.007C564.891 261.068 564.841 261.118 564.779 261.118H562.172C562.061 261.118 561.972 261.208 561.972 261.318V262.687C561.972 262.797 562.061 262.887 562.172 262.887H564.889C565.03 262.887 565.126 263.028 565.076 263.159L564.819 263.823C564.814 263.835 564.812 263.848 564.812 263.861V263.861C564.812 263.919 564.765 263.966 564.707 263.966H562.172C562.061 263.966 561.972 264.055 561.972 264.166V265.564C561.972 265.675 562.061 265.764 562.172 265.764H564.995C565.135 265.764 565.232 265.906 565.181 266.037L564.898 266.764C564.893 266.777 564.891 266.79 564.891 266.804V266.804C564.891 266.866 564.841 266.915 564.78 266.915H560.787C560.677 266.915 560.587 266.826 560.587 266.715V265.275C560.587 265.164 560.498 265.075 560.387 265.075H558.304C558.226 265.075 558.155 265.12 558.122 265.191L557.377 266.799C557.345 266.87 557.274 266.915 557.196 266.915H556.134ZM560.171 261.046C560.093 261.046 560.023 261.091 559.99 261.162L558.791 263.741C558.73 263.874 558.827 264.026 558.973 264.026H560.387C560.498 264.026 560.587 263.936 560.587 263.826V261.246C560.587 261.136 560.498 261.046 560.387 261.046H560.171Z" fill="#112D43"/>
<path d="M567.826 266.915C567.716 266.915 567.626 266.826 567.626 266.715V261.318C567.626 261.208 567.537 261.118 567.426 261.118H566.084C566.023 261.118 565.973 261.068 565.973 261.006V261.006C565.973 260.993 565.97 260.979 565.965 260.966L565.684 260.239C565.634 260.108 565.73 259.967 565.871 259.967H570.889C571.03 259.967 571.127 260.108 571.076 260.239L570.793 260.966C570.788 260.979 570.785 260.993 570.785 261.007V261.007C570.785 261.068 570.735 261.118 570.674 261.118H569.331C569.221 261.118 569.131 261.208 569.131 261.318V266.715C569.131 266.826 569.042 266.915 568.931 266.915H567.826Z" fill="#112D43"/>
<path d="M571.042 133.183V130.646H567.099V119.324H576.968V130.63H573.041V135.136H582.911V141.941H586.873V153.269H577.013V141.98H580.93V137.457H563.133V141.964H567.059V153.264H557.195V141.991H561.111V135.185H571.042V133.183ZM565.093 150.852C565.089 148.677 565.085 146.501 565.088 144.276C565.063 144.267 565.038 144.258 564.937 144.234C563.034 144.239 561.132 144.244 559.186 144.24C559.178 144.269 559.17 144.297 559.149 144.413C559.153 146.588 559.157 148.764 559.154 150.989C559.179 150.998 559.204 151.008 559.306 151.031C561.208 151.026 563.11 151.022 565.056 151.025C565.065 150.997 565.073 150.968 565.093 150.852ZM575.006 127.929V121.598H569.088V128.366C570.986 128.366 572.856 128.36 574.727 128.373C574.978 128.375 575.038 128.268 575.006 127.929M584.918 146.263V144.261H578.995V151.004H584.918V146.263Z" fill="#112D43"/>
<path d="M568.373 143.285C568.227 143.285 568.13 143.133 568.192 143L569.868 139.4C569.901 139.329 569.972 139.284 570.05 139.284H573.142C573.283 139.284 573.379 139.425 573.329 139.556L573.213 139.859C573.21 139.867 573.208 139.875 573.208 139.882V139.882C573.208 139.918 573.18 139.947 573.144 139.947H571.751C571.641 139.947 571.551 140.036 571.551 140.147V140.765C571.551 140.875 571.641 140.965 571.751 140.965H573.083C573.223 140.965 573.32 141.105 573.27 141.236L573.167 141.504C573.165 141.511 573.163 141.519 573.163 141.526V141.526C573.163 141.559 573.136 141.586 573.103 141.586H571.751C571.641 141.586 571.551 141.676 571.551 141.786V142.422C571.551 142.532 571.641 142.622 571.751 142.622H573.142C573.283 142.622 573.379 142.762 573.329 142.893L573.213 143.198C573.21 143.205 573.208 143.213 573.208 143.22V143.22C573.208 143.256 573.18 143.285 573.144 143.285H570.966C570.855 143.285 570.766 143.195 570.766 143.085V142.425C570.766 142.314 570.676 142.225 570.566 142.225H569.526C569.447 142.225 569.376 142.271 569.344 142.342L568.967 143.168C568.934 143.239 568.863 143.285 568.785 143.285H568.373ZM570.578 139.905C570.504 139.905 570.438 139.948 570.407 140.015L569.801 141.338C569.741 141.47 569.837 141.621 569.983 141.621H570.566C570.676 141.621 570.766 141.531 570.766 141.421V140.093C570.766 139.989 570.682 139.905 570.578 139.905V139.905Z" fill="#112D43"/>
<path d="M574.961 143.285C574.85 143.285 574.761 143.195 574.761 143.085V140.147C574.761 140.036 574.671 139.947 574.561 139.947H573.887C573.851 139.947 573.822 139.918 573.822 139.882V139.882C573.822 139.875 573.821 139.867 573.818 139.859L573.702 139.555C573.652 139.424 573.749 139.284 573.889 139.284H576.488C576.628 139.284 576.725 139.425 576.675 139.556L576.558 139.859C576.555 139.867 576.554 139.875 576.554 139.882V139.882C576.554 139.918 576.525 139.947 576.49 139.947H575.815C575.705 139.947 575.615 140.036 575.615 140.147V143.085C575.615 143.195 575.526 143.285 575.415 143.285H574.961Z" fill="#112D43"/>
<path d="M1267.09 270.761V264.954H1258.08V239.031H1280.64V264.916H1271.67V275.232H1294.23V290.813H1303.28V316.748H1280.74V290.901H1289.7V280.546H1249.02V290.864H1257.99V316.735H1235.45V290.926H1244.4V275.345H1267.09V270.761ZM1253.5 311.214C1253.49 306.234 1253.48 301.253 1253.49 296.159C1253.43 296.138 1253.37 296.116 1253.14 296.062C1248.79 296.073 1244.44 296.084 1240 296.076C1239.98 296.141 1239.96 296.206 1239.91 296.472C1239.92 301.452 1239.93 306.433 1239.92 311.527C1239.98 311.548 1240.04 311.57 1240.27 311.624C1244.62 311.613 1248.97 311.602 1253.41 311.61C1253.43 311.545 1253.45 311.48 1253.5 311.214ZM1276.16 258.731V244.238H1262.63V259.733C1266.97 259.733 1271.24 259.72 1275.52 259.749C1276.09 259.752 1276.23 259.508 1276.16 258.732M1298.81 300.708V296.124H1285.28V311.562H1298.81V300.708Z" fill="#112D43"/>
<path d="M1260.59 293.888C1260.45 293.888 1260.35 293.737 1260.41 293.604L1264.48 284.845C1264.51 284.774 1264.59 284.729 1264.66 284.729H1272.27C1272.41 284.729 1272.51 284.87 1272.46 285.001L1272.06 286.047C1272.05 286.063 1272.05 286.081 1272.05 286.099V286.099C1272.05 286.18 1271.98 286.246 1271.9 286.246H1268.46C1268.35 286.246 1268.26 286.336 1268.26 286.446V288.378C1268.26 288.488 1268.35 288.578 1268.46 288.578H1272.13C1272.27 288.578 1272.37 288.718 1272.32 288.849L1271.95 289.813C1271.95 289.828 1271.94 289.845 1271.94 289.862V289.862C1271.94 289.938 1271.88 290 1271.81 290H1268.46C1268.35 290 1268.26 290.09 1268.26 290.2V292.171C1268.26 292.281 1268.35 292.371 1268.46 292.371H1272.27C1272.41 292.371 1272.51 292.512 1272.46 292.642L1272.06 293.689C1272.05 293.706 1272.05 293.724 1272.05 293.742V293.742C1272.05 293.823 1271.98 293.888 1271.9 293.888H1266.66C1266.55 293.888 1266.46 293.799 1266.46 293.688V291.662C1266.46 291.552 1266.38 291.462 1266.26 291.462H1263.46C1263.39 291.462 1263.32 291.508 1263.28 291.579L1262.28 293.771C1262.25 293.843 1262.18 293.888 1262.1 293.888H1260.59ZM1265.89 286.152C1265.81 286.152 1265.74 286.197 1265.71 286.268L1264.09 289.796C1264.03 289.929 1264.13 290.079 1264.27 290.079H1266.26C1266.38 290.079 1266.46 289.99 1266.46 289.879V286.352C1266.46 286.241 1266.38 286.152 1266.26 286.152H1265.89Z" fill="#112D43"/>
<path d="M1275.8 293.888C1275.69 293.888 1275.6 293.799 1275.6 293.688V286.446C1275.6 286.336 1275.51 286.246 1275.4 286.246H1273.6C1273.52 286.246 1273.45 286.18 1273.45 286.099V286.099C1273.45 286.081 1273.45 286.063 1273.44 286.047L1273.04 285C1272.99 284.869 1273.09 284.729 1273.23 284.729H1279.92C1280.06 284.729 1280.15 284.87 1280.1 285.001L1279.7 286.047C1279.7 286.063 1279.69 286.081 1279.69 286.099V286.099C1279.69 286.18 1279.63 286.246 1279.55 286.246H1277.75C1277.64 286.246 1277.55 286.336 1277.55 286.446V293.688C1277.55 293.799 1277.46 293.888 1277.35 293.888H1275.8Z" fill="#112D43"/>
<path d="M1236.06 168.377V164.973H1230.8V149.777H1243.96V164.951H1238.72V170.998H1251.88V180.132H1257.16V195.335H1244.02V180.183H1249.24V174.113H1225.51V180.162H1230.75V195.328H1217.59V180.198H1222.81V171.064H1236.06V168.377ZM1228.12 192.091C1228.12 189.171 1228.11 186.252 1228.12 183.266C1228.08 183.253 1228.05 183.241 1227.92 183.209C1225.38 183.215 1222.84 183.222 1220.25 183.217C1220.24 183.255 1220.23 183.293 1220.2 183.449C1220.2 186.369 1220.21 189.288 1220.21 192.275C1220.24 192.287 1220.27 192.3 1220.41 192.331C1222.94 192.325 1225.48 192.318 1228.08 192.323C1228.09 192.285 1228.1 192.247 1228.12 192.091ZM1241.34 161.325V152.829H1233.45V161.912C1235.98 161.912 1238.48 161.905 1240.97 161.922C1241.3 161.924 1241.38 161.781 1241.34 161.325M1254.56 185.932V183.245H1246.66V192.295H1254.56V185.932Z" fill="#112D43"/>
<path d="M1232.39 181.935C1232.25 181.935 1232.15 181.783 1232.21 181.651L1234.51 176.681C1234.54 176.611 1234.61 176.565 1234.69 176.565H1238.95C1239.09 176.565 1239.19 176.706 1239.14 176.837L1238.95 177.338C1238.95 177.347 1238.94 177.358 1238.94 177.368V177.368C1238.94 177.416 1238.91 177.455 1238.86 177.455H1236.94C1236.82 177.455 1236.74 177.544 1236.74 177.655V178.621C1236.74 178.732 1236.82 178.821 1236.94 178.821H1238.87C1239.01 178.821 1239.11 178.961 1239.06 179.092L1238.89 179.545C1238.89 179.555 1238.88 179.564 1238.88 179.574V179.574C1238.88 179.619 1238.85 179.655 1238.8 179.655H1236.94C1236.82 179.655 1236.74 179.745 1236.74 179.855V180.845C1236.74 180.956 1236.82 181.045 1236.94 181.045H1238.95C1239.09 181.045 1239.19 181.185 1239.14 181.316L1238.95 181.818C1238.95 181.828 1238.94 181.838 1238.94 181.848V181.848C1238.94 181.896 1238.91 181.935 1238.86 181.935H1235.89C1235.78 181.935 1235.69 181.845 1235.69 181.735V180.712C1235.69 180.602 1235.6 180.512 1235.49 180.512H1233.99C1233.91 180.512 1233.84 180.558 1233.81 180.63L1233.27 181.817C1233.24 181.889 1233.17 181.935 1233.09 181.935H1232.39ZM1235.4 177.399C1235.33 177.399 1235.26 177.445 1235.22 177.516L1234.36 179.419C1234.3 179.551 1234.39 179.702 1234.54 179.702H1235.49C1235.6 179.702 1235.69 179.612 1235.69 179.502V177.599C1235.69 177.489 1235.6 177.399 1235.49 177.399H1235.4Z" fill="#112D43"/>
<path d="M1241.21 181.935C1241.1 181.935 1241.01 181.845 1241.01 181.735V177.655C1241.01 177.544 1240.92 177.455 1240.81 177.455H1239.85C1239.8 177.455 1239.76 177.416 1239.76 177.368V177.368C1239.76 177.358 1239.76 177.348 1239.76 177.338L1239.57 176.836C1239.52 176.705 1239.61 176.565 1239.75 176.565H1243.41C1243.55 176.565 1243.65 176.706 1243.6 176.837L1243.41 177.338C1243.41 177.347 1243.41 177.358 1243.41 177.368V177.368C1243.41 177.416 1243.37 177.455 1243.32 177.455H1242.35C1242.24 177.455 1242.15 177.544 1242.15 177.655V181.735C1242.15 181.845 1242.06 181.935 1241.95 181.935H1241.21Z" fill="#112D43"/>
</g>
<defs>
<clipPath id="clip0_1_3">
<rect width="1280" height="720" fill="white"/>
</clipPath>
</defs>
</svg>
