<svg width="64" height="64" viewBox="0 0 64 64" fill="none" xmlns="http://www.w3.org/2000/svg">
<g clip-path="url(#clip0_17_151)">
<rect width="64" height="64" fill="#182534"/>
<g filter="url(#filter0_d_17_151)">
<path d="M0.215244 41C0.068789 41 -0.0279988 40.8478 0.0341352 40.7151L13.1036 12.8193C13.1365 12.749 13.2071 12.7041 13.2847 12.7041H38.1721C38.3156 12.7041 38.4124 12.8507 38.3561 12.9826L36.5267 17.2701C36.4953 17.3438 36.4229 17.3916 36.3428 17.3916H24.9542C24.8437 17.3916 24.7542 17.4811 24.7542 17.5916V24.3938C24.7542 24.5042 24.8437 24.5938 24.9542 24.5938H37.5181C37.6285 24.5938 37.7181 24.6833 37.7181 24.7938V28.7883C37.7181 28.8987 37.6285 28.9883 37.5181 28.9883H24.9542C24.8437 28.9883 24.7542 29.0778 24.7542 29.1883V36.1125C24.7542 36.223 24.8437 36.3125 24.9542 36.3125H38.2749C38.3854 36.3125 38.4749 36.402 38.4749 36.5125V40.8C38.4749 40.9105 38.3854 41 38.2749 41H19.3634C19.2529 41 19.1634 40.9105 19.1634 40.8V33.7049C19.1634 33.5944 19.0738 33.5049 18.9634 33.5049H9.55039C9.47225 33.5049 9.40126 33.5504 9.36865 33.6214L6.0333 40.8835C6.00069 40.9545 5.9297 41 5.85155 41H0.215244ZM17.0942 17.0986C17.0161 17.0986 16.9452 17.144 16.9125 17.2149L11.506 28.9487C11.4449 29.0812 11.5417 29.2324 11.6877 29.2324H18.9634C19.0738 29.2324 19.1634 29.1429 19.1634 29.0324V17.2986C19.1634 17.1882 19.0738 17.0986 18.9634 17.0986H17.0942Z" fill="white"/>
<path d="M49.296 41C49.1855 41 49.096 40.9105 49.096 40.8V17.5916C49.096 17.4811 49.0064 17.3916 48.896 17.3916H42.6344C42.5542 17.3916 42.4818 17.3438 42.4504 17.2701L40.6211 12.9826C40.5648 12.8507 40.6616 12.7041 40.805 12.7041H63.5688C63.6793 12.7041 63.7688 12.7936 63.7688 12.9041V17.1916C63.7688 17.3021 63.6793 17.3916 63.5688 17.3916H55.3751C55.2646 17.3916 55.1751 17.4811 55.1751 17.5916V40.8C55.1751 40.9105 55.0856 41 54.9751 41H49.296Z" fill="white"/>
</g>
</g>
<defs>
<filter id="filter0_d_17_151" x="-0.485001" y="12.2041" width="65.7538" height="30.2959" filterUnits="userSpaceOnUse" color-interpolation-filters="sRGB">
<feFlood flood-opacity="0" result="BackgroundImageFix"/>
<feColorMatrix in="SourceAlpha" type="matrix" values="0 0 0 0 0 0 0 0 0 0 0 0 0 0 0 0 0 0 127 0" result="hardAlpha"/>
<feOffset dx="0.5" dy="0.5"/>
<feGaussianBlur stdDeviation="0.5"/>
<feComposite in2="hardAlpha" operator="out"/>
<feColorMatrix type="matrix" values="0 0 0 0 0.0784314 0 0 0 0 0.0980392 0 0 0 0 0.121569 0 0 0 1 0"/>
<feBlend mode="normal" in2="BackgroundImageFix" result="effect1_dropShadow_17_151"/>
<feBlend mode="normal" in="SourceGraphic" in2="effect1_dropShadow_17_151" result="shape"/>
</filter>
<clipPath id="clip0_17_151">
<rect width="64" height="64" fill="white"/>
</clipPath>
</defs>
</svg>
