<svg width="229" height="124" viewBox="0 0 229 124" fill="none" xmlns="http://www.w3.org/2000/svg">
<rect width="228" height="124" transform="translate(0.666687)" fill="#F9F7F0"/>
<rect x="17.1667" y="16.5" width="195" height="91" stroke="#020202" stroke-opacity="0.25"/>
<rect x="24.6667" y="14" width="180" height="4" fill="#F9F7F0"/>
<rect x="24.6667" y="106" width="180" height="4" fill="#F9F7F0"/>
<rect x="214.667" y="24" width="76" height="4" transform="rotate(90 214.667 24)" fill="#F9F7F0"/>
<rect x="18.6667" y="24" width="76" height="4" transform="rotate(90 18.6667 24)" fill="#F9F7F0"/>
<path d="M152.386 76.2735C154.619 75.4347 155.656 73.7799 155.875 71.5348C155.907 71.2085 155.897 70.8775 155.897 70.5487C155.898 62.9357 155.897 55.3226 155.898 47.7095C155.899 46.8109 155.796 46.8679 156.724 46.8676C160.46 46.8668 164.196 46.8673 167.932 46.8673C168.073 46.8673 168.214 46.8739 168.355 46.8679C168.62 46.8568 168.747 46.9747 168.73 47.2438C168.725 47.3374 168.731 47.4317 168.731 47.5257C168.728 55.5617 168.735 63.5977 168.718 71.6336C168.712 74.3878 168.055 76.9857 166.627 79.3588C164.88 82.263 162.344 84.2424 159.25 85.5438C155.983 86.9177 152.558 87.3669 149.045 87.2001C145.376 87.0259 141.888 86.1816 138.758 84.178C134.836 81.6681 132.604 78.0823 132.021 73.4625C131.927 72.7141 131.899 71.9658 131.899 71.2142C131.898 63.3896 131.898 55.5651 131.899 47.7406C131.9 46.7902 131.807 46.8682 132.767 46.8678C136.456 46.8664 140.145 46.8673 143.834 46.8673C143.904 46.8673 143.975 46.8668 144.045 46.8674C144.727 46.8728 144.731 46.8728 144.731 47.5647C144.732 55.2953 144.735 63.0258 144.728 70.7564C144.727 71.66 144.826 72.5394 145.172 73.3774C145.909 75.1567 147.277 76.1492 149.135 76.5058C150.217 76.7133 151.285 76.6349 152.386 76.2735Z" fill="#FF612B"/>
<path d="M113.579 36.7617C114.872 36.7617 116.094 36.7588 117.316 36.7627C117.921 36.7646 117.928 36.7703 117.929 37.3946C117.931 40.262 117.93 43.1295 117.93 45.997C117.93 46.1615 117.936 46.3264 117.927 46.4905C117.913 46.7581 118.027 46.8825 118.3 46.8671C118.464 46.8579 118.629 46.867 118.793 46.867C121.731 46.8671 124.669 46.8671 127.607 46.8672C127.772 46.8672 127.937 46.8755 128.101 46.8667C128.38 46.8516 128.478 46.9946 128.466 47.253C128.46 47.3702 128.466 47.488 128.466 47.6055C128.467 50.5199 128.467 53.4344 128.466 56.3489C128.466 57.042 128.464 57.0456 127.786 57.046C124.942 57.0475 122.098 57.0466 119.254 57.0466C119.043 57.0466 118.831 57.0466 118.619 57.0467C117.878 57.0468 117.93 57.0083 117.93 57.7327C117.93 62.2455 117.928 66.7582 117.934 71.2709C117.934 71.6453 117.949 72.0265 118.019 72.3928C118.445 74.6393 119.992 75.9876 122.358 76.2377C124.161 76.4284 125.918 76.1997 127.655 75.7294C127.879 75.6687 128.104 75.6113 128.306 75.5583C128.529 75.6765 128.464 75.8599 128.464 76.0126C128.468 79.0211 128.468 82.0296 128.465 85.0381C128.465 85.6129 128.459 85.6153 127.887 85.8255C126.467 86.3474 124.993 86.6345 123.494 86.7837C121.218 87.0101 118.943 87.0294 116.678 86.6539C113.737 86.1665 111.078 85.0887 108.934 82.9394C107.097 81.0967 106.079 78.8329 105.553 76.3209C105.278 75.0059 105.161 73.6719 105.16 72.3304C105.157 60.79 105.158 49.2496 105.158 37.7092C105.158 36.6142 105.118 36.7655 106.105 36.7634C108.572 36.7583 111.04 36.7617 113.579 36.7617Z" fill="#002677"/>
<path d="M60.6018 66.7381C60.6018 78.8343 69.674 87.2426 81.1801 87.2426C92.7601 87.2426 101.758 78.6868 101.758 66.7381C101.758 54.6418 92.7601 46.2335 81.1801 46.2335C69.674 46.2335 60.6018 54.7156 60.6018 66.7381ZM72.8455 66.7381C72.8455 60.7637 76.3121 56.9283 81.1801 56.9283C86.1219 56.9283 89.5885 60.7637 89.5885 66.7381C89.5885 72.6386 86.1219 76.474 81.1801 76.474C76.3121 76.474 72.8455 72.6386 72.8455 66.7381Z" fill="#002677"/>
<path d="M72.8455 66.7381C72.8455 60.7637 76.3121 56.9283 81.1801 56.9283C86.1219 56.9283 89.5885 60.7637 89.5885 66.7381C89.5885 72.6386 86.1219 76.474 81.1801 76.474C76.3121 76.474 72.8455 72.6386 72.8455 66.7381Z" fill="#002677"/>
<path d="M80.0292 56.6976C80.5407 55.8116 81.8195 55.8116 82.331 56.6976L91.3441 72.3086C91.8556 73.1946 91.2162 74.3021 90.1931 74.3021H72.1671C71.1441 74.3021 70.5047 73.1946 71.0162 72.3086L80.0292 56.6976Z" fill="#F9F7F0"/>
</svg>
