<svg width="1281" height="720" viewBox="0 0 1281 720" fill="none" xmlns="http://www.w3.org/2000/svg">
<rect width="1280" height="720" transform="translate(0.75)" fill="#182534"/>
<rect width="539" height="539" transform="translate(720)" fill="#182534"/>
<path d="M923.386 85.9237C944.248 85.6266 961.944 91.5913 975.15 107.982C976.686 109.891 977.706 110.136 979.392 108.092C992.83 91.7996 1010.52 85.6715 1031.14 85.8563C1060.81 86.1217 1090.49 85.9155 1120.16 85.9257C1145.13 85.9349 1160.47 101.254 1160.47 126.205C1160.49 174.52 1160.48 222.835 1160.48 271.912C1152.56 268.125 1145.05 264.497 1137.5 260.935C1135.09 259.798 1136.1 257.696 1136.1 256.027C1136.04 218.258 1136.06 180.489 1136.06 142.719C1136.06 136.594 1136.15 130.468 1136.03 124.346C1135.85 115.439 1130.96 110.477 1122.06 110.456C1090.36 110.381 1058.64 110.239 1026.94 110.493C1005.05 110.668 989.633 126.769 989.572 149.08C989.476 184.637 989.492 220.195 989.635 255.752C989.648 259.116 988.771 260.888 985.651 262.237C978.868 265.167 972.265 268.515 965.126 271.911V265.821C965.126 227.541 965.133 189.261 965.124 150.981C965.118 125.677 949.872 110.434 924.578 110.428C894.563 110.421 864.551 110.419 834.537 110.43C822.995 110.433 818.619 114.85 818.619 126.493C818.614 213.771 818.614 301.049 818.619 388.326C818.619 399.98 822.995 404.415 834.506 404.42C864.859 404.43 895.212 404.424 925.564 404.424C925.734 404.424 925.912 404.459 926.072 404.419C938.821 401.177 951.936 406.377 964.781 402.704C965.094 406.759 965.34 410.792 965.74 414.809C965.952 416.929 964.191 417.223 963.046 418.039C952.46 425.579 940.504 428.85 927.679 428.891C895.8 428.993 863.921 429.054 832.042 428.881C810.039 428.758 794.26 412.885 794.235 390.763C794.139 301.954 794.147 213.145 794.229 124.336C794.25 101.72 810.159 86.0114 832.843 85.9451C862.856 85.8573 892.869 85.9237 923.386 85.9237Z" fill="#112D43"/>
<path d="M1161.86 299.954C1166.94 302.397 1171.65 304.728 1176.43 306.909C1181.46 309.205 1184.79 312.692 1184.83 318.528C1184.88 324.565 1181.45 328.263 1176.35 330.711C1147.63 344.496 1118.9 358.258 1090.18 372.043C1085.6 374.242 1081.09 376.629 1076.18 378.011C1063.71 381.519 1051.76 380.003 1040.13 374.368C1016.82 363.07 993.437 351.926 970.081 340.725C968.73 340.078 967.356 339.484 965.129 338.474C965.129 347.6 965.098 356.14 965.144 364.681C965.161 367.961 964.754 371.065 963.036 373.972C960.508 378.248 956.545 380.067 951.968 379.655C947.194 379.226 943.282 376.731 941.74 371.797C941.092 369.726 940.763 367.471 940.75 365.295C940.667 350.327 940.774 335.356 940.672 320.388C940.633 314.575 942.582 310.089 947.972 307.505C979.751 292.27 1011.5 276.972 1043.34 261.862C1057.71 255.042 1071.87 256.592 1085.93 263.438C1111.06 275.683 1136.32 287.677 1161.86 299.954Z" fill="#112D43"/>
<path d="M1043.32 401.668C1061.82 406.507 1079.25 404.68 1096.09 396.529C1109.14 390.21 1122.24 383.993 1136.14 377.335C1135.59 390.195 1137.36 402.378 1134.81 414.384C1132.99 422.962 1127.52 429.594 1120.29 433.883C1103.61 443.775 1086.09 451.837 1066.29 453.006C1057.44 453.529 1048.69 452.648 1040.28 449.641C1029.29 445.711 1018.24 441.85 1008.16 435.83C995.681 428.376 988.985 417.597 989.492 402.642C989.769 394.507 989.542 386.356 989.542 377.435C994.814 379.952 999.581 382.35 1004.45 384.528C1017.25 390.258 1029.29 397.699 1043.32 401.668Z" fill="#112D43"/>
</svg>
