<svg width="1280" height="720" viewBox="0 0 1280 720" fill="none" xmlns="http://www.w3.org/2000/svg">
<g clip-path="url(#clip0_2_8)">
<rect width="1280" height="720" fill="#182534"/>
<path d="M1337.34 585.79C1345.91 585.79 1353.95 587.243 1361.46 590.15C1368.98 593.057 1375.57 597.018 1381.22 602.032C1386.88 607.046 1391.33 612.969 1394.56 619.8C1397.79 626.631 1399.41 633.898 1399.41 641.601C1399.41 657.007 1397.19 671.832 1392.74 686.076C1388.3 700.319 1382.03 713.654 1373.95 726.081C1365.87 738.508 1356.17 749.808 1344.86 759.982C1333.54 770.156 1320.97 778.876 1307.15 786.143C1293.33 793.41 1278.5 799.042 1262.66 803.039C1246.82 807.036 1230.33 809.035 1213.2 809.035C1204.63 809.035 1196.59 807.581 1189.07 804.674C1181.56 801.768 1174.97 797.807 1169.31 792.793C1163.65 787.778 1159.21 781.856 1155.98 775.025C1152.74 768.194 1151.13 760.927 1151.13 753.223C1151.13 737.817 1153.35 722.992 1157.79 708.749C1162.24 694.505 1168.5 681.17 1176.59 668.744C1184.67 656.317 1194.37 645.017 1205.68 634.843C1217 624.669 1229.56 615.948 1243.38 608.681C1257.2 601.414 1272.04 595.782 1287.88 591.785C1303.72 587.788 1320.2 585.79 1337.34 585.79ZM1337.34 599.743C1321.66 599.743 1306.59 601.56 1292.12 605.193C1277.65 608.827 1264.07 613.986 1251.39 620.672C1238.7 627.358 1227.14 635.388 1216.71 644.762C1206.29 654.137 1197.4 664.492 1190.04 675.829C1182.69 687.166 1176.95 699.374 1172.83 712.455C1168.71 725.536 1166.64 739.125 1166.64 753.223C1166.64 757.584 1167.37 761.835 1168.83 765.977C1170.28 770.119 1172.42 773.935 1175.25 777.423L1364.25 607.482C1360.37 604.939 1356.13 603.013 1351.52 601.705C1346.92 600.397 1342.19 599.743 1337.34 599.743ZM1213.2 795.082C1228.88 795.082 1243.95 793.265 1258.42 789.631C1272.88 785.998 1286.46 780.838 1299.15 774.153C1311.84 767.467 1323.4 759.437 1333.82 750.062C1344.25 740.688 1353.14 730.332 1360.49 718.996C1367.85 707.659 1373.59 695.45 1377.71 682.369C1381.83 669.289 1383.89 655.699 1383.89 641.601C1383.89 637.241 1383.16 632.99 1381.71 628.847C1380.25 624.705 1378.11 620.89 1375.28 617.402L1186.28 787.342C1190.16 789.886 1194.41 791.812 1199.01 793.12C1203.62 794.428 1208.35 795.082 1213.2 795.082Z" fill="#203246"/>
<path d="M1061.91 102.503C1074.88 102.503 1087.06 104.704 1098.44 109.106C1109.82 113.507 1119.79 119.504 1128.36 127.097C1136.93 134.69 1143.66 143.659 1148.55 154.003C1153.45 164.346 1155.9 175.351 1155.9 187.015C1155.9 210.344 1152.53 232.792 1145.8 254.36C1139.07 275.929 1129.58 296.121 1117.35 314.938C1105.11 333.755 1090.42 350.867 1073.29 366.273C1056.15 381.678 1037.12 394.883 1016.2 405.888C995.269 416.892 972.812 425.42 948.825 431.472C924.838 437.525 899.871 440.551 873.926 440.551C860.954 440.551 848.777 438.35 837.395 433.948C826.013 429.547 816.039 423.549 807.472 415.956C798.905 408.364 792.174 399.395 787.279 389.051C782.384 378.707 779.936 367.703 779.936 356.039C779.936 332.71 783.302 310.262 790.033 288.693C796.764 267.125 806.248 246.933 818.487 228.115C830.725 209.298 845.411 192.187 862.545 176.781C879.678 161.375 898.709 148.17 919.636 137.166C940.564 126.162 963.021 117.634 987.008 111.581C1011 105.529 1035.96 102.503 1061.91 102.503ZM1061.91 123.631C1038.16 123.631 1015.34 126.382 993.433 131.884C971.527 137.386 950.966 145.199 931.752 155.323C912.538 165.447 895.037 177.606 879.25 191.802C863.463 205.997 850 221.678 838.864 238.845C827.727 256.011 819.037 274.498 812.796 294.305C806.554 314.113 803.434 334.691 803.434 356.039C803.434 362.641 804.535 369.079 806.738 375.351C808.941 381.623 812.184 387.401 816.467 392.683L1102.66 135.35C1096.79 131.499 1090.36 128.583 1083.38 126.602C1076.41 124.621 1069.25 123.631 1061.91 123.631ZM873.926 419.423C897.669 419.423 920.493 416.672 942.4 411.17C964.306 405.668 984.867 397.855 1004.08 387.731C1023.29 377.607 1040.8 365.447 1056.58 351.252C1072.37 337.057 1085.83 321.376 1096.97 304.209C1108.11 287.043 1116.8 268.556 1123.04 248.748C1129.28 228.941 1132.4 208.363 1132.4 187.015C1132.4 180.412 1131.3 173.975 1129.09 167.703C1126.89 161.43 1123.65 155.653 1119.37 150.371L833.173 407.703C839.047 411.555 845.472 414.471 852.448 416.452C859.424 418.432 866.583 419.423 873.926 419.423Z" fill="#203246"/>
<path d="M963.017 -31.6259C966.443 -31.6259 969.66 -31.0445 972.666 -29.8819C975.672 -28.7193 978.307 -27.1352 980.57 -25.1296C982.833 -23.124 984.61 -20.7552 985.903 -18.023C987.197 -15.2908 987.843 -12.3842 987.843 -9.30316C987.843 -3.14117 986.954 2.7883 985.176 8.48524C983.398 14.1822 980.893 19.5158 977.66 24.4861C974.428 29.4564 970.549 33.9761 966.023 38.0454C961.497 42.1146 956.471 45.6025 950.943 48.5091C945.415 51.4157 939.484 53.6683 933.148 55.267C926.812 56.8656 920.217 57.6649 913.364 57.6649C909.938 57.6649 906.721 57.0836 903.715 55.921C900.709 54.7583 898.074 53.1742 895.811 51.1687C893.549 49.1631 891.771 46.7942 890.478 44.062C889.185 41.3298 888.538 38.4232 888.538 35.3422C888.538 29.1802 889.427 23.2508 891.205 17.5538C892.983 11.8569 895.488 6.52328 898.721 1.55299C901.953 -3.41729 905.832 -7.93706 910.358 -12.0063C914.884 -16.0755 919.91 -19.5635 925.438 -22.4701C930.966 -25.3767 936.897 -27.6293 943.233 -29.2279C949.569 -30.8265 956.164 -31.6259 963.017 -31.6259ZM963.017 -26.0452C956.746 -26.0452 950.717 -25.3185 944.93 -23.8652C939.144 -22.4119 933.713 -20.3482 928.638 -17.6742C923.563 -15.0001 918.94 -11.7883 914.77 -8.03879C910.6 -4.28927 907.045 -0.147367 904.103 4.38693C901.161 8.92123 898.866 13.8043 897.218 19.0362C895.569 24.2681 894.745 29.7034 894.745 35.3422C894.745 37.0862 895.036 38.7866 895.617 40.4433C896.199 42.1001 897.056 43.626 898.187 45.0212L973.781 -22.9497C972.23 -23.967 970.533 -24.7372 968.69 -25.2604C966.847 -25.7836 964.956 -26.0452 963.017 -26.0452ZM913.364 52.0843C919.635 52.0843 925.664 51.3576 931.451 49.9043C937.237 48.451 942.668 46.3873 947.743 43.7132C952.818 41.0392 957.441 37.8274 961.611 34.0779C965.781 30.3283 969.336 26.1864 972.278 21.6521C975.22 17.1178 977.515 12.2348 979.164 7.00287C980.812 1.77099 981.636 -3.66435 981.636 -9.30316C981.636 -11.0471 981.346 -12.7475 980.764 -14.4042C980.182 -16.061 979.325 -17.587 978.194 -18.9821L902.6 48.9887C904.151 50.006 905.849 50.7763 907.691 51.2995C909.534 51.8227 911.425 52.0843 913.364 52.0843Z" fill="#203246"/>
<path d="M477.744 82.2041C479.998 82.2041 482.114 82.5865 484.091 83.3512C486.069 84.116 487.802 85.158 489.29 86.4772C490.779 87.7964 491.948 89.3546 492.799 91.1517C493.649 92.9489 494.074 94.8608 494.074 96.8874C494.074 100.941 493.49 104.841 492.32 108.588C491.151 112.335 489.503 115.844 487.377 119.113C485.25 122.382 482.699 125.355 479.722 128.032C476.745 130.709 473.439 133.003 469.803 134.915C466.167 136.827 462.265 138.308 458.097 139.36C453.93 140.411 449.592 140.937 445.084 140.937C442.83 140.937 440.715 140.555 438.737 139.79C436.76 139.025 435.027 137.983 433.538 136.664C432.05 135.345 430.881 133.787 430.03 131.99C429.18 130.192 428.754 128.281 428.754 126.254C428.754 122.201 429.339 118.301 430.508 114.553C431.678 110.806 433.326 107.298 435.452 104.028C437.578 100.759 440.13 97.786 443.107 95.1093C446.084 92.4327 449.39 90.1384 453.026 88.2265C456.662 86.3147 460.564 84.8329 464.731 83.7814C468.899 82.7299 473.237 82.2041 477.744 82.2041ZM477.744 85.8749C473.619 85.8749 469.654 86.3529 465.848 87.3088C462.042 88.2648 458.469 89.6222 455.131 91.3812C451.793 93.1401 448.752 95.2527 446.009 97.7191C443.266 100.185 440.927 102.91 438.992 105.892C437.057 108.875 435.548 112.087 434.463 115.528C433.379 118.97 432.837 122.545 432.837 126.254C432.837 127.401 433.028 128.52 433.411 129.609C433.794 130.699 434.357 131.703 435.101 132.621L484.825 87.9111C483.804 87.2419 482.688 86.7353 481.476 86.3911C480.264 86.047 479.02 85.8749 477.744 85.8749ZM445.084 137.266C449.209 137.266 453.175 136.788 456.981 135.833C460.787 134.877 464.359 133.519 467.698 131.76C471.036 130.001 474.077 127.889 476.819 125.422C479.562 122.956 481.901 120.232 483.836 117.249C485.771 114.266 487.281 111.054 488.365 107.613C489.45 104.172 489.992 100.596 489.992 96.8874C489.992 95.7403 489.801 94.6218 489.418 93.532C489.035 92.4423 488.472 91.4385 487.727 90.5208L438.004 135.23C439.024 135.899 440.141 136.406 441.353 136.75C442.565 137.094 443.809 137.266 445.084 137.266Z" fill="#203246"/>
<path d="M441.478 -46.4106C445.461 -46.4106 449.199 -45.7349 452.694 -44.3835C456.188 -43.0321 459.25 -41.1909 461.88 -38.8598C464.51 -36.5286 466.577 -33.7752 468.08 -30.5995C469.583 -27.4237 470.334 -24.0453 470.334 -20.4641C470.334 -13.3019 469.301 -6.40983 467.234 0.211919C465.168 6.83367 462.256 13.0331 458.499 18.8102C454.741 24.5874 450.232 29.8409 444.972 34.5707C439.712 39.3005 433.869 43.3546 427.444 46.7331C421.019 50.1115 414.124 52.7298 406.76 54.5879C399.396 56.4461 391.731 57.3752 383.765 57.3752C379.782 57.3752 376.044 56.6995 372.549 55.3481C369.055 53.9967 365.993 52.1555 363.363 49.8243C360.733 47.4932 358.666 44.7398 357.163 41.5641C355.66 38.3883 354.909 35.0099 354.909 31.4287C354.909 24.2664 355.942 17.3744 358.008 10.7527C360.075 4.13091 362.987 -2.06853 366.744 -7.84567C370.502 -13.6228 375.01 -18.8763 380.271 -23.6061C385.531 -28.3359 391.374 -32.39 397.799 -35.7685C404.224 -39.1469 411.119 -41.7652 418.483 -43.6234C425.847 -45.4815 433.512 -46.4106 441.478 -46.4106ZM441.478 -39.924C434.189 -39.924 427.181 -39.0794 420.456 -37.3901C413.73 -35.7009 407.418 -33.3022 401.519 -30.1941C395.619 -27.0859 390.246 -23.3527 385.4 -18.9945C380.553 -14.6363 376.419 -9.82205 373 -4.55168C369.581 0.718685 366.913 6.39447 364.997 12.4757C363.081 18.5569 362.123 24.8745 362.123 31.4287C362.123 33.4558 362.461 35.4322 363.137 37.3579C363.814 39.2836 364.809 41.0573 366.124 42.6789L453.99 -36.3259C452.186 -37.5084 450.214 -38.4037 448.072 -39.0118C445.93 -39.6199 443.732 -39.924 441.478 -39.924ZM383.765 50.8886C391.054 50.8886 398.062 50.0439 404.787 48.3547C411.513 46.6655 417.825 44.2668 423.724 41.1586C429.623 38.0505 434.996 34.3173 439.843 29.9591C444.69 25.6009 448.823 20.7866 452.243 15.5163C455.662 10.2459 458.33 4.57011 460.246 -1.51109C462.162 -7.59228 463.12 -13.91 463.12 -20.4641C463.12 -22.4912 462.782 -24.4676 462.106 -26.3933C461.429 -28.319 460.434 -30.0927 459.119 -31.7144L371.253 47.2905C373.057 48.473 375.029 49.3683 377.171 49.9764C379.313 50.5845 381.511 50.8886 383.765 50.8886Z" fill="#203246"/>
<path d="M194.972 47.0824C201.079 47.0824 206.811 48.1184 212.169 50.1904C217.526 52.2624 222.222 55.0855 226.254 58.6597C230.287 62.2339 233.455 66.4555 235.76 71.3247C238.064 76.1939 239.216 81.3739 239.216 86.8647C239.216 97.8462 237.632 108.413 234.464 118.566C231.295 128.719 226.83 138.224 221.069 147.082C215.308 155.94 208.395 163.995 200.33 171.247C192.265 178.499 183.306 184.715 173.455 189.895C163.604 195.075 153.033 199.089 141.741 201.938C130.45 204.787 118.698 206.212 106.484 206.212C100.378 206.212 94.6457 205.176 89.288 203.104C83.9303 201.032 79.2352 198.208 75.2025 194.634C71.1699 191.06 68.0014 186.838 65.697 181.969C63.3926 177.1 62.2404 171.92 62.2404 166.429C62.2404 155.448 63.8247 144.881 66.9932 134.728C70.1617 124.575 74.6264 115.07 80.3874 106.212C86.1483 97.3541 93.0614 89.2993 101.127 82.0473C109.192 74.7953 118.15 68.5793 128.001 63.3993C137.853 58.2194 148.424 54.2049 159.715 51.3559C171.007 48.5069 182.759 47.0824 194.972 47.0824ZM194.972 57.028C183.796 57.028 173.052 58.323 162.74 60.913C152.428 63.5029 142.749 67.1807 133.705 71.9463C124.66 76.7119 116.422 82.4358 108.99 89.118C101.559 95.8002 95.2218 103.182 89.9793 111.262C84.7369 119.343 80.6466 128.046 77.7085 137.37C74.7705 146.693 73.3014 156.38 73.3014 166.429C73.3014 169.537 73.8199 172.568 74.8569 175.52C75.8938 178.473 77.4205 181.192 79.4368 183.679L214.156 62.5447C211.391 60.7317 208.367 59.359 205.083 58.4266C201.799 57.4942 198.429 57.028 194.972 57.028ZM106.484 196.266C117.661 196.266 128.405 194.971 138.717 192.381C149.029 189.791 158.707 186.113 167.752 181.348C176.797 176.582 185.035 170.858 192.466 164.176C199.898 157.494 206.235 150.112 211.477 142.032C216.72 133.951 220.81 125.248 223.748 115.924C226.686 106.6 228.155 96.9138 228.155 86.8647C228.155 83.7567 227.637 80.7264 226.6 77.7738C225.563 74.8212 224.036 72.1017 222.02 69.6153L87.3005 190.749C90.0657 192.562 93.0902 193.935 96.374 194.867C99.6577 195.8 103.028 196.266 106.484 196.266Z" fill="#203246"/>
<path d="M1286.59 399.342C1292.65 399.342 1298.35 400.371 1303.67 402.429C1308.99 404.487 1313.65 407.29 1317.66 410.84C1321.66 414.39 1324.81 418.583 1327.1 423.418C1329.38 428.254 1330.53 433.399 1330.53 438.852C1330.53 449.758 1328.96 460.253 1325.81 470.336C1322.66 480.419 1318.23 489.859 1312.51 498.656C1306.78 507.454 1299.92 515.453 1291.91 522.656C1283.9 529.858 1275 536.031 1265.22 541.176C1255.43 546.32 1244.94 550.307 1233.72 553.137C1222.51 555.966 1210.84 557.381 1198.71 557.381C1192.64 557.381 1186.95 556.352 1181.63 554.294C1176.31 552.236 1171.64 549.433 1167.64 545.883C1163.63 542.333 1160.49 538.14 1158.2 533.305C1155.91 528.469 1154.77 523.324 1154.77 517.871C1154.77 506.965 1156.34 496.47 1159.49 486.387C1162.63 476.304 1167.07 466.864 1172.79 458.066C1178.51 449.269 1185.38 441.27 1193.39 434.067C1201.4 426.865 1210.29 420.692 1220.08 415.547C1229.86 410.403 1240.36 406.416 1251.57 403.586C1262.79 400.757 1274.46 399.342 1286.59 399.342ZM1286.59 409.22C1275.49 409.22 1264.82 410.506 1254.58 413.078C1244.33 415.65 1234.72 419.303 1225.74 424.036C1216.76 428.769 1208.58 434.453 1201.2 441.09C1193.81 447.726 1187.52 455.057 1182.31 463.082C1177.11 471.108 1173.05 479.751 1170.13 489.011C1167.21 498.271 1165.75 507.891 1165.75 517.871C1165.75 520.958 1166.27 523.967 1167.3 526.9C1168.33 529.832 1169.84 532.533 1171.84 535.002L1305.64 414.698C1302.89 412.898 1299.89 411.535 1296.63 410.609C1293.37 409.683 1290.02 409.22 1286.59 409.22ZM1198.71 547.503C1209.81 547.503 1220.48 546.217 1230.72 543.645C1240.96 541.073 1250.57 537.42 1259.55 532.687C1268.54 527.954 1276.72 522.27 1284.1 515.633C1291.48 508.997 1297.77 501.666 1302.98 493.641C1308.19 485.615 1312.25 476.972 1315.17 467.712C1318.08 458.452 1319.54 448.832 1319.54 438.852C1319.54 435.765 1319.03 432.756 1318 429.823C1316.97 426.891 1315.45 424.19 1313.45 421.721L1179.65 542.025C1182.4 543.825 1185.4 545.188 1188.67 546.114C1191.93 547.04 1195.27 547.503 1198.71 547.503Z" fill="#203246"/>
<path d="M265.164 234.999C269.573 234.999 273.711 235.747 277.579 237.243C281.447 238.739 284.837 240.777 287.749 243.358C290.66 245.938 292.948 248.986 294.611 252.501C296.275 256.017 297.107 259.757 297.107 263.721C297.107 271.649 295.963 279.278 293.676 286.608C291.388 293.938 288.165 300.801 284.005 307.196C279.846 313.591 274.855 319.406 269.032 324.642C263.209 329.878 256.742 334.365 249.629 338.105C242.517 341.845 234.885 344.743 226.733 346.8C218.581 348.857 210.096 349.886 201.278 349.886C196.87 349.886 192.731 349.138 188.863 347.642C184.995 346.146 181.605 344.108 178.694 341.527C175.782 338.947 173.495 335.899 171.831 332.383C170.168 328.868 169.336 325.128 169.336 321.164C169.336 313.236 170.479 305.606 172.767 298.276C175.055 290.946 178.278 284.084 182.437 277.689C186.596 271.294 191.588 265.478 197.41 260.243C203.233 255.007 209.701 250.519 216.813 246.78C223.925 243.04 231.558 240.141 239.71 238.085C247.862 236.028 256.347 234.999 265.164 234.999ZM265.164 242.18C257.095 242.18 249.338 243.115 241.893 244.984C234.448 246.854 227.461 249.51 220.931 252.95C214.401 256.391 208.453 260.523 203.088 265.348C197.722 270.172 193.147 275.501 189.362 281.335C185.577 287.169 182.624 293.452 180.503 300.184C178.382 306.915 177.321 313.909 177.321 321.164C177.321 323.408 177.696 325.596 178.444 327.727C179.193 329.859 180.295 331.822 181.751 333.617L279.014 246.162C277.018 244.854 274.834 243.863 272.464 243.189C270.093 242.516 267.66 242.18 265.164 242.18ZM201.278 342.705C209.347 342.705 217.104 341.77 224.549 339.9C231.994 338.03 238.982 335.375 245.512 331.935C252.042 328.494 257.989 324.361 263.355 319.537C268.72 314.713 273.295 309.384 277.08 303.55C280.865 297.715 283.818 291.433 285.939 284.701C288.061 277.969 289.121 270.976 289.121 263.721C289.121 261.477 288.747 259.289 287.998 257.157C287.25 255.026 286.147 253.062 284.692 251.267L187.428 338.722C189.425 340.031 191.608 341.022 193.979 341.695C196.35 342.369 198.783 342.705 201.278 342.705Z" fill="#203246"/>
<path d="M558.262 447.415C564.079 447.415 569.538 448.401 574.642 450.375C579.745 452.348 584.217 455.037 588.058 458.442C591.899 461.846 594.917 465.867 597.112 470.505C599.307 475.143 600.404 480.077 600.404 485.307C600.404 495.766 598.895 505.831 595.877 515.502C592.859 525.172 588.606 534.226 583.119 542.663C577.632 551.099 571.047 558.772 563.365 565.679C555.683 572.586 547.151 578.507 537.768 583.441C528.384 588.375 518.315 592.198 507.561 594.912C496.806 597.626 485.612 598.983 473.979 598.983C468.162 598.983 462.703 597.996 457.6 596.022C452.496 594.049 448.024 591.36 444.183 587.955C440.342 584.551 437.324 580.53 435.13 575.892C432.935 571.254 431.837 566.32 431.837 561.091C431.837 550.631 433.346 540.566 436.364 530.895C439.382 521.225 443.635 512.171 449.122 503.734C454.609 495.298 461.194 487.625 468.876 480.718C476.558 473.811 485.09 467.89 494.474 462.956C503.857 458.022 513.926 454.199 524.681 451.485C535.436 448.771 546.629 447.415 558.262 447.415ZM558.262 456.888C547.617 456.888 537.383 458.121 527.561 460.588C517.739 463.055 508.521 466.558 499.906 471.097C491.291 475.636 483.444 481.088 476.366 487.453C469.287 493.817 463.251 500.848 458.258 508.545C453.265 516.242 449.369 524.531 446.57 533.412C443.772 542.293 442.373 551.519 442.373 561.091C442.373 564.051 442.866 566.937 443.854 569.749C444.842 572.562 446.296 575.152 448.216 577.52L576.535 462.142C573.901 460.415 571.02 459.108 567.892 458.22C564.765 457.332 561.555 456.888 558.262 456.888ZM473.979 589.51C484.624 589.51 494.858 588.276 504.68 585.809C514.502 583.342 523.72 579.839 532.335 575.3C540.95 570.761 548.797 565.309 555.875 558.944C562.954 552.58 568.99 545.549 573.983 537.852C578.976 530.155 582.872 521.866 585.671 512.985C588.469 504.105 589.869 494.878 589.869 485.307C589.869 482.346 589.375 479.46 588.387 476.648C587.399 473.835 585.945 471.245 584.025 468.877L455.707 584.255C458.34 585.982 461.221 587.289 464.349 588.177C467.477 589.065 470.687 589.51 473.979 589.51Z" fill="#203246"/>
<path d="M592.657 148.262C600.419 148.262 607.706 149.578 614.516 152.212C621.327 154.846 627.295 158.435 632.421 162.978C637.547 167.521 641.575 172.888 644.504 179.077C647.433 185.266 648.898 191.851 648.898 198.83C648.898 212.79 646.884 226.222 642.856 239.128C638.828 252.033 633.153 264.116 625.83 275.375C618.507 286.635 609.72 296.874 599.467 306.092C589.215 315.31 577.828 323.212 565.306 329.796C552.784 336.381 539.346 341.484 524.993 345.105C510.64 348.727 495.701 350.537 480.176 350.537C472.414 350.537 465.128 349.22 458.317 346.587C451.507 343.953 445.539 340.364 440.413 335.821C435.286 331.278 431.259 325.911 428.33 319.722C425.4 313.532 423.936 306.948 423.936 299.968C423.936 286.009 425.95 272.577 429.977 259.671C434.005 246.766 439.68 234.683 447.003 223.424C454.326 212.164 463.114 201.925 473.366 192.707C483.618 183.489 495.005 175.587 507.528 169.003C520.05 162.418 533.488 157.315 547.841 153.694C562.194 150.072 577.132 148.262 592.657 148.262ZM592.657 160.904C578.451 160.904 564.793 162.55 551.685 165.842C538.577 169.134 526.274 173.809 514.777 179.867C503.28 185.925 492.808 193.201 483.362 201.695C473.915 210.189 465.86 219.572 459.196 229.843C452.532 240.115 447.333 251.177 443.598 263.029C439.863 274.881 437.996 287.194 437.996 299.968C437.996 303.919 438.655 307.771 439.973 311.524C441.291 315.277 443.232 318.734 445.795 321.895L617.043 167.916C613.528 165.612 609.683 163.867 605.509 162.682C601.335 161.496 597.051 160.904 592.657 160.904ZM480.176 337.895C494.383 337.895 508.04 336.249 521.148 332.957C534.256 329.664 546.559 324.989 558.056 318.932C569.553 312.874 580.025 305.598 589.472 297.104C598.918 288.61 606.974 279.227 613.637 268.955C620.301 258.684 625.501 247.622 629.235 235.77C632.97 223.917 634.837 211.604 634.837 198.83C634.837 194.88 634.178 191.028 632.86 187.275C631.542 183.522 629.601 180.065 627.038 176.904L455.791 330.883C459.306 333.187 463.15 334.932 467.324 336.117C471.499 337.302 475.783 337.895 480.176 337.895Z" fill="#203246"/>
<path d="M1053.25 571.547C1057.58 571.547 1061.65 572.283 1065.45 573.753C1069.26 575.223 1072.59 577.227 1075.45 579.763C1078.31 582.299 1080.56 585.295 1082.19 588.751C1083.83 592.206 1084.65 595.882 1084.65 599.779C1084.65 607.572 1083.52 615.07 1081.27 622.275C1079.03 629.48 1075.86 636.225 1071.77 642.511C1067.68 648.797 1062.78 654.513 1057.05 659.66C1051.33 664.806 1044.97 669.217 1037.98 672.893C1030.99 676.569 1023.49 679.418 1015.48 681.439C1007.46 683.461 999.122 684.472 990.455 684.472C986.122 684.472 982.054 683.737 978.252 682.267C974.45 680.796 971.118 678.793 968.256 676.256C965.395 673.72 963.146 670.724 961.511 667.269C959.876 663.813 959.058 660.137 959.058 656.241C959.058 648.448 960.182 640.949 962.431 633.744C964.679 626.539 967.848 619.794 971.936 613.508C976.024 607.222 980.93 601.506 986.653 596.36C992.377 591.214 998.734 586.802 1005.72 583.127C1012.72 579.451 1020.22 576.602 1028.23 574.58C1036.24 572.558 1044.58 571.547 1053.25 571.547ZM1053.25 578.605C1045.32 578.605 1037.69 579.524 1030.38 581.362C1023.06 583.2 1016.19 585.81 1009.77 589.192C1003.35 592.574 997.508 596.636 992.234 601.378C986.96 606.12 982.463 611.358 978.743 617.092C975.022 622.827 972.12 629.002 970.035 635.619C967.95 642.236 966.907 649.11 966.907 656.241C966.907 658.446 967.275 660.597 968.011 662.692C968.747 664.787 969.83 666.717 971.261 668.482L1066.86 582.52C1064.9 581.233 1062.76 580.259 1060.42 579.598C1058.09 578.936 1055.7 578.605 1053.25 578.605ZM990.455 677.414C998.386 677.414 1006.01 676.495 1013.33 674.657C1020.65 672.819 1027.51 670.209 1033.93 666.828C1040.35 663.446 1046.2 659.384 1051.47 654.642C1056.75 649.9 1061.24 644.662 1064.96 638.927C1068.68 633.193 1071.59 627.017 1073.67 620.401C1075.76 613.784 1076.8 606.91 1076.8 599.779C1076.8 597.573 1076.43 595.423 1075.69 593.327C1074.96 591.232 1073.88 589.302 1072.44 587.538L976.842 673.499C978.804 674.786 980.95 675.76 983.281 676.422C985.611 677.083 988.002 677.414 990.455 677.414Z" fill="#203246"/>
<path d="M843.814 541.448C852.431 541.448 860.52 542.909 868.08 545.833C875.641 548.757 882.266 552.741 887.957 557.785C893.647 562.828 898.118 568.786 901.37 575.657C904.622 582.528 906.248 589.837 906.248 597.586C906.248 613.082 904.012 627.994 899.541 642.32C895.07 656.647 888.77 670.061 880.64 682.56C872.511 695.059 862.755 706.426 851.374 716.659C839.993 726.893 827.352 735.665 813.45 742.974C799.549 750.284 784.632 755.949 768.698 759.969C752.764 763.989 736.18 766 718.946 766C710.329 766 702.24 764.538 694.679 761.614C687.119 758.69 680.493 754.706 674.803 749.662C669.112 744.619 664.641 738.661 661.389 731.79C658.138 724.919 656.512 717.61 656.512 709.862C656.512 694.365 658.747 679.453 663.218 665.127C667.69 650.8 673.99 637.386 682.119 624.887C690.249 612.388 700.004 601.021 711.385 590.788C722.767 580.554 735.408 571.782 749.309 564.473C763.21 557.163 778.128 551.498 794.062 547.478C809.995 543.458 826.579 541.448 843.814 541.448ZM843.814 555.482C828.043 555.482 812.881 557.309 798.33 560.964C783.778 564.619 770.12 569.809 757.357 576.534C744.594 583.259 732.969 591.336 722.482 600.765C711.995 610.195 703.053 620.611 695.655 632.014C688.257 643.417 682.485 655.697 678.339 668.854C674.193 682.012 672.12 695.681 672.12 709.862C672.12 714.247 672.852 718.523 674.315 722.69C675.778 726.856 677.933 730.694 680.778 734.203L870.885 563.267C866.983 560.708 862.715 558.771 858.081 557.456C853.447 556.14 848.691 555.482 843.814 555.482ZM718.946 751.965C734.717 751.965 749.878 750.138 764.43 746.483C778.982 742.828 792.639 737.638 805.402 730.913C818.165 724.188 829.791 716.111 840.278 706.682C850.764 697.252 859.707 686.836 867.105 675.433C874.502 664.03 880.274 651.75 884.42 638.593C888.566 625.435 890.639 611.766 890.639 597.586C890.639 593.2 889.908 588.924 888.444 584.757C886.981 580.591 884.827 576.753 881.982 573.244L691.875 744.18C695.777 746.739 700.045 748.676 704.679 749.991C709.312 751.307 714.068 751.965 718.946 751.965Z" fill="#203246"/>
<path d="M1248.28 57.9454C1250.88 57.9454 1253.31 58.3859 1255.59 59.2668C1257.87 60.1477 1259.86 61.3479 1261.58 62.8674C1263.29 64.387 1264.64 66.1818 1265.62 68.2519C1266.6 70.322 1267.09 72.5242 1267.09 74.8586C1267.09 79.5273 1266.42 84.0199 1265.07 88.3363C1263.72 92.6526 1261.82 96.6937 1259.37 100.46C1256.92 104.225 1253.99 107.65 1250.56 110.733C1247.13 113.816 1243.32 116.459 1239.13 118.661C1234.94 120.863 1230.45 122.57 1225.65 123.781C1220.85 124.992 1215.85 125.598 1210.66 125.598C1208.06 125.598 1205.63 125.158 1203.35 124.277C1201.07 123.396 1199.07 122.196 1197.36 120.676C1195.65 119.157 1194.3 117.362 1193.32 115.292C1192.34 113.222 1191.85 111.019 1191.85 108.685C1191.85 104.016 1192.52 99.5236 1193.87 95.2072C1195.22 90.8909 1197.11 86.8498 1199.56 83.0839C1202.01 79.3181 1204.95 75.8936 1208.38 72.8105C1211.81 69.7274 1215.62 67.0847 1219.81 64.8825C1223.99 62.6802 1228.49 60.9735 1233.29 59.7623C1238.09 58.551 1243.09 57.9454 1248.28 57.9454ZM1248.28 62.1737C1243.53 62.1737 1238.96 62.7243 1234.58 63.8254C1230.19 64.9265 1226.08 66.4901 1222.23 68.5162C1218.39 70.5422 1214.88 72.9757 1211.72 75.8166C1208.56 78.6574 1205.87 81.7956 1203.64 85.2311C1201.41 88.6666 1199.67 92.3664 1198.43 96.3304C1197.18 100.294 1196.55 104.413 1196.55 108.685C1196.55 110.006 1196.77 111.295 1197.21 112.55C1197.65 113.805 1198.3 114.961 1199.16 116.018L1256.43 64.5191C1255.26 63.7483 1253.97 63.1647 1252.58 62.7683C1251.18 62.3719 1249.75 62.1737 1248.28 62.1737ZM1210.66 121.37C1215.41 121.37 1219.98 120.819 1224.36 119.718C1228.75 118.617 1232.86 117.053 1236.71 115.027C1240.55 113.001 1244.05 110.568 1247.21 107.727C1250.37 104.886 1253.07 101.748 1255.3 98.3124C1257.52 94.8769 1259.26 91.1771 1260.51 87.2131C1261.76 83.2491 1262.39 79.1309 1262.39 74.8586C1262.39 73.5373 1262.17 72.2489 1261.73 70.9937C1261.28 69.7384 1260.64 68.5822 1259.78 67.5252L1202.5 119.024C1203.68 119.795 1204.96 120.379 1206.36 120.775C1207.76 121.172 1209.19 121.37 1210.66 121.37Z" fill="#203246"/>
<path d="M779.312 13.886C782.731 13.886 785.94 14.466 788.94 15.626C791.939 16.786 794.568 18.3665 796.825 20.3675C799.083 22.3685 800.857 24.732 802.147 27.458C803.437 30.184 804.082 33.084 804.082 36.158C804.082 42.306 803.195 48.222 801.421 53.906C799.648 59.59 797.148 64.9115 793.923 69.8705C790.698 74.8295 786.827 79.339 782.312 83.399C777.797 87.459 772.781 90.939 767.266 93.839C761.751 96.739 755.833 98.9865 749.511 100.582C743.19 102.177 736.61 102.974 729.773 102.974C726.354 102.974 723.145 102.394 720.145 101.234C717.146 100.074 714.517 98.4935 712.26 96.4925C710.002 94.4915 708.228 92.128 706.938 89.402C705.648 86.676 705.003 83.776 705.003 80.702C705.003 74.554 705.89 68.638 707.664 62.954C709.438 57.27 711.937 51.9485 715.162 46.9895C718.388 42.0305 722.258 37.521 726.773 33.461C731.289 29.401 736.304 25.921 741.819 23.021C747.334 20.121 753.252 17.8735 759.574 16.2785C765.895 14.6835 772.475 13.886 779.312 13.886ZM779.312 19.454C773.055 19.454 767.04 20.179 761.267 21.629C755.494 23.079 750.076 25.138 745.012 27.806C739.948 30.474 735.336 33.6785 731.176 37.4195C727.015 41.1605 723.467 45.293 720.532 49.817C717.597 54.341 715.307 59.213 713.663 64.433C712.018 69.653 711.195 75.076 711.195 80.702C711.195 82.442 711.486 84.1385 712.066 85.7915C712.647 87.4445 713.501 88.967 714.63 90.359L790.052 22.5425C788.504 21.5275 786.811 20.759 784.973 20.237C783.134 19.715 781.248 19.454 779.312 19.454ZM729.773 97.406C736.03 97.406 742.045 96.681 747.818 95.231C753.591 93.781 759.009 91.722 764.073 89.054C769.137 86.386 773.749 83.1815 777.909 79.4405C782.07 75.6995 785.618 71.567 788.553 67.043C791.488 62.519 793.778 57.647 795.422 52.427C797.067 47.207 797.89 41.784 797.89 36.158C797.89 34.418 797.6 32.7215 797.019 31.0685C796.438 29.4155 795.584 27.893 794.455 26.501L719.033 94.3175C720.581 95.3325 722.274 96.101 724.112 96.623C725.951 97.145 727.838 97.406 729.773 97.406Z" fill="#203246"/>
<path d="M74.6634 392.866C76.8204 392.866 78.8451 393.232 80.7375 393.964C82.6299 394.696 84.2883 395.693 85.7127 396.955C87.1371 398.218 88.2563 399.709 89.0702 401.429C89.8842 403.149 90.2911 404.978 90.2911 406.918C90.2911 410.797 89.7316 414.529 88.6124 418.115C87.4932 421.701 85.9162 425.059 83.8813 428.187C81.8465 431.316 79.4047 434.161 76.5558 436.723C73.707 439.284 70.5428 441.48 67.0632 443.31C63.5836 445.139 59.8497 446.557 55.8613 447.564C51.873 448.57 47.7219 449.073 43.408 449.073C41.251 449.073 39.2264 448.707 37.3339 447.975C35.4415 447.243 33.7831 446.246 32.3587 444.984C30.9343 443.721 29.8151 442.23 29.0012 440.51C28.1872 438.79 27.7803 436.961 27.7803 435.021C27.7803 431.142 28.3399 427.41 29.459 423.824C30.5782 420.238 32.1552 416.88 34.1901 413.751C36.2249 410.623 38.6668 407.778 41.5156 405.216C44.3644 402.655 47.5286 400.459 51.0082 398.629C54.4878 396.8 58.2218 395.382 62.2101 394.375C66.1984 393.369 70.3495 392.866 74.6634 392.866ZM74.6634 396.379C70.7158 396.379 66.9208 396.836 63.2784 397.751C59.636 398.666 56.2174 399.965 53.0227 401.648C49.828 403.332 46.9181 405.353 44.2932 407.714C41.6682 410.074 39.4298 412.681 37.5781 415.535C35.7264 418.39 34.2816 421.463 33.2439 424.757C32.2061 428.05 31.6872 431.472 31.6872 435.021C31.6872 436.119 31.8703 437.189 32.2366 438.232C32.6029 439.275 33.1421 440.236 33.8543 441.114L81.4395 398.327C80.4628 397.687 79.3945 397.202 78.2346 396.873C77.0747 396.544 75.8843 396.379 74.6634 396.379ZM43.408 445.56C47.3556 445.56 51.1506 445.103 54.793 444.188C58.4354 443.273 61.854 441.974 65.0487 440.291C68.2434 438.607 71.1533 436.586 73.7783 434.225C76.4032 431.865 78.6416 429.258 80.4933 426.404C82.345 423.549 83.7898 420.475 84.8276 417.182C85.8653 413.889 86.3842 410.467 86.3842 406.918C86.3842 405.82 86.2011 404.75 85.8348 403.707C85.4685 402.664 84.9293 401.703 84.2171 400.825L36.6319 443.611C37.6086 444.252 38.6769 444.737 39.8368 445.066C40.9967 445.395 42.1871 445.56 43.408 445.56Z" fill="#203246"/>
<path d="M356.295 445.429C358.892 445.429 361.33 445.87 363.609 446.751C365.887 447.632 367.884 448.833 369.599 450.353C371.315 451.873 372.662 453.669 373.642 455.74C374.622 457.81 375.112 460.014 375.112 462.349C375.112 467.019 374.439 471.514 373.091 475.832C371.743 480.15 369.845 484.193 367.394 487.96C364.944 491.727 362.004 495.153 358.574 498.237C355.143 501.322 351.333 503.965 347.144 506.168C342.954 508.371 338.458 510.079 333.655 511.291C328.853 512.502 323.855 513.108 318.66 513.108C316.063 513.108 313.625 512.668 311.346 511.786C309.068 510.905 307.071 509.704 305.356 508.184C303.641 506.664 302.293 504.869 301.313 502.798C300.333 500.727 299.843 498.524 299.843 496.188C299.843 491.518 300.517 487.023 301.864 482.705C303.212 478.387 305.111 474.345 307.561 470.577C310.011 466.81 312.951 463.384 316.382 460.3C319.812 457.216 323.622 454.572 327.812 452.369C332.001 450.166 336.498 448.458 341.3 447.247C346.102 446.035 351.101 445.429 356.295 445.429ZM356.295 449.659C351.542 449.659 346.972 450.21 342.586 451.311C338.2 452.413 334.084 453.977 330.237 456.004C326.391 458.031 322.887 460.465 319.726 463.307C316.565 466.149 313.87 469.289 311.64 472.725C309.411 476.162 307.671 479.863 306.422 483.829C305.172 487.795 304.547 491.914 304.547 496.188C304.547 497.51 304.768 498.799 305.209 500.055C305.65 501.311 306.299 502.467 307.157 503.525L364.454 452.005C363.278 451.234 361.992 450.65 360.595 450.254C359.198 449.857 357.765 449.659 356.295 449.659ZM318.66 508.878C323.414 508.878 327.983 508.327 332.369 507.226C336.755 506.124 340.871 504.56 344.718 502.533C348.565 500.506 352.068 498.072 355.229 495.23C358.39 492.388 361.085 489.249 363.315 485.812C365.544 482.375 367.284 478.674 368.534 474.708C369.783 470.743 370.408 466.623 370.408 462.349C370.408 461.027 370.188 459.738 369.746 458.482C369.305 457.227 368.656 456.07 367.799 455.012L310.501 506.532C311.677 507.303 312.964 507.887 314.36 508.283C315.757 508.68 317.19 508.878 318.66 508.878Z" fill="#203246"/>
<path d="M171.56 490.61C182.555 490.61 192.876 492.475 202.522 496.206C212.169 499.936 220.623 505.02 227.884 511.455C235.144 517.89 240.849 525.492 244.998 534.259C249.148 543.026 251.222 552.352 251.222 562.239C251.222 582.011 248.37 601.038 242.665 619.318C236.96 637.598 228.921 654.713 218.548 670.661C208.175 686.61 195.728 701.113 181.206 714.17C166.685 727.228 150.555 738.42 132.818 747.746C115.08 757.073 96.0465 764.301 75.716 769.431C55.3855 774.561 34.2252 777.126 12.2351 777.126C1.24003 777.126 -9.08081 775.26 -18.7274 771.53C-28.374 767.799 -36.8278 762.716 -44.0887 756.28C-51.3496 749.845 -57.0545 742.244 -61.2036 733.477C-65.3527 724.71 -67.4272 715.383 -67.4272 705.497C-67.4272 685.724 -64.5748 666.698 -58.8698 648.417C-53.1648 630.137 -45.1259 613.023 -34.7532 597.074C-24.3805 581.125 -11.9333 566.622 2.58848 553.565C17.1103 540.508 33.2398 529.316 50.9771 519.989C68.7144 510.662 87.7483 503.434 108.079 498.304C128.409 493.175 149.57 490.61 171.56 490.61ZM171.56 508.517C151.437 508.517 132.092 510.849 113.525 515.512C94.9574 520.175 77.5312 526.797 61.2461 535.378C44.961 543.958 30.128 554.264 16.7472 566.296C3.36643 578.327 -8.04354 591.618 -17.4827 606.167C-26.9219 620.717 -34.2865 636.386 -39.5765 653.174C-44.8666 669.962 -47.5117 687.403 -47.5117 705.497C-47.5117 711.093 -46.5781 716.549 -44.711 721.865C-42.8439 727.181 -40.0952 732.078 -36.4647 736.554L206.101 518.45C201.122 515.186 195.676 512.714 189.764 511.035C183.851 509.356 177.783 508.517 171.56 508.517ZM12.2351 759.218C32.3581 759.218 51.7032 756.887 70.2704 752.223C88.8375 747.56 106.264 740.938 122.549 732.357C138.834 723.777 153.667 713.471 167.048 701.44C180.428 689.408 191.838 676.118 201.278 661.568C210.717 647.018 218.081 631.349 223.371 614.561C228.661 597.773 231.307 580.333 231.307 562.239C231.307 556.643 230.373 551.187 228.506 545.87C226.639 540.554 223.89 535.658 220.26 531.181L-22.306 749.285C-17.3271 752.55 -11.8814 755.021 -5.969 756.7C-0.0565577 758.379 6.01147 759.218 12.2351 759.218Z" fill="#203246"/>
</g>
<defs>
<clipPath id="clip0_2_8">
<rect width="1280" height="720" fill="white"/>
</clipPath>
</defs>
</svg>
