<svg width="1280" height="720" viewBox="0 0 1280 720" fill="none" xmlns="http://www.w3.org/2000/svg">
<rect width="1280" height="720" fill="#182534"/>
<path d="M1061.91 102.503C1074.88 102.503 1087.06 104.704 1098.44 109.106C1109.82 113.507 1119.79 119.504 1128.36 127.097C1136.93 134.69 1143.66 143.659 1148.55 154.002C1153.45 164.346 1155.9 175.351 1155.9 187.015C1155.9 210.344 1152.53 232.792 1145.8 254.36C1139.07 275.929 1129.58 296.121 1117.35 314.938C1105.11 333.755 1090.42 350.867 1073.29 366.273C1056.15 381.678 1037.12 394.883 1016.2 405.888C995.269 416.892 972.812 425.42 948.825 431.472C924.838 437.525 899.871 440.551 873.926 440.551C860.954 440.551 848.777 438.35 837.395 433.948C826.013 429.547 816.039 423.549 807.472 415.956C798.905 408.364 792.174 399.395 787.279 389.051C782.384 378.707 779.936 367.703 779.936 356.039C779.936 332.71 783.302 310.261 790.033 288.693C796.764 267.125 806.248 246.933 818.487 228.115C830.725 209.298 845.411 192.187 862.545 176.781C879.678 161.375 898.709 148.17 919.636 137.166C940.564 126.162 963.021 117.634 987.008 111.581C1011 105.529 1035.96 102.503 1061.91 102.503ZM1061.91 123.631C1038.16 123.631 1015.34 126.382 993.433 131.884C971.527 137.386 950.966 145.199 931.752 155.323C912.538 165.447 895.037 177.606 879.25 191.802C863.463 205.997 850 221.678 838.864 238.845C827.727 256.011 819.037 274.498 812.796 294.305C806.554 314.113 803.434 334.691 803.434 356.039C803.434 362.641 804.535 369.079 806.738 375.351C808.941 381.623 812.184 387.401 816.467 392.683L1102.66 135.35C1096.79 131.499 1090.36 128.583 1083.38 126.602C1076.41 124.621 1069.25 123.631 1061.91 123.631ZM873.926 419.423C897.669 419.423 920.493 416.672 942.4 411.17C964.306 405.668 984.867 397.855 1004.08 387.731C1023.29 377.607 1040.8 365.447 1056.58 351.252C1072.37 337.057 1085.83 321.376 1096.97 304.209C1108.11 287.043 1116.8 268.556 1123.04 248.748C1129.28 228.941 1132.4 208.363 1132.4 187.015C1132.4 180.412 1131.3 173.975 1129.09 167.703C1126.89 161.43 1123.65 155.653 1119.37 150.371L833.173 407.703C839.047 411.555 845.472 414.471 852.448 416.452C859.424 418.432 866.583 419.423 873.926 419.423Z" fill="#112D43"/>
<path d="M904.841 270.718C904.732 270.816 904.559 270.767 904.517 270.627L888.955 218.864C888.933 218.79 888.956 218.709 889.014 218.657L921.171 189.87C921.276 189.776 921.442 189.816 921.491 189.948L924.121 196.892C924.13 196.915 924.143 196.936 924.159 196.954L924.628 197.478C924.702 197.56 924.695 197.687 924.613 197.76L909.588 211.21C909.506 211.284 909.499 211.411 909.573 211.493L917.683 220.553C917.757 220.635 917.883 220.642 917.966 220.568L934.444 205.816C934.549 205.723 934.714 205.763 934.764 205.894L937.233 212.375C937.242 212.398 937.255 212.419 937.271 212.438L937.701 212.918C937.775 213 937.768 213.127 937.686 213.2L923.077 226.278C922.995 226.352 922.988 226.478 923.062 226.561L931.314 235.779C931.388 235.862 931.514 235.869 931.597 235.795L948.632 220.545C948.736 220.451 948.902 220.492 948.952 220.623L951.584 227.569C951.593 227.592 951.606 227.613 951.622 227.631L952.089 228.153C952.163 228.235 952.156 228.362 952.073 228.435L929.785 248.389C929.702 248.462 929.576 248.455 929.502 248.373L921.051 238.932C920.977 238.85 920.851 238.843 920.768 238.917L908.356 250.029C908.298 250.081 908.275 250.162 908.298 250.237L912.468 263.734C912.491 263.809 912.469 263.89 912.41 263.942L904.841 270.718ZM899.074 219.937C899.016 219.989 898.994 220.07 899.017 220.145L905.737 241.992C905.78 242.132 905.953 242.18 906.061 242.083L915.799 233.365C915.881 233.292 915.888 233.165 915.814 233.083L901.967 217.615C901.894 217.533 901.767 217.526 901.685 217.6L899.074 219.937Z" fill="#112D43"/>
<path d="M966.728 215.316C966.646 215.39 966.519 215.383 966.446 215.301L939.252 184.924C939.178 184.841 939.051 184.834 938.969 184.908L930.589 192.41C930.506 192.484 930.38 192.477 930.306 192.395L929.837 191.871C929.821 191.853 929.802 191.838 929.78 191.827L923.18 188.436C923.055 188.371 923.033 188.202 923.138 188.109L952.108 162.174C952.213 162.081 952.379 162.121 952.428 162.252L955.058 169.196C955.067 169.219 955.08 169.241 955.096 169.259L955.565 169.783C955.639 169.865 955.632 169.991 955.55 170.065L947.166 177.57C947.084 177.644 947.077 177.77 947.15 177.853L974.344 208.23C974.418 208.312 974.411 208.438 974.329 208.512L966.728 215.316Z" fill="#112D43"/>
<path d="M331.75 149C336.615 149 341.182 149.827 345.451 151.48C349.719 153.134 353.46 155.387 356.673 158.24C359.886 161.092 362.41 164.462 364.246 168.348C366.082 172.234 367 176.368 367 180.75C367 189.514 365.738 197.948 363.213 206.051C360.689 214.154 357.132 221.74 352.542 228.809C347.952 235.878 342.444 242.307 336.019 248.095C329.593 253.882 322.456 258.843 314.607 262.978C306.758 267.112 298.336 270.316 289.34 272.589C280.344 274.863 270.98 276 261.25 276C256.385 276 251.818 275.173 247.549 273.52C243.281 271.866 239.54 269.613 236.327 266.76C233.114 263.908 230.59 260.538 228.754 256.652C226.918 252.766 226 248.632 226 244.25C226 235.486 227.262 227.052 229.787 218.949C232.311 210.846 235.868 203.26 240.458 196.191C245.048 189.122 250.556 182.693 256.981 176.905C263.407 171.118 270.544 166.157 278.393 162.022C286.242 157.888 294.664 154.684 303.66 152.411C312.656 150.137 322.02 149 331.75 149ZM331.75 156.938C322.846 156.938 314.286 157.971 306.07 160.038C297.854 162.105 290.143 165.04 282.937 168.844C275.731 172.647 269.167 177.215 263.247 182.548C257.326 187.881 252.277 193.772 248.1 200.222C243.923 206.671 240.665 213.616 238.324 221.058C235.983 228.499 234.812 236.23 234.812 244.25C234.812 246.73 235.226 249.149 236.052 251.505C236.878 253.862 238.094 256.032 239.701 258.017L347.034 161.34C344.831 159.893 342.421 158.798 339.805 158.054C337.189 157.31 334.504 156.938 331.75 156.938ZM261.25 268.063C270.154 268.063 278.714 267.029 286.93 264.962C295.146 262.895 302.857 259.96 310.063 256.156C317.269 252.353 323.833 247.785 329.753 242.452C335.674 237.119 340.723 231.228 344.9 224.778C349.077 218.329 352.335 211.384 354.676 203.942C357.017 196.501 358.187 188.77 358.187 180.75C358.187 178.27 357.774 175.851 356.948 173.495C356.122 171.138 354.906 168.968 353.299 166.983L245.966 263.66C248.169 265.107 250.579 266.202 253.195 266.946C255.811 267.69 258.496 268.063 261.25 268.063Z" fill="#112D43"/>
<path d="M272.991 212.065C272.882 212.163 272.708 212.114 272.666 211.974L266.909 192.791C266.887 192.717 266.91 192.636 266.967 192.585L278.833 181.944C278.938 181.85 279.103 181.891 279.153 182.022L280.067 184.439C280.076 184.462 280.088 184.483 280.105 184.501L280.182 184.588C280.256 184.67 280.249 184.797 280.166 184.87L274.718 189.757C274.635 189.83 274.628 189.957 274.702 190.039L277.577 193.257C277.651 193.339 277.777 193.346 277.859 193.272L283.811 187.935C283.916 187.841 284.081 187.881 284.131 188.013L284.984 190.256C284.993 190.279 285.006 190.3 285.022 190.318L285.085 190.388C285.159 190.471 285.152 190.597 285.069 190.671L279.776 195.417C279.694 195.491 279.687 195.618 279.761 195.7L282.689 198.977C282.763 199.059 282.889 199.066 282.972 198.993L289.132 193.468C289.236 193.374 289.402 193.415 289.452 193.546L290.366 195.964C290.375 195.987 290.388 196.008 290.404 196.026L290.481 196.112C290.554 196.194 290.547 196.321 290.465 196.395L282.292 203.724C282.21 203.798 282.084 203.791 282.01 203.708L279.007 200.348C278.933 200.265 278.807 200.259 278.725 200.332L274.222 204.37C274.164 204.422 274.141 204.503 274.164 204.578L275.681 209.496C275.704 209.571 275.682 209.652 275.623 209.704L272.991 212.065ZM270.741 193.065C270.683 193.117 270.66 193.198 270.683 193.273L273.123 201.218C273.166 201.357 273.338 201.405 273.447 201.308L276.861 198.247C276.943 198.173 276.95 198.046 276.876 197.964L271.85 192.339C271.776 192.257 271.65 192.25 271.568 192.324L270.741 193.065Z" fill="#112D43"/>
<path d="M296.147 191.299C296.065 191.373 295.939 191.366 295.865 191.283L285.833 180.057C285.759 179.975 285.633 179.968 285.551 180.042L282.594 182.694C282.511 182.767 282.385 182.76 282.311 182.678L282.234 182.592C282.218 182.573 282.198 182.558 282.177 182.547L279.883 181.367C279.759 181.303 279.737 181.133 279.842 181.04L290.436 171.539C290.54 171.446 290.706 171.486 290.756 171.617L291.669 174.034C291.678 174.057 291.691 174.078 291.707 174.097L291.785 174.183C291.858 174.265 291.851 174.392 291.769 174.466L288.811 177.118C288.728 177.192 288.721 177.319 288.795 177.401L298.827 188.627C298.901 188.709 298.894 188.836 298.812 188.91L296.147 191.299Z" fill="#112D43"/>
<path d="M155.25 165C158.39 165 161.337 165.534 164.092 166.602C166.847 167.669 169.261 169.124 171.335 170.966C173.409 172.808 175.038 174.983 176.223 177.492C177.408 180.001 178 182.671 178 185.5C178 191.159 177.185 196.604 175.556 201.836C173.927 207.068 171.631 211.966 168.669 216.53C165.707 221.095 162.152 225.245 158.005 228.982C153.858 232.719 149.251 235.923 144.186 238.592C139.121 241.261 133.685 243.33 127.879 244.798C122.073 246.266 116.03 247 109.75 247C106.61 247 103.663 246.466 100.908 245.398C98.1528 244.331 95.7386 242.876 93.665 241.034C91.5915 239.192 89.9622 237.017 88.7773 234.508C87.5924 231.999 87 229.329 87 226.5C87 220.841 87.8146 215.396 89.4438 210.164C91.0731 204.932 93.3688 200.034 96.3311 195.47C99.2933 190.905 102.848 186.755 106.995 183.018C111.142 179.281 115.749 176.077 120.814 173.408C125.879 170.739 131.315 168.67 137.121 167.202C142.927 165.734 148.97 165 155.25 165ZM155.25 170.125C149.503 170.125 143.979 170.792 138.676 172.127C133.374 173.462 128.397 175.357 123.747 177.812C119.096 180.268 114.86 183.218 111.039 186.661C107.217 190.104 103.959 193.908 101.263 198.072C98.5675 202.236 96.4644 206.721 94.9536 211.525C93.4429 216.33 92.6875 221.322 92.6875 226.5C92.6875 228.102 92.9541 229.663 93.4873 231.185C94.0205 232.706 94.8055 234.107 95.8423 235.389L165.114 172.968C163.692 172.034 162.137 171.326 160.449 170.846C158.76 170.365 157.027 170.125 155.25 170.125ZM109.75 241.875C115.497 241.875 121.021 241.208 126.324 239.873C131.626 238.538 136.603 236.643 141.253 234.188C145.904 231.732 150.14 228.782 153.961 225.339C157.783 221.896 161.041 218.092 163.737 213.928C166.432 209.764 168.536 205.279 170.046 200.475C171.557 195.67 172.312 190.678 172.312 185.5C172.312 183.898 172.046 182.337 171.513 180.815C170.979 179.294 170.194 177.893 169.158 176.611L99.8857 239.032C101.308 239.966 102.863 240.674 104.551 241.154C106.24 241.635 107.973 241.875 109.75 241.875Z" fill="#112D43"/>
<path d="M117.41 205.645C117.301 205.742 117.128 205.694 117.086 205.553L113.415 193.318C113.393 193.244 113.416 193.163 113.474 193.111L121.021 186.34C121.125 186.246 121.291 186.287 121.341 186.418L121.89 187.871C121.898 187.893 121.911 187.913 121.927 187.931V187.931C121.997 188.01 121.99 188.132 121.912 188.202L118.495 191.268C118.412 191.342 118.405 191.468 118.479 191.551L120.24 193.522C120.314 193.605 120.44 193.612 120.522 193.538L124.234 190.208C124.338 190.114 124.504 190.154 124.554 190.286L125.065 191.629C125.072 191.649 125.084 191.668 125.099 191.685V191.685C125.165 191.759 125.159 191.873 125.085 191.94L121.76 194.923C121.677 194.997 121.67 195.123 121.744 195.206L123.54 197.216C123.613 197.298 123.739 197.305 123.822 197.231L127.668 193.781C127.772 193.687 127.938 193.727 127.988 193.859L128.537 195.312C128.546 195.334 128.558 195.355 128.574 195.372V195.372C128.644 195.451 128.637 195.572 128.559 195.643L123.383 200.286C123.301 200.36 123.175 200.353 123.101 200.271L121.257 198.207C121.184 198.124 121.057 198.117 120.975 198.191L118.156 200.72C118.098 200.772 118.075 200.854 118.098 200.929L119.05 204.017C119.073 204.092 119.051 204.173 118.993 204.225L117.41 205.645ZM115.909 193.421C115.851 193.473 115.829 193.554 115.851 193.629L117.38 198.609C117.423 198.749 117.596 198.797 117.704 198.7L119.772 196.844C119.854 196.771 119.861 196.644 119.788 196.562L116.638 193.036C116.565 192.953 116.438 192.946 116.356 193.02L115.909 193.421Z" fill="#112D43"/>
<path d="M132.325 192.264C132.243 192.338 132.117 192.331 132.043 192.248L125.663 185.106C125.589 185.023 125.463 185.016 125.381 185.09L123.572 186.713C123.493 186.784 123.371 186.777 123.301 186.698V186.698C123.285 186.68 123.266 186.666 123.245 186.655L121.867 185.945C121.743 185.881 121.721 185.712 121.825 185.618L128.509 179.622C128.614 179.528 128.78 179.569 128.829 179.7L129.378 181.153C129.387 181.175 129.399 181.195 129.415 181.213V181.213C129.485 181.292 129.479 181.414 129.4 181.484L127.59 183.108C127.508 183.182 127.501 183.308 127.575 183.391L133.955 190.533C134.028 190.615 134.021 190.742 133.939 190.816L132.325 192.264Z" fill="#112D43"/>
<path d="M492.75 133C495.269 133 497.633 133.43 499.843 134.289C502.053 135.148 503.99 136.319 505.653 137.802C507.317 139.284 508.624 141.035 509.574 143.055C510.525 145.074 511 147.223 511 149.5C511 154.055 510.347 158.437 509.04 162.648C507.733 166.859 505.891 170.802 503.515 174.476C501.138 178.149 498.287 181.49 494.96 184.498C491.633 187.506 487.938 190.084 483.875 192.232C479.811 194.381 475.451 196.046 470.793 197.228C466.135 198.409 461.288 199 456.25 199C453.731 199 451.367 198.57 449.157 197.711C446.947 196.852 445.01 195.681 443.347 194.198C441.683 192.716 440.376 190.965 439.426 188.945C438.475 186.926 438 184.777 438 182.5C438 177.945 438.653 173.563 439.96 169.352C441.267 165.141 443.109 161.198 445.485 157.524C447.862 153.851 450.713 150.51 454.04 147.502C457.367 144.494 461.062 141.916 465.125 139.768C469.189 137.619 473.549 135.954 478.207 134.772C482.865 133.591 487.712 133 492.75 133ZM492.75 137.125C488.14 137.125 483.708 137.662 479.455 138.736C475.201 139.811 471.209 141.336 467.478 143.312C463.747 145.289 460.349 147.663 457.284 150.435C454.218 153.206 451.604 156.268 449.442 159.619C447.279 162.971 445.592 166.58 444.38 170.447C443.168 174.314 442.563 178.332 442.563 182.5C442.563 183.789 442.776 185.046 443.204 186.271C443.632 187.495 444.262 188.623 445.093 189.654L500.663 139.413C499.522 138.661 498.275 138.092 496.92 137.705C495.566 137.318 494.176 137.125 492.75 137.125ZM456.25 194.875C460.86 194.875 465.292 194.338 469.545 193.264C473.799 192.189 477.791 190.664 481.522 188.688C485.253 186.711 488.651 184.337 491.716 181.565C494.782 178.794 497.396 175.732 499.558 172.381C501.721 169.029 503.408 165.42 504.62 161.553C505.832 157.686 506.437 153.668 506.437 149.5C506.437 148.211 506.224 146.954 505.796 145.729C505.368 144.505 504.738 143.377 503.907 142.346L448.337 192.587C449.478 193.339 450.725 193.908 452.08 194.295C453.434 194.682 454.824 194.875 456.25 194.875Z" fill="#112D43"/>
<path d="M462.441 165.673C462.332 165.771 462.159 165.722 462.117 165.581L459.198 155.817C459.175 155.742 459.198 155.661 459.256 155.609L465.249 150.214C465.353 150.12 465.519 150.161 465.569 150.293L465.989 151.408C465.995 151.426 466.005 151.442 466.018 151.457V151.457C466.075 151.52 466.069 151.618 466.006 151.675L463.294 154.116C463.212 154.19 463.205 154.317 463.278 154.399L464.639 155.928C464.713 156.01 464.839 156.017 464.921 155.943L467.827 153.327C467.931 153.234 468.096 153.274 468.146 153.405L468.535 154.433C468.542 154.45 468.551 154.465 468.563 154.478V154.478C468.616 154.538 468.611 154.63 468.551 154.683L465.913 157.058C465.831 157.132 465.824 157.259 465.898 157.341L467.286 158.9C467.359 158.983 467.485 158.99 467.568 158.916L470.581 156.203C470.685 156.109 470.851 156.15 470.901 156.282L471.321 157.398C471.328 157.415 471.338 157.432 471.35 157.446V157.446C471.407 157.509 471.401 157.607 471.338 157.664L467.216 161.375C467.134 161.449 467.008 161.442 466.934 161.359L465.507 159.757C465.434 159.674 465.308 159.667 465.226 159.741L463.012 161.734C462.954 161.786 462.931 161.867 462.954 161.942L463.703 164.38C463.726 164.455 463.704 164.536 463.646 164.588L462.441 165.673ZM461.21 155.859C461.152 155.911 461.129 155.992 461.152 156.067L462.353 159.993C462.396 160.133 462.568 160.181 462.677 160.083L464.261 158.657C464.343 158.583 464.35 158.456 464.276 158.374L461.802 155.595C461.728 155.512 461.602 155.505 461.52 155.579L461.21 155.859Z" fill="#112D43"/>
<path d="M474.389 154.918C474.307 154.992 474.181 154.985 474.107 154.902L469.041 149.212C468.968 149.129 468.842 149.123 468.76 149.196L467.338 150.476C467.275 150.533 467.177 150.528 467.12 150.464V150.464C467.108 150.45 467.093 150.438 467.076 150.43L466.021 149.885C465.897 149.82 465.875 149.651 465.979 149.557L471.256 144.807C471.36 144.713 471.526 144.754 471.576 144.885L471.996 146.001C472.002 146.019 472.012 146.035 472.025 146.049V146.049C472.082 146.113 472.076 146.211 472.013 146.268L470.591 147.548C470.508 147.622 470.501 147.749 470.575 147.831L475.641 153.522C475.714 153.604 475.707 153.731 475.625 153.805L474.389 154.918Z" fill="#112D43"/>
<path d="M747.25 111C751.08 111 754.675 111.651 758.036 112.953C761.396 114.255 764.341 116.029 766.87 118.275C769.399 120.521 771.387 123.174 772.832 126.234C774.277 129.294 775 132.549 775 136C775 142.901 774.006 149.542 772.019 155.922C770.032 162.302 767.231 168.275 763.618 173.842C760.005 179.408 755.669 184.47 750.61 189.027C745.552 193.585 739.933 197.491 733.754 200.746C727.576 204.001 720.945 206.524 713.863 208.314C706.781 210.105 699.41 211 691.75 211C687.92 211 684.325 210.349 680.964 209.047C677.604 207.745 674.659 205.971 672.13 203.725C669.601 201.479 667.613 198.826 666.168 195.766C664.723 192.706 664 189.451 664 186C664 179.099 664.994 172.458 666.981 166.078C668.968 159.698 671.769 153.725 675.382 148.158C678.995 142.592 683.331 137.53 688.39 132.973C693.448 128.415 699.067 124.509 705.246 121.254C711.424 117.999 718.055 115.476 725.137 113.686C732.219 111.895 739.59 111 747.25 111ZM747.25 117.25C740.24 117.25 733.501 118.064 727.034 119.691C720.566 121.319 714.496 123.63 708.823 126.625C703.15 129.62 697.983 133.217 693.322 137.416C688.661 141.615 684.686 146.254 681.398 151.332C678.11 156.41 675.544 161.879 673.702 167.738C671.859 173.598 670.938 179.685 670.938 186C670.938 187.953 671.263 189.857 671.913 191.713C672.563 193.568 673.521 195.277 674.786 196.84L759.282 120.717C757.548 119.577 755.651 118.715 753.591 118.129C751.532 117.543 749.418 117.25 747.25 117.25ZM691.75 204.75C698.76 204.75 705.499 203.936 711.966 202.309C718.434 200.681 724.504 198.37 730.177 195.375C735.85 192.38 741.017 188.783 745.678 184.584C750.339 180.385 754.314 175.746 757.602 170.668C760.89 165.59 763.456 160.121 765.298 154.262C767.141 148.402 768.062 142.315 768.062 136C768.062 134.047 767.737 132.143 767.087 130.287C766.437 128.432 765.479 126.723 764.214 125.16L679.718 201.283C681.452 202.423 683.349 203.285 685.409 203.871C687.468 204.457 689.582 204.75 691.75 204.75Z" fill="#112D43"/>
<path d="M701.042 160.613C700.933 160.711 700.76 160.662 700.718 160.521L696.213 145.507C696.191 145.433 696.213 145.352 696.271 145.301L705.546 136.982C705.65 136.888 705.816 136.928 705.866 137.06L706.561 138.897C706.569 138.92 706.582 138.941 706.598 138.96L706.626 138.99C706.699 139.072 706.692 139.199 706.61 139.273L702.384 143.063C702.302 143.137 702.295 143.264 702.368 143.346L704.575 145.816C704.649 145.898 704.775 145.905 704.857 145.832L709.465 141.699C709.569 141.605 709.735 141.645 709.785 141.776L710.432 143.478C710.44 143.501 710.453 143.522 710.47 143.54L710.485 143.557C710.559 143.64 710.552 143.766 710.47 143.84L706.366 147.521C706.284 147.594 706.277 147.721 706.351 147.803L708.6 150.32C708.673 150.403 708.799 150.41 708.882 150.336L713.653 146.056C713.758 145.962 713.924 146.002 713.974 146.134L714.669 147.972C714.677 147.995 714.69 148.016 714.707 148.035L714.733 148.064C714.807 148.147 714.8 148.273 714.718 148.347L708.347 154.061C708.264 154.135 708.138 154.128 708.065 154.046L705.757 151.463C705.684 151.381 705.557 151.374 705.475 151.447L701.982 154.58C701.924 154.632 701.902 154.714 701.925 154.788L703.103 158.608C703.126 158.683 703.103 158.765 703.045 158.817L701.042 160.613ZM699.242 145.679C699.184 145.731 699.161 145.812 699.184 145.887L701.077 152.053C701.12 152.192 701.293 152.24 701.401 152.143L704.008 149.805C704.09 149.732 704.097 149.605 704.023 149.523L700.123 145.157C700.049 145.075 699.923 145.068 699.841 145.142L699.242 145.679Z" fill="#112D43"/>
<path d="M719.254 144.278C719.172 144.352 719.045 144.345 718.972 144.262L711.131 135.486C711.057 135.404 710.931 135.397 710.849 135.471L708.584 137.502C708.502 137.576 708.376 137.569 708.302 137.486L708.275 137.456C708.258 137.438 708.239 137.423 708.217 137.411L706.474 136.514C706.349 136.45 706.328 136.28 706.432 136.187L714.68 128.789C714.784 128.695 714.95 128.736 715 128.867L715.694 130.704C715.703 130.727 715.716 130.749 715.732 130.767L715.759 130.797C715.833 130.88 715.826 131.006 715.744 131.08L713.478 133.112C713.396 133.186 713.389 133.312 713.463 133.395L721.304 142.171C721.378 142.253 721.371 142.38 721.288 142.453L719.254 144.278Z" fill="#112D43"/>
<path d="M604.5 196C607.053 196 609.45 196.43 611.69 197.289C613.931 198.148 615.894 199.319 617.58 200.802C619.266 202.284 620.591 204.035 621.555 206.055C622.518 208.074 623 210.223 623 212.5C623 217.055 622.338 221.437 621.013 225.648C619.688 229.859 617.821 233.802 615.412 237.476C613.003 241.149 610.113 244.49 606.74 247.498C603.368 250.506 599.622 253.084 595.503 255.232C591.384 257.381 586.964 259.046 582.242 260.228C577.521 261.409 572.607 262 567.5 262C564.947 262 562.55 261.57 560.31 260.711C558.069 259.852 556.106 258.681 554.42 257.198C552.734 255.716 551.409 253.965 550.445 251.945C549.482 249.926 549 247.777 549 245.5C549 240.945 549.662 236.563 550.987 232.352C552.312 228.141 554.179 224.198 556.588 220.524C558.997 216.851 561.887 213.51 565.26 210.502C568.632 207.494 572.378 204.916 576.497 202.768C580.616 200.619 585.036 198.954 589.758 197.772C594.479 196.591 599.393 196 604.5 196ZM604.5 200.125C599.827 200.125 595.334 200.662 591.022 201.736C586.711 202.811 582.664 204.336 578.882 206.312C575.1 208.289 571.655 210.663 568.548 213.435C565.44 216.206 562.791 219.268 560.599 222.619C558.407 225.971 556.696 229.58 555.468 233.447C554.239 237.314 553.625 241.332 553.625 245.5C553.625 246.789 553.842 248.046 554.275 249.271C554.709 250.495 555.347 251.623 556.19 252.654L612.521 202.413C611.365 201.661 610.101 201.092 608.728 200.705C607.354 200.318 605.945 200.125 604.5 200.125ZM567.5 257.875C572.173 257.875 576.666 257.338 580.978 256.264C585.289 255.189 589.336 253.664 593.118 251.688C596.9 249.711 600.345 247.337 603.452 244.565C606.56 241.794 609.209 238.732 611.401 235.381C613.593 232.029 615.304 228.42 616.532 224.553C617.761 220.686 618.375 216.668 618.375 212.5C618.375 211.211 618.158 209.954 617.725 208.729C617.291 207.505 616.653 206.377 615.81 205.346L559.479 255.587C560.635 256.339 561.899 256.908 563.272 257.295C564.646 257.682 566.055 257.875 567.5 257.875Z" fill="#112D43"/>
<path d="M573.774 228.674C573.665 228.771 573.49 228.723 573.448 228.583L570.488 218.816C570.465 218.742 570.488 218.662 570.546 218.61L576.624 213.213C576.729 213.12 576.896 213.16 576.946 213.291L577.372 214.408C577.379 214.426 577.389 214.442 577.402 214.457V214.457C577.459 214.52 577.454 214.618 577.39 214.675L574.639 217.117C574.557 217.19 574.55 217.316 574.624 217.398L576.005 218.929C576.079 219.011 576.206 219.018 576.288 218.944L579.237 216.326C579.342 216.233 579.508 216.273 579.558 216.404L579.954 217.433C579.96 217.45 579.969 217.465 579.981 217.478V217.478C580.035 217.538 580.03 217.63 579.97 217.683L577.295 220.059C577.212 220.132 577.205 220.258 577.279 220.34L578.688 221.901C578.762 221.983 578.889 221.99 578.971 221.917L582.029 219.202C582.134 219.109 582.301 219.149 582.351 219.28L582.778 220.398C582.784 220.415 582.794 220.432 582.807 220.446V220.446C582.864 220.509 582.859 220.607 582.795 220.664L578.615 224.376C578.532 224.449 578.405 224.442 578.331 224.36L576.883 222.756C576.809 222.674 576.682 222.667 576.6 222.74L574.354 224.734C574.295 224.786 574.273 224.867 574.296 224.941L575.056 227.381C575.079 227.455 575.056 227.536 574.998 227.588L573.774 228.674ZM572.527 218.859C572.468 218.911 572.446 218.992 572.469 219.066L573.687 222.994C573.73 223.133 573.904 223.181 574.013 223.085L575.621 221.656C575.704 221.583 575.711 221.457 575.637 221.375L573.127 218.594C573.053 218.512 572.926 218.505 572.843 218.578L572.527 218.859Z" fill="#112D43"/>
<path d="M585.886 217.919C585.804 217.992 585.677 217.985 585.603 217.903L580.466 212.211C580.392 212.129 580.265 212.122 580.182 212.195L578.74 213.476C578.675 213.533 578.577 213.528 578.519 213.464V213.464C578.507 213.45 578.491 213.438 578.474 213.43L577.404 212.884C577.278 212.82 577.256 212.651 577.361 212.558L582.713 207.806C582.818 207.713 582.985 207.753 583.035 207.884L583.461 209.001C583.468 209.019 583.478 209.035 583.491 209.049V209.049C583.549 209.113 583.543 209.211 583.479 209.268L582.036 210.549C581.953 210.623 581.946 210.749 582.02 210.831L587.157 216.523C587.231 216.605 587.224 216.73 587.142 216.804L585.886 217.919Z" fill="#112D43"/>
<path d="M1248 190C1251.31 190 1254.42 190.566 1257.33 191.699C1260.23 192.832 1262.78 194.375 1264.97 196.33C1267.16 198.284 1268.87 200.592 1270.12 203.254C1271.37 205.916 1272 208.748 1272 211.75C1272 217.754 1271.14 223.531 1269.42 229.082C1267.7 234.633 1265.28 239.83 1262.16 244.672C1259.03 249.515 1255.28 253.919 1250.91 257.884C1246.53 261.849 1241.67 265.247 1236.33 268.079C1230.98 270.911 1225.25 273.106 1219.12 274.664C1213 276.221 1206.62 277 1200 277C1196.69 277 1193.58 276.434 1190.67 275.301C1187.77 274.168 1185.22 272.625 1183.03 270.67C1180.84 268.716 1179.12 266.408 1177.87 263.746C1176.62 261.084 1176 258.252 1176 255.25C1176 249.246 1176.86 243.469 1178.58 237.918C1180.3 232.367 1182.72 227.17 1185.84 222.328C1188.97 217.485 1192.72 213.081 1197.09 209.116C1201.47 205.151 1206.33 201.753 1211.67 198.921C1217.02 196.089 1222.75 193.894 1228.87 192.336C1235 190.779 1241.38 190 1248 190ZM1248 195.438C1241.94 195.438 1236.11 196.146 1230.52 197.562C1224.92 198.978 1219.67 200.988 1214.77 203.594C1209.86 206.199 1205.39 209.329 1201.36 212.982C1197.33 216.635 1193.89 220.671 1191.05 225.089C1188.2 229.507 1185.98 234.265 1184.39 239.362C1182.8 244.46 1182 249.756 1182 255.25C1182 256.949 1182.28 258.606 1182.84 260.22C1183.41 261.834 1184.23 263.321 1185.33 264.681L1258.41 198.454C1256.91 197.462 1255.27 196.712 1253.48 196.202C1251.7 195.692 1249.88 195.438 1248 195.438ZM1200 271.562C1206.06 271.562 1211.89 270.854 1217.48 269.438C1223.08 268.022 1228.33 266.012 1233.23 263.406C1238.14 260.801 1242.61 257.671 1246.64 254.018C1250.67 250.365 1254.11 246.329 1256.95 241.911C1259.8 237.493 1262.02 232.735 1263.61 227.638C1265.2 222.54 1266 217.244 1266 211.75C1266 210.051 1265.72 208.394 1265.16 206.78C1264.59 205.166 1263.77 203.679 1262.67 202.319L1189.59 268.546C1191.09 269.538 1192.73 270.288 1194.52 270.798C1196.3 271.308 1198.12 271.562 1200 271.562Z" fill="#112D43"/>
<path d="M1208.07 233.135C1207.96 233.233 1207.79 233.184 1207.74 233.044L1203.86 220.038C1203.84 219.963 1203.87 219.882 1203.92 219.83L1211.9 212.63C1212.01 212.536 1212.17 212.576 1212.22 212.708L1212.81 214.266C1212.82 214.289 1212.83 214.31 1212.85 214.329L1212.85 214.332C1212.92 214.414 1212.91 214.541 1212.83 214.615L1209.22 217.877C1209.13 217.951 1209.13 218.078 1209.2 218.161L1211.07 220.27C1211.15 220.353 1211.27 220.36 1211.36 220.286L1215.29 216.734C1215.4 216.64 1215.56 216.68 1215.61 216.812L1216.16 218.253C1216.16 218.274 1216.18 218.295 1216.19 218.312V218.312C1216.26 218.391 1216.26 218.512 1216.18 218.583L1212.66 221.755C1212.58 221.829 1212.57 221.956 1212.65 222.039L1214.56 224.189C1214.63 224.271 1214.75 224.278 1214.84 224.204L1218.91 220.524C1219.02 220.43 1219.18 220.471 1219.23 220.603L1219.82 222.161C1219.83 222.184 1219.84 222.205 1219.86 222.224L1219.86 222.226C1219.93 222.309 1219.93 222.436 1219.84 222.51L1214.37 227.445C1214.29 227.519 1214.17 227.513 1214.09 227.43L1212.13 225.223C1212.06 225.14 1211.93 225.133 1211.85 225.207L1208.86 227.903C1208.8 227.956 1208.78 228.037 1208.8 228.112L1209.81 231.403C1209.84 231.478 1209.81 231.56 1209.76 231.612L1208.07 233.135ZM1206.49 220.159C1206.43 220.211 1206.41 220.293 1206.43 220.368L1208.05 225.676C1208.1 225.816 1208.27 225.864 1208.38 225.767L1210.58 223.778C1210.66 223.704 1210.67 223.578 1210.6 223.495L1207.26 219.736C1207.19 219.654 1207.06 219.647 1206.98 219.721L1206.49 220.159Z" fill="#112D43"/>
<path d="M1223.81 218.934C1223.72 219.008 1223.6 219.001 1223.53 218.918L1216.78 211.323C1216.71 211.24 1216.58 211.233 1216.5 211.307L1214.58 213.039C1214.5 213.113 1214.37 213.106 1214.3 213.023L1214.29 213.02C1214.28 213.002 1214.26 212.987 1214.24 212.976L1212.77 212.215C1212.64 212.15 1212.62 211.981 1212.73 211.887L1219.8 205.502C1219.91 205.408 1220.07 205.449 1220.12 205.58L1220.71 207.138C1220.72 207.161 1220.73 207.183 1220.74 207.201L1220.75 207.204C1220.82 207.286 1220.81 207.413 1220.73 207.487L1218.81 209.22C1218.73 209.294 1218.72 209.421 1218.8 209.503L1225.54 217.099C1225.62 217.181 1225.61 217.308 1225.53 217.382L1223.81 218.934Z" fill="#112D43"/>
</svg>
