<svg width="1280" height="720" viewBox="0 0 1280 720" fill="none" xmlns="http://www.w3.org/2000/svg">
<rect width="1280" height="720" fill="#182534"/>
<path d="M1061.91 102.503C1074.88 102.503 1087.06 104.704 1098.44 109.106C1109.82 113.507 1119.79 119.504 1128.36 127.097C1136.93 134.69 1143.66 143.659 1148.55 154.002C1153.45 164.346 1155.9 175.351 1155.9 187.015C1155.9 210.344 1152.53 232.792 1145.8 254.36C1139.07 275.929 1129.58 296.121 1117.35 314.938C1105.11 333.755 1090.42 350.867 1073.29 366.273C1056.15 381.678 1037.12 394.883 1016.2 405.888C995.269 416.892 972.812 425.42 948.825 431.472C924.838 437.525 899.871 440.551 873.926 440.551C860.954 440.551 848.777 438.35 837.395 433.948C826.013 429.547 816.039 423.549 807.472 415.956C798.905 408.364 792.174 399.395 787.279 389.051C782.384 378.707 779.936 367.703 779.936 356.039C779.936 332.71 783.302 310.261 790.033 288.693C796.764 267.125 806.248 246.933 818.487 228.115C830.725 209.298 845.411 192.187 862.545 176.781C879.678 161.375 898.709 148.17 919.636 137.166C940.564 126.162 963.021 117.634 987.008 111.581C1011 105.529 1035.96 102.503 1061.91 102.503ZM1061.91 123.631C1038.16 123.631 1015.34 126.382 993.433 131.884C971.527 137.386 950.966 145.199 931.752 155.323C912.538 165.447 895.037 177.606 879.25 191.802C863.463 205.997 850 221.678 838.864 238.845C827.727 256.011 819.037 274.498 812.796 294.305C806.554 314.113 803.434 334.691 803.434 356.039C803.434 362.641 804.535 369.079 806.738 375.351C808.941 381.623 812.184 387.401 816.467 392.683L1102.66 135.35C1096.79 131.499 1090.36 128.583 1083.38 126.602C1076.41 124.621 1069.25 123.631 1061.91 123.631ZM873.926 419.423C897.669 419.423 920.493 416.672 942.4 411.17C964.306 405.668 984.867 397.855 1004.08 387.731C1023.29 377.607 1040.8 365.447 1056.58 351.252C1072.37 337.057 1085.83 321.376 1096.97 304.209C1108.11 287.043 1116.8 268.556 1123.04 248.748C1129.28 228.941 1132.4 208.363 1132.4 187.015C1132.4 180.412 1131.3 173.975 1129.09 167.703C1126.89 161.43 1123.65 155.653 1119.37 150.371L833.173 407.703C839.047 411.555 845.472 414.471 852.448 416.452C859.424 418.432 866.583 419.423 873.926 419.423Z" fill="#112D43"/>
<path d="M904.841 270.718C904.732 270.816 904.559 270.767 904.517 270.627L888.955 218.864C888.933 218.79 888.956 218.709 889.014 218.657L921.171 189.87C921.276 189.776 921.442 189.816 921.491 189.948L924.121 196.892C924.13 196.915 924.143 196.936 924.159 196.954L924.628 197.478C924.702 197.56 924.695 197.687 924.613 197.76L909.588 211.21C909.506 211.284 909.499 211.411 909.573 211.493L917.683 220.553C917.757 220.635 917.883 220.642 917.966 220.568L934.444 205.816C934.549 205.723 934.714 205.763 934.764 205.894L937.233 212.375C937.242 212.398 937.255 212.419 937.271 212.438L937.701 212.918C937.775 213 937.768 213.127 937.686 213.2L923.077 226.278C922.995 226.352 922.988 226.478 923.062 226.561L931.314 235.779C931.388 235.862 931.514 235.869 931.597 235.795L948.632 220.545C948.736 220.451 948.902 220.492 948.952 220.623L951.584 227.569C951.593 227.592 951.606 227.613 951.622 227.631L952.089 228.153C952.163 228.235 952.156 228.362 952.073 228.435L929.785 248.389C929.702 248.462 929.576 248.455 929.502 248.373L921.051 238.932C920.977 238.85 920.851 238.843 920.768 238.917L908.356 250.029C908.298 250.081 908.275 250.162 908.298 250.237L912.468 263.734C912.491 263.809 912.469 263.89 912.41 263.942L904.841 270.718ZM899.074 219.937C899.016 219.989 898.994 220.07 899.017 220.145L905.737 241.992C905.78 242.132 905.953 242.18 906.061 242.083L915.799 233.365C915.881 233.292 915.888 233.165 915.814 233.083L901.967 217.615C901.894 217.533 901.767 217.526 901.685 217.6L899.074 219.937Z" fill="#112D43"/>
<path d="M966.728 215.316C966.646 215.39 966.519 215.383 966.446 215.301L939.252 184.924C939.178 184.841 939.051 184.834 938.969 184.908L930.589 192.41C930.506 192.484 930.38 192.477 930.306 192.395L929.837 191.871C929.821 191.853 929.802 191.838 929.78 191.827L923.18 188.436C923.055 188.371 923.033 188.202 923.138 188.109L952.108 162.174C952.213 162.081 952.379 162.121 952.428 162.252L955.058 169.196C955.067 169.219 955.08 169.241 955.096 169.259L955.565 169.783C955.639 169.865 955.632 169.991 955.55 170.065L947.166 177.57C947.084 177.644 947.077 177.77 947.15 177.853L974.344 208.23C974.418 208.312 974.411 208.438 974.329 208.512L966.728 215.316Z" fill="#112D43"/>
<path d="M311.75 129C316.615 129 321.182 129.827 325.451 131.48C329.719 133.134 333.46 135.387 336.673 138.24C339.886 141.092 342.41 144.462 344.246 148.348C346.082 152.234 347 156.368 347 160.75C347 169.514 345.738 177.948 343.213 186.051C340.689 194.154 337.132 201.74 332.542 208.809C327.952 215.878 322.444 222.307 316.019 228.095C309.593 233.882 302.456 238.843 294.607 242.978C286.758 247.112 278.336 250.316 269.34 252.589C260.344 254.863 250.98 256 241.25 256C236.385 256 231.818 255.173 227.549 253.52C223.281 251.866 219.54 249.613 216.327 246.76C213.114 243.908 210.59 240.538 208.754 236.652C206.918 232.766 206 228.632 206 224.25C206 215.486 207.262 207.052 209.787 198.949C212.311 190.846 215.868 183.26 220.458 176.191C225.048 169.122 230.556 162.693 236.981 156.905C243.407 151.118 250.544 146.157 258.393 142.022C266.242 137.888 274.664 134.684 283.66 132.411C292.656 130.137 302.02 129 311.75 129ZM311.75 136.938C302.846 136.938 294.286 137.971 286.07 140.038C277.854 142.105 270.143 145.04 262.937 148.844C255.731 152.647 249.167 157.215 243.247 162.548C237.326 167.881 232.277 173.772 228.1 180.222C223.923 186.671 220.665 193.616 218.324 201.058C215.983 208.499 214.812 216.23 214.812 224.25C214.812 226.73 215.226 229.149 216.052 231.505C216.878 233.862 218.094 236.032 219.701 238.017L327.034 141.34C324.831 139.893 322.421 138.798 319.805 138.054C317.189 137.31 314.504 136.938 311.75 136.938ZM241.25 248.063C250.154 248.063 258.714 247.029 266.93 244.962C275.146 242.895 282.857 239.96 290.063 236.156C297.269 232.353 303.833 227.785 309.753 222.452C315.674 217.119 320.723 211.228 324.9 204.778C329.077 198.329 332.335 191.384 334.676 183.942C337.017 176.501 338.187 168.77 338.187 160.75C338.187 158.27 337.774 155.851 336.948 153.495C336.122 151.138 334.906 148.968 333.299 146.983L225.966 243.66C228.169 245.107 230.579 246.202 233.195 246.946C235.811 247.69 238.496 248.063 241.25 248.063Z" fill="#112D43"/>
<path d="M252.991 192.065C252.882 192.163 252.708 192.114 252.666 191.974L246.909 172.791C246.887 172.717 246.91 172.636 246.967 172.585L258.833 161.944C258.938 161.85 259.103 161.891 259.153 162.022L260.067 164.439C260.076 164.462 260.088 164.483 260.105 164.501L260.182 164.588C260.256 164.67 260.249 164.797 260.166 164.87L254.718 169.757C254.635 169.83 254.628 169.957 254.702 170.039L257.577 173.257C257.651 173.339 257.777 173.346 257.859 173.272L263.811 167.935C263.916 167.841 264.081 167.881 264.131 168.013L264.984 170.256C264.993 170.279 265.006 170.3 265.022 170.318L265.085 170.388C265.159 170.471 265.152 170.597 265.069 170.671L259.776 175.417C259.694 175.491 259.687 175.618 259.761 175.7L262.689 178.977C262.763 179.059 262.889 179.066 262.972 178.993L269.132 173.468C269.236 173.374 269.402 173.415 269.452 173.546L270.366 175.964C270.375 175.987 270.388 176.008 270.404 176.026L270.481 176.112C270.554 176.194 270.547 176.321 270.465 176.395L262.292 183.724C262.21 183.798 262.084 183.791 262.01 183.708L259.007 180.348C258.933 180.265 258.807 180.259 258.725 180.332L254.222 184.37C254.164 184.422 254.141 184.503 254.164 184.578L255.681 189.496C255.704 189.571 255.682 189.652 255.623 189.704L252.991 192.065ZM250.741 173.065C250.683 173.117 250.66 173.198 250.683 173.273L253.123 181.218C253.166 181.357 253.338 181.405 253.447 181.308L256.861 178.247C256.943 178.173 256.95 178.046 256.876 177.964L251.85 172.339C251.776 172.257 251.65 172.25 251.568 172.324L250.741 173.065Z" fill="#112D43"/>
<path d="M276.147 171.299C276.065 171.373 275.939 171.366 275.865 171.283L265.833 160.057C265.759 159.975 265.633 159.968 265.551 160.042L262.594 162.694C262.511 162.767 262.385 162.76 262.311 162.678L262.234 162.592C262.218 162.573 262.198 162.558 262.177 162.547L259.883 161.367C259.759 161.303 259.737 161.133 259.842 161.04L270.436 151.539C270.54 151.446 270.706 151.486 270.756 151.617L271.669 154.034C271.678 154.057 271.691 154.078 271.707 154.097L271.785 154.183C271.858 154.265 271.851 154.392 271.769 154.466L268.811 157.118C268.728 157.192 268.721 157.319 268.795 157.401L278.827 168.627C278.901 168.709 278.894 168.836 278.812 168.91L276.147 171.299Z" fill="#112D43"/>
<path d="M155.25 116C158.39 116 161.337 116.534 164.092 117.602C166.847 118.669 169.261 120.124 171.335 121.966C173.409 123.808 175.038 125.983 176.223 128.492C177.408 131.001 178 133.671 178 136.5C178 142.159 177.185 147.604 175.556 152.836C173.927 158.068 171.631 162.966 168.669 167.53C165.707 172.095 162.152 176.245 158.005 179.982C153.858 183.719 149.251 186.923 144.186 189.592C139.121 192.261 133.685 194.33 127.879 195.798C122.073 197.266 116.03 198 109.75 198C106.61 198 103.663 197.466 100.908 196.398C98.1528 195.331 95.7386 193.876 93.665 192.034C91.5915 190.192 89.9622 188.017 88.7773 185.508C87.5924 182.999 87 180.329 87 177.5C87 171.841 87.8146 166.396 89.4438 161.164C91.0731 155.932 93.3688 151.034 96.3311 146.47C99.2933 141.905 102.848 137.755 106.995 134.018C111.142 130.281 115.749 127.077 120.814 124.408C125.879 121.739 131.315 119.67 137.121 118.202C142.927 116.734 148.97 116 155.25 116ZM155.25 121.125C149.503 121.125 143.979 121.792 138.676 123.127C133.374 124.462 128.397 126.357 123.747 128.812C119.096 131.268 114.86 134.218 111.039 137.661C107.217 141.104 103.959 144.908 101.263 149.072C98.5675 153.236 96.4644 157.721 94.9536 162.525C93.4429 167.33 92.6875 172.322 92.6875 177.5C92.6875 179.102 92.9541 180.663 93.4873 182.185C94.0205 183.706 94.8055 185.107 95.8423 186.389L165.114 123.968C163.692 123.034 162.137 122.326 160.449 121.846C158.76 121.365 157.027 121.125 155.25 121.125ZM109.75 192.875C115.497 192.875 121.021 192.208 126.324 190.873C131.626 189.538 136.603 187.643 141.253 185.188C145.904 182.732 150.14 179.782 153.961 176.339C157.783 172.896 161.041 169.092 163.737 164.928C166.432 160.764 168.536 156.279 170.046 151.475C171.557 146.67 172.312 141.678 172.312 136.5C172.312 134.898 172.046 133.337 171.513 131.815C170.979 130.294 170.194 128.893 169.158 127.611L99.8857 190.032C101.308 190.966 102.863 191.674 104.551 192.154C106.24 192.635 107.973 192.875 109.75 192.875Z" fill="#112D43"/>
<path d="M117.41 156.645C117.301 156.742 117.128 156.694 117.086 156.553L113.415 144.318C113.393 144.244 113.416 144.163 113.474 144.111L121.021 137.34C121.125 137.246 121.291 137.287 121.341 137.418L121.89 138.871C121.898 138.893 121.911 138.913 121.927 138.931V138.931C121.997 139.01 121.99 139.132 121.912 139.202L118.495 142.268C118.412 142.342 118.405 142.468 118.479 142.551L120.24 144.522C120.314 144.605 120.44 144.612 120.522 144.538L124.234 141.208C124.338 141.114 124.504 141.154 124.554 141.286L125.065 142.629C125.072 142.649 125.084 142.668 125.099 142.685V142.685C125.165 142.759 125.159 142.873 125.085 142.94L121.76 145.923C121.677 145.997 121.67 146.123 121.744 146.206L123.54 148.216C123.613 148.298 123.739 148.305 123.822 148.231L127.668 144.781C127.772 144.687 127.938 144.727 127.988 144.859L128.537 146.312C128.546 146.334 128.558 146.355 128.574 146.372V146.372C128.644 146.451 128.637 146.572 128.559 146.643L123.383 151.286C123.301 151.36 123.175 151.353 123.101 151.271L121.257 149.207C121.184 149.124 121.057 149.117 120.975 149.191L118.156 151.72C118.098 151.772 118.075 151.854 118.098 151.929L119.05 155.017C119.073 155.092 119.051 155.173 118.993 155.225L117.41 156.645ZM115.909 144.421C115.851 144.473 115.829 144.554 115.851 144.629L117.38 149.609C117.423 149.749 117.596 149.797 117.704 149.7L119.772 147.844C119.854 147.771 119.861 147.644 119.788 147.562L116.638 144.036C116.565 143.953 116.438 143.946 116.356 144.02L115.909 144.421Z" fill="#112D43"/>
<path d="M132.325 143.264C132.243 143.338 132.117 143.331 132.043 143.248L125.663 136.106C125.589 136.023 125.463 136.016 125.381 136.09L123.572 137.713C123.493 137.784 123.371 137.777 123.301 137.698V137.698C123.285 137.68 123.266 137.666 123.245 137.655L121.867 136.945C121.743 136.881 121.721 136.712 121.825 136.618L128.509 130.622C128.614 130.528 128.78 130.569 128.829 130.7L129.378 132.153C129.387 132.175 129.399 132.195 129.415 132.213V132.213C129.485 132.292 129.479 132.414 129.4 132.484L127.59 134.108C127.508 134.182 127.501 134.308 127.575 134.391L133.955 141.533C134.028 141.615 134.021 141.742 133.939 141.816L132.325 143.264Z" fill="#112D43"/>
<path d="M458.75 110C461.269 110 463.633 110.43 465.843 111.289C468.053 112.148 469.99 113.319 471.653 114.802C473.317 116.284 474.624 118.035 475.574 120.055C476.525 122.074 477 124.223 477 126.5C477 131.055 476.347 135.437 475.04 139.648C473.733 143.859 471.891 147.802 469.515 151.476C467.138 155.149 464.287 158.49 460.96 161.498C457.633 164.506 453.938 167.084 449.875 169.232C445.811 171.381 441.451 173.046 436.793 174.228C432.135 175.409 427.288 176 422.25 176C419.731 176 417.367 175.57 415.157 174.711C412.947 173.852 411.01 172.681 409.347 171.198C407.683 169.716 406.376 167.965 405.426 165.945C404.475 163.926 404 161.777 404 159.5C404 154.945 404.653 150.563 405.96 146.352C407.267 142.141 409.109 138.198 411.485 134.524C413.862 130.851 416.713 127.51 420.04 124.502C423.367 121.494 427.062 118.916 431.125 116.768C435.189 114.619 439.549 112.954 444.207 111.772C448.865 110.591 453.712 110 458.75 110ZM458.75 114.125C454.14 114.125 449.708 114.662 445.455 115.736C441.201 116.811 437.209 118.336 433.478 120.312C429.747 122.289 426.349 124.663 423.284 127.435C420.218 130.206 417.604 133.268 415.442 136.619C413.279 139.971 411.592 143.58 410.38 147.447C409.168 151.314 408.563 155.332 408.563 159.5C408.563 160.789 408.776 162.046 409.204 163.271C409.632 164.495 410.262 165.623 411.093 166.654L466.663 116.413C465.522 115.661 464.275 115.092 462.92 114.705C461.566 114.318 460.176 114.125 458.75 114.125ZM422.25 171.875C426.86 171.875 431.292 171.338 435.545 170.264C439.799 169.189 443.791 167.664 447.522 165.688C451.253 163.711 454.651 161.337 457.716 158.565C460.782 155.794 463.396 152.732 465.558 149.381C467.721 146.029 469.408 142.42 470.62 138.553C471.832 134.686 472.437 130.668 472.437 126.5C472.437 125.211 472.224 123.954 471.796 122.729C471.368 121.505 470.738 120.377 469.907 119.346L414.337 169.587C415.478 170.339 416.725 170.908 418.08 171.295C419.434 171.682 420.824 171.875 422.25 171.875Z" fill="#112D43"/>
<path d="M428.441 142.673C428.332 142.771 428.159 142.722 428.117 142.581L425.198 132.817C425.175 132.742 425.198 132.661 425.256 132.609L431.249 127.214C431.353 127.12 431.519 127.161 431.569 127.293L431.989 128.408C431.995 128.426 432.005 128.442 432.018 128.457V128.457C432.075 128.52 432.069 128.618 432.006 128.675L429.294 131.116C429.212 131.19 429.205 131.317 429.278 131.399L430.639 132.928C430.713 133.01 430.839 133.017 430.921 132.943L433.827 130.327C433.931 130.234 434.096 130.274 434.146 130.405L434.535 131.433C434.542 131.45 434.551 131.465 434.563 131.478V131.478C434.616 131.538 434.611 131.63 434.551 131.683L431.913 134.058C431.831 134.132 431.824 134.259 431.898 134.341L433.286 135.9C433.359 135.983 433.485 135.99 433.568 135.916L436.581 133.203C436.685 133.109 436.851 133.15 436.901 133.282L437.321 134.398C437.328 134.415 437.338 134.432 437.35 134.446V134.446C437.407 134.509 437.401 134.607 437.338 134.664L433.216 138.375C433.134 138.449 433.008 138.442 432.934 138.359L431.507 136.757C431.434 136.674 431.308 136.667 431.226 136.741L429.012 138.734C428.954 138.786 428.931 138.867 428.954 138.942L429.703 141.38C429.726 141.455 429.704 141.536 429.646 141.588L428.441 142.673ZM427.21 132.859C427.152 132.911 427.129 132.992 427.152 133.067L428.353 136.993C428.396 137.133 428.568 137.181 428.677 137.083L430.261 135.657C430.343 135.583 430.35 135.456 430.276 135.374L427.802 132.595C427.728 132.512 427.602 132.505 427.52 132.579L427.21 132.859Z" fill="#112D43"/>
<path d="M440.389 131.918C440.307 131.992 440.181 131.985 440.107 131.902L435.041 126.212C434.968 126.129 434.842 126.123 434.76 126.196L433.338 127.476C433.275 127.533 433.177 127.528 433.12 127.464V127.464C433.108 127.45 433.093 127.438 433.076 127.43L432.021 126.885C431.897 126.82 431.875 126.651 431.979 126.557L437.256 121.807C437.36 121.713 437.526 121.754 437.576 121.885L437.996 123.001C438.002 123.019 438.012 123.035 438.025 123.049V123.049C438.082 123.113 438.076 123.211 438.013 123.268L436.591 124.548C436.508 124.622 436.501 124.749 436.575 124.831L441.641 130.522C441.714 130.604 441.707 130.731 441.625 130.805L440.389 131.918Z" fill="#112D43"/>
<path d="M747.25 111C751.08 111 754.675 111.651 758.036 112.953C761.396 114.255 764.341 116.029 766.87 118.275C769.399 120.521 771.387 123.174 772.832 126.234C774.277 129.294 775 132.549 775 136C775 142.901 774.006 149.542 772.019 155.922C770.032 162.302 767.231 168.275 763.618 173.842C760.005 179.408 755.669 184.47 750.61 189.027C745.552 193.585 739.933 197.491 733.754 200.746C727.576 204.001 720.945 206.524 713.863 208.314C706.781 210.105 699.41 211 691.75 211C687.92 211 684.325 210.349 680.964 209.047C677.604 207.745 674.659 205.971 672.13 203.725C669.601 201.479 667.613 198.826 666.168 195.766C664.723 192.706 664 189.451 664 186C664 179.099 664.994 172.458 666.981 166.078C668.968 159.698 671.769 153.725 675.382 148.158C678.995 142.592 683.331 137.53 688.39 132.973C693.448 128.415 699.067 124.509 705.246 121.254C711.424 117.999 718.055 115.476 725.137 113.686C732.219 111.895 739.59 111 747.25 111ZM747.25 117.25C740.24 117.25 733.501 118.064 727.034 119.691C720.566 121.319 714.496 123.63 708.823 126.625C703.15 129.62 697.983 133.217 693.322 137.416C688.661 141.615 684.686 146.254 681.398 151.332C678.11 156.41 675.544 161.879 673.702 167.738C671.859 173.598 670.938 179.685 670.938 186C670.938 187.953 671.263 189.857 671.913 191.713C672.563 193.568 673.521 195.277 674.786 196.84L759.282 120.717C757.548 119.577 755.651 118.715 753.591 118.129C751.532 117.543 749.418 117.25 747.25 117.25ZM691.75 204.75C698.76 204.75 705.499 203.936 711.966 202.309C718.434 200.681 724.504 198.37 730.177 195.375C735.85 192.38 741.017 188.783 745.678 184.584C750.339 180.385 754.314 175.746 757.602 170.668C760.89 165.59 763.456 160.121 765.298 154.262C767.141 148.402 768.062 142.315 768.062 136C768.062 134.047 767.737 132.143 767.087 130.287C766.437 128.432 765.479 126.723 764.214 125.16L679.718 201.283C681.452 202.423 683.349 203.285 685.409 203.871C687.468 204.457 689.582 204.75 691.75 204.75Z" fill="#112D43"/>
<path d="M701.042 160.613C700.933 160.711 700.76 160.662 700.718 160.521L696.213 145.507C696.191 145.433 696.213 145.352 696.271 145.301L705.546 136.982C705.65 136.888 705.816 136.928 705.866 137.06L706.561 138.897C706.569 138.92 706.582 138.941 706.598 138.96L706.626 138.99C706.699 139.072 706.692 139.199 706.61 139.273L702.384 143.063C702.302 143.137 702.295 143.264 702.368 143.346L704.575 145.816C704.649 145.898 704.775 145.905 704.857 145.832L709.465 141.699C709.569 141.605 709.735 141.645 709.785 141.776L710.432 143.478C710.44 143.501 710.453 143.522 710.47 143.54L710.485 143.557C710.559 143.64 710.552 143.766 710.47 143.84L706.366 147.521C706.284 147.594 706.277 147.721 706.351 147.803L708.6 150.32C708.673 150.403 708.799 150.41 708.882 150.336L713.653 146.056C713.758 145.962 713.924 146.002 713.974 146.134L714.669 147.972C714.677 147.995 714.69 148.016 714.707 148.035L714.733 148.064C714.807 148.147 714.8 148.273 714.718 148.347L708.347 154.061C708.264 154.135 708.138 154.128 708.065 154.046L705.757 151.463C705.684 151.381 705.557 151.374 705.475 151.447L701.982 154.58C701.924 154.632 701.902 154.714 701.925 154.788L703.103 158.608C703.126 158.683 703.103 158.765 703.045 158.817L701.042 160.613ZM699.242 145.679C699.184 145.731 699.161 145.812 699.184 145.887L701.077 152.053C701.12 152.192 701.293 152.24 701.401 152.143L704.008 149.805C704.09 149.732 704.097 149.605 704.023 149.523L700.123 145.157C700.049 145.075 699.923 145.068 699.841 145.142L699.242 145.679Z" fill="#112D43"/>
<path d="M719.254 144.278C719.172 144.352 719.045 144.345 718.972 144.262L711.131 135.486C711.057 135.404 710.931 135.397 710.849 135.471L708.584 137.502C708.502 137.576 708.376 137.569 708.302 137.486L708.275 137.456C708.258 137.438 708.239 137.423 708.217 137.411L706.474 136.514C706.349 136.45 706.328 136.28 706.432 136.187L714.68 128.789C714.784 128.695 714.95 128.736 715 128.867L715.694 130.704C715.703 130.727 715.716 130.749 715.732 130.767L715.759 130.797C715.833 130.88 715.826 131.006 715.744 131.08L713.478 133.112C713.396 133.186 713.389 133.312 713.463 133.395L721.304 142.171C721.378 142.253 721.371 142.38 721.288 142.453L719.254 144.278Z" fill="#112D43"/>
<path d="M581.5 172C584.053 172 586.45 172.43 588.69 173.289C590.931 174.148 592.894 175.319 594.58 176.802C596.266 178.284 597.591 180.035 598.555 182.055C599.518 184.074 600 186.223 600 188.5C600 193.055 599.338 197.437 598.013 201.648C596.688 205.859 594.821 209.802 592.412 213.476C590.003 217.149 587.113 220.49 583.74 223.498C580.368 226.506 576.622 229.084 572.503 231.232C568.384 233.381 563.964 235.046 559.242 236.228C554.521 237.409 549.607 238 544.5 238C541.947 238 539.55 237.57 537.31 236.711C535.069 235.852 533.106 234.681 531.42 233.198C529.734 231.716 528.409 229.965 527.445 227.945C526.482 225.926 526 223.777 526 221.5C526 216.945 526.662 212.563 527.987 208.352C529.312 204.141 531.179 200.198 533.588 196.524C535.997 192.851 538.887 189.51 542.26 186.502C545.632 183.494 549.378 180.916 553.497 178.768C557.616 176.619 562.036 174.954 566.758 173.772C571.479 172.591 576.393 172 581.5 172ZM581.5 176.125C576.827 176.125 572.334 176.662 568.022 177.736C563.711 178.811 559.664 180.336 555.882 182.312C552.1 184.289 548.655 186.663 545.548 189.435C542.44 192.206 539.791 195.268 537.599 198.619C535.407 201.971 533.696 205.58 532.468 209.447C531.239 213.314 530.625 217.332 530.625 221.5C530.625 222.789 530.842 224.046 531.275 225.271C531.709 226.495 532.347 227.623 533.19 228.654L589.521 178.413C588.365 177.661 587.101 177.092 585.728 176.705C584.354 176.318 582.945 176.125 581.5 176.125ZM544.5 233.875C549.173 233.875 553.666 233.338 557.978 232.264C562.289 231.189 566.336 229.664 570.118 227.688C573.9 225.711 577.345 223.337 580.452 220.565C583.56 217.794 586.209 214.732 588.401 211.381C590.593 208.029 592.304 204.42 593.532 200.553C594.761 196.686 595.375 192.668 595.375 188.5C595.375 187.211 595.158 185.954 594.725 184.729C594.291 183.505 593.653 182.377 592.81 181.346L536.479 231.587C537.635 232.339 538.899 232.908 540.272 233.295C541.646 233.682 543.055 233.875 544.5 233.875Z" fill="#112D43"/>
<path d="M550.774 204.674C550.665 204.771 550.49 204.723 550.448 204.583L547.488 194.816C547.465 194.742 547.488 194.662 547.546 194.61L553.624 189.213C553.729 189.12 553.896 189.16 553.946 189.291L554.372 190.408C554.379 190.426 554.389 190.442 554.402 190.457V190.457C554.459 190.52 554.454 190.618 554.39 190.675L551.639 193.117C551.557 193.19 551.55 193.316 551.624 193.398L553.005 194.928C553.079 195.01 553.206 195.018 553.288 194.944L556.237 192.326C556.342 192.233 556.508 192.273 556.558 192.404L556.954 193.433C556.96 193.45 556.969 193.465 556.981 193.478V193.478C557.035 193.538 557.03 193.63 556.97 193.683L554.295 196.059C554.212 196.132 554.205 196.258 554.279 196.34L555.688 197.901C555.762 197.983 555.889 197.99 555.971 197.917L559.029 195.202C559.134 195.109 559.301 195.149 559.351 195.28L559.778 196.398C559.784 196.415 559.794 196.432 559.807 196.446V196.446C559.864 196.509 559.859 196.607 559.795 196.664L555.615 200.376C555.532 200.449 555.405 200.442 555.331 200.36L553.883 198.756C553.809 198.674 553.682 198.667 553.6 198.74L551.354 200.734C551.295 200.786 551.273 200.867 551.296 200.941L552.056 203.381C552.079 203.455 552.056 203.536 551.998 203.588L550.774 204.674ZM549.527 194.859C549.468 194.911 549.446 194.992 549.469 195.066L550.687 198.994C550.73 199.133 550.904 199.181 551.013 199.085L552.621 197.656C552.704 197.583 552.711 197.457 552.637 197.375L550.127 194.594C550.053 194.512 549.926 194.505 549.843 194.578L549.527 194.859Z" fill="#112D43"/>
<path d="M562.886 193.919C562.804 193.992 562.677 193.985 562.603 193.903L557.466 188.211C557.392 188.129 557.265 188.122 557.182 188.195L555.74 189.476C555.675 189.533 555.577 189.528 555.519 189.464V189.464C555.507 189.45 555.491 189.438 555.474 189.43L554.404 188.884C554.278 188.82 554.256 188.651 554.361 188.558L559.713 183.806C559.818 183.713 559.985 183.753 560.035 183.884L560.461 185.001C560.468 185.019 560.478 185.035 560.491 185.049V185.049C560.549 185.113 560.543 185.211 560.479 185.268L559.036 186.549C558.953 186.623 558.946 186.749 559.02 186.831L564.157 192.523C564.231 192.605 564.224 192.73 564.142 192.804L562.886 193.919Z" fill="#112D43"/>
<path d="M1225 284C1228.31 284 1231.42 284.566 1234.33 285.699C1237.23 286.832 1239.78 288.375 1241.97 290.33C1244.16 292.284 1245.87 294.592 1247.12 297.254C1248.37 299.916 1249 302.748 1249 305.75C1249 311.754 1248.14 317.531 1246.42 323.082C1244.7 328.633 1242.28 333.83 1239.16 338.672C1236.03 343.515 1232.28 347.919 1227.91 351.884C1223.53 355.849 1218.67 359.247 1213.33 362.079C1207.98 364.911 1202.25 367.106 1196.12 368.664C1190 370.221 1183.62 371 1177 371C1173.69 371 1170.58 370.434 1167.67 369.301C1164.77 368.168 1162.22 366.625 1160.03 364.67C1157.84 362.716 1156.12 360.408 1154.87 357.746C1153.62 355.084 1153 352.252 1153 349.25C1153 343.246 1153.86 337.469 1155.58 331.918C1157.3 326.367 1159.72 321.17 1162.84 316.328C1165.97 311.485 1169.72 307.081 1174.09 303.116C1178.47 299.151 1183.33 295.753 1188.67 292.921C1194.02 290.089 1199.75 287.894 1205.87 286.336C1212 284.779 1218.38 284 1225 284ZM1225 289.438C1218.94 289.438 1213.11 290.146 1207.52 291.562C1201.92 292.978 1196.67 294.988 1191.77 297.594C1186.86 300.199 1182.39 303.329 1178.36 306.982C1174.33 310.635 1170.89 314.671 1168.05 319.089C1165.2 323.507 1162.98 328.265 1161.39 333.362C1159.8 338.46 1159 343.756 1159 349.25C1159 350.949 1159.28 352.606 1159.84 354.22C1160.41 355.834 1161.23 357.321 1162.33 358.681L1235.41 292.454C1233.91 291.462 1232.27 290.712 1230.48 290.202C1228.7 289.692 1226.88 289.438 1225 289.438ZM1177 365.562C1183.06 365.562 1188.89 364.854 1194.48 363.438C1200.08 362.022 1205.33 360.012 1210.23 357.406C1215.14 354.801 1219.61 351.671 1223.64 348.018C1227.67 344.365 1231.11 340.329 1233.95 335.911C1236.8 331.493 1239.02 326.735 1240.61 321.638C1242.2 316.54 1243 311.244 1243 305.75C1243 304.051 1242.72 302.394 1242.16 300.78C1241.59 299.166 1240.77 297.679 1239.67 296.319L1166.59 362.546C1168.09 363.538 1169.73 364.288 1171.52 364.798C1173.3 365.308 1175.12 365.562 1177 365.562Z" fill="#112D43"/>
<path d="M1185.07 327.135C1184.96 327.233 1184.79 327.184 1184.74 327.044L1180.86 314.038C1180.84 313.963 1180.87 313.882 1180.92 313.83L1188.9 306.63C1189.01 306.536 1189.17 306.576 1189.22 306.708L1189.81 308.266C1189.82 308.289 1189.83 308.31 1189.85 308.329L1189.85 308.332C1189.92 308.414 1189.91 308.541 1189.83 308.615L1186.22 311.877C1186.13 311.951 1186.13 312.078 1186.2 312.161L1188.07 314.27C1188.15 314.353 1188.27 314.36 1188.36 314.286L1192.29 310.734C1192.4 310.64 1192.56 310.68 1192.61 310.812L1193.16 312.253C1193.16 312.274 1193.18 312.295 1193.19 312.312V312.312C1193.26 312.391 1193.26 312.512 1193.18 312.583L1189.66 315.755C1189.58 315.829 1189.57 315.956 1189.65 316.039L1191.56 318.189C1191.63 318.271 1191.75 318.278 1191.84 318.204L1195.91 314.524C1196.02 314.43 1196.18 314.471 1196.23 314.603L1196.82 316.161C1196.83 316.184 1196.84 316.205 1196.86 316.224L1196.86 316.226C1196.93 316.309 1196.93 316.436 1196.84 316.51L1191.37 321.445C1191.29 321.519 1191.17 321.513 1191.09 321.43L1189.13 319.223C1189.06 319.14 1188.93 319.133 1188.85 319.207L1185.86 321.903C1185.8 321.956 1185.78 322.037 1185.8 322.112L1186.81 325.403C1186.84 325.478 1186.81 325.56 1186.76 325.612L1185.07 327.135ZM1183.49 314.159C1183.43 314.211 1183.41 314.293 1183.43 314.368L1185.05 319.676C1185.1 319.816 1185.27 319.864 1185.38 319.767L1187.58 317.778C1187.66 317.704 1187.67 317.578 1187.6 317.495L1184.26 313.736C1184.19 313.654 1184.06 313.647 1183.98 313.721L1183.49 314.159Z" fill="#112D43"/>
<path d="M1200.81 312.934C1200.72 313.008 1200.6 313.001 1200.53 312.918L1193.78 305.323C1193.71 305.24 1193.58 305.233 1193.5 305.307L1191.58 307.039C1191.5 307.113 1191.37 307.106 1191.3 307.023L1191.29 307.02C1191.28 307.002 1191.26 306.987 1191.24 306.976L1189.77 306.215C1189.64 306.15 1189.62 305.981 1189.73 305.887L1196.8 299.502C1196.91 299.408 1197.07 299.449 1197.12 299.58L1197.71 301.138C1197.72 301.161 1197.73 301.183 1197.74 301.201L1197.75 301.204C1197.82 301.286 1197.81 301.413 1197.73 301.487L1195.81 303.22C1195.73 303.294 1195.72 303.421 1195.8 303.503L1202.54 311.099C1202.62 311.181 1202.61 311.308 1202.53 311.382L1200.81 312.934Z" fill="#112D43"/>
<path d="M1251 119C1252.93 119 1254.75 119.332 1256.44 119.996C1258.14 120.66 1259.62 121.565 1260.9 122.71C1262.17 123.856 1263.18 125.209 1263.91 126.77C1264.64 128.33 1265 129.99 1265 131.75C1265 135.27 1264.5 138.656 1263.5 141.91C1262.49 145.164 1261.08 148.21 1259.26 151.049C1257.43 153.888 1255.25 156.47 1252.7 158.794C1250.14 161.118 1247.31 163.11 1244.19 164.771C1241.07 166.431 1237.73 167.717 1234.16 168.63C1230.58 169.543 1226.86 170 1223 170C1221.07 170 1219.25 169.668 1217.56 169.004C1215.86 168.34 1214.38 167.435 1213.1 166.29C1211.83 165.144 1210.82 163.791 1210.09 162.23C1209.36 160.67 1209 159.01 1209 157.25C1209 153.73 1209.5 150.344 1210.5 147.09C1211.51 143.836 1212.92 140.79 1214.74 137.951C1216.57 135.112 1218.75 132.53 1221.3 130.206C1223.86 127.882 1226.69 125.89 1229.81 124.229C1232.93 122.569 1236.27 121.283 1239.84 120.37C1243.42 119.457 1247.14 119 1251 119ZM1251 122.188C1247.46 122.188 1244.06 122.603 1240.8 123.433C1237.54 124.263 1234.48 125.441 1231.61 126.969C1228.75 128.496 1226.14 130.331 1223.79 132.472C1221.44 134.614 1219.44 136.979 1217.78 139.569C1216.12 142.159 1214.82 144.948 1213.89 147.937C1212.96 150.925 1212.5 154.029 1212.5 157.25C1212.5 158.246 1212.66 159.217 1212.99 160.164C1213.32 161.11 1213.8 161.981 1214.44 162.778L1257.07 123.956C1256.2 123.375 1255.24 122.935 1254.2 122.636C1253.16 122.337 1252.09 122.188 1251 122.188ZM1223 166.812C1226.54 166.812 1229.94 166.397 1233.2 165.567C1236.46 164.737 1239.52 163.559 1242.39 162.031C1245.25 160.504 1247.86 158.669 1250.21 156.528C1252.56 154.386 1254.56 152.021 1256.22 149.431C1257.88 146.841 1259.18 144.052 1260.11 141.063C1261.04 138.075 1261.5 134.971 1261.5 131.75C1261.5 130.754 1261.34 129.783 1261.01 128.836C1260.68 127.89 1260.2 127.019 1259.56 126.222L1216.93 165.044C1217.8 165.625 1218.76 166.065 1219.8 166.364C1220.84 166.663 1221.91 166.812 1223 166.812Z" fill="#112D43"/>
<path d="M1227.8 144.198C1227.69 144.297 1227.52 144.248 1227.48 144.107L1225.27 136.659C1225.25 136.584 1225.27 136.503 1225.33 136.451L1229.85 132.347C1229.96 132.253 1230.12 132.293 1230.17 132.425L1230.47 133.225C1230.48 133.238 1230.48 133.251 1230.49 133.262V133.262C1230.54 133.311 1230.53 133.387 1230.48 133.431L1228.44 135.286C1228.36 135.36 1228.35 135.488 1228.42 135.57L1229.41 136.682C1229.48 136.765 1229.6 136.772 1229.69 136.698L1231.83 134.753C1231.94 134.658 1232.1 134.699 1232.15 134.831L1232.42 135.562C1232.43 135.575 1232.44 135.587 1232.45 135.597V135.597C1232.49 135.643 1232.48 135.714 1232.44 135.755L1230.45 137.559C1230.37 137.634 1230.36 137.761 1230.43 137.844L1231.44 138.98C1231.51 139.062 1231.63 139.069 1231.72 138.995L1233.94 136.975C1234.05 136.881 1234.21 136.921 1234.26 137.053L1234.56 137.853C1234.57 137.866 1234.57 137.879 1234.58 137.89V137.89C1234.63 137.939 1234.62 138.014 1234.57 138.058L1231.45 140.895C1231.36 140.969 1231.24 140.962 1231.17 140.879L1230.13 139.71C1230.06 139.627 1229.93 139.62 1229.85 139.694L1228.21 141.183C1228.15 141.236 1228.13 141.318 1228.15 141.393L1228.71 143.22C1228.73 143.295 1228.71 143.377 1228.65 143.429L1227.8 144.198ZM1226.83 136.644C1226.77 136.696 1226.75 136.778 1226.77 136.853L1227.66 139.789C1227.7 139.929 1227.88 139.978 1227.98 139.88L1229.11 138.857C1229.19 138.783 1229.2 138.656 1229.13 138.573L1227.29 136.494C1227.22 136.411 1227.09 136.404 1227.01 136.478L1226.83 136.644Z" fill="#112D43"/>
<path d="M1236.95 135.906C1236.87 135.98 1236.74 135.973 1236.67 135.89L1232.84 131.562C1232.77 131.479 1232.64 131.472 1232.56 131.546L1231.51 132.504C1231.46 132.548 1231.38 132.544 1231.34 132.495V132.495C1231.33 132.484 1231.32 132.475 1231.3 132.468L1230.55 132.078C1230.43 132.013 1230.41 131.843 1230.51 131.749L1234.46 128.169C1234.57 128.074 1234.73 128.115 1234.78 128.247L1235.08 129.046C1235.08 129.06 1235.09 129.073 1235.1 129.084V129.084C1235.14 129.133 1235.14 129.208 1235.09 129.253L1234.04 130.211C1233.95 130.285 1233.95 130.412 1234.02 130.495L1237.84 134.823C1237.92 134.906 1237.91 135.033 1237.83 135.107L1236.95 135.906Z" fill="#112D43"/>
</svg>
