<svg width="960" height="540" viewBox="0 0 960 540" fill="none" xmlns="http://www.w3.org/2000/svg">
<rect x="1" y="1" width="958" height="538" fill="white"/>
<g clip-path="url(#clip0_19_139)">
<g clip-path="url(#clip1_19_139)">
<rect width="1" height="540" fill="#E36868" fill-opacity="0.5"/>
<rect x="320" width="1" height="540" fill="#E36868" fill-opacity="0.5"/>
<rect x="640" width="1" height="540" fill="#E36868" fill-opacity="0.5"/>
</g>
<g clip-path="url(#clip2_19_139)">
<rect width="960" height="1" fill="#E36868" fill-opacity="0.5"/>
<rect y="28" width="960" height="1" fill="#E36868" fill-opacity="0.5"/>
<rect y="56" width="960" height="1" fill="#E36868" fill-opacity="0.5"/>
<rect y="84" width="960" height="1" fill="#E36868" fill-opacity="0.5"/>
<rect y="112" width="960" height="1" fill="#E36868" fill-opacity="0.5"/>
<rect y="140" width="960" height="1" fill="#E36868" fill-opacity="0.5"/>
<rect y="168" width="960" height="1" fill="#E36868" fill-opacity="0.5"/>
<rect y="196" width="960" height="1" fill="#E36868" fill-opacity="0.5"/>
<rect y="224" width="960" height="1" fill="#E36868" fill-opacity="0.5"/>
<rect y="252" width="960" height="1" fill="#E36868" fill-opacity="0.5"/>
<rect y="280" width="960" height="1" fill="#E36868" fill-opacity="0.5"/>
<rect y="308" width="960" height="1" fill="#E36868" fill-opacity="0.5"/>
<rect y="336" width="960" height="1" fill="#E36868" fill-opacity="0.5"/>
<rect y="364" width="960" height="1" fill="#E36868" fill-opacity="0.5"/>
<rect y="392" width="960" height="1" fill="#E36868" fill-opacity="0.5"/>
<rect y="420" width="960" height="1" fill="#E36868" fill-opacity="0.5"/>
<rect y="448" width="960" height="1" fill="#E36868" fill-opacity="0.5"/>
<rect y="476" width="960" height="1" fill="#E36868" fill-opacity="0.5"/>
<rect y="504" width="960" height="1" fill="#E36868" fill-opacity="0.5"/>
<rect y="532" width="960" height="1" fill="#E36868" fill-opacity="0.5"/>
</g>
</g>
<rect x="1" y="1" width="958" height="538" stroke="#D78484" stroke-width="2"/>
<defs>
<clipPath id="clip0_19_139">
<rect width="960" height="540" fill="white"/>
</clipPath>
<clipPath id="clip1_19_139">
<rect width="960" height="540" fill="white"/>
</clipPath>
<clipPath id="clip2_19_139">
<rect width="960" height="540" fill="white"/>
</clipPath>
</defs>
</svg>
