<svg width="435" height="409" viewBox="0 0 435 409" fill="none" xmlns="http://www.w3.org/2000/svg">
<rect width="434.882" height="408.863" fill="#182534"/>
<path d="M143.845 0.0795039C167.068 -0.251178 186.767 6.3886 201.467 24.6341C203.177 26.7591 204.313 27.0318 206.19 24.7568C221.148 6.62041 240.835 -0.20118 263.795 0.00450174C296.825 0.299956 329.859 0.0704117 362.892 0.0817754C390.68 0.0920026 407.756 17.1443 407.763 44.9193C407.778 98.7022 407.768 152.485 407.768 207.117C398.956 202.901 390.591 198.862 382.19 194.898C379.511 193.632 380.636 191.292 380.634 189.434C380.569 147.391 380.583 105.347 380.583 63.3022C380.583 56.484 380.693 49.6647 380.556 42.85C380.356 32.9352 374.909 27.4113 365.008 27.3886C329.711 27.3045 294.411 27.1466 259.115 27.4295C234.756 27.6238 217.589 45.5477 217.521 70.3829C217.415 109.965 217.433 149.547 217.591 189.127C217.606 192.873 216.63 194.845 213.156 196.347C205.606 199.608 198.256 203.335 190.308 207.116V200.336C190.308 157.724 190.316 115.111 190.306 72.5C190.299 44.3318 173.329 27.3636 145.171 27.3568C111.76 27.3488 78.3509 27.3465 44.9407 27.359C32.0926 27.3625 27.2213 32.2795 27.2213 45.2397C27.2157 142.395 27.2157 239.551 27.2213 336.706C27.2213 349.678 32.0926 354.616 44.9067 354.62C78.6941 354.632 112.483 354.625 146.27 354.625C146.459 354.625 146.657 354.665 146.835 354.619C161.026 351.011 175.626 356.799 189.924 352.71C190.273 357.225 190.547 361.714 190.992 366.185C191.228 368.545 189.268 368.873 187.993 369.781C176.209 378.175 162.9 381.816 148.623 381.861C113.137 381.975 77.6498 382.043 42.1636 381.85C17.6702 381.714 0.104909 364.044 0.0777269 339.418C-0.0287364 240.559 -0.0208132 141.699 0.0709265 42.8386C0.0947108 17.6636 17.8039 0.177227 43.0549 0.103363C76.4651 0.00563581 109.874 0.0795039 143.845 0.0795039Z" fill="#2B3D51"/>
<path d="M409.312 238.332C414.964 241.051 420.204 243.647 425.522 246.074C431.123 248.631 434.828 252.511 434.882 259.008C434.937 265.728 431.11 269.845 425.434 272.57C393.465 287.915 361.484 303.234 329.516 318.58C324.417 321.027 319.398 323.685 313.931 325.223C300.046 329.128 286.745 327.441 273.804 321.168C247.856 308.591 221.824 296.186 195.824 283.717C194.321 282.997 192.791 282.336 190.312 281.211C190.312 291.37 190.278 300.877 190.329 310.384C190.348 314.035 189.895 317.491 187.982 320.727C185.168 325.486 180.756 327.511 175.662 327.053C170.348 326.576 165.993 323.798 164.276 318.306C163.554 316 163.188 313.49 163.174 311.068C163.082 294.406 163.201 277.741 163.088 261.078C163.044 254.608 165.214 249.614 171.213 246.738C206.589 229.778 241.933 212.749 277.375 195.93C293.374 188.337 309.137 190.062 324.782 197.684C352.761 211.315 380.876 224.666 409.312 238.332Z" fill="#2B3D51"/>
<path d="M277.35 351.558C297.945 356.944 317.353 354.91 336.092 345.836C350.62 338.802 365.204 331.882 380.682 324.47C380.067 338.786 382.035 352.348 379.198 365.712C377.171 375.261 371.082 382.644 363.034 387.418C344.466 398.429 324.963 407.404 302.922 408.706C293.074 409.287 283.328 408.307 273.967 404.96C261.732 400.585 249.431 396.287 238.209 389.585C224.321 381.289 216.868 369.29 217.433 352.642C217.741 343.586 217.488 334.512 217.488 324.582C223.356 327.384 228.664 330.053 234.078 332.477C248.326 338.856 261.737 347.14 277.35 351.558Z" fill="#2B3D51"/>
</svg>
