<svg width="228" height="124" viewBox="0 0 228 124" fill="none" xmlns="http://www.w3.org/2000/svg">
<rect width="228" height="124" fill="#182534"/>
<g filter="url(#filter0_d_1_6)">
<path d="M78.7247 48.1562C78.6143 48.1562 78.5247 48.0667 78.5247 47.9562V46.6797C78.5247 46.6564 78.5288 46.6334 78.5367 46.6115L83.7269 32.292C83.7556 32.2129 83.8308 32.1602 83.915 32.1602H86.599C86.6834 32.1602 86.7586 32.2131 86.7872 32.2924L91.9426 46.6117C91.9504 46.6334 91.9544 46.6563 91.9544 46.6794V47.9562C91.9544 48.0667 91.8649 48.1562 91.7544 48.1562H78.7247ZM85.216 35.043C85.188 35.043 85.1631 35.0607 85.1539 35.0871L81.4063 45.8514C81.3611 45.9814 81.4576 46.1172 81.5952 46.1172H88.7913C88.9286 46.1172 89.0251 45.982 88.9805 45.8521L85.2783 35.0874C85.2692 35.0608 85.2441 35.043 85.216 35.043V35.043Z" fill="white"/>
<path d="M108.464 36.9531C108.474 37.0674 108.382 37.1641 108.268 37.1641H106.055C105.953 37.1641 105.869 37.0883 105.853 36.9884C105.571 35.2372 104.288 34.1172 102.303 34.1172C99.8186 34.1172 98.3772 35.8984 98.3772 38.9453V41.1602C98.3772 44.2773 99.678 46.1992 102.385 46.1992C104.553 46.1992 105.971 44.8516 105.971 43.0234V41.9695C105.971 41.8591 105.881 41.7695 105.771 41.7695H102.491C102.381 41.7695 102.291 41.68 102.291 41.5695V39.8719C102.291 39.7614 102.381 39.6719 102.491 39.6719H108.314C108.424 39.6719 108.514 39.7614 108.514 39.8719V42.9062C108.514 45.9766 106.158 48.4727 102.35 48.4727C97.9202 48.4727 95.7171 45.6484 95.7171 41.1719V38.9336C95.7171 34.5977 98.1429 31.8438 102.315 31.8438C105.932 31.8438 108.207 34.0237 108.464 36.9531Z" fill="white"/>
<path d="M116.767 47.9563C116.767 48.0667 116.678 48.1562 116.567 48.1562H114.307C114.197 48.1562 114.107 48.0667 114.107 47.9562V32.3602C114.107 32.2497 114.197 32.1602 114.307 32.1602H116.567C116.678 32.1602 116.767 32.2497 116.767 32.3602V47.9563Z" fill="white"/>
<path d="M132.52 45.8477C132.63 45.8477 132.72 45.9372 132.72 46.0477V47.9562C132.72 48.0667 132.63 48.1562 132.52 48.1562H123.205C123.094 48.1562 123.005 48.0667 123.005 47.9562V32.3602C123.005 32.2497 123.094 32.1602 123.205 32.1602H125.465C125.576 32.1602 125.665 32.2497 125.665 32.3602V45.6477C125.665 45.7581 125.755 45.8477 125.865 45.8477H132.52Z" fill="white"/>
<path d="M146.978 45.918C147.089 45.918 147.178 46.0075 147.178 46.118V47.9562C147.178 48.0667 147.089 48.1562 146.978 48.1562H137.394C137.283 48.1562 137.194 48.0667 137.194 47.9562V32.3602C137.194 32.2497 137.283 32.1602 137.394 32.1602H146.978C147.089 32.1602 147.178 32.2497 147.178 32.3602V34.1984C147.178 34.3089 147.089 34.3984 146.978 34.3984H140.042C139.932 34.3984 139.842 34.488 139.842 34.5984V38.757C139.842 38.8675 139.932 38.957 140.042 38.957H146.556C146.667 38.957 146.756 39.0466 146.756 39.157V40.9016C146.756 41.012 146.667 41.1016 146.556 41.1016H140.042C139.932 41.1016 139.842 41.1911 139.842 41.3016V45.718C139.842 45.8284 139.932 45.918 140.042 45.918H146.978Z" fill="white"/>
<path d="M41.8607 67.918C41.9711 67.918 42.0607 68.0075 42.0607 68.118V69.9562C42.0607 70.0667 41.9711 70.1562 41.8607 70.1562H32.2763C32.1658 70.1562 32.0763 70.0667 32.0763 69.9562V54.3602C32.0763 54.2497 32.1658 54.1602 32.2763 54.1602H41.8607C41.9711 54.1602 42.0607 54.2497 42.0607 54.3602V56.1984C42.0607 56.3089 41.9711 56.3984 41.8607 56.3984H34.9247C34.8143 56.3984 34.7247 56.488 34.7247 56.5984V60.757C34.7247 60.8675 34.8143 60.957 34.9247 60.957H41.4388C41.5493 60.957 41.6388 61.0466 41.6388 61.157V62.9016C41.6388 63.012 41.5493 63.1016 41.4388 63.1016H34.9247C34.8143 63.1016 34.7247 63.1911 34.7247 63.3016V67.718C34.7247 67.8284 34.8143 67.918 34.9247 67.918H41.8607Z" fill="white"/>
<path d="M50.2788 69.9562C50.2788 70.0667 50.1893 70.1562 50.0788 70.1562H47.971C47.8605 70.1562 47.771 70.0667 47.771 69.9562V54.3602C47.771 54.2497 47.8605 54.1602 47.971 54.1602H50.0069C50.0742 54.1602 50.137 54.194 50.174 54.2502L57.6575 65.6205C57.6674 65.6355 57.6841 65.6445 57.7021 65.6445V65.6445C57.7315 65.6445 57.7554 65.6207 57.7554 65.5912V54.3602C57.7554 54.2497 57.8449 54.1602 57.9554 54.1602H60.0514C60.1619 54.1602 60.2514 54.2497 60.2514 54.3602V69.9563C60.2514 70.0667 60.1619 70.1562 60.0514 70.1562H58.0389C57.9716 70.1562 57.9089 70.1224 57.8719 70.0662L50.3626 58.6573C50.3542 58.6444 50.3399 58.6367 50.3245 58.6367V58.6367C50.2992 58.6367 50.2788 58.6572 50.2788 58.6824V69.9562Z" fill="white"/>
<path d="M64.9786 70.1562C64.8682 70.1562 64.7786 70.0667 64.7786 69.9562V68.6797C64.7786 68.6564 64.7827 68.6334 64.7906 68.6115L69.9808 54.292C70.0095 54.2129 70.0847 54.1602 70.1689 54.1602H72.8529C72.9373 54.1602 73.0125 54.2131 73.0411 54.2924L78.1965 68.6117C78.2043 68.6334 78.2083 68.6563 78.2083 68.6794V69.9562C78.2083 70.0667 78.1188 70.1562 78.0083 70.1562H64.9786ZM71.4699 57.043C71.4419 57.043 71.417 57.0607 71.4078 57.0871L67.6602 67.8514C67.615 67.9814 67.7115 68.1172 67.8491 68.1172H75.0452C75.1825 68.1172 75.279 67.982 75.2344 67.8521L71.5322 57.0874C71.5231 57.0608 71.4981 57.043 71.4699 57.043V57.043Z" fill="white"/>
<path d="M82.9238 70.1562C82.8133 70.1562 82.7238 70.0667 82.7238 69.9562V54.3602C82.7238 54.2497 82.8133 54.1602 82.9238 54.1602H89.0988C91.8879 54.1602 93.6925 55.6602 93.6925 58.0977C93.6925 59.9522 92.6608 61.1418 91.0962 61.5984C91.0656 61.6073 91.0441 61.6353 91.0441 61.6672V61.6672C91.0441 61.7033 91.0714 61.7336 91.1071 61.7382C93.0909 61.9936 94.5597 63.3602 94.5597 65.6562C94.5597 68.4922 92.3214 70.1562 88.9816 70.1562H82.9238ZM85.5722 56.2695C85.4618 56.2695 85.3722 56.3591 85.3722 56.4695V60.7219C85.3722 60.8323 85.4618 60.9219 85.5722 60.9219H87.6222C90.0011 60.9219 91.0558 60.125 91.0558 58.543C91.0558 57.125 90.13 56.2695 88.548 56.2695H85.5722ZM85.5722 62.9258C85.4618 62.9258 85.3722 63.0153 85.3722 63.1258V67.8469C85.3722 67.9573 85.4618 68.0469 85.5722 68.0469H87.9152C90.716 68.0469 91.8527 67.25 91.8527 65.5625C91.8527 63.9102 90.7394 62.9258 88.7589 62.9258H85.5722Z" fill="white"/>
<path d="M109.433 67.8477C109.544 67.8477 109.633 67.9372 109.633 68.0477V69.9562C109.633 70.0667 109.544 70.1562 109.433 70.1562H100.118C100.008 70.1562 99.9185 70.0667 99.9185 69.9562V54.3602C99.9185 54.2497 100.008 54.1602 100.118 54.1602H102.379C102.489 54.1602 102.579 54.2497 102.579 54.3602V67.6477C102.579 67.7581 102.668 67.8477 102.779 67.8477H109.433Z" fill="white"/>
<path d="M123.892 67.918C124.002 67.918 124.092 68.0075 124.092 68.118V69.9562C124.092 70.0667 124.002 70.1562 123.892 70.1562H114.308C114.197 70.1562 114.108 70.0667 114.108 69.9562V54.3602C114.108 54.2497 114.197 54.1602 114.308 54.1602H123.892C124.002 54.1602 124.092 54.2497 124.092 54.3602V56.1984C124.092 56.3089 124.002 56.3984 123.892 56.3984H116.956C116.846 56.3984 116.756 56.488 116.756 56.5984V60.757C116.756 60.8675 116.846 60.957 116.956 60.957H123.47C123.581 60.957 123.67 61.0466 123.67 61.157V62.9016C123.67 63.012 123.581 63.1016 123.47 63.1016H116.956C116.846 63.1016 116.756 63.1911 116.756 63.3016V67.718C116.756 67.8284 116.846 67.918 116.956 67.918H123.892Z" fill="white"/>
<path d="M132.24 69.9563C132.24 70.0667 132.15 70.1562 132.04 70.1562H130.049C129.939 70.1562 129.849 70.0667 129.849 69.9562V54.3602C129.849 54.2497 129.939 54.1602 130.049 54.1602H132.39C132.469 54.1602 132.542 54.2074 132.573 54.2805L137.391 65.3725C137.401 65.3954 137.424 65.4102 137.449 65.4102V65.4102C137.474 65.4102 137.496 65.3954 137.506 65.3725L142.324 54.2805C142.356 54.2074 142.428 54.1602 142.508 54.1602H144.837C144.947 54.1602 145.037 54.2497 145.037 54.3602V69.9563C145.037 70.0667 144.947 70.1562 144.837 70.1562H142.834C142.724 70.1562 142.634 70.0667 142.634 69.9562V59.1693C142.634 59.1341 142.606 59.1055 142.57 59.1055V59.1055C142.545 59.1055 142.522 59.1204 142.512 59.1435L138.445 68.3379C138.413 68.4103 138.341 68.457 138.262 68.457H136.612C136.533 68.457 136.461 68.4104 136.429 68.3381L132.348 59.1392C132.339 59.1187 132.319 59.1055 132.297 59.1055V59.1055C132.265 59.1055 132.24 59.1309 132.24 59.1623V69.9563Z" fill="white"/>
<path d="M161.094 67.918C161.204 67.918 161.294 68.0075 161.294 68.118V69.9562C161.294 70.0667 161.204 70.1562 161.094 70.1562H151.509C151.399 70.1562 151.309 70.0667 151.309 69.9562V54.3602C151.309 54.2497 151.399 54.1602 151.509 54.1602H161.094C161.204 54.1602 161.294 54.2497 161.294 54.3602V56.1984C161.294 56.3089 161.204 56.3984 161.094 56.3984H154.158C154.047 56.3984 153.958 56.488 153.958 56.5984V60.757C153.958 60.8675 154.047 60.957 154.158 60.957H160.672C160.782 60.957 160.872 61.0466 160.872 61.157V62.9016C160.872 63.012 160.782 63.1016 160.672 63.1016H154.158C154.047 63.1016 153.958 63.1911 153.958 63.3016V67.718C153.958 67.8284 154.047 67.918 154.158 67.918H161.094Z" fill="white"/>
<path d="M169.512 69.9562C169.512 70.0667 169.422 70.1562 169.312 70.1562H167.204C167.094 70.1562 167.004 70.0667 167.004 69.9562V54.3602C167.004 54.2497 167.094 54.1602 167.204 54.1602H169.24C169.307 54.1602 169.37 54.194 169.407 54.2502L176.891 65.6205C176.901 65.6355 176.917 65.6445 176.935 65.6445V65.6445C176.965 65.6445 176.988 65.6207 176.988 65.5912V54.3602C176.988 54.2497 177.078 54.1602 177.188 54.1602H179.285C179.395 54.1602 179.485 54.2497 179.485 54.3602V69.9563C179.485 70.0667 179.395 70.1562 179.285 70.1562H177.272C177.205 70.1562 177.142 70.1224 177.105 70.0662L169.596 58.6573C169.587 58.6444 169.573 58.6367 169.558 58.6367V58.6367C169.532 58.6367 169.512 58.6572 169.512 58.6824V69.9562Z" fill="white"/>
<path d="M191.224 69.9563C191.224 70.0667 191.135 70.1562 191.024 70.1562H188.788C188.677 70.1562 188.588 70.0667 188.588 69.9562V56.6336C188.588 56.5231 188.498 56.4336 188.388 56.4336H184.088C183.978 56.4336 183.888 56.3441 183.888 56.2336V54.3602C183.888 54.2497 183.978 54.1602 184.088 54.1602H195.724C195.834 54.1602 195.924 54.2497 195.924 54.3602V56.2336C195.924 56.3441 195.834 56.4336 195.724 56.4336H191.424C191.314 56.4336 191.224 56.5231 191.224 56.6336V69.9563Z" fill="white"/>
<path d="M87.9832 91.9563C87.9832 92.0667 87.8936 92.1562 87.7832 92.1562H85.5465C85.436 92.1562 85.3465 92.0667 85.3465 91.9562V78.6336C85.3465 78.5231 85.2569 78.4336 85.1465 78.4336H80.8472C80.7368 78.4336 80.6472 78.3441 80.6472 78.2336V76.3602C80.6472 76.2497 80.7368 76.1602 80.8472 76.1602H92.4824C92.5928 76.1602 92.6824 76.2497 92.6824 76.3602V78.2336C92.6824 78.3441 92.5928 78.4336 92.4824 78.4336H88.1832C88.0727 78.4336 87.9832 78.5231 87.9832 78.6336V91.9563Z" fill="white"/>
<path d="M106.631 89.918C106.741 89.918 106.831 90.0075 106.831 90.118V91.9562C106.831 92.0667 106.741 92.1562 106.631 92.1562H97.0463C96.9358 92.1562 96.8463 92.0667 96.8463 91.9562V76.3602C96.8463 76.2497 96.9358 76.1602 97.0463 76.1602H106.631C106.741 76.1602 106.831 76.2497 106.831 76.3602V78.1984C106.831 78.3089 106.741 78.3984 106.631 78.3984H99.6947C99.5843 78.3984 99.4947 78.488 99.4947 78.5984V82.757C99.4947 82.8675 99.5843 82.957 99.6947 82.957H106.209C106.319 82.957 106.409 83.0466 106.409 83.157V84.9016C106.409 85.012 106.319 85.1016 106.209 85.1016H99.6947C99.5843 85.1016 99.4947 85.1911 99.4947 85.3016V89.718C99.4947 89.8284 99.5843 89.918 99.6947 89.918H106.631Z" fill="white"/>
<path d="M111.031 92.1562C110.92 92.1562 110.831 92.0667 110.831 91.9562V90.6797C110.831 90.6564 110.835 90.6334 110.842 90.6115L116.033 76.292C116.061 76.2129 116.137 76.1602 116.221 76.1602H118.905C118.989 76.1602 119.064 76.2131 119.093 76.2924L124.248 90.6117C124.256 90.6334 124.26 90.6563 124.26 90.6794V91.9562C124.26 92.0667 124.171 92.1562 124.06 92.1562H111.031ZM117.522 79.043C117.494 79.043 117.469 79.0607 117.46 79.0871L113.712 89.8514C113.667 89.9814 113.763 90.1172 113.901 90.1172H121.097C121.234 90.1172 121.331 89.982 121.286 89.8521L117.584 79.0874C117.575 79.0608 117.55 79.043 117.522 79.043V79.043Z" fill="white"/>
<path d="M131.333 91.9563C131.333 92.0667 131.244 92.1562 131.133 92.1562H129.143C129.032 92.1562 128.943 92.0667 128.943 91.9562V76.3602C128.943 76.2497 129.032 76.1602 129.143 76.1602H131.483C131.563 76.1602 131.635 76.2074 131.667 76.2805L136.485 87.3725C136.495 87.3954 136.517 87.4102 136.542 87.4102V87.4102C136.567 87.4102 136.59 87.3954 136.6 87.3725L141.418 76.2805C141.449 76.2074 141.521 76.1602 141.601 76.1602H143.93C144.041 76.1602 144.13 76.2497 144.13 76.3602V91.9563C144.13 92.0667 144.041 92.1562 143.93 92.1562H141.928C141.817 92.1562 141.728 92.0667 141.728 91.9562V81.1693C141.728 81.1341 141.699 81.1055 141.664 81.1055V81.1055C141.639 81.1055 141.616 81.1204 141.605 81.1435L137.538 90.3379C137.506 90.4103 137.434 90.457 137.355 90.457H135.705C135.626 90.457 135.555 90.4104 135.523 90.3381L131.442 81.1392C131.433 81.1187 131.412 81.1055 131.39 81.1055V81.1055C131.359 81.1055 131.333 81.1309 131.333 81.1623V91.9563Z" fill="white"/>
</g>
<rect x="16.5" y="16.5" width="195" height="91" stroke="white" stroke-opacity="0.8"/>
<rect x="24" y="14" width="180" height="4" fill="#182534"/>
<rect x="24" y="106" width="180" height="4" fill="#182534"/>
<rect x="214" y="24" width="76" height="4" transform="rotate(90 214 24)" fill="#182534"/>
<rect x="18" y="24" width="76" height="4" transform="rotate(90 18 24)" fill="#182534"/>
<defs>
<filter id="filter0_d_1_6" x="31.5763" y="31.3438" width="165.847" height="62.3125" filterUnits="userSpaceOnUse" color-interpolation-filters="sRGB">
<feFlood flood-opacity="0" result="BackgroundImageFix"/>
<feColorMatrix in="SourceAlpha" type="matrix" values="0 0 0 0 0 0 0 0 0 0 0 0 0 0 0 0 0 0 127 0" result="hardAlpha"/>
<feOffset dx="0.5" dy="0.5"/>
<feGaussianBlur stdDeviation="0.5"/>
<feComposite in2="hardAlpha" operator="out"/>
<feColorMatrix type="matrix" values="0 0 0 0 0.0784314 0 0 0 0 0.0980392 0 0 0 0 0.121569 0 0 0 1 0"/>
<feBlend mode="normal" in2="BackgroundImageFix" result="effect1_dropShadow_1_6"/>
<feBlend mode="normal" in="SourceGraphic" in2="effect1_dropShadow_1_6" result="shape"/>
</filter>
</defs>
</svg>
