<svg width="300" height="65" viewBox="0 0 300 65" fill="none" xmlns="http://www.w3.org/2000/svg">
<rect y="0.265442" width="300" height="64" fill="#182534"/>
<path d="M129.262 17.4883V19H115.832V17.4883L121.082 3.00391H124.047L129.262 17.4883ZM122.571 5.88672H122.477L118.621 16.9609H126.379L122.571 5.88672ZM145.906 8.00781H143.305C143.082 6.15625 141.781 4.96094 139.731 4.96094C137.246 4.96094 135.805 6.74219 135.805 9.78906V12.0039C135.805 15.1211 137.106 17.043 139.813 17.043C141.981 17.043 143.399 15.6953 143.399 13.8672V12.6133H139.719V10.5156H145.942V13.75C145.942 16.8203 143.586 19.3164 139.778 19.3164C135.348 19.3164 133.145 16.4922 133.145 12.0156V9.77734C133.145 5.44141 135.57 2.6875 139.742 2.6875C143.445 2.6875 145.742 4.97266 145.906 8.00781ZM153.715 19H151.055V3.00391H153.715V19ZM169.187 16.6914V19H159.473V3.00391H162.133V16.6914H169.187ZM183.453 16.7617V19H173.468V3.00391H183.453V5.24219H176.117V9.80078H183.031V11.9453H176.117V16.7617H183.453ZM80.2683 38.7617V41H70.2839V25.0039H80.2683V27.2422H72.9323V31.8008H79.8464V33.9453H72.9323V38.7617H80.2683ZM88.0064 41H85.4986V25.0039H87.8423L95.4009 36.4883H95.483V25.0039H97.9791V41H95.6587L88.0767 29.4805H88.0064V41ZM115.936 39.4883V41H102.506V39.4883L107.756 25.0039H110.721L115.936 39.4883ZM109.245 27.8867H109.151L105.295 38.9609H113.053L109.245 27.8867ZM120.451 41V25.0039H126.826C129.615 25.0039 131.42 26.5039 131.42 28.9414C131.42 30.8164 130.365 32.0117 128.772 32.457V32.5742C130.787 32.8086 132.287 34.1797 132.287 36.5C132.287 39.3359 130.049 41 126.709 41H120.451ZM123.1 27.1133V31.7656H125.35C127.729 31.7656 128.783 30.9688 128.783 29.3867C128.783 27.9688 127.858 27.1133 126.276 27.1133H123.1ZM123.1 33.7695V38.8906H125.643C128.444 38.8906 129.58 38.0938 129.58 36.4062C129.58 34.7539 128.467 33.7695 126.487 33.7695H123.1ZM146.881 38.6914V41H137.166V25.0039H139.826V38.6914H146.881ZM161.146 38.7617V41H151.162V25.0039H161.146V27.2422H153.81V31.8008H160.725V33.9453H153.81V38.7617H161.146ZM168.814 41H166.424V25.0039H169.095L173.982 36.2539H174.064L178.951 25.0039H181.611V41H179.209V29.9492H179.103L174.967 39.3008H173.056L168.908 29.9492H168.814V41ZM197.388 38.7617V41H187.404V25.0039H197.388V27.2422H190.052V31.8008H196.966V33.9453H190.052V38.7617H197.388ZM205.126 41H202.619V25.0039H204.962L212.521 36.4883H212.603V25.0039H215.099V41H212.779L205.197 29.4805H205.126V41ZM226.599 41H223.962V27.2773H219.263V25.0039H231.298V27.2773H226.599V41ZM124.834 63H122.197V49.2773H117.498V47.0039H129.533V49.2773H124.834V63ZM143.682 60.7617V63H133.697V47.0039H143.682V49.2422H136.346V53.8008H143.26V55.9453H136.346V60.7617H143.682ZM161.111 61.4883V63H147.682V61.4883L152.932 47.0039H155.896L161.111 61.4883ZM154.42 49.8867H154.326L150.471 60.9609H158.228L154.42 49.8867ZM168.064 63H165.674V47.0039H168.345L173.232 58.2539H173.314L178.201 47.0039H180.861V63H178.459V51.9492H178.353L174.217 61.3008H172.306L168.158 51.9492H168.064V63Z" fill="white"/>
<path d="M171.967 19H169.307V3.00391H171.967V19Z" fill="#F3A7A7" fill-opacity="0.5"/>
<path d="M102.276 41H99.6163V25.0039H102.276V41Z" fill="#F3A7A7" fill-opacity="0.5"/>
<path d="M118.789 41H116.129V25.0039H118.789V41Z" fill="#F3A7A7" fill-opacity="0.5"/>
<path d="M149.813 41H147.153V25.0039H149.813V41Z" fill="#F3A7A7" fill-opacity="0.5"/>
<path d="M132.254 63H129.594V47.0039H132.254V63Z" fill="#F3A7A7" fill-opacity="0.5"/>
<path d="M147.523 63H144.862V47.0039H147.523V63Z" fill="#F3A7A7" fill-opacity="0.5"/>
<path d="M163.855 63H161.195V47.0039H163.855V63Z" fill="#F3A7A7" fill-opacity="0.5"/>
<path d="M132.092 19H129.432V3.00391H132.092V19Z" fill="#F3A7A7" fill-opacity="0.5"/>
</svg>
