<svg width="192" height="64" viewBox="0 0 192 64" fill="none" xmlns="http://www.w3.org/2000/svg">
<g clip-path="url(#clip0_11_76)">
<rect width="192" height="64" fill="#182534"/>
<g filter="url(#filter0_d_11_76)">
<path d="M60.8723 18.5V16.9883L66.1223 2.50391H69.0872L74.302 16.9883V18.5H60.8723ZM67.5169 5.38672L63.6614 16.4609H71.4192L67.6106 5.38672H67.5169ZM91.4264 7.50781H88.8248C88.6022 5.65625 87.3014 4.46094 85.2506 4.46094C82.7663 4.46094 81.3248 6.24219 81.3248 9.28906V11.5039C81.3248 14.6211 82.6256 16.543 85.3327 16.543C87.5006 16.543 88.9186 15.1953 88.9186 13.3672V12.1133H85.2389V10.0156H91.4616V13.25C91.4616 16.3203 89.1061 18.8164 85.2975 18.8164C80.8678 18.8164 78.6647 15.9922 78.6647 11.5156V9.27734C78.6647 4.94141 81.0905 2.1875 85.2623 2.1875C88.9655 2.1875 91.2623 4.47266 91.4264 7.50781ZM99.7148 18.5H97.0547V2.50391H99.7148V18.5ZM115.667 16.1914V18.5H105.952V2.50391H108.613V16.1914H115.667ZM130.413 16.2617V18.5H120.428V2.50391H130.413V4.74219H123.077V9.30078H129.991V11.4453H123.077V16.2617H130.413ZM24.1083 38.2617V40.5H14.1239V24.5039H24.1083V26.7422H16.7723V31.3008H23.6864V33.4453H16.7723V38.2617H24.1083ZM32.3264 40.5H29.8186V24.5039H32.1623L39.7209 35.9883H39.803V24.5039H42.2991V40.5H39.9788L32.3967 28.9805H32.3264V40.5ZM47.3063 40.5V38.9883L52.5563 24.5039H55.5211L60.7359 38.9883V40.5H47.3063ZM53.9508 27.3867L50.0953 38.4609H57.8531L54.0445 27.3867H53.9508ZM65.7314 40.5V24.5039H72.1064C74.8955 24.5039 76.7002 26.0039 76.7002 28.4414C76.7002 30.3164 75.6455 31.5117 74.0517 31.957V32.0742C76.0673 32.3086 77.5673 33.6797 77.5673 36C77.5673 38.8359 75.3291 40.5 71.9892 40.5H65.7314ZM68.3798 26.6133V31.2656H70.6298C73.0088 31.2656 74.0634 30.4688 74.0634 28.8867C74.0634 27.4688 73.1377 26.6133 71.5556 26.6133H68.3798ZM68.3798 33.2695V38.3906H70.9228C73.7236 38.3906 74.8603 37.5938 74.8603 35.9062C74.8603 34.2539 73.747 33.2695 71.7666 33.2695H68.3798ZM92.6409 38.1914V40.5H82.9261V24.5039H85.5863V38.1914H92.6409ZM107.386 38.2617V40.5H97.402V24.5039H107.386V26.7422H100.05V31.3008H106.965V33.4453H100.05V38.2617H107.386ZM115.534 40.5H113.144V24.5039H115.815L120.702 35.7539H120.784L125.671 24.5039H128.331V40.5H125.929V29.4492H125.823L121.687 38.8008H119.776L115.628 29.4492H115.534V40.5ZM144.588 38.2617V40.5H134.604V24.5039H144.588V26.7422H137.252V31.3008H144.166V33.4453H137.252V38.2617H144.588ZM152.806 40.5H150.299V24.5039H152.642L160.201 35.9883H160.283V24.5039H162.779V40.5H160.459L152.877 28.9805H152.806V40.5ZM174.759 40.5H172.122V26.7773H167.423V24.5039H179.458V26.7773H174.759V40.5ZM70.1142 62.5H67.4775V48.7773H62.7783V46.5039H74.8134V48.7773H70.1142V62.5ZM89.4417 60.2617V62.5H79.4573V46.5039H89.4417V48.7422H82.1058V53.3008H89.0198V55.4453H82.1058V60.2617H89.4417ZM93.9216 62.5V60.9883L99.1716 46.5039H102.136L107.351 60.9883V62.5H93.9216ZM100.566 49.3867L96.7106 60.4609H104.468L100.66 49.3867H100.566ZM114.784 62.5H112.394V46.5039H115.065L119.952 57.7539H120.034L124.921 46.5039H127.581V62.5H125.179V51.4492H125.073L120.937 60.8008H119.026L114.878 51.4492H114.784V62.5Z" fill="white"/>
</g>
</g>
<defs>
<filter id="filter0_d_11_76" x="13.6239" y="1.6875" width="167.334" height="62.3125" filterUnits="userSpaceOnUse" color-interpolation-filters="sRGB">
<feFlood flood-opacity="0" result="BackgroundImageFix"/>
<feColorMatrix in="SourceAlpha" type="matrix" values="0 0 0 0 0 0 0 0 0 0 0 0 0 0 0 0 0 0 127 0" result="hardAlpha"/>
<feOffset dx="0.5" dy="0.5"/>
<feGaussianBlur stdDeviation="0.5"/>
<feComposite in2="hardAlpha" operator="out"/>
<feColorMatrix type="matrix" values="0 0 0 0 0.0784314 0 0 0 0 0.0980392 0 0 0 0 0.121569 0 0 0 1 0"/>
<feBlend mode="normal" in2="BackgroundImageFix" result="effect1_dropShadow_11_76"/>
<feBlend mode="normal" in="SourceGraphic" in2="effect1_dropShadow_11_76" result="shape"/>
</filter>
<clipPath id="clip0_11_76">
<rect width="192" height="64" fill="white"/>
</clipPath>
</defs>
</svg>
