<svg width="1281" height="720" viewBox="0 0 1281 720" fill="none" xmlns="http://www.w3.org/2000/svg">
<g clip-path="url(#clip0_80_6266)">
<rect width="1280" height="720" transform="translate(0.75)" fill="#182534"/>
<rect width="539" height="539" transform="translate(721 -14)" fill="#182534"/>
<path d="M1051.96 441.317C989.649 461.071 931.628 452.294 878.272 415.84C835.057 386.316 808.604 344.869 798.319 293.659C781.452 209.68 820.622 125.685 895.349 84.0061C996.592 27.5367 1125.84 71.994 1170.96 178.808C1215.53 284.323 1161.14 404.656 1051.96 441.317Z" fill="#112D43"/>
<path d="M839.569 174.005C868.554 123.372 911.526 93.1722 968.949 85.3761C1051.57 74.1612 1130 125.72 1154.7 206.238C1176.62 277.699 1147.75 357.079 1085.24 398.03C1053.18 419.028 1018.04 429.791 980.001 426.448C909.562 420.256 858.953 384.315 831.579 318.942C811.138 270.123 815.058 221.37 839.569 174.004V174.005Z" fill="#182534"/>
<path d="M875.373 179.245C870.581 182.594 865.953 182.843 861.355 179.842C857.17 177.11 855.175 173.062 855.802 168.144C856.457 163.016 859.552 159.62 864.514 157.999C869.409 156.4 875.308 158.564 878.224 163.044C881.583 168.204 880.707 173.656 875.373 179.245ZM1114.59 181.774C1108.41 182.239 1104.25 179.649 1101.83 174.608C1099.75 170.296 1100.26 165.919 1103.35 162.178C1106.49 158.367 1110.62 156.597 1115.58 157.721C1120.6 158.859 1124.51 163.025 1125.08 167.909C1125.67 173.099 1123.62 177.227 1119.21 180.036C1117.96 180.836 1116.41 181.179 1114.59 181.774ZM926.078 173.849C929.974 178.826 930.205 183.74 927.003 188.675C924.176 193.029 919.061 195.089 914.206 193.825C909.197 192.522 906.059 189.176 904.923 184.126C903.828 179.263 906.148 174.248 910.555 171.562C915.639 168.464 920.096 169.046 926.078 173.849ZM1053 176.385C1057.92 169.895 1063.29 168.136 1069.04 170.839C1074.25 173.296 1077.12 178.888 1075.93 184.279C1074.4 191.183 1067.54 195.505 1060.86 193.767C1053.6 191.878 1050.23 184.727 1053 176.385ZM961.912 205.691C952.399 201.958 950.591 189.494 959.467 183.869C964.128 180.915 969.315 181.292 973.67 184.805C977.821 188.154 979.17 192.943 977.404 198.061C975.715 202.958 971.393 206.238 966.315 206.329C964.978 206.354 963.635 206.005 961.912 205.691ZM1027.12 192.479C1027.36 198.783 1024.84 203.163 1019.44 205.455C1014.59 207.513 1010.02 206.475 1006.34 202.69C1002.88 199.132 1001.71 194.915 1003.49 190.066C1005.34 185.041 1009.12 182.408 1014.22 181.994C1019.22 181.588 1023.05 184.048 1025.64 188.273C1026.34 189.406 1026.61 190.795 1027.12 192.479ZM978.072 318.266C975.764 325.374 971.899 328.723 966.266 328.86C961.259 328.983 956.492 325.879 954.665 321.246C952.724 316.32 953.532 311.795 957.305 308.134C960.986 304.563 965.408 303.218 970.392 305.385C975.823 307.745 978.442 311.904 978.072 318.265V318.266ZM1006.91 307.522C1013.5 303.406 1018.23 303.48 1022.97 307.534C1027.05 311.029 1028.27 316.236 1026.18 321.32C1024.16 326.258 1018.95 329.415 1013.61 328.787C1008.83 328.225 1005.48 325.568 1003.67 321.182C1001.58 316.106 1002.77 311.609 1006.91 307.522ZM928.401 324.898C930.071 332.631 926.868 338.69 920.415 340.631C914.317 342.466 907.789 339.176 905.556 333.141C903.194 326.756 906.032 320.322 912.388 317.655C918.648 315.029 924.638 317.615 928.401 324.898ZM1054.81 336.919C1051.06 332.141 1050.57 327.303 1053.58 322.515C1056.3 318.176 1060.53 315.969 1065.68 316.835C1070.68 317.676 1074.24 320.634 1075.73 325.702C1077.21 330.72 1075.01 336.222 1070.3 339.281C1065.6 342.33 1060.45 341.632 1054.81 336.919H1054.81ZM879.165 345.892C876.292 351.118 872.316 353.891 866.545 353.277C861.923 352.785 858.689 350.134 856.778 346.032C854.487 341.114 855.784 335.635 859.794 332.112C864.103 328.326 869.584 327.861 874.407 330.869C879.404 333.987 881.065 338.985 879.165 345.892ZM1103.31 348.581C1099.93 343.578 1099.69 338.719 1103 334.118C1105.73 330.316 1109.7 328.287 1114.44 329.049C1119.45 329.853 1123.08 332.654 1124.64 337.733C1126.25 342.98 1124.03 348.62 1119.08 351.685C1114.17 354.727 1108.82 353.755 1103.31 348.581Z" fill="#112D43"/>
<path d="M922.291 286.745C922.144 286.745 922.047 286.593 922.11 286.46L951.199 224.37C951.232 224.3 951.303 224.255 951.38 224.255H1006.15C1006.29 224.255 1006.39 224.396 1006.34 224.527L1002.92 233.382C1002.91 233.405 1002.91 233.429 1002.91 233.454V234.407C1002.91 234.518 1002.82 234.607 1002.71 234.607H977.064C976.953 234.607 976.864 234.697 976.864 234.807V250.313C976.864 250.423 976.953 250.513 977.064 250.513H1005.2C1005.34 250.513 1005.44 250.653 1005.39 250.784L1002.21 259.066C1002.2 259.089 1002.2 259.114 1002.2 259.138V260.018C1002.2 260.128 1002.11 260.218 1002 260.218H977.064C976.953 260.218 976.864 260.307 976.864 260.418V276.193C976.864 276.303 976.953 276.393 977.064 276.393H1006.15C1006.29 276.393 1006.39 276.534 1006.34 276.665L1002.92 285.524C1002.91 285.546 1002.91 285.571 1002.91 285.595V286.545C1002.91 286.656 1002.82 286.745 1002.71 286.745H964.717C964.606 286.745 964.517 286.656 964.517 286.545V270.392C964.517 270.282 964.427 270.192 964.317 270.192H943.132C943.054 270.192 942.983 270.238 942.95 270.309L935.455 286.629C935.422 286.7 935.351 286.745 935.273 286.745H922.291ZM959.792 233.96C959.714 233.96 959.643 234.005 959.611 234.076L947.448 260.473C947.387 260.606 947.484 260.757 947.63 260.757H964.317C964.427 260.757 964.517 260.667 964.517 260.557V234.16C964.517 234.05 964.427 233.96 964.317 233.96H959.792Z" fill="#112D43"/>
<path d="M1027.51 286.745C1027.4 286.745 1027.31 286.656 1027.31 286.545V234.807C1027.31 234.697 1027.22 234.607 1027.11 234.607H1012.76C1012.65 234.607 1012.56 234.518 1012.56 234.407V233.454C1012.56 233.429 1012.55 233.405 1012.54 233.382L1009.15 224.527C1009.1 224.396 1009.2 224.255 1009.34 224.255H1058.73C1058.87 224.255 1058.97 224.396 1058.92 224.527L1055.5 233.382C1055.49 233.405 1055.49 233.429 1055.49 233.454V234.407C1055.49 234.518 1055.4 234.607 1055.29 234.607H1040.93C1040.82 234.607 1040.73 234.697 1040.73 234.807V286.545C1040.73 286.656 1040.64 286.745 1040.53 286.745H1027.51Z" fill="#112D43"/>
</g>
<defs>
<clipPath id="clip0_80_6266">
<rect width="1280" height="720" fill="white" transform="translate(0.75)"/>
</clipPath>
</defs>
</svg>
