<svg width="1280" height="720" viewBox="0 0 1280 720" fill="none" xmlns="http://www.w3.org/2000/svg">
<rect width="1280" height="720" fill="#182534"/>
<path d="M1061.91 102.503C1074.88 102.503 1087.06 104.704 1098.44 109.106C1109.82 113.507 1119.79 119.504 1128.36 127.097C1136.93 134.69 1143.66 143.659 1148.55 154.002C1153.45 164.346 1155.9 175.351 1155.9 187.015C1155.9 210.344 1152.53 232.792 1145.8 254.36C1139.07 275.929 1129.58 296.121 1117.35 314.938C1105.11 333.755 1090.42 350.867 1073.29 366.273C1056.15 381.678 1037.12 394.883 1016.2 405.888C995.269 416.892 972.812 425.42 948.825 431.472C924.838 437.525 899.871 440.551 873.926 440.551C860.954 440.551 848.777 438.35 837.395 433.948C826.013 429.547 816.039 423.549 807.472 415.956C798.905 408.364 792.174 399.395 787.279 389.051C782.384 378.707 779.936 367.703 779.936 356.039C779.936 332.71 783.302 310.261 790.033 288.693C796.764 267.125 806.248 246.933 818.487 228.115C830.725 209.298 845.411 192.187 862.545 176.781C879.678 161.375 898.709 148.17 919.636 137.166C940.564 126.162 963.021 117.634 987.008 111.581C1011 105.529 1035.96 102.503 1061.91 102.503ZM1061.91 123.631C1038.16 123.631 1015.34 126.382 993.433 131.884C971.527 137.386 950.966 145.199 931.752 155.323C912.538 165.447 895.037 177.606 879.25 191.802C863.463 205.997 850 221.678 838.864 238.845C827.727 256.011 819.037 274.498 812.796 294.305C806.554 314.113 803.434 334.691 803.434 356.039C803.434 362.641 804.535 369.079 806.738 375.351C808.941 381.623 812.184 387.401 816.467 392.683L1102.66 135.35C1096.79 131.499 1090.36 128.583 1083.38 126.602C1076.41 124.621 1069.25 123.631 1061.91 123.631ZM873.926 419.423C897.669 419.423 920.493 416.672 942.4 411.17C964.306 405.668 984.867 397.855 1004.08 387.731C1023.29 377.607 1040.8 365.447 1056.58 351.252C1072.37 337.057 1085.83 321.376 1096.97 304.209C1108.11 287.043 1116.8 268.556 1123.04 248.748C1129.28 228.941 1132.4 208.363 1132.4 187.015C1132.4 180.412 1131.3 173.975 1129.09 167.703C1126.89 161.43 1123.65 155.653 1119.37 150.371L833.173 407.703C839.047 411.555 845.472 414.471 852.448 416.452C859.424 418.432 866.583 419.423 873.926 419.423Z" fill="#112D43"/>
<path d="M904.841 270.718C904.732 270.816 904.559 270.767 904.517 270.627L888.955 218.864C888.933 218.79 888.956 218.709 889.014 218.657L921.171 189.87C921.276 189.776 921.442 189.816 921.491 189.948L924.121 196.892C924.13 196.915 924.143 196.936 924.159 196.954L924.628 197.478C924.702 197.56 924.695 197.687 924.613 197.76L909.588 211.21C909.506 211.284 909.499 211.411 909.573 211.493L917.683 220.553C917.757 220.635 917.883 220.642 917.966 220.568L934.444 205.816C934.549 205.723 934.714 205.763 934.764 205.894L937.233 212.375C937.242 212.398 937.255 212.419 937.271 212.438L937.701 212.918C937.775 213 937.768 213.127 937.686 213.2L923.077 226.278C922.995 226.352 922.988 226.478 923.062 226.561L931.314 235.779C931.388 235.862 931.514 235.869 931.597 235.795L948.632 220.545C948.736 220.451 948.902 220.492 948.952 220.623L951.584 227.569C951.593 227.592 951.606 227.613 951.622 227.631L952.089 228.153C952.163 228.235 952.156 228.362 952.073 228.435L929.785 248.389C929.702 248.462 929.576 248.455 929.502 248.373L921.051 238.932C920.977 238.85 920.851 238.843 920.768 238.917L908.356 250.029C908.298 250.081 908.275 250.162 908.298 250.237L912.468 263.734C912.491 263.809 912.469 263.89 912.41 263.942L904.841 270.718ZM899.074 219.937C899.016 219.989 898.994 220.07 899.017 220.145L905.737 241.992C905.78 242.132 905.953 242.18 906.061 242.083L915.799 233.365C915.881 233.292 915.888 233.165 915.814 233.083L901.967 217.615C901.894 217.533 901.767 217.526 901.685 217.6L899.074 219.937Z" fill="#112D43"/>
<path d="M966.728 215.316C966.646 215.39 966.519 215.383 966.446 215.301L939.252 184.924C939.178 184.841 939.051 184.834 938.969 184.908L930.589 192.41C930.506 192.484 930.38 192.477 930.306 192.395L929.837 191.871C929.821 191.853 929.802 191.838 929.78 191.827L923.18 188.436C923.055 188.371 923.033 188.202 923.138 188.109L952.108 162.174C952.213 162.081 952.379 162.121 952.428 162.252L955.058 169.196C955.067 169.219 955.08 169.241 955.096 169.259L955.565 169.783C955.639 169.865 955.632 169.991 955.55 170.065L947.166 177.57C947.084 177.644 947.077 177.77 947.15 177.853L974.344 208.23C974.418 208.312 974.411 208.438 974.329 208.512L966.728 215.316Z" fill="#112D43"/>
<path d="M301.25 115C305.632 115 309.746 115.749 313.59 117.246C317.435 118.743 320.804 120.784 323.698 123.367C326.592 125.95 328.866 129.001 330.52 132.52C332.173 136.038 333 139.782 333 143.75C333 151.686 331.863 159.323 329.589 166.66C327.316 173.997 324.112 180.867 319.978 187.268C315.843 193.669 310.882 199.491 305.095 204.731C299.307 209.972 292.878 214.465 285.809 218.208C278.74 221.951 271.154 224.853 263.051 226.912C254.948 228.971 246.514 230 237.75 230C233.368 230 229.254 229.251 225.41 227.754C221.565 226.257 218.196 224.216 215.302 221.633C212.408 219.05 210.134 215.999 208.48 212.48C206.827 208.962 206 205.218 206 201.25C206 193.314 207.137 185.677 209.411 178.34C211.684 171.003 214.888 164.133 219.022 157.732C223.157 151.331 228.118 145.509 233.905 140.269C239.693 135.028 246.122 130.535 253.191 126.792C260.26 123.049 267.846 120.147 275.949 118.088C284.052 116.029 292.486 115 301.25 115ZM301.25 122.188C293.23 122.188 285.52 123.123 278.12 124.995C270.72 126.867 263.774 129.525 257.284 132.969C250.793 136.413 244.881 140.549 239.548 145.378C234.215 150.208 229.668 155.542 225.906 161.382C222.144 167.222 219.208 173.511 217.1 180.249C214.992 186.987 213.938 193.988 213.938 201.25C213.938 203.496 214.31 205.686 215.054 207.82C215.798 209.954 216.893 211.919 218.34 213.716L315.017 126.174C313.032 124.864 310.862 123.872 308.505 123.198C306.149 122.524 303.73 122.188 301.25 122.188ZM237.75 222.812C245.77 222.812 253.48 221.877 260.88 220.005C268.28 218.133 275.226 215.475 281.716 212.031C288.207 208.587 294.119 204.451 299.452 199.622C304.785 194.792 309.332 189.458 313.094 183.618C316.856 177.778 319.792 171.489 321.9 164.751C324.008 158.013 325.062 151.012 325.062 143.75C325.062 141.504 324.69 139.314 323.946 137.18C323.202 135.046 322.107 133.081 320.66 131.284L223.983 218.826C225.968 220.136 228.138 221.128 230.495 221.802C232.851 222.476 235.27 222.812 237.75 222.812Z" fill="#112D43"/>
<path d="M248.348 172.086C248.239 172.184 248.066 172.135 248.024 171.994L242.851 154.666C242.829 154.591 242.851 154.51 242.909 154.458L253.566 144.85C253.67 144.756 253.836 144.797 253.885 144.928L254.697 147.087C254.706 147.11 254.719 147.131 254.735 147.15L254.789 147.211C254.863 147.293 254.856 147.42 254.774 147.494L249.895 151.892C249.813 151.966 249.806 152.093 249.879 152.176L252.443 155.06C252.517 155.143 252.643 155.15 252.725 155.076L258.05 150.275C258.154 150.181 258.32 150.221 258.369 150.353L259.127 152.354C259.135 152.377 259.148 152.398 259.164 152.417L259.205 152.463C259.279 152.546 259.272 152.673 259.19 152.747L254.451 157.018C254.369 157.092 254.362 157.219 254.436 157.302L257.048 160.24C257.121 160.323 257.247 160.33 257.329 160.256L262.843 155.285C262.947 155.191 263.112 155.232 263.162 155.364L263.974 157.523C263.983 157.546 263.996 157.567 264.012 157.586L264.066 157.646C264.139 157.728 264.132 157.855 264.05 157.929L256.717 164.54C256.635 164.614 256.509 164.607 256.436 164.525L253.757 161.511C253.683 161.428 253.557 161.421 253.475 161.495L249.443 165.13C249.385 165.182 249.363 165.264 249.386 165.339L250.744 169.768C250.767 169.843 250.745 169.924 250.687 169.977L248.348 172.086ZM246.308 154.893C246.25 154.945 246.227 155.027 246.25 155.102L248.435 162.255C248.478 162.395 248.65 162.443 248.759 162.345L251.796 159.606C251.878 159.533 251.885 159.406 251.812 159.323L247.31 154.259C247.237 154.176 247.111 154.169 247.029 154.243L246.308 154.893Z" fill="#112D43"/>
<path d="M269.197 153.289C269.115 153.363 268.989 153.356 268.915 153.274L259.905 143.137C259.831 143.055 259.705 143.048 259.623 143.122L256.989 145.497C256.907 145.571 256.781 145.564 256.707 145.481L256.653 145.42C256.637 145.402 256.617 145.387 256.596 145.376L254.558 144.321C254.434 144.257 254.412 144.087 254.516 143.993L264.017 135.428C264.121 135.334 264.286 135.375 264.336 135.507L265.148 137.665C265.157 137.688 265.169 137.71 265.186 137.728L265.24 137.789C265.313 137.872 265.306 137.998 265.224 138.072L262.589 140.448C262.507 140.522 262.5 140.649 262.573 140.732L271.583 150.868C271.657 150.951 271.65 151.078 271.568 151.152L269.197 153.289Z" fill="#112D43"/>
<path d="M125.25 177C128.39 177 131.337 177.534 134.092 178.602C136.847 179.669 139.261 181.124 141.335 182.966C143.409 184.808 145.038 186.983 146.223 189.492C147.408 192.001 148 194.671 148 197.5C148 203.159 147.185 208.604 145.556 213.836C143.927 219.068 141.631 223.966 138.669 228.53C135.707 233.095 132.152 237.245 128.005 240.982C123.858 244.719 119.251 247.923 114.186 250.592C109.121 253.261 103.685 255.33 97.8789 256.798C92.0729 258.266 86.0299 259 79.75 259C76.61 259 73.6626 258.466 70.9077 257.398C68.1528 256.331 65.7386 254.876 63.665 253.034C61.5915 251.192 59.9622 249.017 58.7773 246.508C57.5924 243.999 57 241.329 57 238.5C57 232.841 57.8146 227.396 59.4438 222.164C61.0731 216.932 63.3688 212.034 66.3311 207.47C69.2933 202.905 72.848 198.755 76.9951 195.018C81.1423 191.281 85.7485 188.077 90.814 185.408C95.8794 182.739 101.315 180.67 107.121 179.202C112.927 177.734 118.97 177 125.25 177ZM125.25 182.125C119.503 182.125 113.979 182.792 108.676 184.127C103.374 185.462 98.3973 187.357 93.7466 189.812C89.0959 192.268 84.8599 195.218 81.0386 198.661C77.2173 202.104 73.9588 205.908 71.2632 210.072C68.5675 214.236 66.4644 218.721 64.9536 223.525C63.4429 228.33 62.6875 233.322 62.6875 238.5C62.6875 240.102 62.9541 241.663 63.4873 243.185C64.0205 244.706 64.8055 246.107 65.8423 247.389L135.114 184.968C133.692 184.034 132.137 183.326 130.449 182.846C128.76 182.365 127.027 182.125 125.25 182.125ZM79.75 253.875C85.4967 253.875 91.0213 253.208 96.3237 251.873C101.626 250.538 106.603 248.643 111.253 246.188C115.904 243.732 120.14 240.782 123.961 237.339C127.783 233.896 131.041 230.092 133.737 225.928C136.432 221.764 138.536 217.279 140.046 212.475C141.557 207.67 142.312 202.678 142.312 197.5C142.312 195.898 142.046 194.337 141.513 192.815C140.979 191.294 140.194 189.893 139.158 188.611L69.8857 251.032C71.3076 251.966 72.8628 252.674 74.5513 253.154C76.2397 253.635 77.9727 253.875 79.75 253.875Z" fill="#112D43"/>
<path d="M87.4103 217.645C87.3013 217.742 87.1278 217.694 87.0857 217.553L83.4154 205.318C83.3931 205.244 83.4157 205.163 83.4735 205.111L91.021 198.34C91.1255 198.246 91.2913 198.287 91.341 198.418L91.8901 199.871C91.8984 199.893 91.9108 199.913 91.9265 199.931V199.931C91.9972 200.01 91.9905 200.132 91.9115 200.202L88.4946 203.268C88.4124 203.342 88.4054 203.468 88.479 203.551L90.2402 205.522C90.3138 205.605 90.4401 205.612 90.5223 205.538L94.234 202.208C94.3384 202.114 94.5041 202.154 94.554 202.286L95.0646 203.629C95.0724 203.649 95.084 203.668 95.0987 203.685V203.685C95.165 203.759 95.1587 203.873 95.0846 203.94L91.7596 206.923C91.6773 206.997 91.6703 207.123 91.7439 207.206L93.5395 209.216C93.6131 209.298 93.7394 209.305 93.8216 209.231L97.6678 205.781C97.7723 205.687 97.9382 205.727 97.9879 205.859L98.5374 207.312C98.5457 207.334 98.558 207.355 98.5737 207.372V207.372C98.6441 207.451 98.6374 207.572 98.5587 207.643L93.3831 212.286C93.3009 212.36 93.1746 212.353 93.101 212.271L91.2572 210.207C91.1837 210.124 91.0574 210.117 90.9751 210.191L88.1559 212.72C88.0977 212.772 88.0752 212.854 88.0982 212.929L89.0502 216.017C89.0732 216.092 89.0507 216.173 88.9925 216.225L87.4103 217.645ZM85.9092 205.421C85.8511 205.473 85.8286 205.554 85.8515 205.629L87.3801 210.609C87.4229 210.749 87.5957 210.797 87.7043 210.7L89.7723 208.844C89.8545 208.771 89.8615 208.644 89.7879 208.562L86.6382 205.036C86.5646 204.953 86.4383 204.946 86.3561 205.02L85.9092 205.421Z" fill="#112D43"/>
<path d="M102.325 204.264C102.243 204.338 102.117 204.331 102.043 204.248L95.6626 197.106C95.5891 197.023 95.4628 197.016 95.3805 197.09L93.5719 198.713C93.4929 198.784 93.3715 198.777 93.3008 198.698V198.698C93.2851 198.68 93.2663 198.666 93.2455 198.655L91.8674 197.945C91.7428 197.881 91.7211 197.712 91.8255 197.618L98.5092 191.622C98.6137 191.528 98.7795 191.569 98.8292 191.7L99.3783 193.153C99.3866 193.175 99.399 193.195 99.4147 193.213V193.213C99.4854 193.292 99.4786 193.414 99.3997 193.484L97.5901 195.108C97.5079 195.182 97.5009 195.308 97.5745 195.391L103.955 202.533C104.028 202.615 104.021 202.742 103.939 202.816L102.325 204.264Z" fill="#112D43"/>
<path d="M458.75 110C461.269 110 463.633 110.43 465.843 111.289C468.053 112.148 469.99 113.319 471.653 114.802C473.317 116.284 474.624 118.035 475.574 120.055C476.525 122.074 477 124.223 477 126.5C477 131.055 476.347 135.437 475.04 139.648C473.733 143.859 471.891 147.802 469.515 151.476C467.138 155.149 464.287 158.49 460.96 161.498C457.633 164.506 453.938 167.084 449.875 169.232C445.811 171.381 441.451 173.046 436.793 174.228C432.135 175.409 427.288 176 422.25 176C419.731 176 417.367 175.57 415.157 174.711C412.947 173.852 411.01 172.681 409.347 171.198C407.683 169.716 406.376 167.965 405.426 165.945C404.475 163.926 404 161.777 404 159.5C404 154.945 404.653 150.563 405.96 146.352C407.267 142.141 409.109 138.198 411.485 134.524C413.862 130.851 416.713 127.51 420.04 124.502C423.367 121.494 427.062 118.916 431.125 116.768C435.189 114.619 439.549 112.954 444.207 111.772C448.865 110.591 453.712 110 458.75 110ZM458.75 114.125C454.14 114.125 449.708 114.662 445.455 115.736C441.201 116.811 437.209 118.336 433.478 120.312C429.747 122.289 426.349 124.663 423.284 127.435C420.218 130.206 417.604 133.268 415.442 136.619C413.279 139.971 411.592 143.58 410.38 147.447C409.168 151.314 408.563 155.332 408.563 159.5C408.563 160.789 408.776 162.046 409.204 163.271C409.632 164.495 410.262 165.623 411.093 166.654L466.663 116.413C465.522 115.661 464.275 115.092 462.92 114.705C461.566 114.318 460.176 114.125 458.75 114.125ZM422.25 171.875C426.86 171.875 431.292 171.338 435.545 170.264C439.799 169.189 443.791 167.664 447.522 165.688C451.253 163.711 454.651 161.337 457.716 158.565C460.782 155.794 463.396 152.732 465.558 149.381C467.721 146.029 469.408 142.42 470.62 138.553C471.832 134.686 472.437 130.668 472.437 126.5C472.437 125.211 472.224 123.954 471.796 122.729C471.368 121.505 470.738 120.377 469.907 119.346L414.337 169.587C415.478 170.339 416.725 170.908 418.08 171.295C419.434 171.682 420.824 171.875 422.25 171.875Z" fill="#112D43"/>
<path d="M428.441 142.673C428.332 142.771 428.159 142.722 428.117 142.581L425.198 132.817C425.175 132.742 425.198 132.661 425.256 132.609L431.249 127.214C431.353 127.12 431.519 127.161 431.569 127.293L431.989 128.408C431.995 128.426 432.005 128.442 432.018 128.457V128.457C432.075 128.52 432.069 128.618 432.006 128.675L429.294 131.116C429.212 131.19 429.205 131.317 429.278 131.399L430.639 132.928C430.713 133.01 430.839 133.017 430.921 132.943L433.827 130.327C433.931 130.234 434.096 130.274 434.146 130.405L434.535 131.433C434.542 131.45 434.551 131.465 434.563 131.478V131.478C434.616 131.538 434.611 131.63 434.551 131.683L431.913 134.058C431.831 134.132 431.824 134.259 431.898 134.341L433.286 135.9C433.359 135.983 433.485 135.99 433.568 135.916L436.581 133.203C436.685 133.109 436.851 133.15 436.901 133.282L437.321 134.398C437.328 134.415 437.338 134.432 437.35 134.446V134.446C437.407 134.509 437.401 134.607 437.338 134.664L433.216 138.375C433.134 138.449 433.008 138.442 432.934 138.359L431.507 136.757C431.434 136.674 431.308 136.667 431.226 136.741L429.012 138.734C428.954 138.786 428.931 138.867 428.954 138.942L429.703 141.38C429.726 141.455 429.704 141.536 429.646 141.588L428.441 142.673ZM427.21 132.859C427.152 132.911 427.129 132.992 427.152 133.067L428.353 136.993C428.396 137.133 428.568 137.181 428.677 137.083L430.261 135.657C430.343 135.583 430.35 135.456 430.276 135.374L427.802 132.595C427.728 132.512 427.602 132.505 427.52 132.579L427.21 132.859Z" fill="#112D43"/>
<path d="M440.389 131.918C440.307 131.992 440.181 131.985 440.107 131.902L435.041 126.212C434.968 126.129 434.842 126.123 434.76 126.196L433.338 127.476C433.275 127.533 433.177 127.528 433.12 127.464V127.464C433.108 127.45 433.093 127.438 433.076 127.43L432.021 126.885C431.897 126.82 431.875 126.651 431.979 126.557L437.256 121.807C437.36 121.713 437.526 121.754 437.576 121.885L437.996 123.001C438.002 123.019 438.012 123.035 438.025 123.049V123.049C438.082 123.113 438.076 123.211 438.013 123.268L436.591 124.548C436.508 124.622 436.501 124.749 436.575 124.831L441.641 130.522C441.714 130.604 441.707 130.731 441.625 130.805L440.389 131.918Z" fill="#112D43"/>
<path d="M747.25 111C751.08 111 754.675 111.651 758.036 112.953C761.396 114.255 764.341 116.029 766.87 118.275C769.399 120.521 771.387 123.174 772.832 126.234C774.277 129.294 775 132.549 775 136C775 142.901 774.006 149.542 772.019 155.922C770.032 162.302 767.231 168.275 763.618 173.842C760.005 179.408 755.669 184.47 750.61 189.027C745.552 193.585 739.933 197.491 733.754 200.746C727.576 204.001 720.945 206.524 713.863 208.314C706.781 210.105 699.41 211 691.75 211C687.92 211 684.325 210.349 680.964 209.047C677.604 207.745 674.659 205.971 672.13 203.725C669.601 201.479 667.613 198.826 666.168 195.766C664.723 192.706 664 189.451 664 186C664 179.099 664.994 172.458 666.981 166.078C668.968 159.698 671.769 153.725 675.382 148.158C678.995 142.592 683.331 137.53 688.39 132.973C693.448 128.415 699.067 124.509 705.246 121.254C711.424 117.999 718.055 115.476 725.137 113.686C732.219 111.895 739.59 111 747.25 111ZM747.25 117.25C740.24 117.25 733.501 118.064 727.034 119.691C720.566 121.319 714.496 123.63 708.823 126.625C703.15 129.62 697.983 133.217 693.322 137.416C688.661 141.615 684.686 146.254 681.398 151.332C678.11 156.41 675.544 161.879 673.702 167.738C671.859 173.598 670.938 179.685 670.938 186C670.938 187.953 671.263 189.857 671.913 191.713C672.563 193.568 673.521 195.277 674.786 196.84L759.282 120.717C757.548 119.577 755.651 118.715 753.591 118.129C751.532 117.543 749.418 117.25 747.25 117.25ZM691.75 204.75C698.76 204.75 705.499 203.936 711.966 202.309C718.434 200.681 724.504 198.37 730.177 195.375C735.85 192.38 741.017 188.783 745.678 184.584C750.339 180.385 754.314 175.746 757.602 170.668C760.89 165.59 763.456 160.121 765.298 154.262C767.141 148.402 768.062 142.315 768.062 136C768.062 134.047 767.737 132.143 767.087 130.287C766.437 128.432 765.479 126.723 764.214 125.16L679.718 201.283C681.452 202.423 683.349 203.285 685.409 203.871C687.468 204.457 689.582 204.75 691.75 204.75Z" fill="#112D43"/>
<path d="M701.042 160.613C700.933 160.711 700.76 160.662 700.718 160.521L696.213 145.507C696.191 145.433 696.213 145.352 696.271 145.301L705.546 136.982C705.65 136.888 705.816 136.928 705.866 137.06L706.561 138.897C706.569 138.92 706.582 138.941 706.598 138.96L706.626 138.99C706.699 139.072 706.692 139.199 706.61 139.273L702.384 143.063C702.302 143.137 702.295 143.264 702.368 143.346L704.575 145.816C704.649 145.898 704.775 145.905 704.857 145.832L709.465 141.699C709.569 141.605 709.735 141.645 709.785 141.776L710.432 143.478C710.44 143.501 710.453 143.522 710.47 143.54L710.485 143.557C710.559 143.64 710.552 143.766 710.47 143.84L706.366 147.521C706.284 147.594 706.277 147.721 706.351 147.803L708.6 150.32C708.673 150.403 708.799 150.41 708.882 150.336L713.653 146.056C713.758 145.962 713.924 146.002 713.974 146.134L714.669 147.972C714.677 147.995 714.69 148.016 714.707 148.035L714.733 148.064C714.807 148.147 714.8 148.273 714.718 148.347L708.347 154.061C708.264 154.135 708.138 154.128 708.065 154.046L705.757 151.463C705.684 151.381 705.557 151.374 705.475 151.447L701.982 154.58C701.924 154.632 701.902 154.714 701.925 154.788L703.103 158.608C703.126 158.683 703.103 158.765 703.045 158.817L701.042 160.613ZM699.242 145.679C699.184 145.731 699.161 145.812 699.184 145.887L701.077 152.053C701.12 152.192 701.293 152.24 701.401 152.143L704.008 149.805C704.09 149.732 704.097 149.605 704.023 149.523L700.123 145.157C700.049 145.075 699.923 145.068 699.841 145.142L699.242 145.679Z" fill="#112D43"/>
<path d="M719.254 144.278C719.172 144.352 719.045 144.345 718.972 144.262L711.131 135.486C711.057 135.404 710.931 135.397 710.849 135.471L708.584 137.502C708.502 137.576 708.376 137.569 708.302 137.486L708.275 137.456C708.258 137.438 708.239 137.423 708.217 137.411L706.474 136.514C706.349 136.45 706.328 136.28 706.432 136.187L714.68 128.789C714.784 128.695 714.95 128.736 715 128.867L715.694 130.704C715.703 130.727 715.716 130.749 715.732 130.767L715.759 130.797C715.833 130.88 715.826 131.006 715.744 131.08L713.478 133.112C713.396 133.186 713.389 133.312 713.463 133.395L721.304 142.171C721.378 142.253 721.371 142.38 721.288 142.453L719.254 144.278Z" fill="#112D43"/>
<path d="M581.5 172C584.053 172 586.45 172.43 588.69 173.289C590.931 174.148 592.894 175.319 594.58 176.802C596.266 178.284 597.591 180.035 598.555 182.055C599.518 184.074 600 186.223 600 188.5C600 193.055 599.338 197.437 598.013 201.648C596.688 205.859 594.821 209.802 592.412 213.476C590.003 217.149 587.113 220.49 583.74 223.498C580.368 226.506 576.622 229.084 572.503 231.232C568.384 233.381 563.964 235.046 559.242 236.228C554.521 237.409 549.607 238 544.5 238C541.947 238 539.55 237.57 537.31 236.711C535.069 235.852 533.106 234.681 531.42 233.198C529.734 231.716 528.409 229.965 527.445 227.945C526.482 225.926 526 223.777 526 221.5C526 216.945 526.662 212.563 527.987 208.352C529.312 204.141 531.179 200.198 533.588 196.524C535.997 192.851 538.887 189.51 542.26 186.502C545.632 183.494 549.378 180.916 553.497 178.768C557.616 176.619 562.036 174.954 566.758 173.772C571.479 172.591 576.393 172 581.5 172ZM581.5 176.125C576.827 176.125 572.334 176.662 568.022 177.736C563.711 178.811 559.664 180.336 555.882 182.312C552.1 184.289 548.655 186.663 545.548 189.435C542.44 192.206 539.791 195.268 537.599 198.619C535.407 201.971 533.696 205.58 532.468 209.447C531.239 213.314 530.625 217.332 530.625 221.5C530.625 222.789 530.842 224.046 531.275 225.271C531.709 226.495 532.347 227.623 533.19 228.654L589.521 178.413C588.365 177.661 587.101 177.092 585.728 176.705C584.354 176.318 582.945 176.125 581.5 176.125ZM544.5 233.875C549.173 233.875 553.666 233.338 557.978 232.264C562.289 231.189 566.336 229.664 570.118 227.688C573.9 225.711 577.345 223.337 580.452 220.565C583.56 217.794 586.209 214.732 588.401 211.381C590.593 208.029 592.304 204.42 593.532 200.553C594.761 196.686 595.375 192.668 595.375 188.5C595.375 187.211 595.158 185.954 594.725 184.729C594.291 183.505 593.653 182.377 592.81 181.346L536.479 231.587C537.635 232.339 538.899 232.908 540.272 233.295C541.646 233.682 543.055 233.875 544.5 233.875Z" fill="#112D43"/>
<path d="M550.774 204.674C550.665 204.771 550.49 204.723 550.448 204.583L547.488 194.816C547.465 194.742 547.488 194.662 547.546 194.61L553.624 189.213C553.729 189.12 553.896 189.16 553.946 189.291L554.372 190.408C554.379 190.426 554.389 190.442 554.402 190.457V190.457C554.459 190.52 554.454 190.618 554.39 190.675L551.639 193.117C551.557 193.19 551.55 193.316 551.624 193.398L553.005 194.928C553.079 195.01 553.206 195.018 553.288 194.944L556.237 192.326C556.342 192.233 556.508 192.273 556.558 192.404L556.954 193.433C556.96 193.45 556.969 193.465 556.981 193.478V193.478C557.035 193.538 557.03 193.63 556.97 193.683L554.295 196.059C554.212 196.132 554.205 196.258 554.279 196.34L555.688 197.901C555.762 197.983 555.889 197.99 555.971 197.917L559.029 195.202C559.134 195.109 559.301 195.149 559.351 195.28L559.778 196.398C559.784 196.415 559.794 196.432 559.807 196.446V196.446C559.864 196.509 559.859 196.607 559.795 196.664L555.615 200.376C555.532 200.449 555.405 200.442 555.331 200.36L553.883 198.756C553.809 198.674 553.682 198.667 553.6 198.74L551.354 200.734C551.295 200.786 551.273 200.867 551.296 200.941L552.056 203.381C552.079 203.455 552.056 203.536 551.998 203.588L550.774 204.674ZM549.527 194.859C549.468 194.911 549.446 194.992 549.469 195.066L550.687 198.994C550.73 199.133 550.904 199.181 551.013 199.085L552.621 197.656C552.704 197.583 552.711 197.457 552.637 197.375L550.127 194.594C550.053 194.512 549.926 194.505 549.843 194.578L549.527 194.859Z" fill="#112D43"/>
<path d="M562.886 193.919C562.804 193.992 562.677 193.985 562.603 193.903L557.466 188.211C557.392 188.129 557.265 188.122 557.182 188.195L555.74 189.476C555.675 189.533 555.577 189.528 555.519 189.464V189.464C555.507 189.45 555.491 189.438 555.474 189.43L554.404 188.884C554.278 188.82 554.256 188.651 554.361 188.558L559.713 183.806C559.818 183.713 559.985 183.753 560.035 183.884L560.461 185.001C560.468 185.019 560.478 185.035 560.491 185.049V185.049C560.549 185.113 560.543 185.211 560.479 185.268L559.036 186.549C558.953 186.623 558.946 186.749 559.02 186.831L564.157 192.523C564.231 192.605 564.224 192.73 564.142 192.804L562.886 193.919Z" fill="#112D43"/>
<path d="M1240 235C1243.31 235 1246.42 235.566 1249.33 236.699C1252.23 237.832 1254.78 239.375 1256.97 241.33C1259.16 243.284 1260.87 245.592 1262.12 248.254C1263.37 250.916 1264 253.748 1264 256.75C1264 262.754 1263.14 268.531 1261.42 274.082C1259.7 279.633 1257.28 284.83 1254.16 289.672C1251.03 294.515 1247.28 298.919 1242.91 302.884C1238.53 306.849 1233.67 310.247 1228.33 313.079C1222.98 315.911 1217.25 318.106 1211.12 319.664C1205 321.221 1198.62 322 1192 322C1188.69 322 1185.58 321.434 1182.67 320.301C1179.77 319.168 1177.22 317.625 1175.03 315.67C1172.84 313.716 1171.12 311.408 1169.87 308.746C1168.62 306.084 1168 303.252 1168 300.25C1168 294.246 1168.86 288.469 1170.58 282.918C1172.3 277.367 1174.72 272.17 1177.84 267.328C1180.97 262.485 1184.72 258.081 1189.09 254.116C1193.47 250.151 1198.33 246.753 1203.67 243.921C1209.02 241.089 1214.75 238.894 1220.87 237.336C1227 235.779 1233.38 235 1240 235ZM1240 240.438C1233.94 240.438 1228.11 241.146 1222.52 242.562C1216.92 243.978 1211.67 245.988 1206.77 248.594C1201.86 251.199 1197.39 254.329 1193.36 257.982C1189.33 261.635 1185.89 265.671 1183.05 270.089C1180.2 274.507 1177.98 279.265 1176.39 284.362C1174.8 289.46 1174 294.756 1174 300.25C1174 301.949 1174.28 303.606 1174.84 305.22C1175.41 306.834 1176.23 308.321 1177.33 309.681L1250.41 243.454C1248.91 242.462 1247.27 241.712 1245.48 241.202C1243.7 240.692 1241.88 240.438 1240 240.438ZM1192 316.562C1198.06 316.562 1203.89 315.854 1209.48 314.438C1215.08 313.022 1220.33 311.012 1225.23 308.406C1230.14 305.801 1234.61 302.671 1238.64 299.018C1242.67 295.365 1246.11 291.329 1248.95 286.911C1251.8 282.493 1254.02 277.735 1255.61 272.638C1257.2 267.54 1258 262.244 1258 256.75C1258 255.051 1257.72 253.394 1257.16 251.78C1256.59 250.166 1255.77 248.679 1254.67 247.319L1181.59 313.546C1183.09 314.538 1184.73 315.288 1186.52 315.798C1188.3 316.308 1190.12 316.562 1192 316.562Z" fill="#112D43"/>
<path d="M1200.07 278.135C1199.96 278.233 1199.79 278.184 1199.74 278.044L1195.86 265.038C1195.84 264.963 1195.87 264.882 1195.92 264.83L1203.9 257.63C1204.01 257.536 1204.17 257.576 1204.22 257.708L1204.81 259.266C1204.82 259.289 1204.83 259.31 1204.85 259.329L1204.85 259.332C1204.92 259.414 1204.91 259.541 1204.83 259.615L1201.22 262.877C1201.13 262.951 1201.13 263.078 1201.2 263.161L1203.07 265.27C1203.15 265.353 1203.27 265.36 1203.36 265.286L1207.29 261.734C1207.4 261.64 1207.56 261.68 1207.61 261.812L1208.16 263.253C1208.16 263.274 1208.18 263.295 1208.19 263.312V263.312C1208.26 263.391 1208.26 263.512 1208.18 263.583L1204.66 266.755C1204.58 266.829 1204.57 266.956 1204.65 267.039L1206.56 269.189C1206.63 269.271 1206.75 269.278 1206.84 269.204L1210.91 265.524C1211.02 265.43 1211.18 265.471 1211.23 265.603L1211.82 267.161C1211.83 267.184 1211.84 267.205 1211.86 267.224L1211.86 267.226C1211.93 267.309 1211.93 267.436 1211.84 267.51L1206.37 272.445C1206.29 272.519 1206.17 272.513 1206.09 272.43L1204.13 270.223C1204.06 270.14 1203.93 270.133 1203.85 270.207L1200.86 272.903C1200.8 272.956 1200.78 273.037 1200.8 273.112L1201.81 276.403C1201.84 276.478 1201.81 276.56 1201.76 276.612L1200.07 278.135ZM1198.49 265.159C1198.43 265.211 1198.41 265.293 1198.43 265.368L1200.05 270.676C1200.1 270.816 1200.27 270.864 1200.38 270.767L1202.58 268.778C1202.66 268.704 1202.67 268.578 1202.6 268.495L1199.26 264.736C1199.19 264.654 1199.06 264.647 1198.98 264.721L1198.49 265.159Z" fill="#112D43"/>
<path d="M1215.81 263.934C1215.72 264.008 1215.6 264.001 1215.53 263.918L1208.78 256.323C1208.71 256.24 1208.58 256.233 1208.5 256.307L1206.58 258.039C1206.5 258.113 1206.37 258.106 1206.3 258.023L1206.29 258.02C1206.28 258.002 1206.26 257.987 1206.24 257.976L1204.77 257.215C1204.64 257.15 1204.62 256.981 1204.73 256.887L1211.8 250.502C1211.91 250.408 1212.07 250.449 1212.12 250.58L1212.71 252.138C1212.72 252.161 1212.73 252.183 1212.74 252.201L1212.75 252.204C1212.82 252.286 1212.81 252.413 1212.73 252.487L1210.81 254.22C1210.73 254.294 1210.72 254.421 1210.8 254.503L1217.54 262.099C1217.62 262.181 1217.61 262.308 1217.53 262.382L1215.81 263.934Z" fill="#112D43"/>
<path d="M1251 119C1252.93 119 1254.75 119.332 1256.44 119.996C1258.14 120.66 1259.62 121.565 1260.9 122.71C1262.17 123.856 1263.18 125.209 1263.91 126.77C1264.64 128.33 1265 129.99 1265 131.75C1265 135.27 1264.5 138.656 1263.5 141.91C1262.49 145.164 1261.08 148.21 1259.26 151.049C1257.43 153.888 1255.25 156.47 1252.7 158.794C1250.14 161.118 1247.31 163.11 1244.19 164.771C1241.07 166.431 1237.73 167.717 1234.16 168.63C1230.58 169.543 1226.86 170 1223 170C1221.07 170 1219.25 169.668 1217.56 169.004C1215.86 168.34 1214.38 167.435 1213.1 166.29C1211.83 165.144 1210.82 163.791 1210.09 162.23C1209.36 160.67 1209 159.01 1209 157.25C1209 153.73 1209.5 150.344 1210.5 147.09C1211.51 143.836 1212.92 140.79 1214.74 137.951C1216.57 135.112 1218.75 132.53 1221.3 130.206C1223.86 127.882 1226.69 125.89 1229.81 124.229C1232.93 122.569 1236.27 121.283 1239.84 120.37C1243.42 119.457 1247.14 119 1251 119ZM1251 122.188C1247.46 122.188 1244.06 122.603 1240.8 123.433C1237.54 124.263 1234.48 125.441 1231.61 126.969C1228.75 128.496 1226.14 130.331 1223.79 132.472C1221.44 134.614 1219.44 136.979 1217.78 139.569C1216.12 142.159 1214.82 144.948 1213.89 147.937C1212.96 150.925 1212.5 154.029 1212.5 157.25C1212.5 158.246 1212.66 159.217 1212.99 160.164C1213.32 161.11 1213.8 161.981 1214.44 162.778L1257.07 123.956C1256.2 123.375 1255.24 122.935 1254.2 122.636C1253.16 122.337 1252.09 122.188 1251 122.188ZM1223 166.812C1226.54 166.812 1229.94 166.397 1233.2 165.567C1236.46 164.737 1239.52 163.559 1242.39 162.031C1245.25 160.504 1247.86 158.669 1250.21 156.528C1252.56 154.386 1254.56 152.021 1256.22 149.431C1257.88 146.841 1259.18 144.052 1260.11 141.063C1261.04 138.075 1261.5 134.971 1261.5 131.75C1261.5 130.754 1261.34 129.783 1261.01 128.836C1260.68 127.89 1260.2 127.019 1259.56 126.222L1216.93 165.044C1217.8 165.625 1218.76 166.065 1219.8 166.364C1220.84 166.663 1221.91 166.812 1223 166.812Z" fill="#112D43"/>
<path d="M1227.8 144.198C1227.69 144.297 1227.52 144.248 1227.48 144.107L1225.27 136.659C1225.25 136.584 1225.27 136.503 1225.33 136.451L1229.85 132.347C1229.96 132.253 1230.12 132.293 1230.17 132.425L1230.47 133.225C1230.48 133.238 1230.48 133.251 1230.49 133.262V133.262C1230.54 133.311 1230.53 133.387 1230.48 133.431L1228.44 135.286C1228.36 135.36 1228.35 135.488 1228.42 135.57L1229.41 136.682C1229.48 136.765 1229.6 136.772 1229.69 136.698L1231.83 134.753C1231.94 134.658 1232.1 134.699 1232.15 134.831L1232.42 135.562C1232.43 135.575 1232.44 135.587 1232.45 135.597V135.597C1232.49 135.643 1232.48 135.714 1232.44 135.755L1230.45 137.559C1230.37 137.634 1230.36 137.761 1230.43 137.844L1231.44 138.98C1231.51 139.062 1231.63 139.069 1231.72 138.995L1233.94 136.975C1234.05 136.881 1234.21 136.921 1234.26 137.053L1234.56 137.853C1234.57 137.866 1234.57 137.879 1234.58 137.89V137.89C1234.63 137.939 1234.62 138.014 1234.57 138.058L1231.45 140.895C1231.36 140.969 1231.24 140.962 1231.17 140.879L1230.13 139.71C1230.06 139.627 1229.93 139.62 1229.85 139.694L1228.21 141.183C1228.15 141.236 1228.13 141.318 1228.15 141.393L1228.71 143.22C1228.73 143.295 1228.71 143.377 1228.65 143.429L1227.8 144.198ZM1226.83 136.644C1226.77 136.696 1226.75 136.778 1226.77 136.853L1227.66 139.789C1227.7 139.929 1227.88 139.978 1227.98 139.88L1229.11 138.857C1229.19 138.783 1229.2 138.656 1229.13 138.573L1227.29 136.494C1227.22 136.411 1227.09 136.404 1227.01 136.478L1226.83 136.644Z" fill="#112D43"/>
<path d="M1236.95 135.906C1236.87 135.98 1236.74 135.973 1236.67 135.89L1232.84 131.562C1232.77 131.479 1232.64 131.472 1232.56 131.546L1231.51 132.504C1231.46 132.548 1231.38 132.544 1231.34 132.495V132.495C1231.33 132.484 1231.32 132.475 1231.3 132.468L1230.55 132.078C1230.43 132.013 1230.41 131.843 1230.51 131.749L1234.46 128.169C1234.57 128.074 1234.73 128.115 1234.78 128.247L1235.08 129.046C1235.08 129.06 1235.09 129.073 1235.1 129.084V129.084C1235.14 129.133 1235.14 129.208 1235.09 129.253L1234.04 130.211C1233.95 130.285 1233.95 130.412 1234.02 130.495L1237.84 134.823C1237.92 134.906 1237.91 135.033 1237.83 135.107L1236.95 135.906Z" fill="#112D43"/>
</svg>
