<svg width="1280" height="720" viewBox="0 0 1280 720" fill="none" xmlns="http://www.w3.org/2000/svg">
<g clip-path="url(#clip0_1_3)">
<rect width="1280" height="720" fill="#182534"/>
<path d="M1061.91 102.503C1074.88 102.503 1087.06 104.704 1098.44 109.106C1109.82 113.507 1119.79 119.504 1128.36 127.097C1136.93 134.69 1143.66 143.659 1148.55 154.002C1153.45 164.346 1155.9 175.351 1155.9 187.015C1155.9 210.344 1152.53 232.792 1145.8 254.36C1139.07 275.929 1129.58 296.121 1117.35 314.938C1105.11 333.755 1090.42 350.867 1073.29 366.273C1056.15 381.678 1037.12 394.883 1016.2 405.888C995.269 416.892 972.812 425.42 948.825 431.472C924.838 437.525 899.871 440.551 873.926 440.551C860.954 440.551 848.777 438.35 837.395 433.948C826.013 429.547 816.039 423.549 807.472 415.956C798.905 408.364 792.174 399.395 787.279 389.051C782.384 378.707 779.936 367.703 779.936 356.039C779.936 332.71 783.302 310.261 790.033 288.693C796.764 267.125 806.248 246.933 818.487 228.115C830.725 209.298 845.411 192.187 862.545 176.781C879.678 161.375 898.709 148.17 919.636 137.166C940.564 126.162 963.021 117.634 987.008 111.581C1011 105.529 1035.96 102.503 1061.91 102.503ZM1061.91 123.631C1038.16 123.631 1015.34 126.382 993.433 131.884C971.527 137.386 950.966 145.199 931.752 155.323C912.538 165.447 895.037 177.606 879.25 191.802C863.463 205.997 850 221.678 838.864 238.845C827.727 256.011 819.037 274.498 812.796 294.305C806.554 314.113 803.434 334.691 803.434 356.039C803.434 362.641 804.535 369.079 806.738 375.351C808.941 381.623 812.184 387.401 816.467 392.683L1102.66 135.35C1096.79 131.499 1090.36 128.583 1083.38 126.602C1076.41 124.621 1069.25 123.631 1061.91 123.631ZM873.926 419.423C897.669 419.423 920.493 416.672 942.4 411.17C964.306 405.668 984.867 397.855 1004.08 387.731C1023.29 377.607 1040.8 365.447 1056.58 351.252C1072.37 337.057 1085.83 321.376 1096.97 304.209C1108.11 287.043 1116.8 268.556 1123.04 248.748C1129.28 228.941 1132.4 208.363 1132.4 187.015C1132.4 180.412 1131.3 173.975 1129.09 167.703C1126.89 161.43 1123.65 155.653 1119.37 150.371L833.173 407.703C839.047 411.555 845.472 414.471 852.448 416.452C859.424 418.432 866.583 419.423 873.926 419.423Z" fill="#112D43"/>
<path d="M904.841 270.718C904.732 270.816 904.559 270.767 904.517 270.627L888.955 218.864C888.933 218.79 888.956 218.709 889.014 218.657L921.171 189.87C921.276 189.776 921.442 189.816 921.491 189.948L924.121 196.892C924.13 196.915 924.143 196.936 924.159 196.954L924.628 197.478C924.702 197.56 924.695 197.687 924.613 197.76L909.588 211.21C909.506 211.284 909.499 211.411 909.573 211.493L917.683 220.553C917.757 220.635 917.883 220.642 917.966 220.568L934.444 205.816C934.549 205.723 934.714 205.763 934.764 205.894L937.233 212.375C937.242 212.398 937.255 212.419 937.271 212.438L937.701 212.918C937.775 213 937.768 213.127 937.686 213.2L923.077 226.278C922.995 226.352 922.988 226.478 923.062 226.561L931.314 235.779C931.388 235.862 931.514 235.869 931.597 235.795L948.632 220.545C948.736 220.451 948.902 220.492 948.952 220.623L951.584 227.569C951.593 227.592 951.606 227.613 951.622 227.631L952.089 228.153C952.163 228.235 952.156 228.362 952.073 228.435L929.785 248.389C929.702 248.462 929.576 248.455 929.502 248.373L921.051 238.932C920.977 238.85 920.851 238.843 920.768 238.917L908.356 250.029C908.298 250.081 908.275 250.162 908.298 250.237L912.468 263.734C912.491 263.809 912.469 263.89 912.41 263.942L904.841 270.718ZM899.074 219.937C899.016 219.989 898.994 220.07 899.017 220.145L905.737 241.992C905.78 242.132 905.953 242.18 906.061 242.083L915.799 233.365C915.881 233.292 915.888 233.165 915.814 233.083L901.967 217.615C901.894 217.533 901.767 217.526 901.685 217.6L899.074 219.937Z" fill="#112D43"/>
<path d="M966.728 215.316C966.646 215.39 966.519 215.383 966.446 215.301L939.252 184.924C939.178 184.841 939.051 184.834 938.969 184.908L930.589 192.41C930.506 192.484 930.38 192.477 930.306 192.395L929.837 191.871C929.821 191.853 929.802 191.838 929.78 191.827L923.18 188.436C923.055 188.371 923.033 188.202 923.138 188.109L952.108 162.174C952.213 162.081 952.379 162.121 952.428 162.252L955.058 169.196C955.067 169.219 955.08 169.241 955.096 169.259L955.565 169.783C955.639 169.865 955.632 169.991 955.55 170.065L947.166 177.57C947.084 177.644 947.077 177.77 947.15 177.853L974.344 208.23C974.418 208.312 974.411 208.438 974.329 208.512L966.728 215.316Z" fill="#112D43"/>
<path d="M325.5 107C329.434 107 333.126 107.671 336.577 109.012C340.028 110.353 343.053 112.18 345.65 114.494C348.248 116.807 350.289 119.54 351.773 122.691C353.258 125.843 354 129.196 354 132.75C354 139.858 352.979 146.698 350.938 153.27C348.897 159.841 346.021 165.994 342.311 171.727C338.6 177.46 334.146 182.674 328.951 187.368C323.756 192.062 317.985 196.086 311.64 199.438C305.294 202.791 298.484 205.39 291.211 207.234C283.938 209.078 276.367 210 268.5 210C264.566 210 260.874 209.329 257.423 207.988C253.972 206.647 250.947 204.82 248.35 202.506C245.752 200.193 243.711 197.46 242.227 194.309C240.742 191.157 240 187.804 240 184.25C240 177.142 241.021 170.302 243.062 163.73C245.103 157.159 247.979 151.006 251.689 145.273C255.4 139.54 259.854 134.326 265.049 129.632C270.244 124.938 276.015 120.914 282.36 117.562C288.706 114.209 295.516 111.61 302.789 109.766C310.062 107.922 317.633 107 325.5 107ZM325.5 113.437C318.301 113.437 311.38 114.276 304.737 115.952C298.095 117.629 291.86 120.009 286.034 123.094C280.208 126.178 274.901 129.883 270.114 134.208C265.327 138.534 261.245 143.312 257.868 148.542C254.491 153.772 251.856 159.405 249.964 165.44C248.071 171.476 247.125 177.745 247.125 184.25C247.125 186.262 247.459 188.223 248.127 190.134C248.795 192.045 249.778 193.806 251.077 195.415L337.857 117.008C336.076 115.835 334.128 114.946 332.013 114.343C329.897 113.739 327.727 113.437 325.5 113.437ZM268.5 203.562C275.699 203.562 282.62 202.724 289.263 201.048C295.905 199.371 302.14 196.991 307.966 193.906C313.792 190.822 319.099 187.117 323.886 182.792C328.673 178.466 332.755 173.688 336.132 168.458C339.509 163.228 342.144 157.595 344.036 151.56C345.929 145.524 346.875 139.255 346.875 132.75C346.875 130.738 346.541 128.777 345.873 126.866C345.205 124.955 344.222 123.194 342.923 121.585L256.143 199.992C257.924 201.165 259.872 202.054 261.987 202.657C264.103 203.261 266.273 203.562 268.5 203.562Z" fill="#112D43"/>
<path d="M278.037 158.107C277.928 158.205 277.755 158.156 277.713 158.016L273.083 142.539C273.06 142.465 273.083 142.384 273.141 142.332L282.675 133.755C282.779 133.662 282.945 133.702 282.995 133.834L283.711 135.735C283.72 135.758 283.733 135.779 283.749 135.798L283.781 135.834C283.855 135.917 283.848 136.043 283.766 136.117L279.417 140.029C279.335 140.103 279.328 140.23 279.401 140.312L281.676 142.865C281.749 142.947 281.875 142.954 281.957 142.88L286.7 138.614C286.804 138.52 286.97 138.561 287.019 138.692L287.687 140.453C287.696 140.476 287.709 140.497 287.725 140.515L287.746 140.538C287.819 140.621 287.812 140.748 287.73 140.822L283.507 144.62C283.425 144.694 283.418 144.821 283.492 144.903L285.809 147.504C285.882 147.587 286.008 147.594 286.091 147.52L291.002 143.102C291.106 143.008 291.272 143.048 291.321 143.18L292.039 145.082C292.047 145.105 292.06 145.126 292.076 145.145L292.108 145.18C292.182 145.263 292.175 145.39 292.093 145.464L285.541 151.357C285.459 151.431 285.333 151.424 285.259 151.341L282.882 148.673C282.808 148.59 282.682 148.583 282.6 148.657L279.006 151.89C278.948 151.942 278.926 152.024 278.949 152.099L280.161 156.04C280.184 156.115 280.161 156.197 280.103 156.249L278.037 158.107ZM276.192 142.721C276.134 142.774 276.111 142.855 276.134 142.93L278.082 149.293C278.125 149.433 278.297 149.481 278.406 149.383L281.093 146.966C281.175 146.892 281.182 146.765 281.109 146.683L277.095 142.178C277.022 142.095 276.896 142.088 276.814 142.162L276.192 142.721Z" fill="#112D43"/>
<path d="M296.743 141.28C296.661 141.354 296.535 141.347 296.461 141.264L288.401 132.217C288.327 132.134 288.201 132.127 288.119 132.201L285.785 134.301C285.703 134.375 285.577 134.368 285.503 134.285L285.471 134.249C285.454 134.231 285.435 134.215 285.413 134.204L283.614 133.276C283.49 133.211 283.468 133.042 283.573 132.948L292.056 125.317C292.16 125.223 292.326 125.264 292.375 125.395L293.092 127.297C293.101 127.32 293.114 127.341 293.13 127.359L293.162 127.396C293.236 127.478 293.229 127.605 293.147 127.679L290.811 129.779C290.729 129.853 290.722 129.98 290.796 130.062L298.857 139.11C298.93 139.192 298.923 139.319 298.841 139.393L296.743 141.28Z" fill="#112D43"/>
<path d="M125.25 177C128.39 177 131.337 177.534 134.092 178.602C136.847 179.669 139.261 181.124 141.335 182.966C143.409 184.808 145.038 186.983 146.223 189.492C147.408 192.001 148 194.671 148 197.5C148 203.159 147.185 208.604 145.556 213.836C143.927 219.068 141.631 223.966 138.669 228.53C135.707 233.095 132.152 237.245 128.005 240.982C123.858 244.719 119.251 247.923 114.186 250.592C109.121 253.261 103.685 255.33 97.8789 256.798C92.0729 258.266 86.0299 259 79.75 259C76.61 259 73.6626 258.466 70.9077 257.398C68.1528 256.331 65.7386 254.876 63.665 253.034C61.5915 251.192 59.9622 249.017 58.7773 246.508C57.5924 243.999 57 241.329 57 238.5C57 232.841 57.8146 227.396 59.4438 222.164C61.0731 216.932 63.3688 212.034 66.3311 207.47C69.2933 202.905 72.848 198.755 76.9951 195.018C81.1423 191.281 85.7485 188.077 90.814 185.408C95.8794 182.739 101.315 180.67 107.121 179.202C112.927 177.734 118.97 177 125.25 177ZM125.25 182.125C119.503 182.125 113.979 182.792 108.676 184.127C103.374 185.462 98.3973 187.357 93.7466 189.812C89.0959 192.268 84.8599 195.218 81.0386 198.661C77.2173 202.104 73.9588 205.908 71.2632 210.072C68.5675 214.236 66.4644 218.721 64.9536 223.525C63.4429 228.33 62.6875 233.322 62.6875 238.5C62.6875 240.102 62.9541 241.663 63.4873 243.185C64.0205 244.706 64.8055 246.107 65.8423 247.389L135.114 184.968C133.692 184.034 132.137 183.326 130.449 182.846C128.76 182.365 127.027 182.125 125.25 182.125ZM79.75 253.875C85.4967 253.875 91.0213 253.208 96.3237 251.873C101.626 250.538 106.603 248.643 111.253 246.188C115.904 243.732 120.14 240.782 123.961 237.339C127.783 233.896 131.041 230.092 133.737 225.928C136.432 221.764 138.536 217.279 140.046 212.475C141.557 207.67 142.312 202.678 142.312 197.5C142.312 195.898 142.046 194.337 141.513 192.815C140.979 191.294 140.194 189.893 139.158 188.611L69.8857 251.032C71.3076 251.966 72.8628 252.674 74.5513 253.154C76.2397 253.635 77.9727 253.875 79.75 253.875Z" fill="#112D43"/>
<path d="M87.4103 217.645C87.3013 217.742 87.1278 217.694 87.0857 217.553L83.4154 205.318C83.3931 205.244 83.4157 205.163 83.4735 205.111L91.021 198.34C91.1255 198.246 91.2913 198.287 91.341 198.418L91.8901 199.871C91.8984 199.893 91.9108 199.913 91.9265 199.931V199.931C91.9972 200.01 91.9905 200.132 91.9115 200.202L88.4946 203.268C88.4124 203.342 88.4054 203.468 88.479 203.551L90.2402 205.522C90.3138 205.605 90.4401 205.612 90.5223 205.538L94.234 202.208C94.3384 202.114 94.5041 202.154 94.554 202.286L95.0646 203.629C95.0724 203.649 95.084 203.668 95.0987 203.685V203.685C95.165 203.759 95.1587 203.873 95.0846 203.94L91.7596 206.923C91.6773 206.997 91.6703 207.123 91.7439 207.206L93.5395 209.216C93.6131 209.298 93.7394 209.305 93.8216 209.231L97.6678 205.781C97.7723 205.687 97.9382 205.727 97.9879 205.859L98.5374 207.312C98.5457 207.334 98.558 207.355 98.5737 207.372V207.372C98.6441 207.451 98.6374 207.572 98.5587 207.643L93.3831 212.286C93.3009 212.36 93.1746 212.353 93.101 212.271L91.2572 210.207C91.1837 210.124 91.0574 210.117 90.9751 210.191L88.1559 212.72C88.0977 212.772 88.0752 212.854 88.0982 212.929L89.0502 216.017C89.0732 216.092 89.0507 216.173 88.9925 216.225L87.4103 217.645ZM85.9092 205.421C85.8511 205.473 85.8286 205.554 85.8515 205.629L87.3801 210.609C87.4229 210.749 87.5957 210.797 87.7043 210.7L89.7723 208.844C89.8545 208.771 89.8615 208.644 89.7879 208.562L86.6382 205.036C86.5646 204.953 86.4383 204.946 86.3561 205.02L85.9092 205.421Z" fill="#112D43"/>
<path d="M102.325 204.264C102.243 204.338 102.117 204.331 102.043 204.248L95.6626 197.106C95.5891 197.023 95.4628 197.016 95.3805 197.09L93.5719 198.713C93.4929 198.784 93.3715 198.777 93.3008 198.698V198.698C93.2851 198.68 93.2663 198.666 93.2455 198.655L91.8674 197.945C91.7428 197.881 91.7211 197.712 91.8255 197.618L98.5092 191.622C98.6137 191.528 98.7795 191.569 98.8292 191.7L99.3783 193.153C99.3866 193.175 99.399 193.195 99.4147 193.213V193.213C99.4854 193.292 99.4786 193.414 99.3997 193.484L97.5901 195.108C97.5079 195.182 97.5009 195.308 97.5745 195.391L103.955 202.533C104.028 202.615 104.021 202.742 103.939 202.816L102.325 204.264Z" fill="#112D43"/>
<path d="M458.75 153C461.269 153 463.633 153.43 465.843 154.289C468.053 155.148 469.99 156.319 471.653 157.802C473.317 159.284 474.624 161.035 475.574 163.055C476.525 165.074 477 167.223 477 169.5C477 174.055 476.347 178.437 475.04 182.648C473.733 186.859 471.891 190.802 469.515 194.476C467.138 198.149 464.287 201.49 460.96 204.498C457.633 207.506 453.938 210.084 449.875 212.232C445.811 214.381 441.451 216.046 436.793 217.228C432.135 218.409 427.288 219 422.25 219C419.731 219 417.367 218.57 415.157 217.711C412.947 216.852 411.01 215.681 409.347 214.198C407.683 212.716 406.376 210.965 405.426 208.945C404.475 206.926 404 204.777 404 202.5C404 197.945 404.653 193.563 405.96 189.352C407.267 185.141 409.109 181.198 411.485 177.524C413.862 173.851 416.713 170.51 420.04 167.502C423.367 164.494 427.062 161.916 431.125 159.768C435.189 157.619 439.549 155.954 444.207 154.772C448.865 153.591 453.712 153 458.75 153ZM458.75 157.125C454.14 157.125 449.708 157.662 445.455 158.736C441.201 159.811 437.209 161.336 433.478 163.312C429.747 165.289 426.349 167.663 423.284 170.435C420.218 173.206 417.604 176.268 415.442 179.619C413.279 182.971 411.592 186.58 410.38 190.447C409.168 194.314 408.563 198.332 408.563 202.5C408.563 203.789 408.776 205.046 409.204 206.271C409.632 207.495 410.262 208.623 411.093 209.654L466.663 159.413C465.522 158.661 464.275 158.092 462.92 157.705C461.566 157.318 460.176 157.125 458.75 157.125ZM422.25 214.875C426.86 214.875 431.292 214.338 435.545 213.264C439.799 212.189 443.791 210.664 447.522 208.688C451.253 206.711 454.651 204.337 457.716 201.565C460.782 198.794 463.396 195.732 465.558 192.381C467.721 189.029 469.408 185.42 470.62 181.553C471.832 177.686 472.437 173.668 472.437 169.5C472.437 168.211 472.224 166.954 471.796 165.729C471.368 164.505 470.738 163.377 469.907 162.346L414.337 212.587C415.478 213.339 416.725 213.908 418.08 214.295C419.434 214.682 420.824 214.875 422.25 214.875Z" fill="#112D43"/>
<path d="M428.441 185.673C428.332 185.771 428.159 185.722 428.117 185.581L425.198 175.817C425.175 175.742 425.198 175.661 425.256 175.609L431.249 170.214C431.353 170.12 431.519 170.161 431.569 170.293L431.989 171.408C431.995 171.426 432.005 171.442 432.018 171.457V171.457C432.075 171.52 432.069 171.618 432.006 171.675L429.294 174.116C429.212 174.19 429.205 174.317 429.278 174.399L430.639 175.928C430.713 176.01 430.839 176.017 430.921 175.943L433.827 173.327C433.931 173.234 434.096 173.274 434.146 173.405L434.535 174.433C434.542 174.45 434.551 174.465 434.563 174.478V174.478C434.616 174.538 434.611 174.63 434.551 174.683L431.913 177.058C431.831 177.132 431.824 177.259 431.898 177.341L433.286 178.9C433.359 178.983 433.485 178.99 433.568 178.916L436.581 176.203C436.685 176.109 436.851 176.15 436.901 176.282L437.321 177.398C437.328 177.415 437.338 177.432 437.35 177.446V177.446C437.407 177.509 437.401 177.607 437.338 177.664L433.216 181.375C433.134 181.449 433.008 181.442 432.934 181.359L431.507 179.757C431.434 179.674 431.308 179.667 431.226 179.741L429.012 181.734C428.954 181.786 428.931 181.867 428.954 181.942L429.703 184.38C429.726 184.455 429.704 184.536 429.646 184.588L428.441 185.673ZM427.21 175.859C427.152 175.911 427.129 175.992 427.152 176.067L428.353 179.993C428.396 180.133 428.568 180.181 428.677 180.083L430.261 178.657C430.343 178.583 430.35 178.456 430.276 178.374L427.802 175.595C427.728 175.512 427.602 175.505 427.52 175.579L427.21 175.859Z" fill="#112D43"/>
<path d="M440.389 174.918C440.307 174.992 440.181 174.985 440.107 174.902L435.041 169.212C434.968 169.129 434.842 169.123 434.76 169.196L433.338 170.476C433.275 170.533 433.177 170.528 433.12 170.464V170.464C433.108 170.45 433.093 170.438 433.076 170.43L432.021 169.885C431.897 169.82 431.875 169.651 431.979 169.557L437.256 164.807C437.36 164.713 437.526 164.754 437.576 164.885L437.996 166.001C438.002 166.019 438.012 166.035 438.025 166.049V166.049C438.082 166.113 438.076 166.211 438.013 166.268L436.591 167.548C436.508 167.622 436.501 167.749 436.575 167.831L441.641 173.522C441.714 173.604 441.707 173.731 441.625 173.805L440.389 174.918Z" fill="#112D43"/>
<path d="M738.25 177C742.08 177 745.675 177.651 749.036 178.953C752.396 180.255 755.341 182.029 757.87 184.275C760.399 186.521 762.387 189.174 763.832 192.234C765.277 195.294 766 198.549 766 202C766 208.901 765.006 215.542 763.019 221.922C761.032 228.302 758.231 234.275 754.618 239.842C751.005 245.408 746.669 250.47 741.61 255.027C736.552 259.585 730.933 263.491 724.754 266.746C718.576 270.001 711.945 272.524 704.863 274.314C697.781 276.105 690.41 277 682.75 277C678.92 277 675.325 276.349 671.964 275.047C668.604 273.745 665.659 271.971 663.13 269.725C660.601 267.479 658.613 264.826 657.168 261.766C655.723 258.706 655 255.451 655 252C655 245.099 655.994 238.458 657.981 232.078C659.968 225.698 662.769 219.725 666.382 214.158C669.995 208.592 674.331 203.53 679.39 198.973C684.448 194.415 690.067 190.509 696.246 187.254C702.424 183.999 709.055 181.476 716.137 179.686C723.219 177.895 730.59 177 738.25 177ZM738.25 183.25C731.24 183.25 724.501 184.064 718.034 185.691C711.566 187.319 705.496 189.63 699.823 192.625C694.15 195.62 688.983 199.217 684.322 203.416C679.661 207.615 675.686 212.254 672.398 217.332C669.11 222.41 666.544 227.879 664.702 233.738C662.859 239.598 661.938 245.685 661.938 252C661.938 253.953 662.263 255.857 662.913 257.713C663.563 259.568 664.521 261.277 665.786 262.84L750.282 186.717C748.548 185.577 746.651 184.715 744.591 184.129C742.532 183.543 740.418 183.25 738.25 183.25ZM682.75 270.75C689.76 270.75 696.499 269.936 702.966 268.309C709.434 266.681 715.504 264.37 721.177 261.375C726.85 258.38 732.017 254.783 736.678 250.584C741.339 246.385 745.314 241.746 748.602 236.668C751.89 231.59 754.456 226.121 756.298 220.262C758.141 214.402 759.062 208.315 759.062 202C759.062 200.047 758.737 198.143 758.087 196.287C757.437 194.432 756.479 192.723 755.214 191.16L670.718 267.283C672.452 268.423 674.349 269.285 676.409 269.871C678.468 270.457 680.582 270.75 682.75 270.75Z" fill="#112D43"/>
<path d="M692.042 226.613C691.933 226.711 691.76 226.662 691.718 226.521L687.213 211.507C687.191 211.433 687.213 211.352 687.271 211.301L696.546 202.982C696.65 202.888 696.816 202.928 696.866 203.06L697.561 204.897C697.569 204.92 697.582 204.941 697.598 204.96L697.626 204.99C697.699 205.072 697.692 205.199 697.61 205.273L693.384 209.063C693.302 209.137 693.295 209.264 693.368 209.346L695.575 211.816C695.649 211.898 695.775 211.905 695.857 211.832L700.465 207.699C700.569 207.605 700.735 207.645 700.785 207.776L701.432 209.478C701.44 209.501 701.453 209.522 701.47 209.54L701.485 209.557C701.559 209.64 701.552 209.766 701.47 209.84L697.366 213.521C697.284 213.594 697.277 213.721 697.351 213.803L699.6 216.32C699.673 216.403 699.799 216.41 699.882 216.336L704.653 212.056C704.758 211.962 704.924 212.002 704.974 212.134L705.669 213.972C705.677 213.995 705.69 214.016 705.707 214.035L705.733 214.064C705.807 214.147 705.8 214.273 705.718 214.347L699.347 220.061C699.264 220.135 699.138 220.128 699.065 220.046L696.757 217.463C696.684 217.381 696.557 217.374 696.475 217.447L692.982 220.58C692.924 220.632 692.902 220.714 692.925 220.788L694.103 224.608C694.126 224.683 694.103 224.765 694.045 224.817L692.042 226.613ZM690.242 211.679C690.184 211.731 690.161 211.812 690.184 211.887L692.077 218.053C692.12 218.192 692.293 218.24 692.401 218.143L695.008 215.805C695.09 215.732 695.097 215.605 695.023 215.523L691.123 211.157C691.049 211.075 690.923 211.068 690.841 211.142L690.242 211.679Z" fill="#112D43"/>
<path d="M710.254 210.278C710.172 210.352 710.045 210.345 709.972 210.262L702.131 201.486C702.057 201.404 701.931 201.397 701.849 201.471L699.584 203.502C699.502 203.576 699.376 203.569 699.302 203.486L699.275 203.456C699.258 203.438 699.239 203.423 699.217 203.411L697.474 202.514C697.349 202.45 697.328 202.28 697.432 202.187L705.68 194.789C705.784 194.695 705.95 194.736 706 194.867L706.694 196.704C706.703 196.727 706.716 196.749 706.732 196.767L706.759 196.797C706.833 196.88 706.826 197.006 706.744 197.08L704.478 199.112C704.396 199.186 704.389 199.312 704.463 199.395L712.304 208.171C712.378 208.253 712.371 208.38 712.288 208.453L710.254 210.278Z" fill="#112D43"/>
<path d="M579.5 223C582.053 223 584.45 223.43 586.69 224.289C588.931 225.148 590.894 226.319 592.58 227.802C594.266 229.284 595.591 231.035 596.555 233.055C597.518 235.074 598 237.223 598 239.5C598 244.055 597.338 248.437 596.013 252.648C594.688 256.859 592.821 260.802 590.412 264.476C588.003 268.149 585.113 271.49 581.74 274.498C578.368 277.506 574.622 280.084 570.503 282.232C566.384 284.381 561.964 286.046 557.242 287.228C552.521 288.409 547.607 289 542.5 289C539.947 289 537.55 288.57 535.31 287.711C533.069 286.852 531.106 285.681 529.42 284.198C527.734 282.716 526.409 280.965 525.445 278.945C524.482 276.926 524 274.777 524 272.5C524 267.945 524.662 263.563 525.987 259.352C527.312 255.141 529.179 251.198 531.588 247.524C533.997 243.851 536.887 240.51 540.26 237.502C543.632 234.494 547.378 231.916 551.497 229.768C555.616 227.619 560.036 225.954 564.758 224.772C569.479 223.591 574.393 223 579.5 223ZM579.5 227.125C574.827 227.125 570.334 227.662 566.022 228.736C561.711 229.811 557.664 231.336 553.882 233.312C550.1 235.289 546.655 237.663 543.548 240.435C540.44 243.206 537.791 246.268 535.599 249.619C533.407 252.971 531.696 256.58 530.468 260.447C529.239 264.314 528.625 268.332 528.625 272.5C528.625 273.789 528.842 275.046 529.275 276.271C529.709 277.495 530.347 278.623 531.19 279.654L587.521 229.413C586.365 228.661 585.101 228.092 583.728 227.705C582.354 227.318 580.945 227.125 579.5 227.125ZM542.5 284.875C547.173 284.875 551.666 284.338 555.978 283.264C560.289 282.189 564.336 280.664 568.118 278.688C571.9 276.711 575.345 274.337 578.452 271.565C581.56 268.794 584.209 265.732 586.401 262.381C588.593 259.029 590.304 255.42 591.532 251.553C592.761 247.686 593.375 243.668 593.375 239.5C593.375 238.211 593.158 236.954 592.725 235.729C592.291 234.505 591.653 233.377 590.81 232.346L534.479 282.587C535.635 283.339 536.899 283.908 538.272 284.295C539.646 284.682 541.055 284.875 542.5 284.875Z" fill="#112D43"/>
<path d="M548.774 255.674C548.665 255.771 548.49 255.723 548.448 255.583L545.488 245.816C545.465 245.742 545.488 245.662 545.546 245.61L551.624 240.213C551.729 240.12 551.896 240.16 551.946 240.291L552.372 241.408C552.379 241.426 552.389 241.442 552.402 241.457V241.457C552.459 241.52 552.454 241.618 552.39 241.675L549.639 244.117C549.557 244.19 549.55 244.316 549.624 244.398L551.005 245.929C551.079 246.011 551.206 246.018 551.288 245.944L554.237 243.326C554.342 243.233 554.508 243.273 554.558 243.404L554.954 244.433C554.96 244.45 554.969 244.465 554.981 244.478V244.478C555.035 244.538 555.03 244.63 554.97 244.683L552.295 247.059C552.212 247.132 552.205 247.258 552.279 247.34L553.688 248.901C553.762 248.983 553.889 248.99 553.971 248.917L557.029 246.202C557.134 246.109 557.301 246.149 557.351 246.28L557.778 247.398C557.784 247.415 557.794 247.432 557.807 247.446V247.446C557.864 247.509 557.859 247.607 557.795 247.664L553.615 251.376C553.532 251.449 553.405 251.442 553.331 251.36L551.883 249.756C551.809 249.674 551.682 249.667 551.6 249.74L549.354 251.734C549.295 251.786 549.273 251.867 549.296 251.941L550.056 254.381C550.079 254.455 550.056 254.536 549.998 254.588L548.774 255.674ZM547.527 245.859C547.468 245.911 547.446 245.992 547.469 246.066L548.687 249.994C548.73 250.133 548.904 250.181 549.013 250.085L550.621 248.656C550.704 248.583 550.711 248.457 550.637 248.375L548.127 245.594C548.053 245.512 547.926 245.505 547.843 245.578L547.527 245.859Z" fill="#112D43"/>
<path d="M560.886 244.919C560.804 244.992 560.677 244.985 560.603 244.903L555.466 239.211C555.392 239.129 555.265 239.122 555.182 239.195L553.74 240.476C553.675 240.533 553.577 240.528 553.519 240.464V240.464C553.507 240.45 553.491 240.438 553.474 240.43L552.404 239.884C552.278 239.82 552.256 239.651 552.361 239.558L557.713 234.806C557.818 234.713 557.985 234.753 558.035 234.884L558.461 236.001C558.468 236.019 558.478 236.035 558.491 236.049V236.049C558.549 236.113 558.543 236.211 558.479 236.268L557.036 237.549C556.953 237.623 556.946 237.749 557.02 237.831L562.157 243.523C562.231 243.605 562.224 243.73 562.142 243.804L560.886 244.919Z" fill="#112D43"/>
<path d="M629.5 153C630.949 153 632.31 153.247 633.581 153.742C634.853 154.237 635.967 154.911 636.924 155.765C637.881 156.618 638.633 157.626 639.18 158.789C639.727 159.952 640 161.189 640 162.5C640 165.122 639.624 167.646 638.872 170.07C638.12 172.495 637.061 174.765 635.693 176.88C634.326 178.995 632.686 180.919 630.771 182.65C628.857 184.382 626.731 185.867 624.394 187.104C622.056 188.34 619.547 189.299 616.867 189.979C614.188 190.66 611.398 191 608.5 191C607.051 191 605.69 190.753 604.419 190.258C603.147 189.763 602.033 189.089 601.076 188.235C600.119 187.382 599.367 186.374 598.82 185.211C598.273 184.048 598 182.811 598 181.5C598 178.878 598.376 176.354 599.128 173.93C599.88 171.505 600.939 169.235 602.307 167.12C603.674 165.005 605.314 163.081 607.229 161.35C609.143 159.618 611.269 158.133 613.606 156.896C615.944 155.66 618.453 154.701 621.133 154.021C623.812 153.34 626.602 153 629.5 153ZM629.5 155.375C626.848 155.375 624.298 155.684 621.851 156.303C619.403 156.921 617.106 157.799 614.96 158.937C612.813 160.076 610.858 161.442 609.095 163.038C607.331 164.634 605.827 166.396 604.583 168.326C603.339 170.256 602.368 172.334 601.671 174.561C600.974 176.787 600.625 179.1 600.625 181.5C600.625 182.242 600.748 182.966 600.994 183.671C601.24 184.376 601.603 185.025 602.081 185.619L634.053 156.692C633.396 156.259 632.679 155.932 631.899 155.709C631.12 155.486 630.32 155.375 629.5 155.375ZM608.5 188.625C611.152 188.625 613.702 188.316 616.149 187.697C618.597 187.079 620.894 186.201 623.04 185.062C625.187 183.924 627.142 182.558 628.905 180.962C630.669 179.366 632.173 177.604 633.417 175.674C634.661 173.744 635.632 171.666 636.329 169.439C637.026 167.213 637.375 164.9 637.375 162.5C637.375 161.758 637.252 161.034 637.006 160.329C636.76 159.624 636.397 158.975 635.919 158.381L603.947 187.308C604.604 187.741 605.321 188.068 606.101 188.291C606.88 188.514 607.68 188.625 608.5 188.625Z" fill="#112D43"/>
<path d="M612.161 171.722C612.052 171.82 611.879 171.771 611.837 171.631L610.211 166.189C610.189 166.114 610.212 166.033 610.269 165.981L613.586 162.994C613.69 162.9 613.855 162.941 613.905 163.072L614.103 163.599C614.107 163.609 614.113 163.618 614.12 163.627V163.627C614.153 163.663 614.149 163.72 614.113 163.752L612.616 165.101C612.534 165.175 612.527 165.302 612.6 165.384L613.27 166.137C613.344 166.22 613.47 166.227 613.552 166.153L615.069 164.786C615.173 164.692 615.338 164.733 615.388 164.864L615.568 165.34C615.572 165.35 615.577 165.359 615.584 165.366V165.366C615.615 165.401 615.612 165.454 615.577 165.484L614.123 166.795C614.041 166.869 614.034 166.995 614.107 167.078L614.793 167.849C614.866 167.931 614.992 167.938 615.075 167.864L616.653 166.442C616.758 166.348 616.923 166.389 616.973 166.52L617.171 167.047C617.175 167.057 617.181 167.067 617.188 167.075V167.075C617.22 167.111 617.217 167.168 617.181 167.2L614.872 169.28C614.79 169.354 614.664 169.347 614.591 169.265L613.883 168.469C613.809 168.386 613.683 168.379 613.601 168.453L612.431 169.507C612.373 169.559 612.35 169.641 612.373 169.716L612.772 171.015C612.795 171.09 612.773 171.171 612.715 171.224L612.161 171.722ZM611.394 166.125C611.336 166.177 611.313 166.258 611.336 166.333L611.972 168.414C612.015 168.554 612.188 168.602 612.296 168.505L613.046 167.829C613.128 167.755 613.135 167.628 613.061 167.546L611.751 166.072C611.677 165.99 611.551 165.983 611.469 166.057L611.394 166.125Z" fill="#112D43"/>
<path d="M618.999 165.562C618.917 165.636 618.791 165.629 618.718 165.547L615.916 162.398C615.842 162.315 615.716 162.308 615.634 162.382L614.879 163.062C614.843 163.095 614.787 163.092 614.754 163.055V163.055C614.747 163.047 614.738 163.04 614.729 163.035L614.231 162.778C614.107 162.714 614.085 162.544 614.189 162.45L617.042 159.881C617.146 159.787 617.312 159.827 617.361 159.959L617.559 160.485C617.563 160.496 617.569 160.505 617.576 160.513V160.513C617.609 160.55 617.606 160.606 617.569 160.639L616.814 161.319C616.732 161.393 616.725 161.52 616.798 161.603L619.6 164.752C619.673 164.835 619.666 164.961 619.584 165.035L618.999 165.562Z" fill="#112D43"/>
<path d="M1291 236C1294.31 236 1297.42 236.566 1300.33 237.699C1303.23 238.832 1305.78 240.375 1307.97 242.33C1310.16 244.284 1311.87 246.592 1313.12 249.254C1314.37 251.916 1315 254.748 1315 257.75C1315 263.754 1314.14 269.531 1312.42 275.082C1310.7 280.633 1308.28 285.83 1305.16 290.672C1302.03 295.515 1298.28 299.919 1293.91 303.884C1289.53 307.849 1284.67 311.247 1279.33 314.079C1273.98 316.911 1268.25 319.106 1262.12 320.664C1256 322.221 1249.62 323 1243 323C1239.69 323 1236.58 322.434 1233.67 321.301C1230.77 320.168 1228.22 318.625 1226.03 316.67C1223.84 314.716 1222.12 312.408 1220.87 309.746C1219.62 307.084 1219 304.252 1219 301.25C1219 295.246 1219.86 289.469 1221.58 283.918C1223.3 278.367 1225.72 273.17 1228.84 268.328C1231.97 263.485 1235.72 259.081 1240.09 255.116C1244.47 251.151 1249.33 247.753 1254.67 244.921C1260.02 242.089 1265.75 239.894 1271.87 238.336C1278 236.779 1284.38 236 1291 236ZM1291 241.438C1284.94 241.438 1279.11 242.146 1273.52 243.562C1267.92 244.978 1262.67 246.988 1257.77 249.594C1252.86 252.199 1248.39 255.329 1244.36 258.982C1240.33 262.635 1236.89 266.671 1234.05 271.089C1231.2 275.507 1228.98 280.265 1227.39 285.362C1225.8 290.46 1225 295.756 1225 301.25C1225 302.949 1225.28 304.606 1225.84 306.22C1226.41 307.834 1227.23 309.321 1228.33 310.681L1301.41 244.454C1299.91 243.462 1298.27 242.712 1296.48 242.202C1294.7 241.692 1292.88 241.438 1291 241.438ZM1243 317.562C1249.06 317.562 1254.89 316.854 1260.48 315.438C1266.08 314.022 1271.33 312.012 1276.23 309.406C1281.14 306.801 1285.61 303.671 1289.64 300.018C1293.67 296.365 1297.11 292.329 1299.95 287.911C1302.8 283.493 1305.02 278.735 1306.61 273.638C1308.2 268.54 1309 263.244 1309 257.75C1309 256.051 1308.72 254.394 1308.16 252.78C1307.59 251.166 1306.77 249.679 1305.67 248.319L1232.59 314.546C1234.09 315.538 1235.73 316.288 1237.52 316.798C1239.3 317.308 1241.12 317.562 1243 317.562Z" fill="#112D43"/>
<path d="M1251.07 279.135C1250.96 279.233 1250.79 279.184 1250.74 279.044L1246.86 266.038C1246.84 265.963 1246.87 265.882 1246.92 265.83L1254.9 258.63C1255.01 258.536 1255.17 258.576 1255.22 258.708L1255.81 260.266C1255.82 260.289 1255.83 260.31 1255.85 260.329L1255.85 260.332C1255.92 260.414 1255.91 260.541 1255.83 260.615L1252.22 263.877C1252.13 263.951 1252.13 264.078 1252.2 264.161L1254.07 266.27C1254.15 266.353 1254.27 266.36 1254.36 266.286L1258.29 262.734C1258.4 262.64 1258.56 262.68 1258.61 262.812L1259.16 264.253C1259.16 264.274 1259.18 264.295 1259.19 264.312V264.312C1259.26 264.391 1259.26 264.512 1259.18 264.583L1255.66 267.755C1255.58 267.829 1255.57 267.956 1255.65 268.039L1257.56 270.189C1257.63 270.271 1257.75 270.278 1257.84 270.204L1261.91 266.524C1262.02 266.43 1262.18 266.471 1262.23 266.603L1262.82 268.161C1262.83 268.184 1262.84 268.205 1262.86 268.224L1262.86 268.226C1262.93 268.309 1262.93 268.436 1262.84 268.51L1257.37 273.445C1257.29 273.519 1257.17 273.513 1257.09 273.43L1255.13 271.223C1255.06 271.14 1254.93 271.133 1254.85 271.207L1251.86 273.903C1251.8 273.956 1251.78 274.037 1251.8 274.112L1252.81 277.403C1252.84 277.478 1252.81 277.56 1252.76 277.612L1251.07 279.135ZM1249.49 266.159C1249.43 266.211 1249.41 266.293 1249.43 266.368L1251.05 271.676C1251.1 271.816 1251.27 271.864 1251.38 271.767L1253.58 269.778C1253.66 269.704 1253.67 269.578 1253.6 269.495L1250.26 265.736C1250.19 265.654 1250.06 265.647 1249.98 265.721L1249.49 266.159Z" fill="#112D43"/>
<path d="M1266.81 264.934C1266.72 265.008 1266.6 265.001 1266.53 264.918L1259.78 257.323C1259.71 257.24 1259.58 257.233 1259.5 257.307L1257.58 259.039C1257.5 259.113 1257.37 259.106 1257.3 259.023L1257.29 259.02C1257.28 259.002 1257.26 258.987 1257.24 258.976L1255.77 258.215C1255.64 258.15 1255.62 257.981 1255.73 257.887L1262.8 251.502C1262.91 251.408 1263.07 251.449 1263.12 251.58L1263.71 253.138C1263.72 253.161 1263.73 253.183 1263.74 253.201L1263.75 253.204C1263.82 253.286 1263.81 253.413 1263.73 253.487L1261.81 255.22C1261.73 255.294 1261.72 255.421 1261.8 255.503L1268.54 263.099C1268.62 263.181 1268.61 263.308 1268.53 263.382L1266.81 264.934Z" fill="#112D43"/>
<path d="M1250 148C1251.93 148 1253.75 148.332 1255.44 148.996C1257.14 149.66 1258.62 150.565 1259.9 151.71C1261.17 152.856 1262.18 154.209 1262.91 155.77C1263.64 157.33 1264 158.99 1264 160.75C1264 164.27 1263.5 167.656 1262.5 170.91C1261.49 174.164 1260.08 177.21 1258.26 180.049C1256.43 182.888 1254.25 185.47 1251.7 187.794C1249.14 190.118 1246.31 192.11 1243.19 193.771C1240.07 195.431 1236.73 196.717 1233.16 197.63C1229.58 198.543 1225.86 199 1222 199C1220.07 199 1218.25 198.668 1216.56 198.004C1214.86 197.34 1213.38 196.435 1212.1 195.29C1210.83 194.144 1209.82 192.791 1209.09 191.23C1208.36 189.67 1208 188.01 1208 186.25C1208 182.73 1208.5 179.344 1209.5 176.09C1210.51 172.836 1211.92 169.79 1213.74 166.951C1215.57 164.112 1217.75 161.53 1220.3 159.206C1222.86 156.882 1225.69 154.89 1228.81 153.229C1231.93 151.569 1235.27 150.283 1238.84 149.37C1242.42 148.457 1246.14 148 1250 148ZM1250 151.188C1246.46 151.188 1243.06 151.603 1239.8 152.433C1236.54 153.263 1233.48 154.441 1230.61 155.969C1227.75 157.496 1225.14 159.331 1222.79 161.472C1220.44 163.614 1218.44 165.979 1216.78 168.569C1215.12 171.159 1213.82 173.948 1212.89 176.937C1211.96 179.925 1211.5 183.029 1211.5 186.25C1211.5 187.246 1211.66 188.217 1211.99 189.164C1212.32 190.11 1212.8 190.981 1213.44 191.778L1256.07 152.956C1255.2 152.375 1254.24 151.935 1253.2 151.636C1252.16 151.337 1251.09 151.188 1250 151.188ZM1222 195.812C1225.54 195.812 1228.94 195.397 1232.2 194.567C1235.46 193.737 1238.52 192.559 1241.39 191.031C1244.25 189.504 1246.86 187.669 1249.21 185.528C1251.56 183.386 1253.56 181.021 1255.22 178.431C1256.88 175.841 1258.18 173.052 1259.11 170.063C1260.04 167.075 1260.5 163.971 1260.5 160.75C1260.5 159.754 1260.34 158.783 1260.01 157.836C1259.68 156.89 1259.2 156.019 1258.56 155.222L1215.93 194.044C1216.8 194.625 1217.76 195.065 1218.8 195.364C1219.84 195.663 1220.91 195.812 1222 195.812Z" fill="#112D43"/>
<path d="M1226.8 173.198C1226.69 173.297 1226.52 173.248 1226.48 173.107L1224.27 165.659C1224.25 165.584 1224.27 165.503 1224.33 165.451L1228.85 161.347C1228.96 161.253 1229.12 161.293 1229.17 161.425L1229.47 162.225C1229.48 162.238 1229.48 162.251 1229.49 162.262V162.262C1229.54 162.311 1229.53 162.387 1229.48 162.431L1227.44 164.286C1227.36 164.36 1227.35 164.488 1227.42 164.57L1228.41 165.682C1228.48 165.765 1228.6 165.772 1228.69 165.698L1230.83 163.753C1230.94 163.658 1231.1 163.699 1231.15 163.831L1231.42 164.562C1231.43 164.575 1231.44 164.587 1231.45 164.597V164.597C1231.49 164.643 1231.48 164.714 1231.44 164.755L1229.45 166.559C1229.37 166.634 1229.36 166.761 1229.43 166.844L1230.44 167.98C1230.51 168.062 1230.63 168.069 1230.72 167.995L1232.94 165.975C1233.05 165.881 1233.21 165.921 1233.26 166.053L1233.56 166.853C1233.57 166.866 1233.57 166.879 1233.58 166.89V166.89C1233.63 166.939 1233.62 167.014 1233.57 167.058L1230.45 169.895C1230.36 169.969 1230.24 169.962 1230.17 169.879L1229.13 168.71C1229.06 168.627 1228.93 168.62 1228.85 168.694L1227.21 170.183C1227.15 170.236 1227.13 170.318 1227.15 170.393L1227.71 172.22C1227.73 172.295 1227.71 172.377 1227.65 172.429L1226.8 173.198ZM1225.83 165.644C1225.77 165.696 1225.75 165.778 1225.77 165.853L1226.66 168.789C1226.7 168.929 1226.88 168.978 1226.98 168.88L1228.11 167.857C1228.19 167.783 1228.2 167.656 1228.13 167.573L1226.29 165.494C1226.22 165.411 1226.09 165.404 1226.01 165.478L1225.83 165.644Z" fill="#112D43"/>
<path d="M1235.95 164.906C1235.87 164.98 1235.74 164.973 1235.67 164.89L1231.84 160.562C1231.77 160.479 1231.64 160.472 1231.56 160.546L1230.51 161.504C1230.46 161.548 1230.38 161.544 1230.34 161.495V161.495C1230.33 161.484 1230.32 161.475 1230.3 161.468L1229.55 161.078C1229.43 161.013 1229.41 160.843 1229.51 160.749L1233.46 157.169C1233.57 157.074 1233.73 157.115 1233.78 157.247L1234.08 158.046C1234.08 158.06 1234.09 158.073 1234.1 158.084V158.084C1234.14 158.133 1234.14 158.208 1234.09 158.253L1233.04 159.211C1232.95 159.285 1232.95 159.412 1233.02 159.495L1236.84 163.823C1236.92 163.906 1236.91 164.033 1236.83 164.107L1235.95 164.906Z" fill="#112D43"/>
</g>
<defs>
<clipPath id="clip0_1_3">
<rect width="1280" height="720" fill="white"/>
</clipPath>
</defs>
</svg>
