<svg width="1280" height="720" viewBox="0 0 1280 720" fill="none" xmlns="http://www.w3.org/2000/svg">
<rect width="1280" height="720" fill="#182534"/>
<path d="M1061.91 102.503C1074.88 102.503 1087.06 104.704 1098.44 109.106C1109.82 113.507 1119.79 119.504 1128.36 127.097C1136.93 134.69 1143.66 143.659 1148.55 154.002C1153.45 164.346 1155.9 175.351 1155.9 187.015C1155.9 210.344 1152.53 232.792 1145.8 254.36C1139.07 275.929 1129.58 296.121 1117.35 314.938C1105.11 333.755 1090.42 350.867 1073.29 366.273C1056.15 381.678 1037.12 394.883 1016.2 405.888C995.269 416.892 972.812 425.42 948.825 431.472C924.838 437.525 899.871 440.551 873.926 440.551C860.954 440.551 848.777 438.35 837.395 433.948C826.013 429.547 816.039 423.549 807.472 415.956C798.905 408.364 792.174 399.395 787.279 389.051C782.384 378.707 779.936 367.703 779.936 356.039C779.936 332.71 783.302 310.261 790.033 288.693C796.764 267.125 806.248 246.933 818.487 228.115C830.725 209.298 845.411 192.187 862.545 176.781C879.678 161.375 898.709 148.17 919.636 137.166C940.564 126.162 963.021 117.634 987.008 111.581C1011 105.529 1035.96 102.503 1061.91 102.503ZM1061.91 123.631C1038.16 123.631 1015.34 126.382 993.433 131.884C971.527 137.386 950.966 145.199 931.752 155.323C912.538 165.447 895.037 177.606 879.25 191.802C863.463 205.997 850 221.678 838.864 238.845C827.727 256.011 819.037 274.498 812.796 294.305C806.554 314.113 803.434 334.691 803.434 356.039C803.434 362.641 804.535 369.079 806.738 375.351C808.941 381.623 812.184 387.401 816.467 392.683L1102.66 135.35C1096.79 131.499 1090.36 128.583 1083.38 126.602C1076.41 124.621 1069.25 123.631 1061.91 123.631ZM873.926 419.423C897.669 419.423 920.493 416.672 942.4 411.17C964.306 405.668 984.867 397.855 1004.08 387.731C1023.29 377.607 1040.8 365.447 1056.58 351.252C1072.37 337.057 1085.83 321.376 1096.97 304.209C1108.11 287.043 1116.8 268.556 1123.04 248.748C1129.28 228.941 1132.4 208.363 1132.4 187.015C1132.4 180.412 1131.3 173.975 1129.09 167.703C1126.89 161.43 1123.65 155.653 1119.37 150.371L833.173 407.703C839.047 411.555 845.472 414.471 852.448 416.452C859.424 418.432 866.583 419.423 873.926 419.423Z" fill="#203246"/>
<path d="M933.952 267.19C933.843 267.287 933.67 267.238 933.628 267.098L918.066 215.335C918.044 215.261 918.067 215.181 918.125 215.129L950.282 186.341C950.386 186.247 950.553 186.288 950.602 186.419L953.232 193.363C953.241 193.386 953.254 193.407 953.27 193.426L953.739 193.949C953.813 194.032 953.806 194.158 953.724 194.232L938.699 207.682C938.617 207.756 938.61 207.882 938.683 207.964L946.794 217.024C946.868 217.106 946.994 217.113 947.077 217.04L963.555 202.288C963.66 202.194 963.825 202.235 963.875 202.366L966.344 208.847C966.353 208.87 966.366 208.891 966.382 208.909L966.812 209.389C966.886 209.472 966.879 209.598 966.797 209.672L952.188 222.75C952.106 222.823 952.099 222.95 952.173 223.032L960.425 232.251C960.499 232.333 960.625 232.34 960.708 232.266L977.743 217.016C977.847 216.922 978.013 216.963 978.063 217.094L980.695 224.04C980.704 224.063 980.717 224.085 980.733 224.103L981.2 224.624C981.274 224.707 981.267 224.833 981.184 224.907L958.896 244.86C958.813 244.934 958.687 244.927 958.613 244.844L950.162 235.404C950.088 235.322 949.962 235.315 949.879 235.388L937.467 246.5C937.409 246.552 937.386 246.633 937.409 246.708L941.579 260.206C941.602 260.28 941.58 260.362 941.521 260.414L933.952 267.19ZM928.185 216.408C928.127 216.46 928.105 216.541 928.128 216.616L934.848 238.464C934.891 238.603 935.064 238.651 935.172 238.554L944.91 229.837C944.992 229.763 944.999 229.637 944.925 229.554L931.078 214.087C931.005 214.004 930.878 213.997 930.796 214.071L928.185 216.408Z" fill="#203246"/>
<path d="M995.839 211.788C995.757 211.861 995.63 211.854 995.557 211.772L968.362 181.395C968.289 181.313 968.162 181.306 968.08 181.379L959.7 188.882C959.617 188.955 959.491 188.949 959.417 188.866L958.948 188.342C958.932 188.324 958.912 188.309 958.891 188.298L952.291 184.907C952.166 184.843 952.144 184.674 952.249 184.58L981.219 158.646C981.323 158.552 981.49 158.593 981.539 158.724L984.169 165.668C984.178 165.691 984.191 165.712 984.207 165.73L984.676 166.254C984.75 166.336 984.743 166.463 984.661 166.536L976.277 174.042C976.195 174.115 976.188 174.242 976.261 174.324L1003.46 204.701C1003.53 204.783 1003.52 204.91 1003.44 204.983L995.839 211.788Z" fill="#203246"/>
<path d="M217.992 212.998C220.647 212.998 223.139 213.448 225.468 214.349C227.798 215.25 229.839 216.477 231.592 218.031C233.346 219.585 234.723 221.421 235.725 223.538C236.727 225.654 237.228 227.907 237.228 230.294C237.228 235.068 236.539 239.663 235.161 244.077C233.784 248.491 231.843 252.623 229.338 256.475C226.833 260.326 223.828 263.828 220.321 266.981C216.815 270.134 212.92 272.836 208.637 275.088C204.354 277.34 199.758 279.086 194.849 280.324C189.939 281.563 184.83 282.182 179.52 282.182C176.865 282.182 174.373 281.732 172.043 280.831C169.714 279.93 167.673 278.703 165.919 277.149C164.166 275.595 162.789 273.759 161.787 271.642C160.785 269.525 160.284 267.273 160.284 264.886C160.284 260.112 160.973 255.517 162.35 251.103C163.728 246.689 165.669 242.557 168.174 238.705C170.678 234.854 173.684 231.352 177.191 228.199C180.697 225.046 184.592 222.344 188.875 220.092C193.158 217.84 197.754 216.094 202.663 214.856C207.572 213.617 212.682 212.998 217.992 212.998ZM217.992 217.322C213.133 217.322 208.462 217.885 203.978 219.011C199.495 220.137 195.287 221.736 191.355 223.808C187.422 225.88 183.84 228.368 180.609 231.273C177.378 234.179 174.623 237.388 172.344 240.901C170.065 244.415 168.286 248.198 167.009 252.252C165.732 256.306 165.093 260.517 165.093 264.886C165.093 266.237 165.318 267.555 165.769 268.839C166.22 270.122 166.884 271.305 167.76 272.386L226.332 219.72C225.13 218.932 223.815 218.335 222.388 217.93C220.96 217.524 219.495 217.322 217.992 217.322ZM179.52 277.858C184.379 277.858 189.05 277.295 193.534 276.169C198.017 275.043 202.225 273.444 206.157 271.372C210.09 269.3 213.671 266.812 216.902 263.906C220.133 261.001 222.888 257.792 225.168 254.279C227.447 250.765 229.225 246.982 230.503 242.928C231.78 238.874 232.419 234.663 232.419 230.294C232.419 228.943 232.193 227.625 231.743 226.341C231.292 225.058 230.628 223.875 229.751 222.794L171.179 275.46C172.382 276.248 173.697 276.845 175.124 277.25C176.552 277.656 178.017 277.858 179.52 277.858Z" fill="#203246"/>
<path d="M278.455 294.3C279.95 294.3 281.352 294.553 282.663 295.06C283.974 295.567 285.123 296.258 286.109 297.133C287.096 298.007 287.871 299.04 288.435 300.231C288.999 301.423 289.281 302.69 289.281 304.034C289.281 306.721 288.893 309.306 288.118 311.79C287.343 314.274 286.25 316.6 284.841 318.767C283.431 320.935 281.74 322.905 279.766 324.68C277.793 326.454 275.601 327.975 273.191 329.242C270.78 330.51 268.194 331.492 265.431 332.189C262.668 332.886 259.793 333.235 256.805 333.235C255.31 333.235 253.908 332.981 252.597 332.474C251.286 331.967 250.137 331.277 249.151 330.402C248.164 329.528 247.389 328.495 246.825 327.303C246.261 326.112 245.979 324.845 245.979 323.501C245.979 320.814 246.367 318.229 247.142 315.745C247.917 313.26 249.01 310.935 250.419 308.767C251.829 306.6 253.52 304.629 255.494 302.855C257.467 301.081 259.659 299.56 262.069 298.292C264.48 297.025 267.066 296.043 269.829 295.346C272.592 294.648 275.467 294.3 278.455 294.3ZM278.455 296.733C275.721 296.733 273.092 297.05 270.569 297.684C268.046 298.318 265.678 299.218 263.465 300.384C261.252 301.55 259.236 302.95 257.418 304.585C255.599 306.22 254.049 308.026 252.766 310.003C251.484 311.98 250.483 314.11 249.764 316.391C249.045 318.672 248.686 321.042 248.686 323.501C248.686 324.262 248.812 325.003 249.066 325.725C249.32 326.448 249.693 327.113 250.187 327.722L283.149 298.083C282.473 297.64 281.733 297.304 280.929 297.076C280.126 296.847 279.301 296.733 278.455 296.733ZM256.805 330.801C259.539 330.801 262.168 330.485 264.691 329.851C267.214 329.217 269.582 328.317 271.795 327.151C274.008 325.985 276.024 324.585 277.842 322.95C279.661 321.315 281.211 319.509 282.494 317.532C283.776 315.554 284.777 313.425 285.496 311.144C286.215 308.863 286.574 306.492 286.574 304.034C286.574 303.273 286.448 302.532 286.194 301.809C285.94 301.087 285.567 300.422 285.073 299.813L252.111 329.452C252.787 329.895 253.527 330.231 254.331 330.459C255.134 330.687 255.959 330.801 256.805 330.801Z" fill="#203246"/>
<path d="M1219.86 247.139C1222.57 247.139 1225.12 247.598 1227.49 248.517C1229.87 249.436 1231.95 250.689 1233.74 252.274C1235.53 253.859 1236.93 255.732 1237.96 257.892C1238.98 260.051 1239.49 262.349 1239.49 264.784C1239.49 269.655 1238.79 274.343 1237.38 278.846C1235.98 283.349 1233.99 287.565 1231.44 291.494C1228.88 295.423 1225.82 298.996 1222.24 302.213C1218.66 305.429 1214.69 308.186 1210.32 310.484C1205.95 312.782 1201.26 314.562 1196.25 315.826C1191.24 317.09 1186.03 317.721 1180.61 317.721C1177.91 317.721 1175.36 317.262 1172.99 316.343C1170.61 315.424 1168.53 314.172 1166.74 312.586C1164.95 311.001 1163.55 309.128 1162.52 306.969C1161.5 304.809 1160.99 302.511 1160.99 300.076C1160.99 295.205 1161.69 290.518 1163.1 286.014C1164.5 281.511 1166.48 277.295 1169.04 273.366C1171.59 269.437 1174.66 265.864 1178.24 262.648C1181.82 259.431 1185.79 256.674 1190.16 254.376C1194.53 252.079 1199.22 250.298 1204.23 249.034C1209.23 247.771 1214.45 247.139 1219.86 247.139ZM1219.86 251.55C1214.91 251.55 1210.14 252.125 1205.57 253.273C1200.99 254.422 1196.7 256.054 1192.69 258.167C1188.68 260.281 1185.02 262.82 1181.73 265.784C1178.43 268.748 1175.62 272.022 1173.29 275.606C1170.97 279.19 1169.15 283.05 1167.85 287.186C1166.55 291.322 1165.9 295.618 1165.9 300.076C1165.9 301.454 1166.13 302.798 1166.59 304.108C1167.05 305.418 1167.72 306.624 1168.62 307.727L1228.37 253.997C1227.15 253.193 1225.81 252.584 1224.35 252.171C1222.89 251.757 1221.4 251.55 1219.86 251.55ZM1180.61 313.31C1185.57 313.31 1190.34 312.736 1194.91 311.587C1199.49 310.438 1203.78 308.807 1207.79 306.693C1211.8 304.579 1215.46 302.04 1218.75 299.076C1222.05 296.112 1224.86 292.838 1227.18 289.254C1229.51 285.67 1231.32 281.81 1232.63 277.674C1233.93 273.538 1234.58 269.242 1234.58 264.784C1234.58 263.406 1234.35 262.062 1233.89 260.752C1233.43 259.442 1232.76 258.236 1231.86 257.133L1172.11 310.863C1173.33 311.667 1174.67 312.276 1176.13 312.69C1177.59 313.103 1179.08 313.31 1180.61 313.31Z" fill="#203246"/>
<path d="M711.725 168.141C713.756 168.141 715.663 168.486 717.445 169.175C719.228 169.864 720.79 170.804 722.131 171.993C723.473 173.182 724.527 174.586 725.293 176.206C726.06 177.826 726.443 179.549 726.443 181.376C726.443 185.029 725.916 188.544 724.862 191.922C723.808 195.299 722.323 198.461 720.406 201.408C718.49 204.355 716.19 207.034 713.507 209.447C710.824 211.859 707.844 213.927 704.567 215.65C701.289 217.373 697.773 218.709 694.016 219.657C690.26 220.604 686.351 221.078 682.288 221.078C680.256 221.078 678.349 220.734 676.567 220.044C674.785 219.355 673.223 218.416 671.881 217.227C670.54 216.038 669.486 214.633 668.719 213.014C667.952 211.394 667.569 209.671 667.569 207.844C667.569 204.191 668.096 200.675 669.15 197.298C670.204 193.92 671.69 190.758 673.606 187.812C675.522 184.865 677.822 182.185 680.505 179.773C683.188 177.36 686.168 175.293 689.446 173.569C692.723 171.846 696.24 170.511 699.996 169.563C703.752 168.615 707.662 168.141 711.725 168.141ZM711.725 171.45C708.007 171.45 704.432 171.881 701.002 172.742C697.571 173.604 694.352 174.827 691.343 176.413C688.334 177.998 685.594 179.902 683.121 182.125C680.649 184.348 678.541 186.804 676.797 189.492C675.053 192.18 673.692 195.075 672.715 198.177C671.737 201.279 671.249 204.501 671.249 207.844C671.249 208.878 671.421 209.886 671.766 210.868C672.111 211.851 672.619 212.755 673.29 213.582L718.107 173.285C717.187 172.682 716.18 172.225 715.088 171.915C713.996 171.605 712.875 171.45 711.725 171.45ZM682.288 217.77C686.006 217.77 689.58 217.339 693.01 216.477C696.441 215.616 699.66 214.392 702.669 212.807C705.678 211.222 708.419 209.317 710.891 207.094C713.363 204.872 715.471 202.416 717.215 199.728C718.959 197.04 720.32 194.145 721.297 191.043C722.275 187.941 722.764 184.719 722.764 181.376C722.764 180.342 722.591 179.334 722.246 178.351C721.901 177.369 721.393 176.464 720.722 175.637L675.906 215.935C676.826 216.538 677.832 216.994 678.924 217.304C680.017 217.615 681.138 217.77 682.288 217.77Z" fill="#203246"/>
<path d="M632.392 284.784C636.203 284.784 639.779 285.43 643.123 286.723C646.466 288.016 649.395 289.777 651.912 292.008C654.428 294.238 656.405 296.872 657.843 299.91C659.281 302.949 660 306.181 660 309.607C660 316.46 659.011 323.053 657.034 329.389C655.057 335.724 652.271 341.655 648.677 347.182C645.082 352.709 640.768 357.735 635.735 362.261C630.703 366.786 625.113 370.664 618.966 373.897C612.819 377.129 606.222 379.634 599.177 381.412C592.131 383.189 584.798 384.078 577.177 384.078C573.366 384.078 569.79 383.432 566.446 382.139C563.103 380.846 560.174 379.084 557.657 376.854C555.141 374.624 553.164 371.99 551.726 368.951C550.288 365.913 549.569 362.681 549.569 359.255C549.569 352.402 550.558 345.808 552.535 339.473C554.512 333.138 557.298 327.207 560.893 321.68C564.487 316.153 568.801 311.126 573.834 306.601C578.866 302.076 584.456 298.197 590.603 294.965C596.75 291.733 603.347 289.228 610.392 287.45C617.438 285.672 624.771 284.784 632.392 284.784ZM632.392 290.989C625.418 290.989 618.714 291.798 612.28 293.414C605.845 295.03 599.806 297.325 594.162 300.298C588.518 303.272 583.378 306.844 578.741 311.013C574.103 315.183 570.149 319.789 566.878 324.831C563.607 329.873 561.054 335.304 559.221 341.122C557.388 346.94 556.471 352.984 556.471 359.255C556.471 361.194 556.795 363.085 557.442 364.927C558.089 366.77 559.041 368.467 560.299 370.018L644.363 294.432C642.637 293.301 640.75 292.444 638.701 291.862C636.652 291.28 634.549 290.989 632.392 290.989ZM577.177 377.872C584.151 377.872 590.855 377.064 597.289 375.448C603.724 373.832 609.763 371.537 615.407 368.563C621.051 365.59 626.191 362.018 630.829 357.849C635.466 353.679 639.42 349.073 642.691 344.031C645.962 338.988 648.515 333.558 650.348 327.74C652.181 321.922 653.098 315.878 653.098 309.607C653.098 307.668 652.775 305.777 652.127 303.935C651.48 302.092 650.528 300.395 649.27 298.844L565.206 374.43C566.932 375.561 568.819 376.418 570.868 377C572.917 377.581 575.02 377.872 577.177 377.872Z" fill="#203246"/>
<path d="M447.75 219C452.615 219 457.182 219.827 461.451 221.48C465.719 223.134 469.46 225.387 472.673 228.24C475.886 231.092 478.41 234.462 480.246 238.348C482.082 242.234 483 246.368 483 250.75C483 259.514 481.738 267.948 479.213 276.051C476.689 284.154 473.132 291.74 468.542 298.809C463.952 305.878 458.444 312.307 452.019 318.095C445.593 323.882 438.456 328.843 430.607 332.978C422.758 337.112 414.336 340.316 405.34 342.589C396.344 344.863 386.98 346 377.25 346C372.385 346 367.818 345.173 363.549 343.52C359.281 341.866 355.54 339.613 352.327 336.76C349.114 333.908 346.59 330.538 344.754 326.652C342.918 322.766 342 318.632 342 314.25C342 305.486 343.262 297.052 345.787 288.949C348.311 280.846 351.868 273.26 356.458 266.191C361.048 259.122 366.556 252.693 372.981 246.905C379.407 241.118 386.544 236.157 394.393 232.022C402.242 227.888 410.664 224.684 419.66 222.411C428.656 220.137 438.02 219 447.75 219ZM447.75 226.938C438.846 226.938 430.286 227.971 422.07 230.038C413.854 232.105 406.143 235.04 398.937 238.844C391.731 242.647 385.167 247.215 379.247 252.548C373.326 257.881 368.277 263.772 364.1 270.222C359.923 276.671 356.665 283.616 354.324 291.058C351.983 298.499 350.812 306.23 350.812 314.25C350.812 316.73 351.226 319.149 352.052 321.505C352.878 323.862 354.094 326.032 355.701 328.017L463.034 231.34C460.831 229.893 458.421 228.798 455.805 228.054C453.189 227.31 450.504 226.938 447.75 226.938ZM377.25 338.062C386.154 338.062 394.714 337.029 402.93 334.962C411.146 332.895 418.857 329.96 426.063 326.156C433.269 322.353 439.833 317.785 445.753 312.452C451.674 307.119 456.723 301.228 460.9 294.778C465.077 288.329 468.335 281.384 470.676 273.942C473.017 266.501 474.188 258.77 474.188 250.75C474.188 248.27 473.774 245.851 472.948 243.495C472.122 241.138 470.906 238.968 469.299 236.983L361.966 333.66C364.169 335.107 366.579 336.202 369.195 336.946C371.811 337.69 374.496 338.062 377.25 338.062Z" fill="#203246"/>
<path d="M399.908 280.739C399.799 280.837 399.626 280.788 399.584 280.648L393.827 261.466C393.805 261.391 393.827 261.311 393.885 261.259L405.751 250.618C405.855 250.525 406.021 250.565 406.071 250.697L406.985 253.113C406.993 253.136 407.006 253.157 407.023 253.176L407.1 253.262C407.173 253.344 407.166 253.471 407.084 253.545L401.635 258.431C401.553 258.505 401.546 258.631 401.62 258.714L404.495 261.931C404.569 262.013 404.695 262.02 404.777 261.947L410.729 256.609C410.833 256.516 410.999 256.556 411.049 256.687L411.902 258.93C411.911 258.953 411.924 258.974 411.94 258.993L412.003 259.063C412.076 259.145 412.069 259.272 411.987 259.345L406.694 264.092C406.612 264.165 406.605 264.292 406.679 264.374L409.607 267.651C409.681 267.734 409.807 267.741 409.889 267.667L416.05 262.143C416.154 262.049 416.32 262.089 416.37 262.221L417.284 264.638C417.293 264.661 417.306 264.682 417.322 264.701L417.399 264.786C417.472 264.869 417.465 264.995 417.383 265.069L409.21 272.398C409.128 272.472 409.001 272.465 408.928 272.383L405.925 269.022C405.851 268.94 405.725 268.933 405.642 269.007L401.14 273.044C401.082 273.096 401.059 273.178 401.082 273.253L402.599 278.17C402.622 278.245 402.599 278.326 402.541 278.378L399.908 280.739ZM397.659 261.739C397.601 261.791 397.578 261.873 397.601 261.947L400.041 269.892C400.083 270.032 400.256 270.08 400.365 269.982L403.779 266.921C403.861 266.847 403.868 266.721 403.794 266.638L398.767 261.014C398.694 260.931 398.568 260.924 398.485 260.998L397.659 261.739Z" fill="#203246"/>
<path d="M423.065 259.973C422.983 260.047 422.856 260.04 422.783 259.958L412.75 248.732C412.677 248.649 412.551 248.643 412.468 248.716L409.511 251.368C409.429 251.442 409.303 251.435 409.229 251.352L409.152 251.266C409.136 251.248 409.116 251.233 409.094 251.221L406.801 250.041C406.677 249.977 406.655 249.808 406.759 249.714L417.353 240.214C417.458 240.12 417.624 240.16 417.673 240.292L418.587 242.708C418.596 242.731 418.609 242.753 418.625 242.771L418.702 242.857C418.776 242.94 418.769 243.066 418.687 243.14L415.728 245.793C415.646 245.866 415.639 245.993 415.713 246.075L425.745 257.301C425.819 257.384 425.812 257.51 425.73 257.584L423.065 259.973Z" fill="#203246"/>
</svg>
