<svg width="1280" height="720" viewBox="0 0 1280 720" fill="none" xmlns="http://www.w3.org/2000/svg">
<g clip-path="url(#clip0_1_3)">
<rect width="1280" height="720" fill="#182534"/>
<path d="M1061.91 102.503C1074.88 102.503 1087.06 104.704 1098.44 109.106C1109.82 113.507 1119.79 119.504 1128.36 127.097C1136.93 134.69 1143.66 143.659 1148.55 154.002C1153.45 164.346 1155.9 175.351 1155.9 187.015C1155.9 210.344 1152.53 232.792 1145.8 254.36C1139.07 275.929 1129.58 296.121 1117.35 314.938C1105.11 333.755 1090.42 350.867 1073.29 366.273C1056.15 381.678 1037.12 394.883 1016.2 405.888C995.269 416.892 972.812 425.42 948.825 431.472C924.838 437.525 899.871 440.551 873.926 440.551C860.954 440.551 848.777 438.35 837.395 433.948C826.013 429.547 816.039 423.549 807.472 415.956C798.905 408.364 792.174 399.395 787.279 389.051C782.384 378.707 779.936 367.703 779.936 356.039C779.936 332.71 783.302 310.261 790.033 288.693C796.764 267.125 806.248 246.933 818.487 228.115C830.725 209.298 845.411 192.187 862.545 176.781C879.678 161.375 898.709 148.17 919.636 137.166C940.564 126.162 963.021 117.634 987.008 111.581C1011 105.529 1035.96 102.503 1061.91 102.503ZM1061.91 123.631C1038.16 123.631 1015.34 126.382 993.433 131.884C971.527 137.386 950.966 145.199 931.752 155.323C912.538 165.447 895.037 177.606 879.25 191.802C863.463 205.997 850 221.678 838.864 238.845C827.727 256.011 819.037 274.498 812.796 294.305C806.554 314.113 803.434 334.691 803.434 356.039C803.434 362.641 804.535 369.079 806.738 375.351C808.941 381.623 812.184 387.401 816.467 392.683L1102.66 135.35C1096.79 131.499 1090.36 128.583 1083.38 126.602C1076.41 124.621 1069.25 123.631 1061.91 123.631ZM873.926 419.423C897.669 419.423 920.493 416.672 942.4 411.17C964.306 405.668 984.867 397.855 1004.08 387.731C1023.29 377.607 1040.8 365.447 1056.58 351.252C1072.37 337.057 1085.83 321.376 1096.97 304.209C1108.11 287.043 1116.8 268.556 1123.04 248.748C1129.28 228.941 1132.4 208.363 1132.4 187.015C1132.4 180.412 1131.3 173.975 1129.09 167.703C1126.89 161.43 1123.65 155.653 1119.37 150.371L833.173 407.703C839.047 411.555 845.472 414.471 852.448 416.452C859.424 418.432 866.583 419.423 873.926 419.423Z" fill="#112D43"/>
<path d="M904.841 270.718C904.732 270.816 904.559 270.767 904.517 270.627L888.955 218.864C888.933 218.79 888.956 218.709 889.014 218.657L921.171 189.87C921.276 189.776 921.442 189.816 921.491 189.948L924.121 196.892C924.13 196.915 924.143 196.936 924.159 196.954L924.628 197.478C924.702 197.56 924.695 197.687 924.613 197.76L909.588 211.21C909.506 211.284 909.499 211.411 909.573 211.493L917.683 220.553C917.757 220.635 917.883 220.642 917.966 220.568L934.444 205.816C934.549 205.723 934.714 205.763 934.764 205.894L937.233 212.375C937.242 212.398 937.255 212.419 937.271 212.438L937.701 212.918C937.775 213 937.768 213.127 937.686 213.2L923.077 226.278C922.995 226.352 922.988 226.478 923.062 226.561L931.314 235.779C931.388 235.862 931.514 235.869 931.597 235.795L948.632 220.545C948.736 220.451 948.902 220.492 948.952 220.623L951.584 227.569C951.593 227.592 951.606 227.613 951.622 227.631L952.089 228.153C952.163 228.235 952.156 228.362 952.073 228.435L929.785 248.389C929.702 248.462 929.576 248.455 929.502 248.373L921.051 238.932C920.977 238.85 920.851 238.843 920.768 238.917L908.356 250.029C908.298 250.081 908.275 250.162 908.298 250.237L912.468 263.734C912.491 263.809 912.469 263.89 912.41 263.942L904.841 270.718ZM899.074 219.937C899.016 219.989 898.994 220.07 899.017 220.145L905.737 241.992C905.78 242.132 905.953 242.18 906.061 242.083L915.799 233.365C915.881 233.292 915.888 233.165 915.814 233.083L901.967 217.615C901.894 217.533 901.767 217.526 901.685 217.6L899.074 219.937Z" fill="#112D43"/>
<path d="M966.728 215.316C966.646 215.39 966.519 215.383 966.446 215.301L939.252 184.924C939.178 184.841 939.051 184.834 938.969 184.908L930.589 192.41C930.506 192.484 930.38 192.477 930.306 192.395L929.837 191.871C929.821 191.853 929.802 191.838 929.78 191.827L923.18 188.436C923.055 188.371 923.033 188.202 923.138 188.109L952.108 162.174C952.213 162.081 952.379 162.121 952.428 162.252L955.058 169.196C955.067 169.219 955.08 169.241 955.096 169.259L955.565 169.783C955.639 169.865 955.632 169.991 955.55 170.065L947.166 177.57C947.084 177.644 947.077 177.77 947.15 177.853L974.344 208.23C974.418 208.312 974.411 208.438 974.329 208.512L966.728 215.316Z" fill="#112D43"/>
<path d="M297.5 132C301.434 132 305.126 132.671 308.577 134.012C312.028 135.353 315.053 137.18 317.65 139.494C320.248 141.807 322.289 144.54 323.773 147.691C325.258 150.843 326 154.196 326 157.75C326 164.858 324.979 171.698 322.938 178.27C320.897 184.841 318.021 190.994 314.311 196.727C310.6 202.46 306.146 207.674 300.951 212.368C295.756 217.062 289.985 221.086 283.64 224.438C277.294 227.791 270.484 230.39 263.211 232.234C255.938 234.078 248.367 235 240.5 235C236.566 235 232.874 234.329 229.423 232.988C225.972 231.647 222.947 229.82 220.35 227.506C217.752 225.193 215.711 222.46 214.227 219.309C212.742 216.157 212 212.804 212 209.25C212 202.142 213.021 195.302 215.062 188.73C217.103 182.159 219.979 176.006 223.689 170.273C227.4 164.54 231.854 159.326 237.049 154.632C242.244 149.938 248.015 145.914 254.36 142.562C260.706 139.209 267.516 136.61 274.789 134.766C282.062 132.922 289.633 132 297.5 132ZM297.5 138.437C290.301 138.437 283.38 139.276 276.737 140.952C270.095 142.629 263.86 145.009 258.034 148.094C252.208 151.178 246.901 154.883 242.114 159.208C237.327 163.534 233.245 168.312 229.868 173.542C226.491 178.772 223.856 184.405 221.964 190.44C220.071 196.476 219.125 202.745 219.125 209.25C219.125 211.262 219.459 213.223 220.127 215.134C220.795 217.045 221.778 218.806 223.077 220.415L309.857 142.008C308.076 140.835 306.128 139.946 304.013 139.343C301.897 138.739 299.727 138.437 297.5 138.437ZM240.5 228.562C247.699 228.562 254.62 227.724 261.263 226.048C267.905 224.371 274.14 221.991 279.966 218.906C285.792 215.822 291.099 212.117 295.886 207.792C300.673 203.466 304.755 198.688 308.132 193.458C311.509 188.228 314.144 182.595 316.036 176.56C317.929 170.524 318.875 164.255 318.875 157.75C318.875 155.738 318.541 153.777 317.873 151.866C317.205 149.955 316.222 148.194 314.923 146.585L228.143 224.992C229.924 226.165 231.872 227.054 233.987 227.657C236.103 228.261 238.273 228.562 240.5 228.562Z" fill="#112D43"/>
<path d="M250.037 183.107C249.928 183.205 249.755 183.156 249.713 183.016L245.083 167.539C245.06 167.465 245.083 167.384 245.141 167.332L254.675 158.755C254.779 158.662 254.945 158.702 254.995 158.834L255.711 160.735C255.72 160.758 255.733 160.779 255.749 160.798L255.781 160.834C255.855 160.917 255.848 161.043 255.766 161.117L251.417 165.029C251.335 165.103 251.328 165.23 251.401 165.312L253.676 167.865C253.749 167.947 253.875 167.954 253.957 167.88L258.7 163.614C258.804 163.52 258.97 163.561 259.019 163.692L259.687 165.453C259.696 165.476 259.709 165.497 259.725 165.515L259.746 165.538C259.819 165.621 259.812 165.748 259.73 165.822L255.507 169.62C255.425 169.694 255.418 169.821 255.492 169.903L257.809 172.504C257.882 172.587 258.008 172.594 258.091 172.52L263.002 168.102C263.106 168.008 263.272 168.048 263.321 168.18L264.039 170.082C264.047 170.105 264.06 170.126 264.076 170.145L264.108 170.18C264.182 170.263 264.175 170.39 264.093 170.464L257.541 176.357C257.459 176.431 257.333 176.424 257.259 176.341L254.882 173.673C254.808 173.59 254.682 173.583 254.6 173.657L251.006 176.89C250.948 176.942 250.926 177.024 250.949 177.099L252.161 181.04C252.184 181.115 252.161 181.197 252.103 181.249L250.037 183.107ZM248.192 167.721C248.134 167.774 248.111 167.855 248.134 167.93L250.082 174.293C250.125 174.433 250.297 174.481 250.406 174.383L253.093 171.966C253.175 171.892 253.182 171.765 253.109 171.683L249.095 167.178C249.022 167.095 248.896 167.088 248.814 167.162L248.192 167.721Z" fill="#112D43"/>
<path d="M268.743 166.28C268.661 166.354 268.535 166.347 268.461 166.264L260.401 157.217C260.327 157.134 260.201 157.127 260.119 157.201L257.785 159.301C257.703 159.375 257.577 159.368 257.503 159.285L257.471 159.249C257.454 159.231 257.435 159.215 257.413 159.204L255.614 158.276C255.49 158.211 255.468 158.042 255.573 157.948L264.056 150.317C264.16 150.223 264.326 150.264 264.375 150.395L265.092 152.297C265.101 152.32 265.114 152.341 265.13 152.359L265.162 152.396C265.236 152.478 265.229 152.605 265.147 152.679L262.811 154.779C262.729 154.853 262.722 154.98 262.796 155.062L270.857 164.11C270.93 164.192 270.923 164.319 270.841 164.393L268.743 166.28Z" fill="#112D43"/>
<path d="M125.25 177C128.39 177 131.337 177.534 134.092 178.602C136.847 179.669 139.261 181.124 141.335 182.966C143.409 184.808 145.038 186.983 146.223 189.492C147.408 192.001 148 194.671 148 197.5C148 203.159 147.185 208.604 145.556 213.836C143.927 219.068 141.631 223.966 138.669 228.53C135.707 233.095 132.152 237.245 128.005 240.982C123.858 244.719 119.251 247.923 114.186 250.592C109.121 253.261 103.685 255.33 97.8789 256.798C92.0729 258.266 86.0299 259 79.75 259C76.61 259 73.6626 258.466 70.9077 257.398C68.1528 256.331 65.7386 254.876 63.665 253.034C61.5915 251.192 59.9622 249.017 58.7773 246.508C57.5924 243.999 57 241.329 57 238.5C57 232.841 57.8146 227.396 59.4438 222.164C61.0731 216.932 63.3688 212.034 66.3311 207.47C69.2933 202.905 72.848 198.755 76.9951 195.018C81.1423 191.281 85.7485 188.077 90.814 185.408C95.8794 182.739 101.315 180.67 107.121 179.202C112.927 177.734 118.97 177 125.25 177ZM125.25 182.125C119.503 182.125 113.979 182.792 108.676 184.127C103.374 185.462 98.3973 187.357 93.7466 189.812C89.0959 192.268 84.8599 195.218 81.0386 198.661C77.2173 202.104 73.9588 205.908 71.2632 210.072C68.5675 214.236 66.4644 218.721 64.9536 223.525C63.4429 228.33 62.6875 233.322 62.6875 238.5C62.6875 240.102 62.9541 241.663 63.4873 243.185C64.0205 244.706 64.8055 246.107 65.8423 247.389L135.114 184.968C133.692 184.034 132.137 183.326 130.449 182.846C128.76 182.365 127.027 182.125 125.25 182.125ZM79.75 253.875C85.4967 253.875 91.0213 253.208 96.3237 251.873C101.626 250.538 106.603 248.643 111.253 246.188C115.904 243.732 120.14 240.782 123.961 237.339C127.783 233.896 131.041 230.092 133.737 225.928C136.432 221.764 138.536 217.279 140.046 212.475C141.557 207.67 142.312 202.678 142.312 197.5C142.312 195.898 142.046 194.337 141.513 192.815C140.979 191.294 140.194 189.893 139.158 188.611L69.8857 251.032C71.3076 251.966 72.8628 252.674 74.5513 253.154C76.2397 253.635 77.9727 253.875 79.75 253.875Z" fill="#112D43"/>
<path d="M87.4103 217.645C87.3013 217.742 87.1278 217.694 87.0857 217.553L83.4154 205.318C83.3931 205.244 83.4157 205.163 83.4735 205.111L91.021 198.34C91.1255 198.246 91.2913 198.287 91.341 198.418L91.8901 199.871C91.8984 199.893 91.9108 199.913 91.9265 199.931V199.931C91.9972 200.01 91.9905 200.132 91.9115 200.202L88.4946 203.268C88.4124 203.342 88.4054 203.468 88.479 203.551L90.2402 205.522C90.3138 205.605 90.4401 205.612 90.5223 205.538L94.234 202.208C94.3384 202.114 94.5041 202.154 94.554 202.286L95.0646 203.629C95.0724 203.649 95.084 203.668 95.0987 203.685V203.685C95.165 203.759 95.1587 203.873 95.0846 203.94L91.7596 206.923C91.6773 206.997 91.6703 207.123 91.7439 207.206L93.5395 209.216C93.6131 209.298 93.7394 209.305 93.8216 209.231L97.6678 205.781C97.7723 205.687 97.9382 205.727 97.9879 205.859L98.5374 207.312C98.5457 207.334 98.558 207.355 98.5737 207.372V207.372C98.6441 207.451 98.6374 207.572 98.5587 207.643L93.3831 212.286C93.3009 212.36 93.1746 212.353 93.101 212.271L91.2572 210.207C91.1837 210.124 91.0574 210.117 90.9751 210.191L88.1559 212.72C88.0977 212.772 88.0752 212.854 88.0982 212.929L89.0502 216.017C89.0732 216.092 89.0507 216.173 88.9925 216.225L87.4103 217.645ZM85.9092 205.421C85.8511 205.473 85.8286 205.554 85.8515 205.629L87.3801 210.609C87.4229 210.749 87.5957 210.797 87.7043 210.7L89.7723 208.844C89.8545 208.771 89.8615 208.644 89.7879 208.562L86.6382 205.036C86.5646 204.953 86.4383 204.946 86.3561 205.02L85.9092 205.421Z" fill="#112D43"/>
<path d="M102.325 204.264C102.243 204.338 102.117 204.331 102.043 204.248L95.6626 197.106C95.5891 197.023 95.4628 197.016 95.3805 197.09L93.5719 198.713C93.4929 198.784 93.3715 198.777 93.3008 198.698V198.698C93.2851 198.68 93.2663 198.666 93.2455 198.655L91.8674 197.945C91.7428 197.881 91.7211 197.712 91.8255 197.618L98.5092 191.622C98.6137 191.528 98.7795 191.569 98.8292 191.7L99.3783 193.153C99.3866 193.175 99.399 193.195 99.4147 193.213V193.213C99.4854 193.292 99.4786 193.414 99.3997 193.484L97.5901 195.108C97.5079 195.182 97.5009 195.308 97.5745 195.391L103.955 202.533C104.028 202.615 104.021 202.742 103.939 202.816L102.325 204.264Z" fill="#112D43"/>
<path d="M458.75 153C461.269 153 463.633 153.43 465.843 154.289C468.053 155.148 469.99 156.319 471.653 157.802C473.317 159.284 474.624 161.035 475.574 163.055C476.525 165.074 477 167.223 477 169.5C477 174.055 476.347 178.437 475.04 182.648C473.733 186.859 471.891 190.802 469.515 194.476C467.138 198.149 464.287 201.49 460.96 204.498C457.633 207.506 453.938 210.084 449.875 212.232C445.811 214.381 441.451 216.046 436.793 217.228C432.135 218.409 427.288 219 422.25 219C419.731 219 417.367 218.57 415.157 217.711C412.947 216.852 411.01 215.681 409.347 214.198C407.683 212.716 406.376 210.965 405.426 208.945C404.475 206.926 404 204.777 404 202.5C404 197.945 404.653 193.563 405.96 189.352C407.267 185.141 409.109 181.198 411.485 177.524C413.862 173.851 416.713 170.51 420.04 167.502C423.367 164.494 427.062 161.916 431.125 159.768C435.189 157.619 439.549 155.954 444.207 154.772C448.865 153.591 453.712 153 458.75 153ZM458.75 157.125C454.14 157.125 449.708 157.662 445.455 158.736C441.201 159.811 437.209 161.336 433.478 163.312C429.747 165.289 426.349 167.663 423.284 170.435C420.218 173.206 417.604 176.268 415.442 179.619C413.279 182.971 411.592 186.58 410.38 190.447C409.168 194.314 408.563 198.332 408.563 202.5C408.563 203.789 408.776 205.046 409.204 206.271C409.632 207.495 410.262 208.623 411.093 209.654L466.663 159.413C465.522 158.661 464.275 158.092 462.92 157.705C461.566 157.318 460.176 157.125 458.75 157.125ZM422.25 214.875C426.86 214.875 431.292 214.338 435.545 213.264C439.799 212.189 443.791 210.664 447.522 208.688C451.253 206.711 454.651 204.337 457.716 201.565C460.782 198.794 463.396 195.732 465.558 192.381C467.721 189.029 469.408 185.42 470.62 181.553C471.832 177.686 472.437 173.668 472.437 169.5C472.437 168.211 472.224 166.954 471.796 165.729C471.368 164.505 470.738 163.377 469.907 162.346L414.337 212.587C415.478 213.339 416.725 213.908 418.08 214.295C419.434 214.682 420.824 214.875 422.25 214.875Z" fill="#112D43"/>
<path d="M428.441 185.673C428.332 185.771 428.159 185.722 428.117 185.581L425.198 175.817C425.175 175.742 425.198 175.661 425.256 175.609L431.249 170.214C431.353 170.12 431.519 170.161 431.569 170.293L431.989 171.408C431.995 171.426 432.005 171.442 432.018 171.457V171.457C432.075 171.52 432.069 171.618 432.006 171.675L429.294 174.116C429.212 174.19 429.205 174.317 429.278 174.399L430.639 175.928C430.713 176.01 430.839 176.017 430.921 175.943L433.827 173.327C433.931 173.234 434.096 173.274 434.146 173.405L434.535 174.433C434.542 174.45 434.551 174.465 434.563 174.478V174.478C434.616 174.538 434.611 174.63 434.551 174.683L431.913 177.058C431.831 177.132 431.824 177.259 431.898 177.341L433.286 178.9C433.359 178.983 433.485 178.99 433.568 178.916L436.581 176.203C436.685 176.109 436.851 176.15 436.901 176.282L437.321 177.398C437.328 177.415 437.338 177.432 437.35 177.446V177.446C437.407 177.509 437.401 177.607 437.338 177.664L433.216 181.375C433.134 181.449 433.008 181.442 432.934 181.359L431.507 179.757C431.434 179.674 431.308 179.667 431.226 179.741L429.012 181.734C428.954 181.786 428.931 181.867 428.954 181.942L429.703 184.38C429.726 184.455 429.704 184.536 429.646 184.588L428.441 185.673ZM427.21 175.859C427.152 175.911 427.129 175.992 427.152 176.067L428.353 179.993C428.396 180.133 428.568 180.181 428.677 180.083L430.261 178.657C430.343 178.583 430.35 178.456 430.276 178.374L427.802 175.595C427.728 175.512 427.602 175.505 427.52 175.579L427.21 175.859Z" fill="#112D43"/>
<path d="M440.389 174.918C440.307 174.992 440.181 174.985 440.107 174.902L435.041 169.212C434.968 169.129 434.842 169.123 434.76 169.196L433.338 170.476C433.275 170.533 433.177 170.528 433.12 170.464V170.464C433.108 170.45 433.093 170.438 433.076 170.43L432.021 169.885C431.897 169.82 431.875 169.651 431.979 169.557L437.256 164.807C437.36 164.713 437.526 164.754 437.576 164.885L437.996 166.001C438.002 166.019 438.012 166.035 438.025 166.049V166.049C438.082 166.113 438.076 166.211 438.013 166.268L436.591 167.548C436.508 167.622 436.501 167.749 436.575 167.831L441.641 173.522C441.714 173.604 441.707 173.731 441.625 173.805L440.389 174.918Z" fill="#112D43"/>
<path d="M750.25 139C754.08 139 757.675 139.651 761.036 140.953C764.396 142.255 767.341 144.029 769.87 146.275C772.399 148.521 774.387 151.174 775.832 154.234C777.277 157.294 778 160.549 778 164C778 170.901 777.006 177.542 775.019 183.922C773.032 190.302 770.231 196.275 766.618 201.842C763.005 207.408 758.669 212.47 753.61 217.027C748.552 221.585 742.933 225.491 736.754 228.746C730.576 232.001 723.945 234.524 716.863 236.314C709.781 238.105 702.41 239 694.75 239C690.92 239 687.325 238.349 683.964 237.047C680.604 235.745 677.659 233.971 675.13 231.725C672.601 229.479 670.613 226.826 669.168 223.766C667.723 220.706 667 217.451 667 214C667 207.099 667.994 200.458 669.981 194.078C671.968 187.698 674.769 181.725 678.382 176.158C681.995 170.592 686.331 165.53 691.39 160.973C696.448 156.415 702.067 152.509 708.246 149.254C714.424 145.999 721.055 143.476 728.137 141.686C735.219 139.895 742.59 139 750.25 139ZM750.25 145.25C743.24 145.25 736.501 146.064 730.034 147.691C723.566 149.319 717.496 151.63 711.823 154.625C706.15 157.62 700.983 161.217 696.322 165.416C691.661 169.615 687.686 174.254 684.398 179.332C681.11 184.41 678.544 189.879 676.702 195.738C674.859 201.598 673.938 207.685 673.938 214C673.938 215.953 674.263 217.857 674.913 219.713C675.563 221.568 676.521 223.277 677.786 224.84L762.282 148.717C760.548 147.577 758.651 146.715 756.591 146.129C754.532 145.543 752.418 145.25 750.25 145.25ZM694.75 232.75C701.76 232.75 708.499 231.936 714.966 230.309C721.434 228.681 727.504 226.37 733.177 223.375C738.85 220.38 744.017 216.783 748.678 212.584C753.339 208.385 757.314 203.746 760.602 198.668C763.89 193.59 766.456 188.121 768.298 182.262C770.141 176.402 771.062 170.315 771.062 164C771.062 162.047 770.737 160.143 770.087 158.287C769.437 156.432 768.479 154.723 767.214 153.16L682.718 229.283C684.452 230.423 686.349 231.285 688.409 231.871C690.468 232.457 692.582 232.75 694.75 232.75Z" fill="#112D43"/>
<path d="M704.042 188.613C703.933 188.711 703.76 188.662 703.718 188.521L699.213 173.507C699.191 173.433 699.213 173.352 699.271 173.301L708.546 164.982C708.65 164.888 708.816 164.928 708.866 165.06L709.561 166.897C709.569 166.92 709.582 166.941 709.598 166.96L709.626 166.99C709.699 167.072 709.692 167.199 709.61 167.273L705.384 171.063C705.302 171.137 705.295 171.264 705.368 171.346L707.575 173.816C707.649 173.898 707.775 173.905 707.857 173.832L712.465 169.699C712.569 169.605 712.735 169.645 712.785 169.776L713.432 171.478C713.44 171.501 713.453 171.522 713.47 171.54L713.485 171.557C713.559 171.64 713.552 171.766 713.47 171.84L709.366 175.521C709.284 175.594 709.277 175.721 709.351 175.803L711.6 178.32C711.673 178.403 711.799 178.41 711.882 178.336L716.653 174.056C716.758 173.962 716.924 174.002 716.974 174.134L717.669 175.972C717.677 175.995 717.69 176.016 717.707 176.035L717.733 176.064C717.807 176.147 717.8 176.273 717.718 176.347L711.347 182.061C711.264 182.135 711.138 182.128 711.065 182.046L708.757 179.463C708.684 179.381 708.557 179.374 708.475 179.447L704.982 182.58C704.924 182.632 704.902 182.714 704.925 182.788L706.103 186.608C706.126 186.683 706.103 186.765 706.045 186.817L704.042 188.613ZM702.242 173.679C702.184 173.731 702.161 173.812 702.184 173.887L704.077 180.053C704.12 180.192 704.293 180.24 704.401 180.143L707.008 177.805C707.09 177.732 707.097 177.605 707.023 177.523L703.123 173.157C703.049 173.075 702.923 173.068 702.841 173.142L702.242 173.679Z" fill="#112D43"/>
<path d="M722.254 172.278C722.172 172.352 722.045 172.345 721.972 172.262L714.131 163.486C714.057 163.404 713.931 163.397 713.849 163.471L711.584 165.502C711.502 165.576 711.376 165.569 711.302 165.486L711.275 165.456C711.258 165.438 711.239 165.423 711.217 165.411L709.474 164.514C709.349 164.45 709.328 164.28 709.432 164.187L717.68 156.789C717.784 156.695 717.95 156.736 718 156.867L718.694 158.704C718.703 158.727 718.716 158.749 718.732 158.767L718.759 158.797C718.833 158.88 718.826 159.006 718.744 159.08L716.478 161.112C716.396 161.186 716.389 161.312 716.463 161.395L724.304 170.171C724.378 170.253 724.371 170.38 724.288 170.453L722.254 172.278Z" fill="#112D43"/>
<path d="M579.5 223C582.053 223 584.45 223.43 586.69 224.289C588.931 225.148 590.894 226.319 592.58 227.802C594.266 229.284 595.591 231.035 596.555 233.055C597.518 235.074 598 237.223 598 239.5C598 244.055 597.338 248.437 596.013 252.648C594.688 256.859 592.821 260.802 590.412 264.476C588.003 268.149 585.113 271.49 581.74 274.498C578.368 277.506 574.622 280.084 570.503 282.232C566.384 284.381 561.964 286.046 557.242 287.228C552.521 288.409 547.607 289 542.5 289C539.947 289 537.55 288.57 535.31 287.711C533.069 286.852 531.106 285.681 529.42 284.198C527.734 282.716 526.409 280.965 525.445 278.945C524.482 276.926 524 274.777 524 272.5C524 267.945 524.662 263.563 525.987 259.352C527.312 255.141 529.179 251.198 531.588 247.524C533.997 243.851 536.887 240.51 540.26 237.502C543.632 234.494 547.378 231.916 551.497 229.768C555.616 227.619 560.036 225.954 564.758 224.772C569.479 223.591 574.393 223 579.5 223ZM579.5 227.125C574.827 227.125 570.334 227.662 566.022 228.736C561.711 229.811 557.664 231.336 553.882 233.312C550.1 235.289 546.655 237.663 543.548 240.435C540.44 243.206 537.791 246.268 535.599 249.619C533.407 252.971 531.696 256.58 530.468 260.447C529.239 264.314 528.625 268.332 528.625 272.5C528.625 273.789 528.842 275.046 529.275 276.271C529.709 277.495 530.347 278.623 531.19 279.654L587.521 229.413C586.365 228.661 585.101 228.092 583.728 227.705C582.354 227.318 580.945 227.125 579.5 227.125ZM542.5 284.875C547.173 284.875 551.666 284.338 555.978 283.264C560.289 282.189 564.336 280.664 568.118 278.688C571.9 276.711 575.345 274.337 578.452 271.565C581.56 268.794 584.209 265.732 586.401 262.381C588.593 259.029 590.304 255.42 591.532 251.553C592.761 247.686 593.375 243.668 593.375 239.5C593.375 238.211 593.158 236.954 592.725 235.729C592.291 234.505 591.653 233.377 590.81 232.346L534.479 282.587C535.635 283.339 536.899 283.908 538.272 284.295C539.646 284.682 541.055 284.875 542.5 284.875Z" fill="#112D43"/>
<path d="M548.774 255.674C548.665 255.771 548.49 255.723 548.448 255.583L545.488 245.816C545.465 245.742 545.488 245.662 545.546 245.61L551.624 240.213C551.729 240.12 551.896 240.16 551.946 240.291L552.372 241.408C552.379 241.426 552.389 241.442 552.402 241.457V241.457C552.459 241.52 552.454 241.618 552.39 241.675L549.639 244.117C549.557 244.19 549.55 244.316 549.624 244.398L551.005 245.929C551.079 246.011 551.206 246.018 551.288 245.944L554.237 243.326C554.342 243.233 554.508 243.273 554.558 243.404L554.954 244.433C554.96 244.45 554.969 244.465 554.981 244.478V244.478C555.035 244.538 555.03 244.63 554.97 244.683L552.295 247.059C552.212 247.132 552.205 247.258 552.279 247.34L553.688 248.901C553.762 248.983 553.889 248.99 553.971 248.917L557.029 246.202C557.134 246.109 557.301 246.149 557.351 246.28L557.778 247.398C557.784 247.415 557.794 247.432 557.807 247.446V247.446C557.864 247.509 557.859 247.607 557.795 247.664L553.615 251.376C553.532 251.449 553.405 251.442 553.331 251.36L551.883 249.756C551.809 249.674 551.682 249.667 551.6 249.74L549.354 251.734C549.295 251.786 549.273 251.867 549.296 251.941L550.056 254.381C550.079 254.455 550.056 254.536 549.998 254.588L548.774 255.674ZM547.527 245.859C547.468 245.911 547.446 245.992 547.469 246.066L548.687 249.994C548.73 250.133 548.904 250.181 549.013 250.085L550.621 248.656C550.704 248.583 550.711 248.457 550.637 248.375L548.127 245.594C548.053 245.512 547.926 245.505 547.843 245.578L547.527 245.859Z" fill="#112D43"/>
<path d="M560.886 244.919C560.804 244.992 560.677 244.985 560.603 244.903L555.466 239.211C555.392 239.129 555.265 239.122 555.182 239.195L553.74 240.476C553.675 240.533 553.577 240.528 553.519 240.464V240.464C553.507 240.45 553.491 240.438 553.474 240.43L552.404 239.884C552.278 239.82 552.256 239.651 552.361 239.558L557.713 234.806C557.818 234.713 557.985 234.753 558.035 234.884L558.461 236.001C558.468 236.019 558.478 236.035 558.491 236.049V236.049C558.549 236.113 558.543 236.211 558.479 236.268L557.036 237.549C556.953 237.623 556.946 237.749 557.02 237.831L562.157 243.523C562.231 243.605 562.224 243.73 562.142 243.804L560.886 244.919Z" fill="#112D43"/>
<path d="M581.5 118C582.949 118 584.31 118.247 585.581 118.742C586.853 119.237 587.967 119.911 588.924 120.765C589.881 121.618 590.633 122.626 591.18 123.789C591.727 124.952 592 126.189 592 127.5C592 130.122 591.624 132.646 590.872 135.07C590.12 137.495 589.061 139.765 587.693 141.88C586.326 143.995 584.686 145.919 582.771 147.65C580.857 149.382 578.731 150.867 576.394 152.104C574.056 153.34 571.547 154.299 568.867 154.979C566.188 155.66 563.398 156 560.5 156C559.051 156 557.69 155.753 556.419 155.258C555.147 154.763 554.033 154.089 553.076 153.235C552.119 152.382 551.367 151.374 550.82 150.211C550.273 149.048 550 147.811 550 146.5C550 143.878 550.376 141.354 551.128 138.93C551.88 136.505 552.939 134.235 554.307 132.12C555.674 130.005 557.314 128.081 559.229 126.35C561.143 124.618 563.269 123.133 565.606 121.896C567.944 120.66 570.453 119.701 573.133 119.021C575.812 118.34 578.602 118 581.5 118ZM581.5 120.375C578.848 120.375 576.298 120.684 573.851 121.303C571.403 121.921 569.106 122.799 566.96 123.937C564.813 125.076 562.858 126.442 561.095 128.038C559.331 129.634 557.827 131.396 556.583 133.326C555.339 135.256 554.368 137.334 553.671 139.561C552.974 141.787 552.625 144.1 552.625 146.5C552.625 147.242 552.748 147.966 552.994 148.671C553.24 149.376 553.603 150.025 554.081 150.619L586.053 121.692C585.396 121.259 584.679 120.932 583.899 120.709C583.12 120.486 582.32 120.375 581.5 120.375ZM560.5 153.625C563.152 153.625 565.702 153.316 568.149 152.697C570.597 152.079 572.894 151.201 575.04 150.062C577.187 148.924 579.142 147.558 580.905 145.962C582.669 144.366 584.173 142.604 585.417 140.674C586.661 138.744 587.632 136.666 588.329 134.439C589.026 132.213 589.375 129.9 589.375 127.5C589.375 126.758 589.252 126.034 589.006 125.329C588.76 124.624 588.397 123.975 587.919 123.381L555.947 152.308C556.604 152.741 557.321 153.068 558.101 153.291C558.88 153.514 559.68 153.625 560.5 153.625Z" fill="#112D43"/>
<path d="M564.161 136.722C564.052 136.82 563.879 136.771 563.837 136.631L562.211 131.189C562.189 131.114 562.212 131.033 562.269 130.981L565.586 127.994C565.69 127.9 565.855 127.941 565.905 128.072L566.103 128.599C566.107 128.609 566.113 128.618 566.12 128.627V128.627C566.153 128.663 566.149 128.72 566.113 128.752L564.616 130.101C564.534 130.175 564.527 130.302 564.6 130.384L565.27 131.137C565.344 131.22 565.47 131.227 565.552 131.153L567.069 129.786C567.173 129.692 567.338 129.733 567.388 129.864L567.568 130.34C567.572 130.35 567.577 130.359 567.584 130.366V130.366C567.615 130.401 567.612 130.454 567.577 130.484L566.123 131.795C566.041 131.869 566.034 131.995 566.107 132.078L566.793 132.849C566.866 132.931 566.992 132.938 567.075 132.864L568.653 131.442C568.758 131.348 568.923 131.389 568.973 131.52L569.171 132.047C569.175 132.057 569.181 132.067 569.188 132.075V132.075C569.22 132.111 569.217 132.168 569.181 132.2L566.872 134.28C566.79 134.354 566.664 134.347 566.591 134.265L565.883 133.469C565.809 133.386 565.683 133.379 565.601 133.453L564.431 134.507C564.373 134.559 564.35 134.641 564.373 134.716L564.772 136.015C564.795 136.09 564.773 136.171 564.715 136.224L564.161 136.722ZM563.394 131.125C563.336 131.177 563.313 131.258 563.336 131.333L563.972 133.414C564.015 133.554 564.188 133.602 564.296 133.505L565.046 132.829C565.128 132.755 565.135 132.628 565.061 132.546L563.751 131.072C563.677 130.99 563.551 130.983 563.469 131.057L563.394 131.125Z" fill="#112D43"/>
<path d="M570.999 130.562C570.917 130.636 570.791 130.629 570.718 130.547L567.916 127.398C567.842 127.315 567.716 127.308 567.634 127.382L566.879 128.062C566.843 128.095 566.787 128.092 566.754 128.055V128.055C566.747 128.047 566.738 128.04 566.729 128.035L566.231 127.778C566.107 127.714 566.085 127.544 566.189 127.45L569.042 124.881C569.146 124.787 569.312 124.827 569.361 124.959L569.559 125.485C569.563 125.496 569.569 125.505 569.576 125.513V125.513C569.609 125.55 569.606 125.606 569.569 125.639L568.814 126.319C568.732 126.393 568.725 126.52 568.798 126.603L571.6 129.752C571.673 129.835 571.666 129.961 571.584 130.035L570.999 130.562Z" fill="#112D43"/>
<path d="M1291 236C1294.31 236 1297.42 236.566 1300.33 237.699C1303.23 238.832 1305.78 240.375 1307.97 242.33C1310.16 244.284 1311.87 246.592 1313.12 249.254C1314.37 251.916 1315 254.748 1315 257.75C1315 263.754 1314.14 269.531 1312.42 275.082C1310.7 280.633 1308.28 285.83 1305.16 290.672C1302.03 295.515 1298.28 299.919 1293.91 303.884C1289.53 307.849 1284.67 311.247 1279.33 314.079C1273.98 316.911 1268.25 319.106 1262.12 320.664C1256 322.221 1249.62 323 1243 323C1239.69 323 1236.58 322.434 1233.67 321.301C1230.77 320.168 1228.22 318.625 1226.03 316.67C1223.84 314.716 1222.12 312.408 1220.87 309.746C1219.62 307.084 1219 304.252 1219 301.25C1219 295.246 1219.86 289.469 1221.58 283.918C1223.3 278.367 1225.72 273.17 1228.84 268.328C1231.97 263.485 1235.72 259.081 1240.09 255.116C1244.47 251.151 1249.33 247.753 1254.67 244.921C1260.02 242.089 1265.75 239.894 1271.87 238.336C1278 236.779 1284.38 236 1291 236ZM1291 241.438C1284.94 241.438 1279.11 242.146 1273.52 243.562C1267.92 244.978 1262.67 246.988 1257.77 249.594C1252.86 252.199 1248.39 255.329 1244.36 258.982C1240.33 262.635 1236.89 266.671 1234.05 271.089C1231.2 275.507 1228.98 280.265 1227.39 285.362C1225.8 290.46 1225 295.756 1225 301.25C1225 302.949 1225.28 304.606 1225.84 306.22C1226.41 307.834 1227.23 309.321 1228.33 310.681L1301.41 244.454C1299.91 243.462 1298.27 242.712 1296.48 242.202C1294.7 241.692 1292.88 241.438 1291 241.438ZM1243 317.562C1249.06 317.562 1254.89 316.854 1260.48 315.438C1266.08 314.022 1271.33 312.012 1276.23 309.406C1281.14 306.801 1285.61 303.671 1289.64 300.018C1293.67 296.365 1297.11 292.329 1299.95 287.911C1302.8 283.493 1305.02 278.735 1306.61 273.638C1308.2 268.54 1309 263.244 1309 257.75C1309 256.051 1308.72 254.394 1308.16 252.78C1307.59 251.166 1306.77 249.679 1305.67 248.319L1232.59 314.546C1234.09 315.538 1235.73 316.288 1237.52 316.798C1239.3 317.308 1241.12 317.562 1243 317.562Z" fill="#112D43"/>
<path d="M1251.07 279.135C1250.96 279.233 1250.79 279.184 1250.74 279.044L1246.86 266.038C1246.84 265.963 1246.87 265.882 1246.92 265.83L1254.9 258.63C1255.01 258.536 1255.17 258.576 1255.22 258.708L1255.81 260.266C1255.82 260.289 1255.83 260.31 1255.85 260.329L1255.85 260.332C1255.92 260.414 1255.91 260.541 1255.83 260.615L1252.22 263.877C1252.13 263.951 1252.13 264.078 1252.2 264.161L1254.07 266.27C1254.15 266.353 1254.27 266.36 1254.36 266.286L1258.29 262.734C1258.4 262.64 1258.56 262.68 1258.61 262.812L1259.16 264.253C1259.16 264.274 1259.18 264.295 1259.19 264.312V264.312C1259.26 264.391 1259.26 264.512 1259.18 264.583L1255.66 267.755C1255.58 267.829 1255.57 267.956 1255.65 268.039L1257.56 270.189C1257.63 270.271 1257.75 270.278 1257.84 270.204L1261.91 266.524C1262.02 266.43 1262.18 266.471 1262.23 266.603L1262.82 268.161C1262.83 268.184 1262.84 268.205 1262.86 268.224L1262.86 268.226C1262.93 268.309 1262.93 268.436 1262.84 268.51L1257.37 273.445C1257.29 273.519 1257.17 273.513 1257.09 273.43L1255.13 271.223C1255.06 271.14 1254.93 271.133 1254.85 271.207L1251.86 273.903C1251.8 273.956 1251.78 274.037 1251.8 274.112L1252.81 277.403C1252.84 277.478 1252.81 277.56 1252.76 277.612L1251.07 279.135ZM1249.49 266.159C1249.43 266.211 1249.41 266.293 1249.43 266.368L1251.05 271.676C1251.1 271.816 1251.27 271.864 1251.38 271.767L1253.58 269.778C1253.66 269.704 1253.67 269.578 1253.6 269.495L1250.26 265.736C1250.19 265.654 1250.06 265.647 1249.98 265.721L1249.49 266.159Z" fill="#112D43"/>
<path d="M1266.81 264.934C1266.72 265.008 1266.6 265.001 1266.53 264.918L1259.78 257.323C1259.71 257.24 1259.58 257.233 1259.5 257.307L1257.58 259.039C1257.5 259.113 1257.37 259.106 1257.3 259.023L1257.29 259.02C1257.28 259.002 1257.26 258.987 1257.24 258.976L1255.77 258.215C1255.64 258.15 1255.62 257.981 1255.73 257.887L1262.8 251.502C1262.91 251.408 1263.07 251.449 1263.12 251.58L1263.71 253.138C1263.72 253.161 1263.73 253.183 1263.74 253.201L1263.75 253.204C1263.82 253.286 1263.81 253.413 1263.73 253.487L1261.81 255.22C1261.73 255.294 1261.72 255.421 1261.8 255.503L1268.54 263.099C1268.62 263.181 1268.61 263.308 1268.53 263.382L1266.81 264.934Z" fill="#112D43"/>
<path d="M1250 148C1251.93 148 1253.75 148.332 1255.44 148.996C1257.14 149.66 1258.62 150.565 1259.9 151.71C1261.17 152.856 1262.18 154.209 1262.91 155.77C1263.64 157.33 1264 158.99 1264 160.75C1264 164.27 1263.5 167.656 1262.5 170.91C1261.49 174.164 1260.08 177.21 1258.26 180.049C1256.43 182.888 1254.25 185.47 1251.7 187.794C1249.14 190.118 1246.31 192.11 1243.19 193.771C1240.07 195.431 1236.73 196.717 1233.16 197.63C1229.58 198.543 1225.86 199 1222 199C1220.07 199 1218.25 198.668 1216.56 198.004C1214.86 197.34 1213.38 196.435 1212.1 195.29C1210.83 194.144 1209.82 192.791 1209.09 191.23C1208.36 189.67 1208 188.01 1208 186.25C1208 182.73 1208.5 179.344 1209.5 176.09C1210.51 172.836 1211.92 169.79 1213.74 166.951C1215.57 164.112 1217.75 161.53 1220.3 159.206C1222.86 156.882 1225.69 154.89 1228.81 153.229C1231.93 151.569 1235.27 150.283 1238.84 149.37C1242.42 148.457 1246.14 148 1250 148ZM1250 151.188C1246.46 151.188 1243.06 151.603 1239.8 152.433C1236.54 153.263 1233.48 154.441 1230.61 155.969C1227.75 157.496 1225.14 159.331 1222.79 161.472C1220.44 163.614 1218.44 165.979 1216.78 168.569C1215.12 171.159 1213.82 173.948 1212.89 176.937C1211.96 179.925 1211.5 183.029 1211.5 186.25C1211.5 187.246 1211.66 188.217 1211.99 189.164C1212.32 190.11 1212.8 190.981 1213.44 191.778L1256.07 152.956C1255.2 152.375 1254.24 151.935 1253.2 151.636C1252.16 151.337 1251.09 151.188 1250 151.188ZM1222 195.812C1225.54 195.812 1228.94 195.397 1232.2 194.567C1235.46 193.737 1238.52 192.559 1241.39 191.031C1244.25 189.504 1246.86 187.669 1249.21 185.528C1251.56 183.386 1253.56 181.021 1255.22 178.431C1256.88 175.841 1258.18 173.052 1259.11 170.063C1260.04 167.075 1260.5 163.971 1260.5 160.75C1260.5 159.754 1260.34 158.783 1260.01 157.836C1259.68 156.89 1259.2 156.019 1258.56 155.222L1215.93 194.044C1216.8 194.625 1217.76 195.065 1218.8 195.364C1219.84 195.663 1220.91 195.812 1222 195.812Z" fill="#112D43"/>
<path d="M1226.8 173.198C1226.69 173.297 1226.52 173.248 1226.48 173.107L1224.27 165.659C1224.25 165.584 1224.27 165.503 1224.33 165.451L1228.85 161.347C1228.96 161.253 1229.12 161.293 1229.17 161.425L1229.47 162.225C1229.48 162.238 1229.48 162.251 1229.49 162.262V162.262C1229.54 162.311 1229.53 162.387 1229.48 162.431L1227.44 164.286C1227.36 164.36 1227.35 164.488 1227.42 164.57L1228.41 165.682C1228.48 165.765 1228.6 165.772 1228.69 165.698L1230.83 163.753C1230.94 163.658 1231.1 163.699 1231.15 163.831L1231.42 164.562C1231.43 164.575 1231.44 164.587 1231.45 164.597V164.597C1231.49 164.643 1231.48 164.714 1231.44 164.755L1229.45 166.559C1229.37 166.634 1229.36 166.761 1229.43 166.844L1230.44 167.98C1230.51 168.062 1230.63 168.069 1230.72 167.995L1232.94 165.975C1233.05 165.881 1233.21 165.921 1233.26 166.053L1233.56 166.853C1233.57 166.866 1233.57 166.879 1233.58 166.89V166.89C1233.63 166.939 1233.62 167.014 1233.57 167.058L1230.45 169.895C1230.36 169.969 1230.24 169.962 1230.17 169.879L1229.13 168.71C1229.06 168.627 1228.93 168.62 1228.85 168.694L1227.21 170.183C1227.15 170.236 1227.13 170.318 1227.15 170.393L1227.71 172.22C1227.73 172.295 1227.71 172.377 1227.65 172.429L1226.8 173.198ZM1225.83 165.644C1225.77 165.696 1225.75 165.778 1225.77 165.853L1226.66 168.789C1226.7 168.929 1226.88 168.978 1226.98 168.88L1228.11 167.857C1228.19 167.783 1228.2 167.656 1228.13 167.573L1226.29 165.494C1226.22 165.411 1226.09 165.404 1226.01 165.478L1225.83 165.644Z" fill="#112D43"/>
<path d="M1235.95 164.906C1235.87 164.98 1235.74 164.973 1235.67 164.89L1231.84 160.562C1231.77 160.479 1231.64 160.472 1231.56 160.546L1230.51 161.504C1230.46 161.548 1230.38 161.544 1230.34 161.495V161.495C1230.33 161.484 1230.32 161.475 1230.3 161.468L1229.55 161.078C1229.43 161.013 1229.41 160.843 1229.51 160.749L1233.46 157.169C1233.57 157.074 1233.73 157.115 1233.78 157.247L1234.08 158.046C1234.08 158.06 1234.09 158.073 1234.1 158.084V158.084C1234.14 158.133 1234.14 158.208 1234.09 158.253L1233.04 159.211C1232.95 159.285 1232.95 159.412 1233.02 159.495L1236.84 163.823C1236.92 163.906 1236.91 164.033 1236.83 164.107L1235.95 164.906Z" fill="#112D43"/>
</g>
<defs>
<clipPath id="clip0_1_3">
<rect width="1280" height="720" fill="white"/>
</clipPath>
</defs>
</svg>
