<svg width="1280" height="720" viewBox="0 0 1280 720" fill="none" xmlns="http://www.w3.org/2000/svg">
<rect width="1280" height="720" fill="#182534"/>
<path d="M1061.91 102.503C1074.88 102.503 1087.06 104.704 1098.44 109.106C1109.82 113.507 1119.79 119.504 1128.36 127.097C1136.93 134.69 1143.66 143.659 1148.55 154.002C1153.45 164.346 1155.9 175.351 1155.9 187.015C1155.9 210.344 1152.53 232.792 1145.8 254.36C1139.07 275.929 1129.58 296.121 1117.35 314.938C1105.11 333.755 1090.42 350.867 1073.29 366.273C1056.15 381.678 1037.12 394.883 1016.2 405.888C995.269 416.892 972.812 425.42 948.825 431.472C924.838 437.525 899.871 440.551 873.926 440.551C860.954 440.551 848.777 438.35 837.395 433.948C826.013 429.547 816.039 423.549 807.472 415.956C798.905 408.364 792.174 399.395 787.279 389.051C782.384 378.707 779.936 367.703 779.936 356.039C779.936 332.71 783.302 310.261 790.033 288.693C796.764 267.125 806.248 246.933 818.487 228.115C830.725 209.298 845.411 192.187 862.545 176.781C879.678 161.375 898.709 148.17 919.636 137.166C940.564 126.162 963.021 117.634 987.008 111.581C1011 105.529 1035.96 102.503 1061.91 102.503ZM1061.91 123.631C1038.16 123.631 1015.34 126.382 993.433 131.884C971.527 137.386 950.966 145.199 931.752 155.323C912.538 165.447 895.037 177.606 879.25 191.802C863.463 205.997 850 221.678 838.864 238.845C827.727 256.011 819.037 274.498 812.796 294.305C806.554 314.113 803.434 334.691 803.434 356.039C803.434 362.641 804.535 369.079 806.738 375.351C808.941 381.623 812.184 387.401 816.467 392.683L1102.66 135.35C1096.79 131.499 1090.36 128.583 1083.38 126.602C1076.41 124.621 1069.25 123.631 1061.91 123.631ZM873.926 419.423C897.669 419.423 920.493 416.672 942.4 411.17C964.306 405.668 984.867 397.855 1004.08 387.731C1023.29 377.607 1040.8 365.447 1056.58 351.252C1072.37 337.057 1085.83 321.376 1096.97 304.209C1108.11 287.043 1116.8 268.556 1123.04 248.748C1129.28 228.941 1132.4 208.363 1132.4 187.015C1132.4 180.412 1131.3 173.975 1129.09 167.703C1126.89 161.43 1123.65 155.653 1119.37 150.371L833.173 407.703C839.047 411.555 845.472 414.471 852.448 416.452C859.424 418.432 866.583 419.423 873.926 419.423Z" fill="#203246"/>
<path d="M446.479 221.408C451.262 221.408 455.752 222.22 459.949 223.843C464.145 225.466 467.823 227.677 470.982 230.477C474.14 233.276 476.622 236.583 478.427 240.397C480.232 244.211 481.135 248.268 481.135 252.569C481.135 261.171 479.894 269.448 477.412 277.4C474.93 285.352 471.433 292.798 466.921 299.736C462.408 306.674 456.993 312.983 450.676 318.663C444.358 324.344 437.342 329.213 429.625 333.27C421.909 337.327 413.629 340.472 404.785 342.703C395.94 344.935 386.735 346.051 377.169 346.051C372.385 346.051 367.896 345.239 363.699 343.616C359.502 341.993 355.825 339.782 352.666 336.982C349.507 334.183 347.026 330.876 345.221 327.062C343.416 323.248 342.513 319.191 342.513 314.89C342.513 306.288 343.754 298.011 346.236 290.059C348.718 282.107 352.215 274.661 356.727 267.723C361.24 260.785 366.655 254.476 372.972 248.796C379.289 243.115 386.306 238.246 394.022 234.189C401.739 230.132 410.019 226.987 418.863 224.756C427.708 222.524 436.913 221.408 446.479 221.408ZM446.479 229.198C437.725 229.198 429.31 230.213 421.232 232.241C413.155 234.27 405.574 237.151 398.49 240.884C391.405 244.616 384.952 249.1 379.131 254.334C373.31 259.568 368.347 265.35 364.24 271.679C360.134 278.009 356.93 284.825 354.629 292.128C352.328 299.432 351.177 307.019 351.177 314.89C351.177 317.325 351.583 319.698 352.395 322.011C353.208 324.323 354.403 326.454 355.983 328.401L461.506 233.52C459.34 232.099 456.971 231.024 454.399 230.294C451.826 229.564 449.187 229.198 446.479 229.198ZM377.169 338.261C385.923 338.261 394.338 337.246 402.416 335.218C410.493 333.189 418.074 330.308 425.158 326.575C432.243 322.843 438.695 318.359 444.516 313.125C450.337 307.891 455.301 302.109 459.407 295.78C463.514 289.45 466.717 282.634 469.019 275.331C471.32 268.027 472.471 260.44 472.471 252.569C472.471 250.134 472.065 247.761 471.252 245.448C470.44 243.135 469.244 241.005 467.665 239.058L362.142 333.939C364.308 335.36 366.677 336.435 369.249 337.165C371.821 337.895 374.461 338.261 377.169 338.261Z" fill="#203246"/>
<path d="M217.992 212.998C220.647 212.998 223.139 213.448 225.468 214.349C227.798 215.25 229.839 216.477 231.592 218.031C233.346 219.585 234.723 221.421 235.725 223.538C236.727 225.654 237.228 227.907 237.228 230.294C237.228 235.068 236.539 239.663 235.161 244.077C233.784 248.491 231.843 252.623 229.338 256.475C226.833 260.326 223.828 263.828 220.321 266.981C216.815 270.134 212.92 272.836 208.637 275.088C204.354 277.34 199.758 279.086 194.849 280.324C189.939 281.563 184.83 282.182 179.52 282.182C176.865 282.182 174.373 281.732 172.043 280.831C169.714 279.93 167.673 278.703 165.919 277.149C164.166 275.595 162.789 273.759 161.787 271.642C160.785 269.525 160.284 267.273 160.284 264.886C160.284 260.112 160.973 255.517 162.35 251.103C163.728 246.689 165.669 242.557 168.174 238.705C170.678 234.854 173.684 231.352 177.191 228.199C180.697 225.046 184.592 222.344 188.875 220.092C193.158 217.84 197.754 216.094 202.663 214.856C207.572 213.617 212.682 212.998 217.992 212.998ZM217.992 217.322C213.133 217.322 208.462 217.885 203.978 219.011C199.495 220.137 195.287 221.736 191.355 223.808C187.422 225.88 183.84 228.368 180.609 231.273C177.378 234.179 174.623 237.388 172.344 240.901C170.065 244.415 168.286 248.198 167.009 252.252C165.732 256.306 165.093 260.517 165.093 264.886C165.093 266.237 165.318 267.555 165.769 268.839C166.22 270.122 166.884 271.305 167.76 272.386L226.332 219.72C225.13 218.932 223.815 218.335 222.388 217.93C220.96 217.524 219.495 217.322 217.992 217.322ZM179.52 277.858C184.379 277.858 189.05 277.295 193.534 276.169C198.017 275.043 202.225 273.444 206.157 271.372C210.09 269.3 213.671 266.812 216.902 263.906C220.133 261.001 222.888 257.792 225.168 254.279C227.447 250.765 229.225 246.982 230.503 242.928C231.78 238.874 232.419 234.663 232.419 230.294C232.419 228.943 232.193 227.625 231.743 226.341C231.292 225.058 230.628 223.875 229.751 222.794L171.179 275.46C172.382 276.248 173.697 276.845 175.124 277.25C176.552 277.656 178.017 277.858 179.52 277.858Z" fill="#203246"/>
<path d="M1219.86 325.139C1222.57 325.139 1225.12 325.598 1227.49 326.517C1229.87 327.436 1231.95 328.689 1233.74 330.274C1235.53 331.859 1236.93 333.732 1237.96 335.892C1238.98 338.051 1239.49 340.349 1239.49 342.784C1239.49 347.655 1238.79 352.343 1237.38 356.846C1235.98 361.349 1233.99 365.565 1231.44 369.494C1228.88 373.423 1225.82 376.996 1222.24 380.213C1218.66 383.429 1214.69 386.186 1210.32 388.484C1205.95 390.782 1201.26 392.562 1196.25 393.826C1191.24 395.09 1186.03 395.721 1180.61 395.721C1177.91 395.721 1175.36 395.262 1172.99 394.343C1170.61 393.424 1168.53 392.172 1166.74 390.586C1164.95 389.001 1163.55 387.128 1162.52 384.969C1161.5 382.809 1160.99 380.511 1160.99 378.076C1160.99 373.205 1161.69 368.518 1163.1 364.014C1164.5 359.511 1166.48 355.295 1169.04 351.366C1171.59 347.437 1174.66 343.864 1178.24 340.648C1181.82 337.431 1185.79 334.674 1190.16 332.376C1194.53 330.079 1199.22 328.298 1204.23 327.034C1209.23 325.771 1214.45 325.139 1219.86 325.139ZM1219.86 329.55C1214.91 329.55 1210.14 330.125 1205.57 331.273C1200.99 332.422 1196.7 334.054 1192.69 336.167C1188.68 338.281 1185.02 340.82 1181.73 343.784C1178.43 346.748 1175.62 350.022 1173.29 353.606C1170.97 357.19 1169.15 361.05 1167.85 365.186C1166.55 369.322 1165.9 373.618 1165.9 378.076C1165.9 379.454 1166.13 380.798 1166.59 382.108C1167.05 383.418 1167.72 384.624 1168.62 385.727L1228.37 331.997C1227.15 331.193 1225.81 330.584 1224.35 330.171C1222.89 329.757 1221.4 329.55 1219.86 329.55ZM1180.61 391.31C1185.57 391.31 1190.34 390.736 1194.91 389.587C1199.49 388.438 1203.78 386.807 1207.79 384.693C1211.8 382.579 1215.46 380.04 1218.75 377.076C1222.05 374.112 1224.86 370.838 1227.18 367.254C1229.51 363.67 1231.32 359.81 1232.63 355.674C1233.93 351.538 1234.58 347.242 1234.58 342.784C1234.58 341.406 1234.35 340.062 1233.89 338.752C1233.43 337.442 1232.76 336.236 1231.86 335.133L1172.11 388.863C1173.33 389.667 1174.67 390.276 1176.13 390.69C1177.59 391.103 1179.08 391.31 1180.61 391.31Z" fill="#203246"/>
<path d="M711.725 168.141C713.756 168.141 715.663 168.486 717.445 169.175C719.228 169.864 720.79 170.804 722.131 171.993C723.473 173.182 724.527 174.586 725.293 176.206C726.06 177.826 726.443 179.549 726.443 181.376C726.443 185.029 725.916 188.544 724.862 191.922C723.808 195.299 722.323 198.461 720.406 201.408C718.49 204.355 716.19 207.034 713.507 209.447C710.824 211.859 707.844 213.927 704.567 215.65C701.289 217.373 697.773 218.709 694.016 219.657C690.26 220.604 686.351 221.078 682.288 221.078C680.256 221.078 678.349 220.734 676.567 220.044C674.785 219.355 673.223 218.416 671.881 217.227C670.54 216.038 669.486 214.633 668.719 213.014C667.952 211.394 667.569 209.671 667.569 207.844C667.569 204.191 668.096 200.675 669.15 197.298C670.204 193.92 671.69 190.758 673.606 187.812C675.522 184.865 677.822 182.185 680.505 179.773C683.188 177.36 686.168 175.293 689.446 173.569C692.723 171.846 696.24 170.511 699.996 169.563C703.752 168.615 707.662 168.141 711.725 168.141ZM711.725 171.45C708.007 171.45 704.432 171.881 701.002 172.742C697.571 173.604 694.352 174.827 691.343 176.413C688.334 177.998 685.594 179.902 683.121 182.125C680.649 184.348 678.541 186.804 676.797 189.492C675.053 192.18 673.692 195.075 672.715 198.177C671.737 201.279 671.249 204.501 671.249 207.844C671.249 208.878 671.421 209.886 671.766 210.868C672.111 211.851 672.619 212.755 673.29 213.582L718.107 173.285C717.187 172.682 716.18 172.225 715.088 171.915C713.996 171.605 712.875 171.45 711.725 171.45ZM682.288 217.77C686.006 217.77 689.58 217.339 693.01 216.477C696.441 215.616 699.66 214.392 702.669 212.807C705.678 211.222 708.419 209.317 710.891 207.094C713.363 204.872 715.471 202.416 717.215 199.728C718.959 197.04 720.32 194.145 721.297 191.043C722.275 187.941 722.764 184.719 722.764 181.376C722.764 180.342 722.591 179.334 722.246 178.351C721.901 177.369 721.393 176.464 720.723 175.637L675.906 215.935C676.826 216.538 677.832 216.994 678.924 217.304C680.017 217.615 681.138 217.77 682.288 217.77Z" fill="#203246"/>
</svg>
