<svg width="1280" height="720" viewBox="0 0 1280 720" fill="none" xmlns="http://www.w3.org/2000/svg">
<g clip-path="url(#clip0_78_6196)">
<rect width="1280" height="720" fill="#182534"/>
<rect width="539" height="539" transform="translate(719 -14)" fill="#182534"/>
<path d="M1147.17 80.631C1173.97 103.005 1185.7 131.343 1184.38 165.806C1181.42 242.777 1153.16 308.991 1099.73 364.102C1064.76 400.173 1022.45 424.869 974.293 439.386C943.249 448.743 911.508 453.553 879.173 450.726C851.152 448.276 828.789 434.398 811.882 412.002C797.476 392.919 791.967 371.195 792.569 347.422C794.193 283.28 814.76 225.764 853.31 174.834C877.052 143.465 906.332 118.012 940.703 98.5426C973.911 79.7296 1009.29 67.1397 1047.13 62.3449C1067.98 59.7009 1089.08 57.402 1110.04 62.5164C1123.62 65.831 1135.76 72.0775 1147.17 80.631Z" fill="#112D43"/>
<path d="M828.315 277.229C835.769 253.393 845.409 231.004 858.655 210.22C880.562 175.842 908.541 147.488 943.1 125.898C986.755 98.6254 1034.32 84.2112 1085.99 84.2051C1100.04 84.203 1113.08 87.9689 1125.22 95.2362C1128.97 97.479 1128.4 98.5131 1125.76 101.143C1079.02 147.738 1032.37 194.425 985.706 241.093C935.429 291.368 885.15 341.64 834.893 391.934C833.576 393.253 832.494 394.807 831.038 396.573C821.804 383.632 817.359 369.922 817.113 354.99C816.679 328.636 820.343 302.814 828.315 277.229Z" fill="#182534"/>
<path d="M963.087 298.641L1146.25 115.473C1153.69 125.084 1158.02 135.816 1159.13 147.577C1161.6 173.777 1158.14 199.517 1151.36 224.787C1134.77 286.601 1100.84 336.821 1049.4 374.932C1014.21 400.999 974.606 416.915 931.487 424.011C914.688 426.775 897.718 428.257 880.682 426.359C868.832 425.037 858.035 420.824 848.254 413.449L963.087 298.641Z" fill="#182534"/>
</g>
<defs>
<clipPath id="clip0_78_6196">
<rect width="1280" height="720" fill="white"/>
</clipPath>
</defs>
</svg>
