<svg width="1280" height="720" viewBox="0 0 1280 720" fill="none" xmlns="http://www.w3.org/2000/svg">
<rect width="1280" height="720" fill="#182534"/>
<path d="M1061.91 102.503C1074.88 102.503 1087.06 104.704 1098.44 109.106C1109.82 113.507 1119.79 119.504 1128.36 127.097C1136.93 134.69 1143.66 143.659 1148.55 154.002C1153.45 164.346 1155.9 175.351 1155.9 187.015C1155.9 210.344 1152.53 232.792 1145.8 254.36C1139.07 275.929 1129.58 296.121 1117.35 314.938C1105.11 333.755 1090.42 350.867 1073.29 366.273C1056.15 381.678 1037.12 394.883 1016.2 405.888C995.269 416.892 972.812 425.42 948.825 431.472C924.838 437.525 899.871 440.551 873.926 440.551C860.954 440.551 848.777 438.35 837.395 433.948C826.013 429.547 816.039 423.549 807.472 415.956C798.905 408.364 792.174 399.395 787.279 389.051C782.384 378.707 779.936 367.703 779.936 356.039C779.936 332.71 783.302 310.261 790.033 288.693C796.764 267.125 806.248 246.933 818.487 228.115C830.725 209.298 845.411 192.187 862.545 176.781C879.678 161.375 898.709 148.17 919.636 137.166C940.564 126.162 963.021 117.634 987.008 111.581C1011 105.529 1035.96 102.503 1061.91 102.503ZM1061.91 123.631C1038.16 123.631 1015.34 126.382 993.433 131.884C971.527 137.386 950.966 145.199 931.752 155.323C912.538 165.447 895.037 177.606 879.25 191.802C863.463 205.997 850 221.678 838.864 238.845C827.727 256.011 819.037 274.498 812.796 294.305C806.554 314.113 803.434 334.691 803.434 356.039C803.434 362.641 804.535 369.079 806.738 375.351C808.941 381.623 812.184 387.401 816.467 392.683L1102.66 135.35C1096.79 131.499 1090.36 128.583 1083.38 126.602C1076.41 124.621 1069.25 123.631 1061.91 123.631ZM873.926 419.423C897.669 419.423 920.493 416.672 942.4 411.17C964.306 405.668 984.867 397.855 1004.08 387.731C1023.29 377.607 1040.8 365.447 1056.58 351.252C1072.37 337.057 1085.83 321.376 1096.97 304.209C1108.11 287.043 1116.8 268.556 1123.04 248.748C1129.28 228.941 1132.4 208.363 1132.4 187.015C1132.4 180.412 1131.3 173.975 1129.09 167.703C1126.89 161.43 1123.65 155.653 1119.37 150.371L833.173 407.703C839.047 411.555 845.472 414.471 852.448 416.452C859.424 418.432 866.583 419.423 873.926 419.423Z" fill="#203246"/>
</svg>
