<svg width="200" height="189" viewBox="0 0 200 189" fill="none" xmlns="http://www.w3.org/2000/svg">
<rect width="200" height="188.034" fill="#112D43"/>
<path d="M66.1536 0.0365634C76.8335 -0.115515 85.893 2.93808 92.6534 11.3291C93.4399 12.3063 93.9624 12.4318 94.8254 11.3855C101.705 3.04469 110.759 -0.0925216 121.318 0.00207033C136.508 0.137948 151.7 0.032382 166.892 0.037608C179.672 0.0423115 187.525 7.88456 187.528 20.6581C187.535 45.3926 187.53 70.1271 187.53 95.252C183.478 93.3131 179.631 91.4558 175.767 89.6324C174.535 89.0502 175.053 87.9742 175.052 87.1197C175.021 67.7843 175.028 48.4483 175.028 29.1123C175.028 25.9767 175.079 22.8405 175.016 19.7065C174.923 15.1467 172.419 12.6063 167.865 12.5959C151.632 12.5572 135.398 12.4846 119.166 12.6147C107.963 12.704 100.068 20.9471 100.037 32.3687C99.9878 50.5722 99.9961 68.7756 100.069 86.9786C100.076 88.7011 99.6268 89.6083 98.0293 90.2987C94.5572 91.7986 91.1767 93.5128 87.5218 95.2515V92.1336C87.5218 72.5363 87.5254 52.9391 87.5207 33.3423C87.5176 20.3879 79.7129 12.5844 66.7635 12.5812C51.3978 12.5776 36.0332 12.5765 20.668 12.5823C14.7592 12.5838 12.5189 14.8452 12.5189 20.8055C12.5163 65.4869 12.5163 110.168 12.5189 154.849C12.5189 160.815 14.7592 163.086 20.6523 163.088C36.191 163.093 51.7301 163.09 67.2688 163.09C67.3557 163.09 67.4469 163.108 67.5287 163.087C74.0552 161.428 80.7692 164.09 87.3452 162.209C87.5056 164.286 87.6317 166.35 87.8364 168.407C87.9447 169.492 87.0431 169.643 86.4571 170.06C81.0375 173.921 74.9167 175.595 68.3511 175.616C52.0312 175.668 35.7107 175.7 19.3908 175.611C8.12644 175.548 0.0482471 167.422 0.0357462 156.097C-0.0132157 110.632 -0.00957186 65.1665 0.0326187 19.7012C0.043557 8.12339 8.1879 0.0815056 19.8007 0.0475361C35.1659 0.00259188 50.5306 0.0365634 66.1536 0.0365634Z" fill="#182534"/>
<path d="M188.241 109.608C190.84 110.858 193.25 112.052 195.695 113.168C198.271 114.344 199.975 116.129 200 119.116C200.025 122.207 198.265 124.1 195.655 125.354C180.953 132.41 166.245 139.456 151.543 146.513C149.198 147.639 146.89 148.861 144.375 149.568C137.989 151.364 131.872 150.588 125.921 147.703C113.988 141.919 102.016 136.214 90.0584 130.48C89.3672 130.149 88.6635 129.845 87.5233 129.328C87.5233 134 87.5077 138.372 87.5311 142.744C87.54 144.423 87.3316 146.012 86.4519 147.501C85.1575 149.689 83.1287 150.621 80.7858 150.41C78.3419 150.191 76.3392 148.913 75.5495 146.387C75.2177 145.327 75.0495 144.172 75.0427 143.059C75.0005 135.396 75.0552 127.732 75.0031 120.069C74.9828 117.093 75.9808 114.796 78.7399 113.473C95.0093 105.674 111.264 97.842 127.563 90.1069C134.921 86.6154 142.171 87.4087 149.365 90.9138C162.233 97.1825 175.163 103.323 188.241 109.608Z" fill="#182534"/>
<path d="M127.552 161.68C137.023 164.157 145.949 163.221 154.567 159.048C161.248 155.813 167.955 152.631 175.073 149.222C174.791 155.806 175.696 162.043 174.391 168.189C173.459 172.581 170.659 175.976 166.957 178.171C158.418 183.236 149.449 187.363 139.312 187.961C134.783 188.229 130.301 187.778 125.996 186.239C120.369 184.227 114.712 182.25 109.551 179.168C103.164 175.353 99.7362 169.834 99.9961 162.178C100.138 158.013 100.022 153.84 100.022 149.273C102.72 150.562 105.161 151.79 107.651 152.904C114.204 155.838 120.372 159.648 127.552 161.68Z" fill="#182534"/>
</svg>
